<svg xmlns="http://www.w3.org/2000/svg" viewBox="0 0 965.03 974.79"><title>logo-nature</title><path d="M671.58,107c-114.64.86-181.66,68.26-269.86,193.24-2.08,2.95-4.2,5.92-6.31,8.88a226.56,226.56,0,0,1,51.53-5.37c102.79,0.23,146,110.58,117.82,207.45s-189.91,191.14-310.27,185a260.59,260.59,0,0,1-54.3-8.25c45.6,55.83,94.58,102.92,169.76,124.39,131.68,37.6,304.34-6.76,400-117.75S906.67,486,908.24,356.31s-83.69-240-213.08-248.59Q683,106.91,671.58,107Z" transform="translate(-17.48 -25.26)" style="fill:none;stroke:#000;stroke-linecap:round;stroke-linejoin:round;stroke-width:7.19335412979126px"/><path d="M447.1,304c102.79,0.23,146,110.58,117.82,207.45S375,702.58,254.65,696.49,75.57,616.8,21.08,511.49c39.36,19,115.37-30.37,201.78-91.67S344.32,303.77,447.1,304Z" transform="translate(-17.48 -25.26)" style="fill:none;stroke:#000;stroke-linecap:round;stroke-linejoin:round;stroke-width:7.19335412979126px"/><path d="M568.07,818c27,60.27,19.94,117.6,9.35,164.49" transform="translate(-17.48 -25.26)" style="fill:none;stroke:#000;stroke-linecap:round;stroke-linejoin:round;stroke-width:7.19335412979126px"/><path d="M626.88,967.49c-1.64-25.46-18.76-49-39.65-67.95l-69.39,55.71" transform="translate(-17.48 -25.26)" style="fill:none;stroke:#000;stroke-linecap:round;stroke-linejoin:round;stroke-width:7.19335412979126px"/><path d="M463.33,826.32c14.77,59.34,15.18,116.12,0,170.13" transform="translate(-17.48 -25.26)" style="fill:none;stroke:#000;stroke-linecap:round;stroke-linejoin:round;stroke-width:7.19335412979126px"/><path d="M512.23,984.34c-2.56-30.91-20.18-56.76-38.33-78.34l-67.4,61.24" transform="translate(-17.48 -25.26)" style="fill:none;stroke:#000;stroke-linecap:round;stroke-linejoin:round;stroke-width:7.19335412979126px"/><circle cx="747.77" cy="280.58" r="38.92" style="stroke:#000;stroke-linecap:round;stroke-linejoin:round;stroke-width:7.193353652954102px"/><path d="M900,277.69c22.08,13.15,43.87,26.42,79,34.36-27.48,12.94-53.46,27.38-70.38,50.88Z" transform="translate(-17.48 -25.26)" style="fill:none;stroke:#000;stroke-linecap:round;stroke-linejoin:round;stroke-width:7.19335412979126px"/><path d="M706.24,267.84l125.23-4L833,345.77l-125.23,2.64Z" transform="translate(-17.48 -25.26)" style="stroke:#000;stroke-linecap:round;stroke-linejoin:round;stroke-width:7.000000476837158px"/><path d="M832.1,287.34l68.5-19" transform="translate(-17.48 -25.26)" style="fill:none;stroke:#000;stroke-linecap:round;stroke-linejoin:round;stroke-width:7px"/><path d="M705.35,293.55L593,299.63l-19.12,29.64" transform="translate(-17.48 -25.26)" style="fill:none;stroke:#000;stroke-linecap:round;stroke-linejoin:round;stroke-width:7px"/><path d="M376.71,175.35L484,208.78l216.43-18.29,166.44-42.55L900,109.27l-78.19,6.78-72.37,26.53L550.29,173.49,451,165.16l-59.32-12.7Z" transform="translate(-17.48 -25.26)" style="fill:none;stroke:#000;stroke-linecap:round;stroke-linejoin:round;stroke-width:7px"/><path d="M392.51,150.58L443.31,130l39.6-9.82,299.8-30,19.7,7.89,94.89,11.36" transform="translate(-17.48 -25.26)" style="fill:none;stroke:#000;stroke-linecap:round;stroke-linejoin:round;stroke-width:7px"/><path d="M491.08,148L525.43,55.3l30.8,9.93L653,62.76l122.41-16L784,38l19,68.28-49,19.56s-55,12.63-67.66,14.34-130.33,6.43-130.33,6.43Z" transform="translate(-17.48 -25.26)" style="fill:none;stroke:#000;stroke-linecap:round;stroke-linejoin:round;stroke-width:7px"/><path d="M526.23,53.42S570.38,43.31,574,43.08l61.92-3.92L742.25,28.76l38.88,7.59" transform="translate(-17.48 -25.26)" style="fill:none;stroke:#000;stroke-linecap:round;stroke-linejoin:round;stroke-width:7px"/></svg>