<svg xmlns="http://www.w3.org/2000/svg" viewBox="0 0 967.84 984.11"><title>logo-blog</title><path d="M752.08,118.76c-0.06,1.22-.16,2.48-0.33,3.85C749.5,140.9,695.26,105.82,598,148.2S471.39,234,460.34,229.59a10.48,10.48,0,0,1-3.54-2.42c-17.83,21.59-36,46-55.08,73.06-2.08,2.95-4.19,5.92-6.31,8.88a226.56,226.56,0,0,1,51.53-5.37c102.79,0.23,146,110.58,117.82,207.45s-189.91,191.14-310.27,185a260.58,260.58,0,0,1-54.3-8.25c45.6,55.83,94.58,102.92,169.76,124.39,131.68,37.6,304.33-6.76,400-117.75S906.67,486,908.24,356.31C909.57,246.71,848.93,151,752.08,118.76Z" transform="translate(-16.08 -17.34)" style="fill:#e8eaee;stroke:#343c3f;stroke-linecap:round;stroke-linejoin:round;stroke-width:10px"/><path d="M447.1,304c102.79,0.23,146,110.58,117.82,207.45S375,702.58,254.65,696.49,75.57,616.8,21.08,511.49c39.36,19,115.37-30.37,201.78-91.67S344.32,303.77,447.1,304Z" transform="translate(-16.08 -17.34)" style="fill:#e8eaee;stroke:#343c3f;stroke-linecap:round;stroke-linejoin:round;stroke-width:10px"/><path d="M568.07,818c27,60.27,19.94,117.6,9.35,164.49" transform="translate(-16.08 -17.34)" style="fill:none;stroke:#343c3f;stroke-linecap:round;stroke-linejoin:round;stroke-width:10px"/><path d="M626.88,967.49c-1.64-25.46-18.76-49-39.65-67.95l-69.39,55.71" transform="translate(-16.08 -17.34)" style="fill:none;stroke:#343c3f;stroke-linecap:round;stroke-linejoin:round;stroke-width:10px"/><path d="M463.33,826.32c14.77,59.34,15.18,116.12,0,170.13" transform="translate(-16.08 -17.34)" style="fill:none;stroke:#343c3f;stroke-linecap:round;stroke-linejoin:round;stroke-width:10px"/><path d="M512.23,984.34c-2.56-30.91-20.18-56.76-38.33-78.34l-67.4,61.24" transform="translate(-16.08 -17.34)" style="fill:none;stroke:#343c3f;stroke-linecap:round;stroke-linejoin:round;stroke-width:10px"/><circle cx="749.18" cy="288.5" r="38.92" style="fill:#343c3f;stroke:#343c3f;stroke-linecap:round;stroke-linejoin:round;stroke-width:10px"/><path d="M900,277.69c22.08,13.15,43.87,26.42,79,34.36-27.48,12.94-53.46,27.38-70.38,50.88Z" transform="translate(-16.08 -17.34)" style="fill:#e8eaee;stroke:#343c3f;stroke-linecap:round;stroke-linejoin:round;stroke-width:10px"/><path d="M459.95,167.81c35.85-54.49,48.14-123.54,96.15-142.31S698.41,77.43,698.41,77.43" transform="translate(-16.08 -17.34)" style="fill:#5e666a;stroke:#343c3f;stroke-linecap:round;stroke-linejoin:round;stroke-width:10px"/><path d="M598.59,118.94c-98.47,38.85-148.68,42.56-149.84,61.66s0.52,44.56,11.58,49,40.38-39,137.65-81.39,151.51-7.3,153.76-25.58-5-21.44-14-45.63-40.72,3.1-139.19,42h0Z" transform="translate(-16.08 -17.34)" style="fill:#5e666a;stroke:#343c3f;stroke-linecap:round;stroke-linejoin:round;stroke-width:10px"/><path d="M699.06,253.78l136.54-3.85L806.75,359.55l-88.46-1.92Z" transform="translate(-16.08 -17.34)" style="fill:none;stroke:#343c3f;stroke-linecap:round;stroke-linejoin:round;stroke-width:10px"/><path d="M827.61,287.65l73.6-21.87" transform="translate(-16.08 -17.34)" style="fill:none;stroke:#343c3f;stroke-linecap:round;stroke-linejoin:round;stroke-width:10px"/><path d="M702.9,290.32l-140.38-5.77-23.08,40.38,30.77,9.62" transform="translate(-16.08 -17.34)" style="fill:none;stroke:#343c3f;stroke-linecap:round;stroke-linejoin:round;stroke-width:10px"/></svg>