<svg xmlns="http://www.w3.org/2000/svg" viewBox="0 0 965.03 976.61"><title>logo-nature2</title><path d="M823.55,159L700.39,190.49,484,208.78,475,206c-23.77,26.39-47.64,57.87-73.3,94.24-2.08,2.95-4.19,5.92-6.31,8.88a226.56,226.56,0,0,1,51.53-5.37c102.79,0.23,146,110.58,117.82,207.45s-189.91,191.14-310.27,185a260.58,260.58,0,0,1-54.3-8.25c45.6,55.83,94.58,102.92,169.76,124.39,131.68,37.6,304.33-6.76,400-117.75S906.67,486,908.24,356.31C909.21,277,877.72,205,823.55,159Z" transform="translate(-17.48 -23.44)" style="fill:none;stroke:#000;stroke-linecap:round;stroke-linejoin:round;stroke-width:7px"/><path d="M447.1,304c102.79,0.23,146,110.58,117.82,207.45S375,702.58,254.65,696.49,75.57,616.8,21.08,511.49c39.36,19,115.37-30.37,201.78-91.67S344.32,303.77,447.1,304Z" transform="translate(-17.48 -23.44)" style="fill:none;stroke:#000;stroke-linecap:round;stroke-linejoin:round;stroke-width:7.19335412979126px"/><path d="M568.07,818c27,60.27,19.94,117.6,9.35,164.49" transform="translate(-17.48 -23.44)" style="fill:none;stroke:#000;stroke-linecap:round;stroke-linejoin:round;stroke-width:7.19335412979126px"/><path d="M626.88,967.49c-1.64-25.46-18.76-49-39.65-67.95l-69.39,55.71" transform="translate(-17.48 -23.44)" style="fill:none;stroke:#000;stroke-linecap:round;stroke-linejoin:round;stroke-width:7.19335412979126px"/><path d="M463.33,826.32c14.77,59.34,15.18,116.12,0,170.13" transform="translate(-17.48 -23.44)" style="fill:none;stroke:#000;stroke-linecap:round;stroke-linejoin:round;stroke-width:7.19335412979126px"/><path d="M512.23,984.34c-2.56-30.91-20.18-56.76-38.33-78.34l-67.4,61.24" transform="translate(-17.48 -23.44)" style="fill:none;stroke:#000;stroke-linecap:round;stroke-linejoin:round;stroke-width:7.19335412979126px"/><circle cx="747.77" cy="282.4" r="38.92" style="stroke:#000;stroke-linecap:round;stroke-linejoin:round;stroke-width:7.193353652954102px"/><path d="M900,277.69c22.08,13.15,43.87,26.42,79,34.36-27.48,12.94-53.46,27.38-70.38,50.88Z" transform="translate(-17.48 -23.44)" style="fill:none;stroke:#000;stroke-linecap:round;stroke-linejoin:round;stroke-width:7.19335412979126px"/><path d="M377.15,173.52L484.4,207l216.43-18.29,166.44-42.55,33.2-38.67-78.19,6.78-72.37,26.53L550.74,171.67l-99.27-8.34-59.32-12.7Z" transform="translate(-17.48 -23.44)" style="fill:none;stroke:#000;stroke-linecap:round;stroke-linejoin:round;stroke-width:7px"/><path d="M392.95,148.75l50.81-20.59,39.6-9.82,19.43-1.3M802.86,96.26l94.89,11.36" transform="translate(-17.48 -23.44)" style="fill:none;stroke:#000;stroke-linecap:round;stroke-linejoin:round;stroke-width:7px"/><path d="M491.52,146.16l34.35-92.69,30.8,9.93,96.75-2.47,122.41-16,8.59-8.77,19,68.28-49,19.56s-55,12.63-67.66,14.34-130.33,6.43-130.33,6.43Z" transform="translate(-17.48 -23.44)" style="fill:none;stroke:#000;stroke-linecap:round;stroke-linejoin:round;stroke-width:7px"/><path d="M526.67,51.6s44.16-10.11,47.8-10.34l61.92-3.92L742.7,26.94l38.88,7.59" transform="translate(-17.48 -23.44)" style="fill:none;stroke:#000;stroke-linecap:round;stroke-linejoin:round;stroke-width:7px"/><ellipse cx="766.42" cy="304.74" rx="71.17" ry="49.27" transform="translate(-38.63 36.35) rotate(-4.41)" style="stroke:#000;stroke-width:7px"/><path d="M697.08,299.27L589.42,275.55l-29.2,29.2" transform="translate(-17.48 -23.44)" style="fill:none;stroke:#000;stroke-linecap:round;stroke-linejoin:round;stroke-width:7px"/><path d="M837.59,293.8l65.69-32.85" transform="translate(-17.48 -23.44)" style="fill:none;stroke:#000;stroke-linecap:round;stroke-linejoin:round;stroke-width:7px"/></svg>