<svg xmlns="http://www.w3.org/2000/svg" viewBox="0 0 247.66 66.88"><title>node-logo</title><path d="M37.26,35.54a2,2,0,0,0-1-1.74L19.64,24.23A2,2,0,0,0,18.72,24H18.55a2,2,0,0,0-.92.26L1,33.8a2,2,0,0,0-1,1.74L0,61.31a1,1,0,0,0,.5.87,1,1,0,0,0,1,0l9.88-5.66a2,2,0,0,0,1-1.74v-12a2,2,0,0,1,1-1.74l4.21-2.42a2,2,0,0,1,1-.27,2,2,0,0,1,1,.27L23.84,41a2,2,0,0,1,1,1.74v12a2,2,0,0,0,1,1.74l9.88,5.66a1,1,0,0,0,1,0,1,1,0,0,0,.5-0.87l0-25.76" transform="translate(0 0)" style="fill:#2e2d2d"/><path d="M124.49,49a0.5,0.5,0,0,1-.25.43l-5.71,3.29a0.5,0.5,0,0,1-.5,0l-5.71-3.29a0.5,0.5,0,0,1-.25-0.43V42.36a0.5,0.5,0,0,1,.25-0.44l5.71-3.3a0.5,0.5,0,0,1,.5,0l5.71,3.3a0.5,0.5,0,0,1,.25.44V49ZM126,0.13a1,1,0,0,0-1.49.88V26.52a0.7,0.7,0,0,1-1.05.61l-4.16-2.4a2,2,0,0,0-2,0l-16.63,9.6a2,2,0,0,0-1,1.74v19.2a2,2,0,0,0,1,1.74l16.63,9.61a2,2,0,0,0,2,0L136,57a2,2,0,0,0,1-1.74V7.4a2,2,0,0,0-1-1.75L126,0.13" transform="translate(0 0)" style="fill:#2e2d2d"/><path d="M185.54,42.19a2,2,0,0,0,1-1.74V35.8a2,2,0,0,0-1-1.74L169,24.47a2,2,0,0,0-2,0l-16.63,9.6a2,2,0,0,0-1,1.74V55a2,2,0,0,0,1,1.74l16.52,9.41a2,2,0,0,0,2,0l10-5.55a1,1,0,0,0,0-1.75l-16.73-9.6a1,1,0,0,1-.51-0.87v-6a1,1,0,0,1,.5-0.87l5.21-3a1,1,0,0,1,1,0l5.21,3a1,1,0,0,1,.5.87v4.73a1,1,0,0,0,1.51.87l10-5.79" transform="translate(0 0)" style="fill:#2e2d2d"/><path d="M67.51,24.37a2,2,0,0,1,2,0L86.14,34a2,2,0,0,1,1,1.74V54.91a2,2,0,0,1-1,1.74l-16.63,9.6a2,2,0,0,1-2,0l-16.63-9.6a2,2,0,0,1-1-1.74V35.7a2,2,0,0,1,1-1.74l16.63-9.6" transform="translate(0 0)" style="fill:#72c42d"/><path d="M217.83,66.53a3.29,3.29,0,0,1-1.64-.44L210.95,63c-0.78-.44-0.4-0.59-0.14-0.68a10.44,10.44,0,0,0,2.37-1.08,0.4,0.4,0,0,1,.39,0l4,2.39a0.52,0.52,0,0,0,.49,0l15.68-9.05a0.49,0.49,0,0,0,.24-0.42V36.08a0.51,0.51,0,0,0-.24-0.43l-15.67-9a0.49,0.49,0,0,0-.48,0l-15.67,9a0.5,0.5,0,0,0-.25.43v18.1a0.48,0.48,0,0,0,.25.42l4.3,2.48c2.33,1.17,3.76-.21,3.76-1.59V37.62a0.45,0.45,0,0,1,.45-0.45h2a0.45,0.45,0,0,1,.45.45V55.49c0,3.11-1.69,4.89-4.64,4.89a6.71,6.71,0,0,1-3.61-1L200.5,57a3.31,3.31,0,0,1-1.64-2.86V36.08a3.3,3.3,0,0,1,1.64-2.86l15.68-9.06a3.43,3.43,0,0,1,3.29,0l15.68,9.06a3.31,3.31,0,0,1,1.65,2.86v18.1A3.32,3.32,0,0,1,235.16,57l-15.68,9.05a3.29,3.29,0,0,1-1.65.44" transform="translate(0 0)" style="fill:#72c42d"/><path d="M222.67,54.06c-6.86,0-8.3-3.15-8.3-5.79a0.45,0.45,0,0,1,.45-0.45h2a0.45,0.45,0,0,1,.45.38c0.31,2.06,1.22,3.11,5.37,3.11,3.3,0,4.71-.75,4.71-2.5,0-1-.4-1.76-5.53-2.26-4.29-.42-6.94-1.37-6.94-4.8,0-3.16,2.67-5.05,7.14-5.05,5,0,7.51,1.74,7.82,5.48a0.45,0.45,0,0,1-.45.49h-2a0.45,0.45,0,0,1-.44-0.35c-0.49-2.17-1.68-2.87-4.9-2.87-3.61,0-4,1.26-4,2.2,0,1.14.49,1.47,5.36,2.12s7.11,1.54,7.11,4.93-2.85,5.37-7.82,5.37" transform="translate(0 0)" style="fill:#72c42d"/><path d="M167.76,41.29a0.38,0.38,0,0,1,.39,0l3.19,1.84a0.39,0.39,0,0,1,.19.33v3.68a0.39,0.39,0,0,1-.19.33l-3.19,1.84a0.38,0.38,0,0,1-.39,0l-3.19-1.84a0.39,0.39,0,0,1-.19-0.33V43.47a0.38,0.38,0,0,1,.19-0.33l3.19-1.84" transform="translate(0 0)" style="fill:#72c42d"/><path d="M244.14,28.85h0.53a0.46,0.46,0,0,0,.51-0.48,0.41,0.41,0,0,0-.5-0.46h-0.54v0.94Zm-0.64-1.49h1.17a0.94,0.94,0,0,1,1.18.9,0.78,0.78,0,0,1-.64.83c0.47,0,.5.34,0.56,0.77a3.38,3.38,0,0,0,.18.9h-0.72c0-.16-0.13-1-0.13-1.07a0.3,0.3,0,0,0-.35-0.29h-0.59v1.36H243.5V27.37Zm-1.4,1.69a2.53,2.53,0,1,0,2.53-2.53A2.54,2.54,0,0,0,242.1,29.05Zm5.56,0a3,3,0,1,1-3-3,3,3,0,0,1,3,3" transform="translate(0 0)" style="fill:#72c42d"/></svg>