<svg xmlns="http://www.w3.org/2000/svg" viewBox="0 0 1887.52 501.64"><title>react</title><circle cx="280.9" cy="249.43" r="50.17" style="fill:#00d8ff"/><path d="M280.9,147.43c67.36,0,129.93,9.66,177.11,25.91,56.84,19.57,91.79,49.23,91.79,76.09,0,28-37,59.5-98.08,79.73-46.15,15.29-106.88,23.27-170.82,23.27-65.55,0-127.63-7.49-174.29-23.44C47.56,308.81,12,276.89,12,249.43c0-26.64,33.37-56.08,89.42-75.62C148.77,157.31,212.89,147.43,280.9,147.43Z" style="fill:none;stroke:#00d8ff;stroke-width:24px"/><path d="M192.11,198.72C225.76,140.38,265.39,91,303,58.24,348.38,18.78,391.54,3.32,414.8,16.74c24.25,14,33,61.81,20.07,124.8-9.81,47.62-33.23,104.21-65.18,159.6C336.94,357.92,299.44,408,262.32,440.41c-47,41.07-92.4,55.93-116.18,42.21-23.08-13.31-31.91-56.92-20.83-115.23C134.65,318.12,158.13,257.64,192.11,198.72Z" style="fill:none;stroke:#00d8ff;stroke-width:24px"/><path d="M192.19,301.28C158.45,243,135.46,184,125.88,135,114.34,76,122.5,30.92,145.75,17.46,170,3.44,215.8,19.71,263.89,62.4c36.36,32.28,73.69,80.84,105.72,136.17,32.84,56.73,57.46,114.21,67,162.58,12.12,61.21,2.31,108-21.45,121.74-23.06,13.35-65.25-.78-110.24-39.5C266.94,410.69,226.27,360.15,192.19,301.28Z" style="fill:none;stroke:#00d8ff;stroke-width:24px"/><text transform="translate(581.37 449.8)" style="isolation:isolate;font-size:500px;fill:#00d8ff;font-family:Helvetica">React</text></svg>