<?xml version="1.0" encoding="UTF-8" standalone="no"?>
<svg
   xmlns:dc="http://purl.org/dc/elements/1.1/"
   xmlns:cc="http://creativecommons.org/ns#"
   xmlns:rdf="http://www.w3.org/1999/02/22-rdf-syntax-ns#"
   xmlns:svg="http://www.w3.org/2000/svg"
   xmlns="http://www.w3.org/2000/svg"
   version="1.1"
   id="svg3426"
   viewBox="0 0 673.22835 673.22835"
   height="190mm"
   width="190mm">
  <defs
     id="defs3428" />
  <metadata
     id="metadata3431">
    <rdf:RDF>
      <cc:Work
         rdf:about="">
        <dc:format>image/svg+xml</dc:format>
        <dc:type
           rdf:resource="http://purl.org/dc/dcmitype/StillImage" />
        <dc:title></dc:title>
      </cc:Work>
    </rdf:RDF>
  </metadata>
  <g
     transform="translate(-36.6793,-195.40316)"
     id="layer1">
    <path
       id="path3480"
       d="m 391.80895,855.03803 c -2.06432,-2.53532 -6.01427,-16.77305 -7.52758,-27.13344 -0.78376,-5.36572 -1.71827,-11.6744 -2.07668,-14.01931 l -0.65167,-4.26346 -2.50476,3.04398 c -3.75276,4.56065 -9.08986,16.61174 -11.55099,26.08196 -2.43821,9.382 -5.45178,12.64538 -8.22845,8.91053 -1.00314,-1.3493 -1.39724,-3.95706 -1.02144,-6.7589 0.61138,-4.55818 0.59635,-4.57576 -18.10392,-21.16648 -10.29371,-9.13248 -19.13094,-16.34795 -19.63832,-16.03439 -2.67976,1.65619 0.0724,27.33717 4.19786,39.17117 2.38178,6.83216 2.46913,7.84533 0.81868,9.49577 -5.81995,5.81996 -12.10229,-9.73029 -13.98,-34.60379 -0.46493,-6.1589 -1.18715,-11.19799 -1.60493,-11.19799 -2.63752,0 -12.64502,21.38943 -14.87715,31.79753 -1.48496,6.92411 -3.83059,9.50243 -6.5737,7.22585 -5.87898,-4.87912 4.21064,-32.0359 18.35353,-49.39956 4.93882,-6.06355 5.4801,-7.44636 7.24719,-18.51469 1.05033,-6.57895 3.32521,-17.9109 5.05527,-25.18213 1.73005,-7.27121 2.67417,-13.62712 2.09803,-14.12423 -0.57613,-0.4971 -6.80957,-2.41235 -13.85207,-4.25607 C 252.71631,719.79735 199.1884,685.94586 162.64363,642.57292 148.5727,625.87292 130.4922,598.44316 120.02136,577.91109 97.156856,533.0765 85.888636,491.51385 82.690986,440.21863 c -0.29305,-4.70092 -0.62398,-5.00606 -23.1452,-21.34091 -12.99664,-9.4266 -22.85539,-17.40756 -22.86526,-18.51016 -0.02,-2.23056 -0.10366,-2.18807 27.42095,-13.92351 11.40215,-4.86144 22.1927,-9.52131 23.979,-10.35528 2.51552,-1.17441 3.98772,-3.61402 6.52927,-10.81972 7.855564,-22.27175 22.322274,-45.27596 38.894754,-61.84844 9.08795,-9.08795 26.06837,-22.24712 33.79172,-26.18728 2.51009,-1.28055 4.91359,-2.89425 5.34112,-3.58598 1.37999,-2.23289 -12.50704,-28.96457 -17.79312,-34.25065 -6.6573,-6.6573 -6.04341,-8.92241 2.55895,-9.44186 3.68264,-0.22238 9.65552,0.24618 13.27305,1.04124 5.46729,1.2016 7.82517,2.65905 13.97113,8.63582 4.06659,3.95463 7.75685,7.19024 8.20057,7.19024 0.44372,0 2.93047,-3.63135 5.5261,-8.06967 8.46937,-14.48196 21.4062,-23.85057 38.49888,-27.88014 15.79575,-3.72383 18.45946,-1.68669 9.74343,7.45154 -6.21455,6.51557 -12.50725,17.64863 -18.45741,32.65483 -2.67714,6.75171 -3.40912,9.90068 -2.44057,10.49927 0.76092,0.47028 8.33533,1.17962 16.83201,1.57632 40.98309,1.91346 84.89116,19.45363 117.74342,47.03549 9.38464,7.8791 22.91833,23.39983 54.95067,63.01862 13.94506,17.24774 17.07355,20.39844 26.82858,27.01909 6.07351,4.12203 21.19491,16.91726 33.60312,28.43385 35.95775,33.37392 55.61379,48.17708 81.41036,61.31097 22.21368,11.30971 53.94243,21.88331 77.94225,25.97423 16.89494,2.87985 39.51809,1.84545 56.18905,-2.56914 13.05479,-3.45701 16.15965,-3.39432 16.15965,0.32629 0,3.95642 -25.09631,52.92533 -33.89468,66.13662 -20.09654,30.17621 -49.75099,53.91023 -83.64437,66.94507 -8.88276,3.41615 -10.74026,4.79975 -24.38963,18.16712 -23.27368,22.79287 -45.78664,38.51027 -75.45851,52.68128 -24.88172,11.8833 -56.55642,21.07601 -82.27963,23.87941 -4.18069,0.45562 -8.08856,1.44454 -8.68417,2.19757 -2.59631,3.28253 -9.33102,44.07267 -7.89468,47.8157 0.36771,0.95822 10.48597,10.5529 22.48502,21.3215 11.99907,10.7686 21.81649,20.25791 21.81649,21.08736 0,1.89713 -2.47818,4.43485 -4.33081,4.43485 -0.77222,0 -9.71837,-7.40834 -19.88032,-16.46298 -10.16195,-9.05465 -19.09469,-16.46299 -19.85054,-16.46299 -2.56208,0 0.47577,23.13765 5.14627,39.19632 1.29563,4.45476 2.01702,8.98209 1.60312,10.06072 -0.89471,2.33157 -4.56262,2.58539 -6.31207,0.43679 z m -25.42421,-37.19415 c 2.28301,-4.52733 6.68715,-11.67249 9.78698,-15.87817 5.47384,-7.42656 5.67238,-8.00573 6.89778,-20.12142 0.69393,-6.86112 2.33312,-17.77425 3.64262,-24.25138 1.3095,-6.47715 2.38092,-12.37639 2.38092,-13.10942 0,-0.88654 -4.67958,-1.33279 -13.9762,-1.33279 -7.68691,0 -19.62257,-0.63569 -26.52369,-1.41266 -18.38344,-2.06969 -17.15744,-2.2723 -18.954,3.13218 -1.69191,5.08966 -6.87893,30.44018 -8.19225,40.03801 -0.91273,6.67023 -3.11342,4.02475 22.21435,26.70411 8.88359,7.95466 16.6966,14.46303 17.36227,14.46303 0.66566,0 3.07821,-3.70417 5.36122,-8.23149 z m 47.09791,-83.92339 c 33.95832,-4.92755 71.56158,-18.57108 99.92374,-36.25521 18.81311,-11.73017 51.29184,-38.08169 51.29184,-41.61548 0,-1.25616 -1.70465,-1.244 -8.84123,0.063 -13.81252,2.52975 -43.53625,3.41753 -58.77778,1.75555 -57.38917,-6.25787 -110.79761,-31.30062 -146.58071,-68.73039 -29.87915,-31.25413 -44.77054,-68.68567 -44.73354,-112.4438 0.0174,-20.5503 2.76737,-33.63339 10.37603,-49.36374 4.11341,-8.50417 6.97442,-12.30093 16.11155,-21.3811 17.36551,-17.25728 35.39608,-25.13188 57.45023,-25.09058 6.03642,0.011 13.96801,0.84277 17.62576,1.8477 3.65773,1.00491 6.88711,1.59043 7.17638,1.30116 1.42438,-1.42437 -45.27237,-57.11247 -55.78374,-66.5248 -23.82293,-21.33204 -57.19723,-37.64373 -92.18593,-45.05588 -8.04075,-1.70339 -18.94514,-2.82396 -32.01136,-3.28961 -10.89911,-0.38841 -19.81656,-1.07811 -19.81656,-1.53267 0,-2.12392 12.64723,-31.76994 16.98053,-39.8036 4.45878,-8.26629 4.66136,-9.027 2.40388,-9.027 -4.82092,0 -15.82643,6.59214 -22.22114,13.31016 -3.80705,3.99951 -8.13239,10.33517 -10.47781,15.34763 -2.19687,4.695 -4.41159,9.35952 -4.92157,10.36559 -1.74276,3.43799 -4.61143,2.64088 -7.45422,-2.0713 -5.18273,-8.59086 -9.92668,-13.86098 -14.64295,-16.26704 -4.58304,-2.33809 -11.50425,-3.29719 -10.66732,-1.47822 5.88563,12.79177 13.80896,27.59475 16.73437,31.26444 2.07857,2.6074 3.77922,5.16915 3.77922,5.69278 0,0.52362 -4.71512,3.46035 -10.47805,6.52605 -19.50599,10.3766 -39.52138,28.25367 -52.98649,47.32572 -42.143034,59.69163 -41.206494,151.46278 2.45521,240.58483 30.40484,62.06221 72.36321,106.29677 129.30024,136.31461 31.55915,16.63834 71.48674,28.02447 107.31428,30.60277 11.58435,0.83365 40.32113,-0.4365 53.65714,-2.37162 z M 170.19629,420.4044 c -25.15113,-13.23596 -17.05729,-50.41473 10.97533,-50.41473 14.81178,0 26.12949,11.48718 26.19205,26.58426 0.0412,9.9545 -5.48548,18.70242 -14.86328,23.52612 -5.60867,2.88498 -17.10236,3.0418 -22.3041,0.30435 z m 365.5214,230.06079 c 16.91122,-1.40133 29.21416,-3.79509 44.22406,-8.60459 34.17209,-10.94948 66.91705,-35.92715 87.03326,-66.38847 9.2581,-14.01924 29.18242,-52.47912 27.86799,-53.79355 -0.4178,-0.41779 -5.58837,0.2391 -11.49018,1.45978 -15.11933,3.12712 -38.53985,2.91583 -54.63185,-0.49289 -48.0834,-10.18535 -86.29875,-27.75423 -121.36421,-55.79522 -11.61299,-9.28662 -23.04481,-19.44257 -44.48515,-39.52031 -16.89332,-15.8197 -35.60549,-28.73154 -49.8232,-34.37919 -8.91955,-3.54308 -11.23586,-3.95082 -22.73589,-4.00206 -10.35131,-0.0461 -14.52782,0.50737 -21.79908,2.88897 -24.42373,7.9997 -45.01052,30.01798 -51.97495,55.58902 -3.00717,11.04132 -3.73341,38.78603 -1.38896,53.0619 5.87781,35.79116 18.54958,60.54104 44.02391,85.98535 15.70221,15.68371 31.0721,26.90726 50.65076,36.98665 25.45034,13.10222 50.11641,21.16105 76.82728,25.10081 11.5725,1.70689 17.24533,2.24342 30.48701,2.88339 2.3475,0.11341 10.70814,-0.32736 18.5792,-0.97959 z M 82.333966,422.12246 c 1.30551,-6.00527 4.60479,-36.40915 4.01496,-36.99899 -0.59129,-0.59127 -28.81963,10.84879 -35.82069,14.51702 l -3.21112,1.68248 4.73374,3.78034 c 9.63274,7.69265 26.73143,19.64569 28.18551,19.7034 0.82561,0.0328 1.76953,-1.17514 2.0976,-2.68425 z"
       style="fill:#000000" />
  </g>
</svg>
