<?xml version="1.0" encoding="UTF-8" standalone="no"?>
<svg
     xmlns:dc="http://purl.org/dc/elements/1.1/"
     xmlns:cc="http://creativecommons.org/ns#"
     xmlns:rdf="http://www.w3.org/1999/02/22-rdf-syntax-ns#"
     xmlns:svg="http://www.w3.org/2000/svg"
     xmlns="http://www.w3.org/2000/svg"
     version="1.1"
     id="svg2"
     viewBox="0 0 999.99999 999.99999"
     height="1000"
     width="1000">
    <defs
         id="defs4" />
    <metadata
         id="metadata7">
        <rdf:RDF>
            <cc:Work
                 rdf:about="">
                <dc:format>image/svg+xml</dc:format>
                <dc:type
                     rdf:resource="http://purl.org/dc/dcmitype/StillImage" />
                <dc:title></dc:title>
            </cc:Work>
        </rdf:RDF>
    </metadata>
    <g
         transform="translate(0,-52.362271)"
         id="layer1">
        <path
             id="path3352"
             d="M 586.32424,190.64949 C 242.23423,191.47285 240.75972,735.7823 37.437021,766.90327 342.51295,986.68804 668.02167,945.78414 761.68946,740.55783 855.35724,535.33151 930.41426,189.82612 586.32424,190.64949 Z"
             style="fill:none;fill-rule:evenodd;stroke:#000000;stroke-width:7;stroke-linecap:round;stroke-linejoin:round" />
    </g>
    <g
         id="layer2">
        <ellipse
             ry="31.890579"
             rx="31.890629"
             transform="scale(-1,1)"
             cy="351.54965"
             cx="-742.51367"
             id="path3349"
             style="fill:none;fill-rule:evenodd;stroke:#000000;stroke-width:7;stroke-linecap:round;stroke-linejoin:round" />
    </g>
    <g
         id="layer3">
        <path
             id="path3542"
             d="m 839.17625,351.97381 c 49.60765,22.83524 98.23119,23.71818 147.83884,34.74209 -47.24538,14.17359 -79.26043,9.90474 -150.12849,45.33872"
             style="fill:none;fill-rule:evenodd;stroke:#000000;stroke-width:7;stroke-linecap:round;stroke-linejoin:round" />
    </g>
    <g
         id="layer4">
        <path
             id="path4388"
             d="M 353.84615,198.07692 C 389.69346,143.58974 314.96521,96.459018 450,55.769231 585.03479,15.079444 627.25192,120.02557 627.25192,120.02557"
             style="fill:none;fill-rule:evenodd;stroke:#000000;stroke-width:7;stroke-linecap:round;stroke-linejoin:round" />
        <path
             id="path4390"
             d="m 519.21332,165.64434 c -98.4718,38.85203 -175.40284,26.11459 -176.55954,45.21519 -1.15671,19.1006 -2.78706,22.53566 4.73056,27.74855 0,0 85.60219,-17.09038 143.13612,-34.1116 57.53393,-17.02123 127.97566,-40.59489 148.72462,-49.9757 20.74897,-9.38081 128.1818,-48.10069 84.29196,-53.79438 -43.88984,-5.693699 -105.85192,26.06591 -204.32372,64.91794 z"
             style="fill:none;fill-rule:evenodd;stroke:#000000;stroke-width:7;stroke-linecap:round;stroke-linejoin:round" />
        <path
             id="path13212"
             d="m 604.32963,79.80193 c 41.79604,-13.703619 28.09242,-40.425678 41.79604,-11.648076 13.70362,28.777601 48.64785,19.870248 12.33326,28.777601 -36.31459,8.907355 -35.62941,10.962895 -35.62941,10.962895 z"
             style="fill:none;fill-rule:evenodd;stroke:#000000;stroke-width:7;stroke-linejoin:round;stroke-linecap:round" />
        <path
             id="path13216"
             d="m 384.0131,192.54565 c 55.75298,-37.21673 9.30986,-80.73971 94.66907,-103.398363 85.35921,-22.658651 110.50522,17.027533 124.03101,40.697673"
             style="fill:none;fill-rule:evenodd;stroke:#000000;stroke-width:7;stroke-linejoin:round;stroke-linecap:round" />
    </g>
    <g
         id="g3344"
         transform="translate(0,-52.362271)">
        <path
             style="fill:none;fill-rule:evenodd;stroke:#000000;stroke-width:7;stroke-linecap:round;stroke-linejoin:round"
             d="M 345.87686,510.0288 C 152.65915,510.48232 198.73936,755.99703 18.422682,758.20319 103.00598,840.31975 386.89397,966.16031 506.58717,814.33397 626.28036,662.50762 539.09454,509.57528 345.87686,510.0288 Z"
             id="path3346" />
    </g>
    <g
         id="layer5">
        <path
             d="m 394.58561,986.29952 21.92437,-45.78111 c 10.73863,27.34798 9.79116,26.40775 15.69663,46.75438 m -17.90504,1.0625 c 2.90622,-61.89287 3.30138,-56.08045 3.87672,-127.88458"
             style="fill:none;fill-rule:evenodd;stroke:#000000;stroke-width:7;stroke-linecap:round;stroke-linejoin:round"
             id="path3449" />
        <path
             d="m 473.7671,986.15761 20.21582,-45.13597 c 11.73116,26.93716 10.77031,24.61619 17.4156,44.73335 m -17.85423,1.7163 c 0.64178,-61.95773 1.24915,-56.16365 -0.8007,-127.94082"
             style="fill:none;fill-rule:evenodd;stroke:#000000;stroke-width:7;stroke-linecap:round;stroke-linejoin:round"
             id="path3547" />
    </g>
</svg>
