<svg xmlns="http://www.w3.org/2000/svg" xmlns:xlink="http://www.w3.org/1999/xlink" viewBox="0 0 3450.43 3537.34"><defs><linearGradient id="a" x1="3853.49" y1="-216.96" x2="4277.68" y2="-116.29" gradientTransform="matrix(1.96, 0, 0, -1.96, -4396.36, 2516.75)" gradientUnits="userSpaceOnUse"><stop offset="0" stop-color="#30a377"/><stop offset="1" stop-color="#fff"/></linearGradient><linearGradient id="b" x1="3150.66" y1="2011.74" x2="3301.67" y2="2698.6" gradientTransform="matrix(1.96, 0, 0, -1.96, -4396.36, 7389.79)" xlink:href="#a"/><linearGradient id="c" x1="3247.48" y1="-204.53" x2="3286.84" y2="118.53" xlink:href="#a"/><linearGradient id="d" x1="3853.49" y1="-216.96" x2="4277.68" y2="-116.29" gradientTransform="matrix(1.96, 0, 0, -1.96, -4397.53, 1832.79)" gradientUnits="userSpaceOnUse"><stop offset="0" stop-color="#505050"/><stop offset="1" stop-color="#fff"/></linearGradient><linearGradient id="e" x1="3150.66" y1="2011.74" x2="3301.67" y2="2698.6" gradientTransform="matrix(1.96, 0, 0, -1.96, -4397.53, 6705.82)" xlink:href="#d"/><linearGradient id="f" x1="3247.48" y1="-204.53" x2="3286.84" y2="118.53" xlink:href="#d"/><linearGradient id="g" x1="3853.49" y1="-216.96" x2="4277.68" y2="-116.29" gradientTransform="matrix(1.96, 0, 0, -1.96, -4442.98, 1135.89)" gradientUnits="userSpaceOnUse"><stop offset="0" stop-color="#37598b"/><stop offset="1" stop-color="#fff"/></linearGradient><linearGradient id="h" x1="3150.66" y1="2011.74" x2="3301.67" y2="2698.6" gradientTransform="matrix(1.96, 0, 0, -1.96, -4442.98, 6008.93)" xlink:href="#g"/><linearGradient id="i" x1="3244.37" y1="-201.47" x2="3309.59" y2="257.38" xlink:href="#g"/><radialGradient id="j" cx="985.49" cy="2302.2" r="233.53" gradientTransform="matrix(1.51, 1.01, 0.57, -0.85, -1015.52, 1689.02)" gradientUnits="userSpaceOnUse"><stop offset="0" stop-color="#aa9346"/><stop offset="1" stop-color="#877023"/></radialGradient><radialGradient id="k" cx="1340.86" cy="1895.05" r="22.85" gradientTransform="matrix(1.62, 1.28, 4.08, -5.17, -7797.96, 9038.37)" xlink:href="#j"/><linearGradient id="l" x1="1144.66" y1="2035.24" x2="1150.63" y2="1960.52" gradientTransform="matrix(1.29, 1, 1, -1.29, -1337.93, 2439.94)" gradientUnits="userSpaceOnUse"><stop offset="0" stop-color="#707070"/><stop offset="0.49" stop-color="#c8c8c8"/><stop offset="1" stop-color="#707070"/></linearGradient><radialGradient id="m" cx="1665.61" cy="2420.08" r="243.25" gradientTransform="matrix(1.79, 1.28, 0.37, -0.51, -1416.61, 338.43)" gradientUnits="userSpaceOnUse"><stop offset="0" stop-color="#dcdcdc"/><stop offset="1" stop-color="#969696"/></radialGradient><radialGradient id="n" cx="-472.97" cy="875.54" r="275.36" gradientTransform="matrix(0.66, 0.34, 1.03, -1.98, -104.33, 2885.89)" xlink:href="#j"/><linearGradient id="o" x1="888.34" y1="1917.35" x2="1325.14" y2="2541.91" gradientTransform="matrix(1.4, 0.13, 0.13, -1.4, -891.42, 3063.66)" gradientUnits="userSpaceOnUse"><stop offset="0" stop-color="#fff"/><stop offset="1"/></linearGradient><linearGradient id="p" x1="804.45" y1="2044.44" x2="1537.01" y2="2074.23" gradientTransform="matrix(1.4, 0.13, 0.13, -1.4, -891.42, 3063.66)" gradientUnits="userSpaceOnUse"><stop offset="0"/><stop offset="1" stop-color="#fff"/></linearGradient><linearGradient id="q" x1="1059.55" y1="2425.06" x2="962.08" y2="1766.79" xlink:href="#p"/><linearGradient id="r" x1="1223.13" y1="2499.32" x2="845.09" y2="1864" xlink:href="#p"/></defs><title>full-stack</title><path d="M3422.65,2391l-215,265.63-37.95,265.64-34.44,504.11,290.49-162.46,60.17-493.45Z" transform="translate(-46.47 -3.08)" style="stroke:#343c3f;stroke-linecap:round;stroke-linejoin:round;stroke-width:22px;fill:url(#a)"/><path d="M3131.73,3415.58l-556.55,113.84-1189-101.19L564,3314.39V2757.82l480.65,126.49,1163.69,63.25,442.71-37.95,518.6,12.65Z" transform="translate(-46.47 -3.08)" style="stroke:#343c3f;stroke-linecap:round;stroke-linejoin:round;stroke-width:22px;fill:url(#b)"/><path d="M2107.18,2302.45L1272.35,2391,956.13,2555.43,652.56,2644,573.6,2759l0.18,1.35,470.89,123.92,1163.69,63.25,442.71-37.95,515.37,12.57,2.46-2.66,38.71-262.89,215-265.63-455.36-25.3-860.12-63.24h0Z" transform="translate(-46.47 -3.08)" style="stroke:#343c3f;stroke-linecap:round;stroke-linejoin:round;stroke-width:22px;fill:url(#c)"/><path d="M3421.48,1707l-215,265.63-37.95,265.64-34.44,504.11L3424.55,2580l60.17-493.45Z" transform="translate(-46.47 -3.08)" style="stroke:#343c3f;stroke-linecap:round;stroke-linejoin:round;stroke-width:22px;fill:url(#d)"/><path d="M3130.56,2731.62L2574,2845.46,1385,2744.26,562.85,2630.42V2073.86l480.65,126.49,1163.69,63.25,442.71-37.95,518.6,12.65Z" transform="translate(-46.47 -3.08)" style="stroke:#343c3f;stroke-linecap:round;stroke-linejoin:round;stroke-width:22px;fill:url(#e)"/><path d="M2106,1618.48L1271.18,1707,955,1871.47,651.39,1960l-79,115.06,0.18,1.35,470.89,123.92,1163.69,63.25,442.71-37.95,515.37,12.57,2.46-2.66,38.71-262.89,215-265.63-455.36-25.3L2106,1618.48h0Z" transform="translate(-46.47 -3.08)" style="stroke:#343c3f;stroke-linecap:round;stroke-linejoin:round;stroke-width:22px;fill:url(#f)"/><path d="M3376,1010.13l-215,265.63-37.95,265.64-34.44,504.11,290.49-162.46,60.17-493.45Z" transform="translate(-46.47 -3.08)" style="stroke:#343c3f;stroke-linecap:round;stroke-linejoin:round;stroke-width:22px;fill:url(#g)"/><path d="M3085.11,2034.72l-556.55,113.84-1189-101.19L517.4,1933.53V1377l480.65,126.49,1163.69,63.25,442.71-37.95,518.6,12.65Z" transform="translate(-46.47 -3.08)" style="stroke:#343c3f;stroke-linecap:round;stroke-linejoin:round;stroke-width:22px;fill:url(#h)"/><path d="M2060.56,921.59l-834.82,88.55L909.52,1174.58l-303.57,88.54-79,115.06,0.18,1.35,470.89,123.92,1163.69,63.25,442.71-37.95,515.37,12.57,2.46-2.66L3161,1275.77l215-265.63-455.36-25.3-860.12-63.24h0Z" transform="translate(-46.47 -3.08)" style="stroke:#343c3f;stroke-linecap:round;stroke-linejoin:round;stroke-width:22px;fill:url(#i)"/><path d="M1558.81,453l247.63,112.19,334.83,327.34-110.34,141.9-414.57-242-205.9-200.3Z" transform="translate(-46.47 -3.08)" style="stroke:#343c3f;stroke-linecap:round;stroke-linejoin:round;stroke-width:22px;fill:url(#j)"/><path d="M2176.15,847.41L2133,884.47l8.27,8.08-110.35,141.91-9.39-5.48-3.52,35.45,43.65,30.4L2133,980.32l83.85-94.17-40.71-38.74h0Z" transform="translate(-46.47 -3.08)" style="stroke:#343c3f;stroke-linecap:round;stroke-linejoin:round;stroke-width:22px;fill:url(#k)"/><path d="M2207.47,976.43L2166.37,952l-6.6-1.73L2133,980.32l-39.09,62.74,21.84,22.32,28.79,4.85,29.12-37.45Z" transform="translate(-46.47 -3.08)" style="stroke:#343c3f;stroke-linecap:round;stroke-linejoin:round;stroke-width:22px;fill:url(#l)"/><path d="M2747.78,1342.25l-44.52,5.57L2583,1251.44l-118.46-43.31-149.88-139.51-126.79-59.52-14.21,23.69-6.75,8.68,119.53,59.75L2445.07,1259l150.66,42.52,78.52,98.38,3.38,39.95,121.25,65.58,49.88-53.07-101-110.1h0Z" transform="translate(-46.47 -3.08)" style="stroke:#343c3f;stroke-linecap:round;stroke-linejoin:round;stroke-width:22px;fill:url(#m)"/><path d="M101.8,1593.53l310.41,92,96.93-364.6L888.61,554l43.54-178.19L756.42,305.14l-77.2,47.62L505.09,765,57.47,1480.2Z" transform="translate(-46.47 -3.08)" style="stroke:#343c3f;stroke-linecap:round;stroke-linejoin:round;stroke-width:22px;fill:url(#n)"/><path d="M607.41,14.08L743,92.4l328.35,129.67,160.82-13.51L805.48,20.07Z" transform="translate(-46.47 -3.08)" style="stroke:#343c3f;stroke-linecap:round;stroke-linejoin:round;stroke-width:22px;fill:url(#o)"/><path d="M1071.36,222.07L989,370l36.5,92.06,165.66,21.09,86-183-45-91.59Z" transform="translate(-46.47 -3.08)" style="stroke:#343c3f;stroke-linecap:round;stroke-linejoin:round;stroke-width:22px;fill:url(#p)"/><path d="M1025.46,462.06L989,370,520.73,182.59l81.93,158.66Z" transform="translate(-46.47 -3.08)" style="stroke:#343c3f;stroke-linecap:round;stroke-linejoin:round;stroke-width:22px;fill:url(#q)"/><path d="M607.41,14.08l-86.68,168.5L989,370l82.4-147.93L743,92.4Z" transform="translate(-46.47 -3.08)" style="stroke:#343c3f;stroke-linecap:round;stroke-linejoin:round;stroke-width:22px;fill:url(#r)"/></svg>