<svg xmlns="http://www.w3.org/2000/svg" viewBox="0 0 471.81 336.87"><title>sun</title><path d="M208.22,54.12C142.91,31.34,156.58-46.12,95.82,38.93S7.73,152.85,33.55,195.37,41.14,278.91,136.83,288s142.77,51.64,221.75-12.15,83.54-63.79,82-121.51,16.71-71.39-47.08-79-158,0-185.3-21.26h0Z" transform="translate(0 0)" style="fill:#eeed00"/><path d="M265.93,31.34c-92.65,39.49-62.27,53.16-126.06,38S68.48,17.67,50.26,60.2-9,111.84,24.44,162s77.46,1.52,85.05,63.79-45.57,56.2,12.15,74.42,9.11,65.31,77.46,9.11,71.39-77.46,130.62-59.23S481.61,254.61,471,199.93s24.3-15.19-38-69.87S285.68,34.38,265.93,31.34h0Z" transform="translate(0 0)" style="fill:#eebd63"/><path d="M223.4,34.38C170.25,45,187,1,129.24,64.75S53.3,95.13,54.81,155.88,15.32,219.67,77.6,247s25.82,18.23,94.17,44S275,345.74,308.46,324.47s24.3-4.56,48.6-51.64,31.9-51.64,38-91.13,47.08-63.79,0-88.09S351,79.94,288.71,57.16,231,35.9,223.4,34.38h0Z" transform="translate(0 0)" style="fill:#ee81b7"/><path d="M346.43,55.64C246.19,89.05,212.77,107.28,150.5,92.09s-98.72-38-82,10.63S73,180.18,73,228.79s-21.16,58.73,28.86,72.9c77.67,22,101.76-80.5,170.11-44s82,85.05,101.76,39.49,41-50.12,19.74-95.69S398.07,67.79,346.43,55.64Z" transform="translate(0 0)" style="fill:#bd81b7"/><path d="M208.22,19.19c-37.08,30.63-83.54,69.87-132.14,83.54s-100.24,38-63.79,75.94,85.05,15.19,110.87,59.23S98.86,309.29,193,326s68.35,19.74,129.1-31.9,161-28.86,123-83.54S361.62,199.93,329.72,124,245.29-11.44,208.22,19.19Z" transform="translate(0 0)" style="fill:#eac915"/></svg>