<svg xmlns="http://www.w3.org/2000/svg" viewBox="0 0 1000 1000"><title>logo-chill</title><polygon points="843.54 563.18 831.42 541.97 802.73 575.29 651.12 763.18 787.48 770.76 823.85 787.97 805.66 737.42 843.54 563.18" style="fill:#5f7aa2;stroke:#343c3f;stroke-linecap:round;stroke-linejoin:round;stroke-width:10px"/><path d="M671.58,107c-114.64.86-181.66,68.26-269.86,193.24-2.08,2.95-4.2,5.92-6.31,8.88a226.56,226.56,0,0,1,51.53-5.37c102.79,0.23,146,110.58,117.82,207.45s-189.91,191.14-310.27,185a260.59,260.59,0,0,1-54.3-8.25c45.6,55.83,94.58,102.92,169.76,124.39,131.68,37.6,304.34-6.76,400-117.75S906.67,486,908.24,356.31s-83.69-240-213.08-248.59Q683,106.91,671.58,107Z" style="fill:#e8eaee;stroke:#343c3f;stroke-linecap:round;stroke-linejoin:round;stroke-width:10px"/><path d="M568.07,818c27,60.27,19.94,117.6,9.35,164.49" style="fill:none;stroke:#343c3f;stroke-linecap:round;stroke-linejoin:round;stroke-width:10px"/><path d="M626.88,967.49c-1.64-25.46-18.76-49-39.65-67.95l-69.39,55.71" style="fill:none;stroke:#343c3f;stroke-linecap:round;stroke-linejoin:round;stroke-width:10px"/><path d="M463.33,826.32c14.77,59.34,15.18,116.12,0,170.13" style="fill:none;stroke:#343c3f;stroke-linecap:round;stroke-linejoin:round;stroke-width:10px"/><path d="M512.23,984.34c-2.56-30.91-20.18-56.76-38.33-78.34l-67.4,61.24" style="fill:none;stroke:#343c3f;stroke-linecap:round;stroke-linejoin:round;stroke-width:10px"/><circle cx="765.26" cy="305.84" r="38.92" style="fill:#343c3f;stroke:#343c3f;stroke-linecap:round;stroke-linejoin:round;stroke-width:10px"/><path d="M900,277.69c22.08,13.15,43.87,26.42,79,34.36-27.48,12.94-53.46,27.38-70.38,50.88Z" style="fill:#e8eaee;stroke:#343c3f;stroke-linecap:round;stroke-linejoin:round;stroke-width:10px"/><line x1="178.26" y1="681.08" x2="543.64" y2="295" style="fill:#b99200;stroke:#343c3f;stroke-linecap:round;stroke-linejoin:round;stroke-width:10px"/><line x1="543.64" y1="295" x2="178.26" y2="681.08" style="fill:#b99200;stroke:#343c3f;stroke-linecap:round;stroke-linejoin:round;stroke-width:10px"/><polyline points="178.26 681.08 214.85 731.36 334.55 740.46 437.58 767.73 593.64 763.18 638.32 772.81 640.61 711.67 669.39 546.51 667.88 422.27 537.58 277.69 393.64 251.06 178.26 681.08" style="fill:#37598b;stroke:#343c3f;stroke-linecap:round;stroke-linejoin:round;stroke-width:10px"/><path d="M447.1,304c102.79,0.23,146,110.58,117.82,207.45S375,702.58,254.65,696.49,75.57,616.8,21.08,511.49c39.36,19,115.37-30.37,201.78-91.67S344.32,303.77,447.1,304Z" style="fill:#e8eaee;stroke:#343c3f;stroke-linecap:round;stroke-linejoin:round;stroke-width:10px"/><polygon points="406.5 266.91 568.07 332.88 593.64 485.91 517.84 616.21 446.67 500 351.21 420.76 322.42 328.33 406.5 266.91" style="fill:#44b78b;stroke:#343c3f;stroke-linecap:round;stroke-linejoin:round;stroke-width:10px"/><path d="M543.64,48c-91.87,33.35-64.86,108.3-64.86,108.3L818,114.07S684.5-3.12,543.64,48Z" style="fill:#5e666a;stroke:#343c3f;stroke-linecap:round;stroke-linejoin:round;stroke-width:10px"/><path d="M478.77,156.32c11.52-9.4,493.47-69.87,504.35-34.09,8.58,28.21-499.44,77.32-510,68.18-10.92-9.47,5.62-34.09,5.62-34.09" style="fill:#5e666a;stroke:#343c3f;stroke-linecap:round;stroke-linejoin:round;stroke-width:10px"/></svg>