<?xml version="1.0" encoding="UTF-8" standalone="no"?>
<svg
     xmlns:dc="http://purl.org/dc/elements/1.1/"
     xmlns:cc="http://creativecommons.org/ns#"
     xmlns:rdf="http://www.w3.org/1999/02/22-rdf-syntax-ns#"
     xmlns:svg="http://www.w3.org/2000/svg"
     xmlns="http://www.w3.org/2000/svg"
     xmlns:sodipodi="http://sodipodi.sourceforge.net/DTD/sodipodi-0.dtd"
     xmlns:inkscape="http://www.inkscape.org/namespaces/inkscape"
     viewBox="0 0 999.99999 999.99998"
     height="1000"
     width="1000"
     version="1.1"
     id="svg8129"
     inkscape:version="0.91 r13725"
     sodipodi:docname="logo-nature2.svg">
    <metadata
         id="metadata8153">
        <rdf:RDF>
            <cc:Work
                 rdf:about="">
                <dc:format>image/svg+xml</dc:format>
                <dc:type
                     rdf:resource="http://purl.org/dc/dcmitype/StillImage" />
                <dc:title></dc:title>
            </cc:Work>
        </rdf:RDF>
    </metadata>
    <defs
         id="defs8151" />
    <sodipodi:namedview
         pagecolor="#ffffff"
         bordercolor="#666666"
         borderopacity="1"
         objecttolerance="10"
         gridtolerance="10"
         guidetolerance="10"
         inkscape:pageopacity="0"
         inkscape:pageshadow="2"
         inkscape:window-width="640"
         inkscape:window-height="480"
         id="namedview8149"
         showgrid="false"
         inkscape:zoom="0.548"
         inkscape:cx="500"
         inkscape:cy="500"
         inkscape:current-layer="layer4" />
    <g
         inkscape:groupmode="layer"
         id="layer1"
         inkscape:label="Main"
         sodipodi:insensitive="true">
        <g
             transform="matrix(0.97312777,0,0,0.97311315,11.11902,61.548416)"
             id="g8131">
            <path
                 style="fill:none;fill-rule:evenodd;stroke:#000000;stroke-width:7;stroke-linecap:round;stroke-linejoin:round"
                 d="m 823.55469,159.00977 -123.16211,31.48437 -216.42969,18.28711 -8.94141,-2.78711 c -23.77133,26.3937 -47.64154,57.87283 -73.30468,94.23633 -2.08083,2.94843 -4.19487,5.91507 -6.30664,8.87891 15.31367,-3.51429 32.22495,-5.41175 51.52734,-5.36915 102.78708,0.22684 146.00617,110.57999 117.81641,207.44922 -28.18976,96.86923 -189.90916,191.13705 -310.27149,185.04297 -19.66408,-0.99562 -37.67316,-3.80342 -54.29687,-8.24609 45.60425,55.83282 94.58095,102.92129 169.75781,124.38672 131.67983,37.59884 304.33478,-6.75873 399.98633,-117.75391 95.65154,-110.9952 136.73996,-208.57039 138.31445,-338.3125 0.96234,-79.29996 -30.52263,-151.31899 -84.68945,-197.29687 z"
                 transform="matrix(1.0276143,0,0,1.0276297,-11.426064,-63.248982)"
                 id="path8133"
                 inkscape:connector-curvature="0" />
            <path
                 d="m 448.023,249.14714 c 105.62547,0.2331 150.03664,113.63221 121.06844,213.17791 -28.9682,99.5457 -195.15316,196.41916 -318.83921,190.1567 C 126.56619,646.21929 66.22719,570.59626 10.236224,462.37771 50.68732,481.85475 128.79439,431.16627 217.586,368.17196 306.37759,305.17764 342.39752,248.91402 448.023,249.14714 Z"
                 style="fill:none;fill-rule:evenodd;stroke:#000000;stroke-width:7.19335413;stroke-linecap:round;stroke-linejoin:round"
                 id="path8135"
                 inkscape:connector-curvature="0" />
            <path
                 d="m 572.32776,777.33117 c 27.7938,61.93219 20.49435,120.848 9.6036,169.03027"
                 style="fill:none;fill-rule:evenodd;stroke:#000000;stroke-width:7.19335413;stroke-linecap:round;stroke-linejoin:round"
                 id="path8137"
                 inkscape:connector-curvature="0" />
            <path
                 d="m 632.76155,930.97393 c -1.68166,-26.15927 -19.2815,-50.33049 -40.74458,-69.82627 l -71.30304,57.24496"
                 style="fill:none;fill-rule:evenodd;stroke:#000000;stroke-width:7.19335413;stroke-linecap:round;stroke-linejoin:round"
                 id="path8139"
                 inkscape:connector-curvature="0" />
            <path
                 d="m 464.70013,785.90633 c 15.18214,60.98108 15.60151,119.33193 0,174.82841"
                 style="fill:none;fill-rule:evenodd;stroke:#000000;stroke-width:7.19335413;stroke-linecap:round;stroke-linejoin:round"
                 id="path8141"
                 inkscape:connector-curvature="0" />
            <path
                 d="m 514.95179,948.2925 c -2.63281,-31.76196 -20.73572,-58.32762 -39.38643,-80.49966 l -69.26579,62.9361"
                 style="fill:none;fill-rule:evenodd;stroke:#000000;stroke-width:7.19335413;stroke-linecap:round;stroke-linejoin:round"
                 id="path8143"
                 inkscape:connector-curvature="0" />
            <circle
                 cy="251.03983"
                 cx="774.96344"
                 style="fill:#000000;fill-rule:evenodd;stroke:#000000;stroke-width:7.19335365;stroke-linecap:round;stroke-linejoin:round"
                 id="ellipse8145"
                 r="40" />
            <path
                 d="m 913.37659,222.1105 c 22.69336,13.51366 45.08345,27.14864 81.14963,35.31301 -28.23796,13.29928 -54.93472,28.13979 -72.32164,52.29043 z"
                 style="fill:none;fill-rule:evenodd;stroke:#000000;stroke-width:7.19335413;stroke-linecap:round;stroke-linejoin:round"
                 id="path8147"
                 inkscape:connector-curvature="0" />
        </g>
    </g>
    <g
         inkscape:groupmode="layer"
         id="layer2"
         inkscape:label="Glasses"
         sodipodi:insensitive="true"
         style="display:none">
        <path
             style="fill:#000000;fill-rule:evenodd;stroke:#000000;stroke-width:7.00000048;stroke-linecap:round;stroke-linejoin:round"
             d="m 706.24237,267.843 125.23114,-3.96234 1.49085,81.88823 -125.23114,2.64157 z"
             id="path13090"
             inkscape:connector-curvature="0" />
        <path
             style="fill:none;fill-rule:evenodd;stroke:#000000;stroke-width:7;stroke-linecap:round;stroke-linejoin:round"
             d="m 832.09519,287.33716 68.50072,-18.95253"
             id="path13092"
             inkscape:connector-curvature="0"
             sodipodi:nodetypes="cc" />
        <path
             style="fill:none;fill-rule:evenodd;stroke:#000000;stroke-width:7;stroke-linecap:round;stroke-linejoin:round"
             d="m 705.34582,293.54841 -112.34337,6.08056 -19.11834,29.64195"
             id="path13094"
             inkscape:connector-curvature="0"
             sodipodi:nodetypes="ccc" />
    </g>
    <g
         inkscape:groupmode="layer"
         id="layer3"
         inkscape:label="Hat">
        <path
             style="fill:none;fill-rule:evenodd;stroke:#000000;stroke-width:7;stroke-linecap:round;stroke-linejoin:round"
             d="m 377.14888,173.52489 107.25608,33.42921 216.42997,-18.28738 166.4379,-42.54631 33.20438,-38.67387 -78.19464,6.78403 -72.37215,26.52829 -199.17388,30.90737 -99.26618,-8.33687 -59.31599,-12.69718 z"
             id="path13097-1"
             inkscape:connector-curvature="0" />
        <path
             style="fill:none;fill-rule:evenodd;stroke:#000000;stroke-width:7;stroke-linecap:round;stroke-linejoin:round"
             d="m 392.94954,148.75331 50.80672,-20.59039 39.60395,-9.8238 19.42533,-1.29916 m 300.07353,-20.777457 94.88639,11.357157"
             id="path13099-4"
             inkscape:connector-curvature="0"
             sodipodi:nodetypes="cccccc" />
        <path
             style="fill:none;fill-rule:evenodd;stroke:#000000;stroke-width:7;stroke-linecap:round;stroke-linejoin:round"
             d="m 491.52323,146.16319 34.35253,-92.686747 30.7994,9.93321 96.75253,-2.474703 122.40919,-15.985794 8.58645,-8.772317 18.95511,68.280911 -49.04327,19.5644 c 0,0 -54.96843,12.62598 -67.65886,14.34448 -12.69044,1.71849 -130.32864,6.43106 -130.32864,6.43106 z"
             id="path13101-7"
             inkscape:connector-curvature="0" />
        <path
             style="fill:none;fill-rule:evenodd;stroke:#000000;stroke-width:7;stroke-linecap:round;stroke-linejoin:round"
             d="m 526.67092,51.597571 c 0,0 44.15686,-10.112339 47.79918,-10.34317 l 61.91958,-3.924133 106.30727,-10.394144 38.87922,7.592674"
             id="path13103-1"
             inkscape:connector-curvature="0"
             sodipodi:nodetypes="csccc" />
    </g>
    <g
         inkscape:groupmode="layer"
         id="layer4"
         inkscape:label="Glasses2">
        <ellipse
             style="fill:#000000;fill-rule:evenodd;stroke:#000000;stroke-width:7"
             id="path17742"
             cx="740.74548"
             cy="362.72589"
             rx="71.167885"
             ry="49.270073"
             transform="matrix(0.99704443,-0.07682706,0.07682706,0.99704443,0,0)" />
        <path
             style="fill:none;fill-rule:evenodd;stroke:#000000;stroke-width:7;stroke-linecap:round;stroke-linejoin:round"
             d="M 697.08029,299.27007 589.41606,275.54745 560.21898,304.74453"
             id="path17744"
             inkscape:connector-curvature="0"
             sodipodi:nodetypes="ccc" />
        <path
             style="fill:none;fill-rule:evenodd;stroke:#000000;stroke-width:7;stroke-linecap:round;stroke-linejoin:round"
             d="m 837.59124,293.79562 65.69343,-32.84671"
             id="path17746"
             inkscape:connector-curvature="0"
             sodipodi:nodetypes="cc" />
    </g>
</svg>
