<?xml version="1.0" encoding="UTF-8" standalone="no"?>
<svg
     xmlns:dc="http://purl.org/dc/elements/1.1/"
     xmlns:cc="http://creativecommons.org/ns#"
     xmlns:rdf="http://www.w3.org/1999/02/22-rdf-syntax-ns#"
     xmlns:svg="http://www.w3.org/2000/svg"
     xmlns="http://www.w3.org/2000/svg"
     xmlns:sodipodi="http://sodipodi.sourceforge.net/DTD/sodipodi-0.dtd"
     xmlns:inkscape="http://www.inkscape.org/namespaces/inkscape"
     width="1000"
     height="1000"
     viewBox="0 0 999.99999 999.99999"
     id="svg2"
     version="1.1"
     inkscape:version="0.91 r13725"
     sodipodi:docname="logo-based.svg">
    <sodipodi:namedview
         pagecolor="#ffffff"
         bordercolor="#666666"
         borderopacity="1"
         objecttolerance="10"
         gridtolerance="10"
         guidetolerance="10"
         inkscape:pageopacity="0"
         inkscape:pageshadow="2"
         inkscape:window-width="640"
         inkscape:window-height="480"
         id="namedview8137"
         showgrid="false"
         inkscape:zoom="0.548"
         inkscape:cx="500"
         inkscape:cy="500"
         inkscape:current-layer="svg2" />
    <defs
         id="defs4" />
    <metadata
         id="metadata7">
        <rdf:RDF>
            <cc:Work
                 rdf:about="">
                <dc:format>image/svg+xml</dc:format>
                <dc:type
                     rdf:resource="http://purl.org/dc/dcmitype/StillImage" />
                <dc:title />
            </cc:Work>
        </rdf:RDF>
    </metadata>
    <g
         style="fill:#ffffff"
         transform="matrix(0.58196597,-0.06711254,0.14059686,1.2192195,359.48853,-123.40321)"
         id="layer3">
        <path
             style="fill-rule:evenodd;stroke:#000000;stroke-width:5.89673471;stroke-linecap:round;stroke-linejoin:round"
             d="m 839.17625,351.97381 c 49.60765,22.83524 98.23119,23.71818 147.83884,34.74209 -47.24538,14.17359 -79.26043,9.90474 -150.12849,45.33872"
             id="path3542"
             inkscape:connector-curvature="0" />
    </g>
    <g
         style="fill:#ffffff"
         id="layer1"
         transform="matrix(1.2272821,0,0,1.1344279,-107.81006,-209.69506)">
        <path
             style="fill-rule:evenodd;stroke:#000000;stroke-width:5.93249559;stroke-linecap:round;stroke-linejoin:round"
             d="M 571.7257,192.6237 C 216.68704,187.63529 399.51885,662.73657 97.655997,711.62542 198.35237,864.28708 525.62674,986.77925 688.69676,843.2167 851.76678,699.65415 926.76438,197.61211 571.7257,192.6237 Z"
             id="path3352"
             inkscape:connector-curvature="0" />
    </g>
    <g
         transform="matrix(1.1219423,0,0,1.1219582,-32.953155,-196.6515)"
         style="fill:#000000"
         id="layer2">
        <ellipse
             style="fill-rule:evenodd;stroke:#000000;stroke-width:6.23913574;stroke-linecap:round;stroke-linejoin:round"
             id="path3349"
             cx="-706.58295"
             cy="373.50732"
             transform="scale(-1,1)"
             rx="31.890629"
             ry="31.890579" />
    </g>
    <g
         id="layer4" />
    <g
         style="fill:#ffffff"
         transform="matrix(1.0457481,0,0,1.2630827,-26.082432,-324.03707)"
         id="g3344">
        <path
             id="path3346"
             d="M 448.67328,492.2976 C 255.45557,492.75112 301.53578,738.26583 121.2191,740.47199 205.8024,822.58855 489.69039,948.42911 609.38359,796.60277 729.07678,644.77642 641.89096,491.84408 448.67328,492.2976 Z"
             style="fill-rule:evenodd;stroke:#000000;stroke-width:6.0907197;stroke-linecap:round;stroke-linejoin:round"
             inkscape:connector-curvature="0" />
    </g>
    <g
         transform="matrix(1.2204164,-0.12963618,0.10401281,0.9792216,-178.68628,20.109084)"
         style="fill:none"
         id="layer5">
        <path
             id="path3547"
             style="fill-rule:evenodd;stroke:#000000;stroke-width:6.3674736;stroke-linecap:round;stroke-linejoin:round"
             d="m 491.4029,1026.1227 c 10.42939,-24.2567 21.34499,-28.76998 44.31581,-40.46798 13.14838,29.99478 13.87096,39.65868 24.69513,56.72078 m -40.88545,-1.1243 c 17.84431,-46.00071 26.80269,-89.16748 24.01751,-159.23177"
             inkscape:connector-curvature="0"
             sodipodi:nodetypes="ccccc" />
    </g>
    <g
         transform="matrix(1.2272463,0.00937479,-0.0075218,0.98470165,-173.54497,-58.031814)"
         style="fill:none"
         id="layer5-7">
        <path
             id="path3547-9"
             style="fill-rule:evenodd;stroke:#000000;stroke-width:6.3674736;stroke-linecap:round;stroke-linejoin:round"
             d="m 491.4029,1026.1227 c 10.42939,-24.2567 21.34499,-28.76998 44.31581,-40.46798 13.14838,29.99478 13.87096,39.65868 24.69513,56.72078 m -40.88545,-1.1243 c 17.84431,-46.00071 26.80269,-89.16748 24.01751,-159.23177"
             inkscape:connector-curvature="0"
             sodipodi:nodetypes="ccccc" />
    </g>
</svg>
