<?xml version="1.0" encoding="UTF-8" standalone="no"?>
<svg
     xmlns:dc="http://purl.org/dc/elements/1.1/"
     xmlns:cc="http://creativecommons.org/ns#"
     xmlns:rdf="http://www.w3.org/1999/02/22-rdf-syntax-ns#"
     xmlns:svg="http://www.w3.org/2000/svg"
     xmlns="http://www.w3.org/2000/svg"
     version="1.1"
     id="svg2"
     viewBox="0 0 999.99999 999.99999"
     height="1000"
     width="1000">
    <defs
         id="defs4" />
    <metadata
         id="metadata7">
        <rdf:RDF>
            <cc:Work
                 rdf:about="">
                <dc:format>image/svg+xml</dc:format>
                <dc:type
                     rdf:resource="http://purl.org/dc/dcmitype/StillImage" />
                <dc:title></dc:title>
            </cc:Work>
        </rdf:RDF>
    </metadata>
    <g
         transform="translate(0,-52.362271)"
         id="layer1">
        <path
             id="path3352"
             d="M 586.32424,190.64949 C 242.23423,191.47285 240.75972,735.7823 37.437021,766.90327 342.51295,986.68804 668.02167,945.78414 761.68946,740.55783 855.35724,535.33151 930.41426,189.82612 586.32424,190.64949 Z"
             style="fill:none;fill-rule:evenodd;stroke:#000000;stroke-width:7;stroke-linecap:round;stroke-linejoin:round" />
    </g>
    <g
         id="layer2">
        <ellipse
             ry="31.890579"
             rx="31.890629"
             transform="scale(-1,1)"
             cy="351.54965"
             cx="-742.51367"
             id="path3349"
             style="fill:none;fill-rule:evenodd;stroke:#000000;stroke-width:7;stroke-linecap:round;stroke-linejoin:round" />
    </g>
    <g
         id="layer3">
        <path
             id="path3542"
             d="m 839.17625,351.97381 c 49.60765,22.83524 98.23119,23.71818 147.83884,34.74209 -47.24538,14.17359 -79.26043,9.90474 -150.12849,45.33872"
             style="fill:none;fill-rule:evenodd;stroke:#000000;stroke-width:7;stroke-linecap:round;stroke-linejoin:round" />
    </g>
    <g
         id="layer4" />
    <g
         id="g3344"
         transform="translate(0,-52.362271)">
        <path
             style="fill:none;fill-rule:evenodd;stroke:#000000;stroke-width:7;stroke-linecap:round;stroke-linejoin:round"
             d="M 345.87686,510.0288 C 152.65915,510.48232 198.73936,755.99703 18.422682,758.20319 103.00598,840.31975 386.89397,966.16031 506.58717,814.33397 626.28036,662.50762 539.09454,509.57528 345.87686,510.0288 Z"
             id="path3346" />
    </g>
    <g
         id="layer5">
        <path
             d="m 394.58561,986.29952 21.92437,-45.78111 c 10.73863,27.34798 9.79116,26.40775 15.69663,46.75438 m -17.90504,1.0625 c 2.90622,-61.89287 3.30138,-56.08045 3.87672,-127.88458"
             style="fill:none;fill-rule:evenodd;stroke:#000000;stroke-width:7;stroke-linecap:round;stroke-linejoin:round"
             id="path3449" />
        <path
             d="m 473.7671,986.15761 20.21582,-45.13597 c 11.73116,26.93716 10.77031,24.61619 17.4156,44.73335 m -17.85423,1.7163 c 0.64178,-61.95773 1.24915,-56.16365 -0.8007,-127.94082"
             style="fill:none;fill-rule:evenodd;stroke:#000000;stroke-width:7;stroke-linecap:round;stroke-linejoin:round"
             id="path3547" />
    </g>
</svg>
