<?xml version="1.0" encoding="UTF-8" standalone="no"?>
<svg
     xmlns:dc="http://purl.org/dc/elements/1.1/"
     xmlns:cc="http://creativecommons.org/ns#"
     xmlns:rdf="http://www.w3.org/1999/02/22-rdf-syntax-ns#"
     xmlns:svg="http://www.w3.org/2000/svg"
     xmlns="http://www.w3.org/2000/svg"
     xmlns:sodipodi="http://sodipodi.sourceforge.net/DTD/sodipodi-0.dtd"
     xmlns:inkscape="http://www.inkscape.org/namespaces/inkscape"
     viewBox="0 0 999.99999 999.99998"
     height="1000"
     width="1000"
     version="1.1"
     id="svg8129"
     inkscape:version="0.91 r13725"
     sodipodi:docname="logo-main.svg">
    <metadata
         id="metadata8153">
        <rdf:RDF>
            <cc:Work
                 rdf:about="">
                <dc:format>image/svg+xml</dc:format>
                <dc:type
                     rdf:resource="http://purl.org/dc/dcmitype/StillImage" />
                <dc:title />
            </cc:Work>
        </rdf:RDF>
    </metadata>
    <defs
         id="defs8151" />
    <sodipodi:namedview
         pagecolor="#ffffff"
         bordercolor="#666666"
         borderopacity="1"
         objecttolerance="10"
         gridtolerance="10"
         guidetolerance="10"
         inkscape:pageopacity="0"
         inkscape:pageshadow="2"
         inkscape:window-width="640"
         inkscape:window-height="480"
         id="namedview8149"
         showgrid="false"
         inkscape:zoom="0.548"
         inkscape:cx="500"
         inkscape:cy="500"
         inkscape:current-layer="layer1" />
    <g
         inkscape:groupmode="layer"
         id="layer1"
         inkscape:label="Main">
        <g
             transform="matrix(0.97312777,0,0,0.97311315,11.11902,61.548416)"
             id="g8131">
            <path
                 style="fill:none;fill-rule:evenodd;stroke:#000000;stroke-width:7;stroke-linecap:round;stroke-linejoin:round"
                 d="M 702.59961 108.33398 L 477.88477 202.83984 C 453.16437 229.86732 428.41035 262.40693 401.7168 300.23047 C 399.63597 303.1789 397.52193 306.14554 395.41016 309.10938 C 410.72383 305.59509 427.63511 303.69763 446.9375 303.74023 C 549.72458 303.96707 592.94367 414.32022 564.75391 511.18945 C 536.56415 608.05868 374.84475 702.3265 254.48242 696.23242 C 234.81834 695.2368 216.80926 692.429 200.18555 687.98633 C 245.7898 743.81915 294.7665 790.90762 369.94336 812.37305 C 501.62319 849.97189 674.27814 805.61432 769.92969 694.61914 C 865.58123 583.62394 906.66965 486.04875 908.24414 356.30664 C 909.78825 229.06754 827.80166 120.57434 702.59961 108.33398 z "
                 transform="matrix(1.0276143,0,0,1.0276297,-11.426064,-63.248982)"
                 id="path8133" />
            <path
                 d="m 448.023,249.14714 c 105.62547,0.2331 150.03664,113.63221 121.06844,213.17791 -28.9682,99.5457 -195.15316,196.41916 -318.83921,190.1567 C 126.56619,646.21929 66.22719,570.59626 10.236224,462.37771 50.68732,481.85475 128.79439,431.16627 217.586,368.17196 306.37759,305.17764 342.39752,248.91402 448.023,249.14714 Z"
                 style="fill:none;fill-rule:evenodd;stroke:#000000;stroke-width:7.19335413;stroke-linecap:round;stroke-linejoin:round"
                 id="path8135"
                 inkscape:connector-curvature="0" />
            <path
                 d="m 572.32776,777.33117 c 27.7938,61.93219 20.49435,120.848 9.6036,169.03027"
                 style="fill:none;fill-rule:evenodd;stroke:#000000;stroke-width:7.19335413;stroke-linecap:round;stroke-linejoin:round"
                 id="path8137"
                 inkscape:connector-curvature="0" />
            <path
                 d="m 632.76155,930.97393 c -1.68166,-26.15927 -19.2815,-50.33049 -40.74458,-69.82627 l -71.30304,57.24496"
                 style="fill:none;fill-rule:evenodd;stroke:#000000;stroke-width:7.19335413;stroke-linecap:round;stroke-linejoin:round"
                 id="path8139"
                 inkscape:connector-curvature="0" />
            <path
                 d="m 464.70013,785.90633 c 15.18214,60.98108 15.60151,119.33193 0,174.82841"
                 style="fill:none;fill-rule:evenodd;stroke:#000000;stroke-width:7.19335413;stroke-linecap:round;stroke-linejoin:round"
                 id="path8141"
                 inkscape:connector-curvature="0" />
            <path
                 d="m 514.95179,948.2925 c -2.63281,-31.76196 -20.73572,-58.32762 -39.38643,-80.49966 l -69.26579,62.9361"
                 style="fill:none;fill-rule:evenodd;stroke:#000000;stroke-width:7.19335413;stroke-linecap:round;stroke-linejoin:round"
                 id="path8143"
                 inkscape:connector-curvature="0" />
            <circle
                 cy="251.03983"
                 cx="774.96344"
                 style="fill:#000000;fill-rule:evenodd;stroke:#000000;stroke-width:7.19335365;stroke-linecap:round;stroke-linejoin:round"
                 id="ellipse8145"
                 r="40" />
            <path
                 d="m 913.37659,222.1105 c 22.69336,13.51366 45.08345,27.14864 81.14963,35.31301 -28.23796,13.29928 -54.93472,28.13979 -72.32164,52.29043 z"
                 style="fill:none;fill-rule:evenodd;stroke:#000000;stroke-width:7.19335413;stroke-linecap:round;stroke-linejoin:round"
                 id="path8147"
                 inkscape:connector-curvature="0" />
        </g>
        <rect
             style="fill:none;fill-rule:evenodd;stroke:#000000;stroke-width:7.00000143;stroke-linecap:round;stroke-linejoin:round"
             id="rect12673"
             width="308.81189"
             height="34.342751"
             x="328.19128"
             y="337.89496"
             transform="matrix(0.92179884,-0.38766853,0.38683795,0.92214771,0,0)" />
        <rect
             style="fill:none;fill-rule:evenodd;stroke:#000000;stroke-width:7.00000143;stroke-linecap:round;stroke-linejoin:round"
             id="rect12675"
             width="182.99963"
             height="89.291161"
             x="391.09738"
             y="248.60382"
             transform="matrix(0.92179884,-0.38766853,0.38683795,0.92214771,0,0)" />
    </g>
</svg>
