<?xml version="1.0" encoding="UTF-8" standalone="no"?>
<svg
     xmlns:dc="http://purl.org/dc/elements/1.1/"
     xmlns:cc="http://creativecommons.org/ns#"
     xmlns:rdf="http://www.w3.org/1999/02/22-rdf-syntax-ns#"
     xmlns:svg="http://www.w3.org/2000/svg"
     xmlns="http://www.w3.org/2000/svg"
     xmlns:sodipodi="http://sodipodi.sourceforge.net/DTD/sodipodi-0.dtd"
     xmlns:inkscape="http://www.inkscape.org/namespaces/inkscape"
     viewBox="0 0 999.99999 999.99998"
     height="1000"
     width="1000"
     version="1.1"
     id="svg8129"
     inkscape:version="0.91 r13725"
     sodipodi:docname="logo-nature.svg">
    <metadata
         id="metadata8153">
        <rdf:RDF>
            <cc:Work
                 rdf:about="">
                <dc:format>image/svg+xml</dc:format>
                <dc:type
                     rdf:resource="http://purl.org/dc/dcmitype/StillImage" />
                <dc:title></dc:title>
            </cc:Work>
        </rdf:RDF>
    </metadata>
    <defs
         id="defs8151" />
    <sodipodi:namedview
         pagecolor="#ffffff"
         bordercolor="#666666"
         borderopacity="1"
         objecttolerance="10"
         gridtolerance="10"
         guidetolerance="10"
         inkscape:pageopacity="0"
         inkscape:pageshadow="2"
         inkscape:window-width="640"
         inkscape:window-height="480"
         id="namedview8149"
         showgrid="false"
         inkscape:zoom="0.547"
         inkscape:cx="500"
         inkscape:cy="572.21207"
         inkscape:current-layer="layer3" />
    <g
         inkscape:groupmode="layer"
         id="layer1"
         inkscape:label="Main"
         sodipodi:insensitive="true">
        <g
             transform="matrix(0.97312777,0,0,0.97311315,11.11902,61.548416)"
             id="g8131">
            <path
                 style="fill:none;fill-rule:evenodd;stroke:#000000;stroke-width:7.19335413;stroke-linecap:round;stroke-linejoin:round"
                 d="M 674.49023,3.5039062 C 556.68307,4.3874577 487.81252,73.647256 397.17383,202.08008 c -2.13829,3.0299 -4.31233,6.07927 -6.48242,9.125 15.73655,-3.61138 33.11576,-5.56136 52.95117,-5.51758 105.62547,0.2331 150.03851,113.63399 121.07031,213.17969 -28.9682,99.5457 -195.15379,196.41871 -318.83984,190.15625 -20.20709,-1.02313 -38.71412,-3.90919 -55.79688,-8.47461 46.86358,57.37547 97.1925,105.76571 174.44531,127.82422 135.31608,38.63769 312.74031,-6.94587 411.03321,-121.00782 C 873.84758,493.30326 916.06953,393.03193 917.6875,259.70508 919.30546,126.37824 831.68238,13.068191 698.72656,4.2421875 690.41682,3.6905623 682.34405,3.4450028 674.49023,3.5039062 Z"
                 transform="translate(4.2108383,43.196452)"
                 id="path8133"
                 inkscape:connector-curvature="0" />
            <path
                 d="m 448.023,249.14714 c 105.62547,0.2331 150.03664,113.63221 121.06844,213.17791 -28.9682,99.5457 -195.15316,196.41916 -318.83921,190.1567 C 126.56619,646.21929 66.22719,570.59626 10.236224,462.37771 50.68732,481.85475 128.79439,431.16627 217.586,368.17196 306.37759,305.17764 342.39752,248.91402 448.023,249.14714 Z"
                 style="fill:none;fill-rule:evenodd;stroke:#000000;stroke-width:7.19335413;stroke-linecap:round;stroke-linejoin:round"
                 id="path8135"
                 inkscape:connector-curvature="0" />
            <path
                 d="m 572.32776,777.33117 c 27.7938,61.93219 20.49435,120.848 9.6036,169.03027"
                 style="fill:none;fill-rule:evenodd;stroke:#000000;stroke-width:7.19335413;stroke-linecap:round;stroke-linejoin:round"
                 id="path8137"
                 inkscape:connector-curvature="0" />
            <path
                 d="m 632.76155,930.97393 c -1.68166,-26.15927 -19.2815,-50.33049 -40.74458,-69.82627 l -71.30304,57.24496"
                 style="fill:none;fill-rule:evenodd;stroke:#000000;stroke-width:7.19335413;stroke-linecap:round;stroke-linejoin:round"
                 id="path8139"
                 inkscape:connector-curvature="0" />
            <path
                 d="m 464.70013,785.90633 c 15.18214,60.98108 15.60151,119.33193 0,174.82841"
                 style="fill:none;fill-rule:evenodd;stroke:#000000;stroke-width:7.19335413;stroke-linecap:round;stroke-linejoin:round"
                 id="path8141"
                 inkscape:connector-curvature="0" />
            <path
                 d="m 514.95179,948.2925 c -2.63281,-31.76196 -20.73572,-58.32762 -39.38643,-80.49966 l -69.26579,62.9361"
                 style="fill:none;fill-rule:evenodd;stroke:#000000;stroke-width:7.19335413;stroke-linecap:round;stroke-linejoin:round"
                 id="path8143"
                 inkscape:connector-curvature="0" />
            <circle
                 cy="251.03983"
                 cx="774.96344"
                 style="fill:#000000;fill-rule:evenodd;stroke:#000000;stroke-width:7.19335365;stroke-linecap:round;stroke-linejoin:round"
                 id="ellipse8145"
                 r="40" />
            <path
                 d="m 913.37659,222.1105 c 22.69336,13.51366 45.08345,27.14864 81.14963,35.31301 -28.23796,13.29928 -54.93472,28.13979 -72.32164,52.29043 z"
                 style="fill:none;fill-rule:evenodd;stroke:#000000;stroke-width:7.19335413;stroke-linecap:round;stroke-linejoin:round"
                 id="path8147"
                 inkscape:connector-curvature="0" />
        </g>
    </g>
    <g
         inkscape:groupmode="layer"
         id="layer2"
         inkscape:label="Glasses"
         sodipodi:insensitive="true">
        <path
             style="fill:#000000;fill-rule:evenodd;stroke:#000000;stroke-width:7.00000048;stroke-linecap:round;stroke-linejoin:round"
             d="m 706.24237,267.843 125.23114,-3.96234 1.49085,81.88823 -125.23114,2.64157 z"
             id="path13090"
             inkscape:connector-curvature="0" />
        <path
             style="fill:none;fill-rule:evenodd;stroke:#000000;stroke-width:7;stroke-linecap:round;stroke-linejoin:round"
             d="m 832.09519,287.33716 68.50072,-18.95253"
             id="path13092"
             inkscape:connector-curvature="0"
             sodipodi:nodetypes="cc" />
        <path
             style="fill:none;fill-rule:evenodd;stroke:#000000;stroke-width:7;stroke-linecap:round;stroke-linejoin:round"
             d="m 705.34582,293.54841 -112.34337,6.08056 -19.11834,29.64195"
             id="path13094"
             inkscape:connector-curvature="0"
             sodipodi:nodetypes="ccc" />
    </g>
    <g
         inkscape:groupmode="layer"
         id="layer3"
         inkscape:label="Hat">
        <path
             style="fill:none;fill-rule:evenodd;stroke:#000000;stroke-width:7;stroke-linecap:round;stroke-linejoin:round"
             d="m 376.70584,175.35156 107.25608,33.42921 216.42997,-18.28738 166.4379,-42.54631 33.20438,-38.67388 -78.19464,6.78403 -72.37215,26.5283 -199.17388,30.90737 -99.26618,-8.33687 -59.31599,-12.69718 z"
             id="path13097"
             inkscape:connector-curvature="0" />
        <path
             style="fill:none;fill-rule:evenodd;stroke:#000000;stroke-width:7;stroke-linecap:round;stroke-linejoin:round"
             d="m 392.5065,150.57998 50.80672,-20.5904 39.60395,-9.8238 299.79956,-29.970574 19.6993,7.893961 94.88639,11.357153"
             id="path13099"
             inkscape:connector-curvature="0"
             sodipodi:nodetypes="cccccc" />
        <path
             style="fill:none;fill-rule:evenodd;stroke:#000000;stroke-width:7;stroke-linecap:round;stroke-linejoin:round"
             d="m 491.08019,147.98986 34.35253,-92.686756 30.7994,9.933208 96.75253,-2.474701 122.40919,-15.985794 8.58645,-8.772316 18.95511,68.280909 -49.04327,19.5644 c 0,0 -54.96843,12.62599 -67.65886,14.34449 -12.69044,1.71849 -130.32864,6.43106 -130.32864,6.43106 z"
             id="path13101"
             inkscape:connector-curvature="0" />
        <path
             style="fill:none;fill-rule:evenodd;stroke:#000000;stroke-width:7;stroke-linecap:round;stroke-linejoin:round"
             d="m 526.22788,53.424232 c 0,0 44.15686,-10.112339 47.79918,-10.34317 l 61.91958,-3.924132 106.30727,-10.394144 38.87922,7.592674"
             id="path13103"
             inkscape:connector-curvature="0"
             sodipodi:nodetypes="csccc" />
    </g>
</svg>
