<svg xmlns="http://www.w3.org/2000/svg" viewBox="0 0 965.03 994.64"><title>logo-projects</title><path d="M834.61,169.07c-53.41,13.64-245.79,50.69-390.29,73.61-13.83,17.57-27.92,36.74-42.6,57.55-2.08,2.95-4.19,5.92-6.31,8.88a226.56,226.56,0,0,1,51.53-5.37c102.79,0.23,146,110.58,117.82,207.45s-189.91,191.14-310.27,185a260.58,260.58,0,0,1-54.3-8.25c45.6,55.83,94.58,102.92,169.76,124.39,131.68,37.6,304.33-6.76,400-117.75S906.67,486,908.24,356.31C909.14,282.57,882,215.13,834.61,169.07Z" transform="translate(-17.48 -5.41)" style="fill:none;stroke:#000;stroke-linecap:round;stroke-linejoin:round;stroke-width:7px"/><path d="M447.1,304c102.79,0.23,146,110.58,117.82,207.45S375,702.58,254.65,696.49,75.57,616.8,21.08,511.49c39.36,19,115.37-30.37,201.78-91.67S344.32,303.77,447.1,304Z" transform="translate(-17.48 -5.41)" style="fill:none;stroke:#000;stroke-linecap:round;stroke-linejoin:round;stroke-width:7.19335412979126px"/><path d="M568.07,818c27,60.27,19.94,117.6,9.35,164.49" transform="translate(-17.48 -5.41)" style="fill:none;stroke:#000;stroke-linecap:round;stroke-linejoin:round;stroke-width:7.19335412979126px"/><path d="M626.88,967.49c-1.64-25.46-18.76-49-39.65-67.95l-69.39,55.71" transform="translate(-17.48 -5.41)" style="fill:none;stroke:#000;stroke-linecap:round;stroke-linejoin:round;stroke-width:7.19335412979126px"/><path d="M463.33,826.32c14.77,59.34,15.18,116.12,0,170.13" transform="translate(-17.48 -5.41)" style="fill:none;stroke:#000;stroke-linecap:round;stroke-linejoin:round;stroke-width:7.19335412979126px"/><path d="M512.23,984.34c-2.56-30.91-20.18-56.76-38.33-78.34l-67.4,61.24" transform="translate(-17.48 -5.41)" style="fill:none;stroke:#000;stroke-linecap:round;stroke-linejoin:round;stroke-width:7.19335412979126px"/><circle cx="747.77" cy="300.43" r="38.92" style="stroke:#000;stroke-linecap:round;stroke-linejoin:round;stroke-width:7.193353652954102px"/><path d="M900,277.69c22.08,13.15,43.87,26.42,79,34.36-27.48,12.94-53.46,27.38-70.38,50.88Z" transform="translate(-17.48 -5.41)" style="fill:none;stroke:#000;stroke-linecap:round;stroke-linejoin:round;stroke-width:7.19335412979126px"/><path d="M438.32,206.1C474.17,151.61,474.82,24.23,614.77,10S824.87,131.7,824.87,131.7" transform="translate(-17.48 -5.41)" style="fill:none;stroke:#000;stroke-linecap:round;stroke-linejoin:round;stroke-width:7px"/><path d="M274.76,259c3.84,21,564.81-84.83,574.07-94.51s-1.89-29.53-11.62-33S270.92,238.07,274.76,259h0Z" transform="translate(-17.48 -5.41)" style="fill:none;stroke:#000;stroke-linecap:round;stroke-linejoin:round;stroke-width:7px"/></svg>