<svg xmlns="http://www.w3.org/2000/svg" viewBox="0 0 965.03 996.86"><title>logo-main</title><path d="M702.6,108.33L477.88,202.84c-24.72,27-49.47,59.57-76.17,97.39-2.08,2.95-4.19,5.92-6.31,8.88a226.56,226.56,0,0,1,51.53-5.37c102.79,0.23,146,110.58,117.82,207.45s-189.91,191.14-310.27,185a260.58,260.58,0,0,1-54.3-8.25c45.6,55.83,94.58,102.92,169.76,124.39,131.68,37.6,304.33-6.76,400-117.75S906.67,486,908.24,356.31C909.79,229.07,827.8,120.57,702.6,108.33Z" transform="translate(-17.48 -3.19)" style="fill:none;stroke:#000;stroke-linecap:round;stroke-linejoin:round;stroke-width:7px"/><path d="M447.1,304c102.79,0.23,146,110.58,117.82,207.45S375,702.58,254.65,696.49,75.57,616.8,21.08,511.49c39.36,19,115.37-30.37,201.78-91.67S344.32,303.77,447.1,304Z" transform="translate(-17.48 -3.19)" style="fill:none;stroke:#000;stroke-linecap:round;stroke-linejoin:round;stroke-width:7.19335412979126px"/><path d="M568.07,818c27,60.27,19.94,117.6,9.35,164.49" transform="translate(-17.48 -3.19)" style="fill:none;stroke:#000;stroke-linecap:round;stroke-linejoin:round;stroke-width:7.19335412979126px"/><path d="M626.88,967.49c-1.64-25.46-18.76-49-39.65-67.95l-69.39,55.71" transform="translate(-17.48 -3.19)" style="fill:none;stroke:#000;stroke-linecap:round;stroke-linejoin:round;stroke-width:7.19335412979126px"/><path d="M463.33,826.32c14.77,59.34,15.18,116.12,0,170.13" transform="translate(-17.48 -3.19)" style="fill:none;stroke:#000;stroke-linecap:round;stroke-linejoin:round;stroke-width:7.19335412979126px"/><path d="M512.23,984.34c-2.56-30.91-20.18-56.76-38.33-78.34l-67.4,61.24" transform="translate(-17.48 -3.19)" style="fill:none;stroke:#000;stroke-linecap:round;stroke-linejoin:round;stroke-width:7.19335412979126px"/><circle cx="747.77" cy="302.65" r="38.92" style="stroke:#000;stroke-linecap:round;stroke-linejoin:round;stroke-width:7.193353652954102px"/><path d="M900,277.69c22.08,13.15,43.87,26.42,79,34.36-27.48,12.94-53.46,27.38-70.38,50.88Z" transform="translate(-17.48 -3.19)" style="fill:none;stroke:#000;stroke-linecap:round;stroke-linejoin:round;stroke-width:7.19335412979126px"/><rect x="427.8" y="123.16" width="308.81" height="34.34" transform="translate(-26.36 233.49) rotate(-22.81)" style="fill:none;stroke:#000;stroke-linecap:round;stroke-linejoin:round;stroke-width:7.000001430511475px"/><rect x="466.8" y="38.69" width="183" height="89.29" transform="translate(-6.13 219.76) rotate(-22.81)" style="fill:none;stroke:#000;stroke-linecap:round;stroke-linejoin:round;stroke-width:7.000001430511475px"/></svg>