<?xml version="1.0" encoding="UTF-8" standalone="no"?>
<svg
     xmlns:dc="http://purl.org/dc/elements/1.1/"
     xmlns:cc="http://creativecommons.org/ns#"
     xmlns:rdf="http://www.w3.org/1999/02/22-rdf-syntax-ns#"
     xmlns:svg="http://www.w3.org/2000/svg"
     xmlns="http://www.w3.org/2000/svg"
     xmlns:xlink="http://www.w3.org/1999/xlink"
     version="1.1"
     id="svg2"
     viewBox="0 0 10000 10000"
     height="10000"
     width="10000">
    <defs
         id="defs4">
        <linearGradient
             id="linearGradient8176">
            <stop
                 id="stop8178"
                 offset="0"
                 style="stop-color:#30a377" />
            <stop
                 id="stop8180"
                 offset="1"
                 style="stop-color:#30a377;stop-opacity:0" />
        </linearGradient>
        <linearGradient
             id="linearGradient8168">
            <stop
                 id="stop8170"
                 offset="0"
                 style="stop-color:#30a377" />
            <stop
                 id="stop8172"
                 offset="1"
                 style="stop-color:#30a377;stop-opacity:0" />
        </linearGradient>
        <linearGradient
             id="linearGradient8160">
            <stop
                 id="stop8162"
                 offset="0"
                 style="stop-color:#30a377" />
            <stop
                 id="stop8164"
                 offset="1"
                 style="stop-color:#30a377;stop-opacity:0" />
        </linearGradient>
        <linearGradient
             id="linearGradient8150">
            <stop
                 id="stop8152"
                 offset="0"
                 style="stop-color:#30a377" />
            <stop
                 id="stop8154"
                 offset="1"
                 style="stop-color:#30a377;stop-opacity:0" />
        </linearGradient>
        <linearGradient
             id="linearGradient8142">
            <stop
                 id="stop8144"
                 offset="0"
                 style="stop-color:#30a377" />
            <stop
                 id="stop8146"
                 offset="1"
                 style="stop-color:#30a377;stop-opacity:0" />
        </linearGradient>
        <linearGradient
             id="linearGradient8134">
            <stop
                 id="stop8136"
                 offset="0"
                 style="stop-color:#30a377" />
            <stop
                 id="stop8138"
                 offset="1"
                 style="stop-color:#30a377;stop-opacity:0" />
        </linearGradient>
        <linearGradient
             id="linearGradient8126">
            <stop
                 id="stop8128"
                 offset="0"
                 style="stop-color:#30a377" />
            <stop
                 id="stop8130"
                 offset="1"
                 style="stop-color:#30a377;stop-opacity:0" />
        </linearGradient>
        <linearGradient
             id="linearGradient8118">
            <stop
                 id="stop8120"
                 offset="0"
                 style="stop-color:#30a377" />
            <stop
                 id="stop8122"
                 offset="1"
                 style="stop-color:#30a377;stop-opacity:0" />
        </linearGradient>
        <linearGradient
             id="linearGradient8110">
            <stop
                 id="stop8112"
                 offset="0"
                 style="stop-color:#30a377" />
            <stop
                 id="stop8114"
                 offset="1"
                 style="stop-color:#30a377;stop-opacity:0" />
        </linearGradient>
        <linearGradient
             id="linearGradient8102">
            <stop
                 id="stop8104"
                 offset="0"
                 style="stop-color:#30a377" />
            <stop
                 id="stop8106"
                 offset="1"
                 style="stop-color:#30a377;stop-opacity:0" />
        </linearGradient>
        <linearGradient
             id="linearGradient8072">
            <stop
                 id="stop8074"
                 offset="0"
                 style="stop-color:#30a377" />
            <stop
                 id="stop8076"
                 offset="1"
                 style="stop-color:#30a377;stop-opacity:0" />
        </linearGradient>
        <linearGradient
             gradientTransform="matrix(1.1185694,0,0,-1.1185688,427.60872,-9394.1293)"
             gradientUnits="userSpaceOnUse"
             y2="2167.092"
             x2="9524.4443"
             y1="-9116.6338"
             x1="889.23151"
             id="linearGradient8078"
             xlink:href="#linearGradient8072" />
        <linearGradient
             gradientTransform="matrix(1,0,0,-1,-3.7790741e-4,-7945.3001)"
             gradientUnits="userSpaceOnUse"
             y2="-10042.416"
             x2="9637.8926"
             y1="-7548.7896"
             x1="9528.0898"
             id="linearGradient8108"
             xlink:href="#linearGradient8102" />
        <linearGradient
             gradientTransform="matrix(1,0,0,-1,-3.7790741e-4,-7945.3001)"
             gradientUnits="userSpaceOnUse"
             y2="-10717.328"
             x2="8937.0566"
             y1="-7688.9888"
             x1="8507.9033"
             id="linearGradient8116"
             xlink:href="#linearGradient8110" />
        <linearGradient
             gradientTransform="matrix(1,0,0,-1,-3.7790741e-4,-7945.3001)"
             gradientUnits="userSpaceOnUse"
             y2="-10913.267"
             x2="5955.5117"
             y1="-7417.1211"
             x1="6765.2432"
             id="linearGradient8124"
             xlink:href="#linearGradient8118" />
        <linearGradient
             gradientTransform="matrix(1,0,0,-1,-3.7790741e-4,-7945.3001)"
             gradientUnits="userSpaceOnUse"
             y2="-10339.795"
             x2="4767.2349"
             y1="-7523.062"
             x1="5045.8115"
             id="linearGradient8132"
             xlink:href="#linearGradient8126" />
        <linearGradient
             gradientTransform="matrix(1,0,0,-1,-3.7790741e-4,-7945.3001)"
             gradientUnits="userSpaceOnUse"
             y2="-10152.145"
             x2="2971.1987"
             y1="-7565.2529"
             x1="4153.2031"
             id="linearGradient8140"
             xlink:href="#linearGradient8134" />
        <linearGradient
             gradientTransform="matrix(1,0,0,-1,-3.7790741e-4,-7945.3001)"
             gradientUnits="userSpaceOnUse"
             y2="-10597.432"
             x2="1511.3358"
             y1="-7584.166"
             x1="2568.675"
             id="linearGradient8148"
             xlink:href="#linearGradient8142" />
        <linearGradient
             gradientTransform="matrix(1,0,0,-1,-3.7790741e-4,-7945.3001)"
             gradientUnits="userSpaceOnUse"
             y2="-9495.1953"
             x2="-1011.2614"
             y1="-7565.4863"
             x1="1460.0037"
             id="linearGradient8158"
             xlink:href="#linearGradient8150" />
        <linearGradient
             gradientTransform="matrix(1,0,0,-1,-3.7790741e-4,-7945.3001)"
             gradientUnits="userSpaceOnUse"
             y2="-5320.6577"
             x2="-586.5282"
             y1="-5882.0557"
             x1="2172.7981"
             id="linearGradient8166"
             xlink:href="#linearGradient8160" />
        <linearGradient
             gradientTransform="matrix(1,0,0,-1,-3.7790741e-4,-7945.3001)"
             gradientUnits="userSpaceOnUse"
             y2="-1906.3179"
             x2="29.264071"
             y1="-1813.4248"
             x1="2230.7473"
             id="linearGradient8174"
             xlink:href="#linearGradient8168" />
        <linearGradient
             gradientTransform="matrix(1,0,0,-1,-3.7790741e-4,-7945.3001)"
             gradientUnits="userSpaceOnUse"
             y2="331.36139"
             x2="-124.97836"
             y1="35.081661"
             x1="2546.1799"
             id="linearGradient8182"
             xlink:href="#linearGradient8176" />
    </defs>
    <metadata
         id="metadata7">
        <rdf:RDF>
            <cc:Work
                 rdf:about="">
                <dc:format>image/svg+xml</dc:format>
                <dc:type
                     rdf:resource="http://purl.org/dc/dcmitype/StillImage" />
                <dc:title></dc:title>
            </cc:Work>
        </rdf:RDF>
    </metadata>
    <g
         transform="translate(0,8947.6378)"
         id="layer1">
        <path
             id="path8070"
             d="m 1610.711,-52.419928 2078.1531,-615.239902 916.3822,593.717702 967.8243,-641.039602 2211.4852,572.2406 1634.63,-17.2336 430.219,-451.7296 -516.2627,-2710.37827 -103.21,-2374.5336 314.0419,-1970.6311 -124.7882,-1183.1466 -1441.2336,301.1532 -946.4818,-387.1969 -2947.0002,322.6641 -1892.9636,-236.6204 -387.1971,881.9486 503.2066,3612.9174 -696.8051,1807.8391 -279.6424,1914.47347 z"
             style="fill:url(#linearGradient8078);fill-rule:evenodd;stroke:#000000;stroke-width:5;stroke-linecap:round;stroke-linejoin:round" />
        <path
             id="path8080"
             d="m 9849.4048,-611.70433 -343.6974,1106.8424 -471.5825,354.3011 385.0609,-1009.4139 z"
             style="fill:url(#linearGradient8108);fill-rule:evenodd;stroke:#000000;stroke-width:5;stroke-linecap:round;stroke-linejoin:round" />
        <path
             id="path8082"
             d="m 9034.1249,849.43917 385.0609,-1009.4139 -1634.63,17.2336 -393.5097,890.5102 988.685,182.5263 z"
             style="fill:url(#linearGradient8116);fill-rule:evenodd;stroke:#000000;stroke-width:5;stroke-linecap:round;stroke-linejoin:round" />
        <path
             id="path8084"
             d="m 7391.0461,747.76907 -2106.6596,-258.5791 288.6841,-1204.1717 2211.4852,572.2406 z"
             style="fill:url(#linearGradient8124);fill-rule:evenodd;stroke:#000000;stroke-width:5;stroke-linecap:round;stroke-linejoin:round" />
        <path
             id="path8086"
             d="M 5284.3865,489.18997 4820.4651,991.13757 4605.2463,-73.942128 5573.0706,-714.98173 Z"
             style="fill:url(#linearGradient8132);fill-rule:evenodd;stroke:#000000;stroke-width:5;stroke-linecap:round;stroke-linejoin:round" />
        <path
             id="path8088"
             d="m 4820.4651,991.13757 -1840.4752,-669.2634 708.8742,-989.534 916.3822,593.717702 z"
             style="fill:url(#linearGradient8140);fill-rule:evenodd;stroke:#000000;stroke-width:5;stroke-linecap:round;stroke-linejoin:round" />
        <path
             id="path8090"
             d="M 2979.9899,321.87417 1086.2779,877.05847 1610.711,-52.419928 3688.8641,-667.65983 Z"
             style="fill:url(#linearGradient8148);fill-rule:evenodd;stroke:#000000;stroke-width:5;stroke-linecap:round;stroke-linejoin:round" />
        <path
             id="path8094"
             d="M 1331.0686,-633.21533 150.82972,-195.28383 1086.2779,877.05847 1610.711,-52.419928 Z"
             style="fill:url(#linearGradient8158);fill-rule:evenodd;stroke:#000000;stroke-width:5;stroke-linecap:round;stroke-linejoin:round" />
        <path
             id="path8096"
             d="M 2307.5161,-4355.5279 1114.8087,-3770.7945 150.82972,-195.28383 1331.0686,-633.21533 1610.711,-2547.6888 Z"
             style="fill:url(#linearGradient8166);fill-rule:evenodd;stroke:#000000;stroke-width:5;stroke-linecap:round;stroke-linejoin:round" />
        <path
             id="path8098"
             d="m 1114.8087,-3770.7945 -340.34688,-4090.5968 1029.84768,-107.0541 503.2066,3612.9175 z"
             style="fill:url(#linearGradient8174);fill-rule:evenodd;stroke:#000000;stroke-width:5;stroke-linecap:round;stroke-linejoin:round" />
        <path
             id="path8100"
             d="m 2191.5066,-8850.3939 -387.1971,881.9485 -1029.84768,107.0541 439.69648,-721.733 z"
             style="fill:url(#linearGradient8182);fill-rule:evenodd;stroke:#000000;stroke-width:5;stroke-linecap:round;stroke-linejoin:round" />
    </g>
    <g
         id="layer2">
        <path
             d="m 2518.1778,958.23808 c 25.6653,-14.79831 51.4582,-29.74474 78.4329,-42.08346 6.3221,-2.89186 12.4644,-6.56103 19.271,-7.97598 5.5593,-1.15566 11.3527,0.28665 17.029,0.42998 4.6293,3.50944 10.3555,5.9165 13.8878,10.52832 18.9141,24.69445 19.6731,63.07382 20.5619,92.00856 1.5305,49.8281 -0.1725,51.0287 -4.6904,102.2672 -12.8536,84.1804 -30.5787,167.5045 -46.0606,251.2232 0,0 -12.347,11.9013 -12.347,11.9013 l 0,0 c 15.6219,-83.5971 33.4259,-166.8214 46.0187,-250.9514 4.5325,-51.5008 6.1824,-51.7019 4.536,-101.7277 -0.9303,-28.2653 -1.684,-66.04286 -20.015,-90.27808 -3.266,-4.31792 -8.6373,-6.53 -12.9559,-9.795 -5.4373,-0.0398 -11.002,-1.29057 -16.3118,-0.11944 -6.7278,1.48388 -12.8267,5.0525 -19.0877,7.92718 -27.0984,12.44188 -52.9833,27.5357 -78.6571,42.62606 0,0 10.3882,-15.98074 10.3882,-15.98074 z"
             id="path8588"
             style="fill:#646464;stroke:#000000;stroke-width:5;stroke-linecap:round;stroke-linejoin:round" />
        <path
             d="m 2646.9561,988.62919 c 23.2835,-55.66244 55.0376,-100.40239 101.1572,-139.83899 14.0222,-8.78443 48.8015,-38.25534 67.7091,-26.77773 11.8594,7.19908 12.1028,21.13414 15.0875,32.80426 -1.0046,11.08854 -1.3141,22.26218 -3.0138,33.26563 -5.4017,34.96839 -15.0449,69.9032 -24.1313,103.9585 -16.5689,62.09914 -34.0393,123.90324 -50.1304,186.13374 -21.5814,81.4037 -32.6367,164.828 -39.606,248.5594 0,0 -12.3391,12.1338 -12.3391,12.1338 l 0,0 c 7.1258,-83.865 18.2739,-167.4289 39.6682,-249.0217 22.4603,-87.0752 9.6054,-38.6039 33.2269,-124.7703 14.8606,-54.2087 31.7037,-108.59739 40.353,-164.2748 1.6718,-10.76208 2.1025,-21.68062 3.1538,-32.52092 -2.4737,-10.11561 -2.8748,-24.68306 -13.6451,-31.11985 -17.9562,-10.73145 -52.8875,18.90919 -66.0431,27.21496 -9.8068,8.51424 -20.9747,15.85338 -28.8644,26.16928 -19.9367,26.06761 -35.9136,54.92965 -48.5558,85.1502 0,0 -14.0267,12.93452 -14.0267,12.93452 z"
             id="path8590"
             style="fill:#646464;stroke:#000000;stroke-width:5;stroke-linecap:round;stroke-linejoin:round" />
        <path
             d="m 2814.3477,926.79827 c 20.1348,-40.2839 46.5792,-75.15085 80.4402,-105.05183 14.5512,-12.84948 28.1026,-19.22706 44.6975,-28.32899 6.1636,-2.11973 12.032,-5.48272 18.4907,-6.35921 38.2501,-5.19078 41.302,46.84556 43.6544,71.55912 -0.1684,11.45414 0.1471,22.92565 -0.5054,34.36243 -3.7615,65.93343 -13.0771,131.65221 -18.8378,197.42351 -6.8123,77.7768 -7.181,90.7372 -12.2433,169.4417 -5.1682,98.9792 -11.1274,198.4892 -1.7663,297.3675 0,0 -12.6427,12.8747 -12.6427,12.8747 l 0,0 c -8.7224,-99.4438 -2.1822,-199.4258 2.9382,-298.9166 5.0992,-80.7161 5.2117,-89.5464 11.9789,-169.2486 5.5477,-65.338 14.3259,-130.64693 17.7472,-196.15222 0.5916,-11.32804 0.3009,-22.68497 0.4514,-34.02745 -2.1796,-23.21799 -4.4864,-74.79583 -41.241,-69.21413 -6.3362,0.96225 -12.0893,4.25954 -18.134,6.38931 -34.2246,18.95561 -8.2688,3.51903 -44.1862,28.32823 -3.6841,2.54474 -8.2402,3.96324 -11.3494,7.18533 -19.4154,20.12082 -31.839,45.63171 -45.5065,69.62167 0,0 -13.9859,12.74553 -13.9859,12.74553 z"
             id="path8592"
             style="fill:#646464;stroke:#000000;stroke-width:5;stroke-linecap:round;stroke-linejoin:round" />
        <path
             d="m 2667.3427,2194.6614 c 76.8996,-92.159 164.8927,-173.8769 254.3761,-253.5335 29.5706,-21.9688 67.4627,-68.4079 111.2881,-54.2117 29.5072,9.5582 46.8336,45.8585 62.6199,69.4008 6.3017,5.7835 11.4491,13.1592 18.9052,17.3503 28.8348,16.2081 67.4219,-2.6251 94.5943,-11.3637 78.1643,-25.1375 34.1613,-11.9275 119.8499,-35.8314 54.1046,-10.7084 145.1398,-52.3764 197.0641,-12.3746 25.4869,19.6348 35.4268,54.1709 47.3794,81.4831 21.7984,62.3987 31.1231,128.0785 47.9689,191.7489 2.98,11.2633 14.3808,55.122 27.5311,67.1293 4.5652,4.1684 11.932,3.2397 17.898,4.8595 8.6118,-3.9959 17.9508,-6.6999 25.8355,-11.9878 12.2134,-8.191 22.823,-18.5566 33.9848,-28.1312 22.7281,-19.4963 78.2749,-69.596 100.565,-87.5773 16.5768,-13.3724 32.7849,-27.5069 51.1556,-38.2832 14.1469,-8.2986 30.4021,-12.3171 45.6031,-18.4757 14.016,1.8455 29.1278,-0.2014 42.0479,5.5364 29.3728,13.0446 53.2388,48.4985 69.1268,73.6858 22.0347,34.9316 29.6247,57.6377 49.0786,93.4412 7.1559,13.17 15.2805,25.79 22.9208,38.685 23.4403,22.5578 32.6324,39.6796 68.8531,41.0378 38.1644,1.431 97.1501,-21.0987 129.5015,-33.7792 19.4697,-7.6314 135.8554,-59.637 154.1875,-67.7875 65.9891,-27.171 131.9238,-54.9372 200.1876,-76.0376 22.9843,-7.1044 51.7687,-15.5159 76.5789,-16.8798 7.6984,-0.4231 15.3754,1.1734 23.063,1.7601 27.8329,7.3251 35.8031,2.6674 58.0599,-16.7661 10.6174,-9.2705 20.3338,-19.525 30.4596,-29.3301 54.423,-52.6993 13.3948,-13.603 66.9254,-64.2248 13.0908,-9.4541 31.2419,-31.6922 51.8322,-19.2604 29.0561,17.5432 43.7432,101.4896 51.0784,132.9753 4.1489,20.2658 6.2914,40.1097 17.5019,58.231 35.5366,57.4437 102.8467,85.1937 162.2187,109.3057 66.0589,21.4904 135.8418,21.5921 203.2234,6.808 28.6736,-11.5352 33.6196,-31.1869 49.2253,-55.6178 18.1101,-28.3518 17.581,-26.8147 36.9084,-53.4618 12.8237,-14.4145 24.7125,-37.254 46.8777,-40.2639 24.5536,-3.3342 42.4709,23.2559 55.6563,39.2319 5.586,3.9038 10.5694,8.858 16.7582,11.7115 52.4785,24.1962 154.1439,11.2914 211.2409,7.141 35.1587,-3.0943 71.0363,-4.6592 105.2351,5.8864 21.8465,6.7367 41.9382,19.1397 61.7082,30.2866 7.1072,1.8721 13.9817,5.2383 21.3216,5.6163 48.9931,2.523 101.252,-19.3473 146.961,-32.5106 81.9002,-23.5857 63.576,-18.1886 147.8451,-38.8968 76.3181,-14.8417 153.5928,-36.0322 232.0466,-35.4903 27.1951,0.1878 36.0692,3.2526 61.7627,8.567 23.9271,6.4465 42.7946,12.4176 68.0155,14.9629 44.6437,4.5053 73.4974,1.5945 119.4335,-2.957 59.1551,-5.8613 135.8354,-16.6971 193.6347,-24.4245 157.1266,-19.8166 315.1556,-44.6374 473.9004,-33.8439 42.9494,4.1173 85.9114,13.5527 129.2768,8.809 24.798,-2.7126 43.9103,-8.9144 67.8649,-15.418 35.5309,-7.5891 68.2905,-24.7001 104.0378,-31.3299 14.6587,-2.7187 20.8957,-2.4055 36.1539,-3.0586 93.9149,4.9575 187.9141,3.0682 281.5556,-5.1832 55.4526,-6.9746 110.5814,-15.1235 166.5409,-12.1359 57.5087,6.074 115.0729,5.1541 172.5833,0.2737 15.086,-0.7613 25.792,-3.4651 39.8424,3.2437 18.4087,8.7898 46.0394,45.3781 61.73,61.2961 41.1066,33.1764 92.4237,36.0499 142.8403,30.9565 48.0549,-9.8902 97.0777,-9.4544 145.8891,-9.3264 64.1045,3.1038 127.7291,-3.3022 191.0348,-12.7494 0,0 -10.3282,14.6663 -10.3282,14.6663 l 0,0 c -63.4721,9.417 -127.2699,16.1433 -191.5459,12.9945 -48.8028,-0.1076 -97.729,-0.197 -145.7965,9.5102 -50.8999,4.691 -102.7347,1.5165 -144.1681,-31.9368 -15.3369,-15.602 -42.9524,-51.9742 -61.0345,-60.5227 -13.6087,-6.4337 -24.5569,-3.8352 -39.1502,-3.1643 -57.6126,4.6511 -115.2441,5.4489 -172.8553,-0.3128 -55.6362,-2.5025 -110.5647,4.7448 -165.7402,11.443 -93.9109,7.8182 -188.1166,9.7949 -282.3041,6.1096 -14.9315,0.7769 -21.5371,0.5826 -35.8822,3.2572 -35.5571,6.6294 -68.3131,23.2452 -103.641,30.8713 -24.5257,6.5766 -42.8601,12.5262 -68.2355,15.221 -43.364,4.6053 -86.3524,-4.5912 -129.2498,-9.1678 -158.0916,-12.0417 -315.7058,11.5516 -472.1735,32.0381 -52.8644,7.3057 -139.5134,19.8051 -194.5618,25.5705 -46.1093,4.8291 -75.5408,7.8733 -120.4447,3.5864 -25.6788,-2.4515 -44.0025,-8.2318 -68.2856,-14.6895 -25.3724,-5.2894 -34.2786,-8.3378 -61.118,-8.6692 -78.0633,-0.9639 -155.0635,19.5799 -230.9646,34.5296 -83.7359,20.7202 -66.6133,15.5482 -148.0406,39.322 -46.2709,13.5094 -99.0572,35.9558 -148.7291,33.2918 -7.4985,-0.4021 -14.5068,-3.8875 -21.7602,-5.8312 -19.5519,-11.1725 -39.38,-23.5019 -61.0508,-30.2298 -33.9078,-10.527 -69.4964,-9.0831 -104.3937,-6.1532 -57.622,4.0549 -159.9236,17.1393 -212.8454,-7.0719 -6.3559,-2.9077 -11.4901,-7.9616 -17.2352,-11.9424 -20.7118,-25.2631 -43.7588,-54.9867 -76.5483,-25.159 -18.7871,25.7337 -19.5521,25.9361 -36.9767,53.3314 -19.746,31.0452 -37.3861,68.8124 -73.4488,83.085 -67.6308,13.9519 -137.2722,13.5449 -203.29,-8.5173 -59.5495,-24.2898 -127.8574,-52.1178 -163.931,-109.483 -11.6181,-18.4754 -13.4426,-37.8416 -17.5632,-58.5895 -6.9534,-30.3912 -21.5473,-114.2029 -49.5933,-131.0703 -19.5371,-11.7499 -38.2052,10.7152 -50.1359,19.368 -60.118,56.856 -5.4306,4.8246 -66.967,64.3187 -10.2655,9.9247 -20.0683,20.3668 -30.9289,29.6364 -20.6208,17.5999 -33.545,23.8246 -59.281,16.2242 -7.5042,-0.6087 -14.9929,-2.2004 -22.5124,-1.826 -24.57,1.2233 -52.9359,9.299 -75.7444,16.228 -68.0813,20.6827 -133.8183,48.1806 -199.5014,75.3028 -18.0786,8.0445 -135.3854,60.4941 -154.502,68.0092 -33.2063,13.054 -92.1587,35.7807 -131.165,34.1726 -36.6138,-1.5093 -46.1748,-19.1149 -69.7587,-41.9541 -7.6213,-12.9768 -15.7238,-25.6828 -22.8639,-38.9304 -19.23,-35.6793 -26.8616,-58.6234 -48.7889,-93.3391 -15.6426,-24.7657 -39.3116,-59.699 -68.3003,-72.4277 -12.6614,-5.5594 -27.4359,-3.4842 -41.1539,-5.2263 -14.9734,6.0804 -30.9912,10.0461 -44.9201,18.241 -18.284,10.7572 -34.4367,24.8202 -50.9355,38.1548 -27.6884,22.3783 -73.551,64.7872 -101.1103,88.3706 -11.3534,9.7155 -22.1584,20.2625 -34.7145,28.3641 -8.2534,5.3253 -18.0779,7.6874 -27.1169,11.5311 -6.2549,-2.0126 -14.0052,-1.5078 -18.7648,-6.0379 -12.9739,-12.3483 -24.0894,-57.0052 -27.031,-68.426 -16.3899,-63.635 -25.8636,-129.1239 -47.943,-191.2925 -11.716,-26.4034 -22.0375,-60.9716 -46.787,-80.1013 -51.3601,-39.698 -141.8847,1.5204 -195.4202,12.1066 -92.1097,26.1222 -36.5181,9.3754 -120.338,36.6557 -28.1561,9.1638 -66.8818,27.7697 -96.5,10.71 -7.5379,-4.3417 -12.7233,-11.8659 -19.085,-17.7989 -15.3577,-23.01 -32.4059,-59.0161 -61.3123,-68.2603 -42.8546,-13.7048 -80.42,32.4548 -109.3252,53.6721 -70.9576,63.0981 -139.9979,127.439 -204.1821,197.4964 -26.9771,29.4457 -14.2703,22.5379 -26.9585,29.2372 0,0 -14.4111,12.5866 -14.4111,12.5866 z"
             id="path8602"
             style="fill:#646464;stroke:#000000;stroke-width:5;stroke-linecap:round;stroke-linejoin:round" />
        <path
             d="m 8835.0075,2527.3797 c -35.16,31.2961 -65.4644,69.003 -104.4082,96.0686 -7.5435,5.2427 -16.0544,8.934 -24.0816,13.401 -7.2994,1.1177 -14.5562,4.1431 -21.8984,3.353 -36.5719,-3.9359 -85.9261,-69.3192 -109.7801,-95.4023 -21.5623,-21.0252 -42.2162,-47.809 -72.5376,-56.5374 -13.5204,-3.892 -26.3822,-3.4215 -40.2502,-3.8699 -23.3277,-1.795 -51.5001,15.0313 -73.455,1.9026 -12.8553,-7.6872 -20.9422,-22.5187 -29.0203,-34.1319 -18.1014,-25.705 -36.9195,-83.464 -74.3754,-86.0466 -7.7927,-0.5374 -15.4181,2.5181 -23.1271,3.7772 -8.6685,4.7539 -18.0012,8.4589 -26.0055,14.2618 -40.8707,29.6303 -69.5405,73.3359 -103.8859,109.5292 -6.6079,6.9633 -13.8865,13.258 -20.8297,19.8871 -15.4702,11.3302 -21.1323,18.2248 -40.1729,22.0791 -32.2598,6.5302 -68.9608,-8.8701 -99.5762,-16.699 -10.7855,-0.6944 -21.5618,-2.6157 -32.3565,-2.0833 -58.7982,2.8998 -119.1185,41.4772 -172.6071,64.5847 -35.8992,15.7041 -66.5032,15.7218 -103.3699,7.2705 -29.6486,-3.5191 -57.9897,9.1652 -87.3196,11.543 -9.743,0.7899 -19.545,0.4371 -29.3175,0.6556 -32.8782,-2.607 -63.9446,-12.5258 -93.9477,-25.7575 -17.545,-7.7376 -38.6992,-19.7669 -56.7586,-26.4471 -10.4218,-3.855 -21.2875,-6.3829 -31.9312,-9.5743 -12.6674,-1.9089 -25.2459,-4.5512 -38.0023,-5.7266 -24.6011,-2.2668 -78.9752,-2.3431 -101.6088,-3.1065 -53.6223,-1.8086 -107.0781,-5.3645 -160.5056,-10.1127 -32.0446,-3.0844 -62.0296,-12.2067 -90.6938,-26.49 -7.7539,-3.8638 -26.3695,-15.5416 -35.6269,-17.4711 -6.5666,-1.3686 -13.4128,-0.268 -20.1191,-0.4019 -57.9241,14.4013 -108.501,49.4887 -154.9844,85.7812 -8.2123,5.9824 -21.1988,17.7174 -32.8229,18.8431 -18.5534,1.7969 -52.8915,-29.8916 -67.0571,-40.4069 -6.9435,-2.6481 -13.3993,-7.919 -20.8306,-7.9442 -18.6706,-0.063 -42.7178,19.0643 -54.4923,29.1515 -40.7049,34.8715 -73.9118,78.8875 -108.8659,119.2123 -21.9206,18.6793 -51.794,74.5783 -85.9988,75.4058 -30.2741,0.7324 -51.8231,-49.4209 -62.6432,-69.1868 -21.9428,-39.5883 -38.9685,-96.6466 -88.4018,-110.6307 -31.1012,-8.7982 -46.1532,0.1565 -76.4083,8.393 -43.0713,18.1999 -82.891,42.4754 -121.4705,68.6376 -14.712,9.9768 -37.2602,27.6587 -54.6449,34.7754 -7.5158,3.0768 -15.7778,3.8574 -23.6667,5.786 -7.8451,-0.889 -15.8719,-0.7679 -23.5354,-2.6671 -26.1283,-6.4755 -49.9903,-22.5676 -75.3507,-31.3402 -37.9212,-13.1176 -41.0873,-11.3765 -83.0765,-17.4526 -97.5903,-4.9945 -190.2208,30.0079 -285.2482,44.9939 -52.335,0.5257 -101.1944,-19.8828 -151.2542,-32.0912 -37.4399,-9.1307 -40.3066,-8.6787 -77.102,-13.956 -10.4954,-0.9705 -20.9932,-1.9157 -31.4862,-2.9115 -24.5726,-2.332 -24.7448,-1.4635 -47.0305,-7.0321 -15.2602,-3.8131 -28.5465,-9.0136 -44.2603,-10.5341 -4.3088,1.3253 -8.8329,2.0881 -12.9266,3.976 -7.0009,3.2288 -21.338,13.6039 -27.5304,17.8312 -12.3323,8.419 -24.5428,15.9195 -37.8581,22.6573 -22.9983,10.9762 -47.865,11.9351 -72.8293,12.4596 -48.4412,0.3541 -97.0552,6.9896 -145.5103,5.7152 -14.1529,-0.3722 -28.6089,-0.062 -42.322,-3.5825 -17.0027,-4.3654 -32.5294,-13.2073 -48.7941,-19.811 -85.165,-42.2172 -144.0715,-127.795 -236.5064,-156.9692 -16.8908,-5.331 -34.8137,-6.5484 -52.2205,-9.8226 -95.9175,-3.7769 -187.6189,27.3576 -278.3537,54.2332 -54.3965,17.6662 -108.7789,4.2095 -163.6516,-2.6136 -43.1655,-7.8746 -90.1589,3.4383 -132.336,-10.8664 -18.1797,-6.1657 -27.3056,-14.9065 -42.3188,-26.1957 -17.6642,-13.6937 -26.6914,-22.9728 -49.1359,-30.021 -58.6685,-18.4237 -127.4798,10.0575 -183.0054,27.0916 -65.584,18.0901 -129.9346,42.7115 -197.0352,55.0885 -28.4475,5.2472 -39.8849,4.8348 -68.8852,6.2801 -101.1394,-1.6022 -202.4342,-5.9839 -303.4308,-12.1456 -31.8557,-2.2961 -61.6323,-8.9029 -89.5184,-24.5081 -11.4168,-6.3889 -21.3351,-15.4708 -33.2823,-20.8025 -5.8625,-2.6163 -12.3056,-3.6645 -18.4583,-5.4967 -30.9456,-4.7927 -60.2666,9.0013 -90.7823,10.0745 -15.3373,0.5394 -18.6669,-1.4323 -32.7656,-5.272 0,0 11.4668,-14.9372 11.4668,-14.9372 l 0,0 c 13.8195,3.7056 17.0213,5.6008 32.0527,5.0266 30.7012,-1.1728 60.3043,-14.8429 91.4428,-9.6711 6.2903,1.9245 12.876,3.0657 18.871,5.7734 11.8658,5.3594 21.6943,14.442 33.0154,20.8726 27.4769,15.6075 56.9021,22.2768 88.3805,24.7858 100.9997,6.7177 202.3635,10.6783 303.5576,11.6219 28.4351,-1.5223 40.6466,-1.2577 68.5351,-6.3159 66.9366,-12.1403 131.2047,-36.3188 196.5224,-54.5784 57.297,-17.6498 123.9619,-46.1654 184.6818,-27.124 22.8713,7.1723 31.5913,16.1794 49.5694,30.0451 14.861,11.1581 23.6761,19.6336 41.6382,25.7375 42.0794,14.2996 88.9549,3.3497 132.0443,11.0134 54.6511,6.5379 108.9153,19.5727 163.0487,2.1888 90.865,-26.5044 182.7007,-57.1671 278.6126,-53.1543 17.5201,3.3557 35.5672,4.6406 52.5603,10.0671 92.3287,29.4837 151.02,115.0636 236.4531,156.9039 16.2035,6.3958 31.7087,14.9697 48.6104,19.1876 22.7422,5.6753 61.7336,2.8854 84.609,2.0139 34.5553,-1.3165 69.0935,-3.0425 103.6165,-5.026 24.7824,-0.8188 49.4962,-1.9657 72.2338,-13.0716 13.1847,-6.7904 25.303,-14.3552 37.5834,-22.6786 7.0186,-4.7571 20.132,-14.2272 28.1009,-17.592 4.2962,-1.8141 9.0183,-2.3795 13.5275,-3.5693 15.6483,1.8131 29.0385,7.011 44.2457,10.8924 21.9601,5.605 22.3288,4.7549 46.6134,7.2236 10.4762,1.0649 20.9566,2.0869 31.4349,3.1304 36.8745,5.4984 39.5873,5.086 77.1493,14.2491 49.8792,12.1678 98.6757,32.2176 150.8308,31.3918 95.0676,-14.8153 187.8718,-48.9885 285.3946,-44.2903 42.0275,5.9389 45.7761,4.2876 83.8153,17.2297 25.2439,8.5888 49.0628,24.613 75.0956,30.8073 7.4928,1.7829 15.3267,1.5408 22.99,2.3112 7.7187,-1.9713 15.8009,-2.8536 23.1561,-5.9139 17.0931,-7.1123 39.7347,-24.6422 54.2558,-34.3997 38.7597,-26.0448 78.7504,-50.2229 121.9494,-68.329 30.988,-8.1844 45.9945,-17.0795 77.707,-7.8538 49.7584,14.4755 66.9177,71.3796 89.0226,111.4881 10.225,18.5071 31.8946,68.3671 60.8558,67.1613 33.5813,-1.3982 62.9533,-56.5593 84.705,-74.8983 5.5457,-6.395 69.1703,-79.8872 74.5809,-85.6221 19.145,-20.2923 58.5966,-63.3226 91.3117,-62.5522 7.5824,0.1786 14.125,5.53 21.1875,8.2949 14.3077,10.5712 46.4002,41.44 65.7094,39.0319 11.156,-1.3913 24.2851,-13.0475 32.1657,-18.7782 46.8947,-36.164 97.7819,-71.5353 156.1768,-85.2671 6.9072,0.2603 13.9698,-0.6994 20.7215,0.7809 9.4713,2.0766 27.474,13.6342 35.5039,17.7004 28.3064,14.334 57.9857,23.4891 89.7012,26.7688 53.3255,4.9841 106.6492,8.694 160.2029,10.308 24.9537,0.7521 75.6649,0.3218 102.189,2.7115 12.8648,1.1591 25.5502,3.8177 38.3253,5.7265 10.7242,3.2172 21.6726,5.7648 32.1727,9.6515 18.3101,6.7776 38.8582,18.605 56.659,26.4544 29.8317,13.1545 60.7293,22.8446 93.4382,25.1987 9.7306,-0.2902 19.4954,0 29.1917,-0.8704 29.5862,-2.6438 58.2703,-15.7418 88.2393,-11.6088 36.383,8.4032 66.4938,8.1955 101.924,-7.2697 53.8584,-23.2196 114.0388,-61.4249 173.3194,-64.1038 10.9105,-0.4931 21.7943,1.4618 32.6915,2.1927 30.3379,7.6436 66.9376,22.7996 98.8352,15.7916 18.4612,-4.0559 24.412,-11.1172 39.4076,-22.2513 6.8599,-6.5955 14.0375,-12.8756 20.5796,-19.7864 34.3272,-36.2615 63.2453,-80.1353 104.5279,-109.3254 8.2083,-5.8039 17.7734,-9.3995 26.6601,-14.0993 7.9804,-1.1103 15.9154,-4.0429 23.9412,-3.3308 38.1882,3.3882 56.5797,60.4246 75.144,86.9079 7.6608,10.9158 15.9607,25.862 28.2636,33.0781 20.3444,11.9329 50.8545,-3.8026 72.9767,-2.0515 14.345,0.5468 26.877,0.1023 40.8274,4.2545 30.5078,9.0805 51.1832,36.0475 72.8357,57.4043 23.2658,25.5032 72.6636,90.6427 108.587,93.9755 7.147,0.6631 14.1598,-2.362 21.2398,-3.543 7.8986,-4.4699 16.2657,-8.1982 23.6959,-13.4097 39.0774,-27.4089 69.623,-65.2274 104.7832,-97.006 0,0 -10.0147,16.3425 -10.0147,16.3425 z"
             id="path8604"
             style="fill:#646464;stroke:#000000;stroke-width:5;stroke-linecap:round;stroke-linejoin:round" />
        <path
             d="m 2787.5944,3074.632 c 38.506,-24.9429 81.7227,-42.4611 124.3706,-59.0154 12.5176,-4.8589 24.6728,-11.2556 37.8702,-13.7309 11.1238,-2.0864 22.635,0.1731 33.9526,0.2596 11.2146,6.7436 23.8402,11.5629 33.6439,20.2308 23.9779,21.2 53.6146,66.4245 70.1257,91.912 30.683,47.3638 58.0721,96.7235 88.4586,144.2836 8.2545,5.2211 15.0587,14.561 24.7635,15.6634 30.5475,3.4699 64.2643,-50.3528 78.8096,-70.7773 35.8306,-50.3132 36.9102,-52.6983 71.3712,-104.0628 28.7435,-40.4415 55.0345,-82.8617 86.3434,-121.4562 5.1695,-6.3724 31.024,-40.0274 46.0709,-48.2212 3.2747,-1.7832 7.3426,-1.3034 11.0139,-1.9551 10.021,2.8212 12.4742,13.9441 21.523,18.2632 14.722,7.0269 36.6515,1.2712 51.3434,-0.5346 23.3089,-1.8827 54.9488,-15.4176 75.0293,4.6695 26.4534,26.4621 42.2964,106.8883 51.5256,141.1616 22.6793,70.8898 28.9575,162.0716 72.9123,224.3124 2.2832,1.3253 4.267,3.4287 6.8497,3.9761 6.5871,1.3959 16.6744,-10.559 19.1108,-14.5566 1.1132,-1.8265 -5.6688,6.1517 -4.8844,4.1618 1.5058,-3.8201 4.7916,-6.6696 7.1875,-10.0044 9.9576,-11.0896 19.2183,-22.8472 29.8729,-33.269 16.8157,-16.4482 43.6642,-34.993 62.7537,-47.7438 34.5528,-23.0792 60.6975,-37.7771 99.1587,-52.744 21.4726,-6.6535 42.3511,-8.1873 64.2232,-3.2753 9.6419,2.1653 18.4398,7.7452 28.2383,9.028 5.6788,0.7434 11.4466,-0.4267 17.1698,-0.6401 7.3202,-2.5624 14.9357,-4.4007 21.9607,-7.6872 48.0245,-22.4677 90.2561,-56.983 135.2522,-84.637 5.5504,-1.6181 10.879,-4.5262 16.6511,-4.8542 20.2913,-1.1531 28.3531,20.6416 40.6816,31.8635 3.7292,3.3944 8.0817,6.0333 12.1226,9.05 46.1802,15.8953 96.5092,8.1333 144.3107,7.3912 61.162,-0.9494 49.0188,-0.4809 109.4628,4.3755 47.6863,6.886 90.7308,25.7783 132.3717,48.9979 20.2226,11.2766 38.1295,23.7395 59.1994,33.4184 10.0503,4.6169 20.6157,8.0182 30.9235,12.0273 11.4228,2.9917 22.6652,6.7844 34.2682,8.9751 34.4025,6.4952 64.8236,6.6326 100.2688,7.0246 62.4374,0.6905 124.9313,-1.7903 187.3623,-2.5131 38.2801,1.0107 76.3019,5.3703 112.8186,17.2209 23.2975,7.5607 45.0482,17.2004 68.779,23.5737 60.6869,3.321 119.9138,-14.943 179.4873,-23.3557 59.2541,-8.3675 89.9785,-9.4024 149.5769,-13.4902 68.184,-2.8797 138.3404,-4.8172 203.822,17.7098 9.9425,3.4205 63.5715,26.5938 72.3336,30.3443 67.0367,26.9619 136.5278,38.1698 208.3525,27.1202 48.2661,-7.4254 85.2863,-20.3928 132.0934,-34.4297 21.743,-7.8394 43.4859,-15.6789 65.2289,-23.5183 19.092,-7.4406 38.0285,-15.2932 57.276,-22.3218 35.0444,-12.7971 76.2651,-29.6533 113.6701,-13.643 8.406,3.598 14.9762,10.4948 22.4643,15.7422 20.961,14.599 33.9775,52.0506 58.275,60.2756 19.0141,6.4365 35.3438,1.9401 54.8597,-0.1851 109.0795,-18.7152 217.6338,-40.3766 326.4357,-60.6338 45.2737,-9.8962 91.3365,-6.1197 137.1276,-6.1283 28.6592,-0.01 37.5673,-1.4486 66.4847,-3.9943 54.9328,-5.0401 109.3525,-16.1709 164.387,-20.1396 24.3059,-1.7529 36.1491,-0.6985 59.5941,0.2411 6.7997,1.0226 13.6326,1.8452 20.3992,3.0677 14.6598,2.6485 22.0778,5.6329 37.3279,7.3085 42.3477,4.653 84.6155,1.0856 126.9288,-1.6866 67.0868,-5.1519 133.919,-13.1916 201.0801,-17.4417 23.261,-1.472 70.8185,-4.3425 95.8197,-0.9354 12.2248,1.6659 23.9003,6.1364 35.8504,9.2046 39.5389,8.4566 63.5489,45.5263 99.0708,60.9874 35.5212,15.4608 82.6645,22.679 118.8748,30.2922 28.8322,4.4507 57.566,9.5942 86.4966,13.3521 68.4417,8.8902 106.3905,11.5384 174.6662,13.7501 24.3004,0.7872 48.6297,0.2628 72.9335,0.9358 54.4441,1.5078 53.2792,2.1868 102.6131,7.1226 34.0116,0.7883 63.9226,25.1142 97.8772,25.0469 22.7975,-0.045 28.0253,-5.6981 48.6662,-15.7092 26.34,-18.34 51.0509,-38.8538 76.2118,-58.743 0,0 -9.7047,15.4288 -9.7047,15.4288 l 0,0 c -25.2411,19.9176 -49.9776,40.5522 -76.6169,58.6154 -21.3382,9.9778 -26.3504,15.4592 -49.7277,15.2724 -33.8395,-0.2704 -63.4631,-24.2645 -97.2768,-25.6765 -48.7317,-5.3378 -48.0269,-6.08 -101.8437,-7.9109 -24.2278,-0.8243 -48.4876,-0.4504 -72.7133,-1.3342 -68.8098,-2.5105 -105.6692,-5.1488 -174.7277,-13.9385 -29.0435,-3.6966 -57.9106,-8.667 -86.8659,-13.0005 -36.0204,-7.1728 -84.8285,-14.1876 -120.4428,-29.3378 -35.4762,-15.0914 -59.1482,-52.3969 -98.4431,-60.8509 -11.8042,-3.0499 -23.3386,-7.4586 -35.4127,-9.1497 -25.0389,-3.5069 -71.8072,-0.9966 -95.1809,0.3922 -67.264,3.9968 -134.1826,12.0358 -201.3038,17.7297 -42.6378,3.0215 -85.3205,6.9011 -128.0414,2.4641 -15.6396,-1.6243 -22.3784,-4.5142 -37.2976,-7.2791 -6.6668,-1.2355 -13.3988,-2.0889 -20.0982,-3.1334 -23.2324,-1.046 -34.9742,-2.1592 -59.0713,-0.4951 -55.1104,3.8059 -109.5681,15.114 -164.5419,20.2906 -28.8526,2.5328 -38.1519,4.0081 -66.7597,4.0006 -45.5643,-0.012 -91.3837,-3.8511 -136.461,5.8583 -109.0584,19.7277 -217.7793,41.2772 -326.8372,60.9738 -20.4373,2.1904 -36.4274,6.7462 -56.1904,-0.1242 -24.5488,-8.534 -37.1179,-45.5947 -58.1177,-60.5978 -7.2785,-5.1216 -13.6585,-11.8514 -21.8355,-15.3648 -36.7321,-15.7829 -77.6536,0.8219 -112.1225,13.2583 -19.2037,6.9286 -38.0938,14.6972 -57.1407,22.0459 -21.7556,7.8047 -43.5113,15.6095 -65.2669,23.4142 -47.0512,14.1278 -84.0858,27.1368 -132.6175,34.5647 -72.1288,11.0394 -142.0761,-0.2434 -209.4881,-27.0253 -35.4788,-15.0861 -70.6696,-32.4359 -108.6357,-40.5263 -54.5672,-11.628 -110.7037,-10.4026 -166.0792,-8.0912 -62.7996,4.3358 -87.2333,4.8215 -149.6922,13.9686 -60.047,8.7938 -119.7807,27.6979 -181.0145,24.1109 -23.6863,-6.4653 -45.4195,-16.0807 -68.6592,-23.7647 -36.1509,-11.953 -73.7704,-16.693 -111.7574,-17.7929 -62.4508,0.5122 -124.9214,2.8211 -187.3749,2.4254 -37.28,-0.2362 -65.3719,0.1774 -101.1405,-6.5358 -11.6793,-2.1921 -22.9904,-6.0235 -34.4855,-9.0353 -10.3733,-4.0461 -21.0129,-7.4662 -31.1197,-12.1383 -21.1846,-9.7931 -38.6733,-22.221 -58.9726,-33.6879 -41.3054,-23.333 -84.0425,-42.1369 -131.5076,-48.9383 -60.1605,-4.7944 -48.4078,-5.3334 -109.3552,-4.1848 -48.4132,0.9123 -99.3732,9.2871 -146.1303,-7.0397 -4.1501,-3.085 -8.6135,-5.7881 -12.4504,-9.2549 -11.7042,-10.5754 -19.582,-32.1602 -38.9175,-30.6606 -5.5961,0.434 -10.7375,3.2747 -16.1062,4.912 -43.8737,26.8891 -89.3331,63.2284 -135.5973,84.4183 -7.2081,3.3015 -15.0356,5.0355 -22.5534,7.5532 -5.9352,0.1124 -11.9252,1.1503 -17.8055,0.3372 -9.6695,-1.3372 -18.3554,-6.8272 -27.8833,-8.9499 -21.4949,-4.789 -42.0439,-3.1136 -63.114,3.4224 -9.7529,3.8112 -19.7963,6.9494 -29.2587,11.4335 -50.5662,23.9628 -95.9081,58.4974 -138.1689,94.6648 -6.0957,8.4426 -32.9442,52.2333 -47.6774,47.7512 -2.7652,-0.8413 -4.8766,-3.1041 -7.315,-4.6562 -43.6518,-64.4545 -48.7512,-153.6357 -72.1187,-226.0816 -9.1159,-33.3123 -25.4145,-113.2647 -51.3149,-139.045 -19.7188,-19.6273 -51.4314,-5.7946 -74.1957,-4.0584 -15.7512,1.988 -37.2994,7.6292 -52.8661,0.041 -8.6435,-4.2136 -10.9944,-14.1377 -20.1879,-17.2713 -3.3547,0.7339 -7.0913,0.4827 -10.0642,2.2018 -19.0137,10.9946 -36.2281,37.7999 -47.6316,53.409 -19.5829,26.8047 -43.6032,62.1803 -62.148,89.1356 -36.7694,54.8737 -72.6485,111.0754 -115.8395,161.2682 -11.0677,12.862 -35.0163,42.528 -58.6392,39.0157 -9.8838,-1.4695 -16.6062,-11.1187 -24.9092,-16.6781 -30.0013,-47.8141 -57.2315,-97.3586 -88.0375,-144.6614 -16.748,-25.7167 -45.7777,-69.5371 -70.1247,-90.7447 -9.6338,-8.3916 -22.0022,-12.9931 -33.0034,-19.4896 -11.0963,-0.033 -22.3884,-2.1758 -33.2889,-0.1001 -13.1256,2.4993 -25.2464,8.7771 -37.7001,13.6179 -42.9298,16.6866 -86.4507,34.5799 -124.7143,60.5056 0,0 10.1774,-16.2026 10.1774,-16.2026 z"
             id="path8606"
             style="fill:#646464;stroke:#000000;stroke-width:5;stroke-linecap:round;stroke-linejoin:round" />
        <path
             d="m 2864.1448,3803.9383 c 30.7169,-20.0732 65.3618,-34.0009 100.3918,-44.591 11.4828,-3.4714 22.9818,-7.4225 34.9008,-8.7804 9.9389,-1.1323 19.985,0.9261 29.9774,1.3891 8.0081,6.0593 18.0437,10.1107 24.0242,18.1777 17.8033,24.0152 25.9346,68.4976 31.6274,94.8697 0.4871,2.2565 19.4198,103.2596 21.4501,110.5948 3.0581,11.0482 8.5419,21.2767 12.8128,31.915 5.2732,3.4588 9.5223,10.0396 15.8197,10.3763 7.1332,0.3815 13.6028,-4.7266 19.6819,-8.4781 19.1039,-11.7894 45.485,-43.8277 68.4873,-46.4996 5.4619,-0.6344 10.4691,3.3669 15.7037,5.0504 24.6746,33.0509 29.0363,77.7861 62.4458,104.9808 22.7898,18.5505 32.1807,15.2642 59.8603,17.8299 50.5701,-3.6869 87.3607,-39.6171 130.9009,-60.4975 7.4223,-3.5595 15.2906,-6.1024 22.936,-9.1537 39.8902,-10.4494 72.0411,-35.7956 104.5398,-59.7818 6.3953,-4.7202 13.2877,-8.822 19.2279,-14.1035 7.4038,-6.5828 13.7751,-14.2424 20.6626,-21.3636 22.8441,-24.1726 42.0421,-51.5586 64.9196,-75.6958 6.7897,-7.1636 19.2633,-22.3201 32.2277,-13.1762 6.1993,4.3725 8.7594,12.3884 13.139,18.5826 21.9589,38.1968 29.932,88.2533 64.8625,118.1224 20.447,17.4842 28.8439,14.8834 54.3878,18.4821 54.4488,-1.7294 107.6586,-14.9527 161.8716,-19.1402 12.6146,-0.9744 25.3369,-2.4682 37.9344,-1.2938 10.6802,0.9956 20.8229,5.1612 31.2343,7.7418 26.8959,13.1682 43.2644,36.6202 62.2269,58.4286 7.3931,8.5027 19.5041,25.0916 33.5496,25.4417 8.9722,0.2237 17.3513,-4.597 26.0269,-6.8955 72.805,-30.94 139.0952,-76.1754 212.5959,-105.6136 9.9849,-3.9991 20.4876,-6.5593 30.7314,-9.8389 8.0779,-1.1304 16.0986,-2.8003 24.2338,-3.3912 24.7147,-1.7952 35.2482,4.7522 61.8478,-0.8853 32.0409,-6.7907 54.5041,-17.0111 85.9761,-28.9044 99.4836,-31.719 195.8131,-84.2946 301.296,-93.9349 10.5291,-0.9623 21.144,-0.2782 31.716,-0.4173 20.1147,-0.9839 38.361,9.3926 58.4903,6.8802 25.4189,-3.1725 51.5852,-18.7768 74.337,-29.0363 25.1339,-12.0496 52.3077,-27.5722 80.5598,-14.9919 17.7701,7.9128 31.3876,26.179 44.0086,40.199 4.3468,3.0451 8.0495,7.3301 13.0404,9.1353 24.4151,8.8308 54.3905,-3.2533 78.1259,-6.6111 12.6667,-1.7919 26.0187,-7.2068 38.2286,-3.3892 16.9713,5.3063 29.7258,19.5221 44.5886,29.2831 51.9877,45.4516 77.3552,114.4162 140.5597,147.8589 53.3586,28.2332 113.204,20.8313 169.9888,14.2314 14.3357,-3.1114 65.3345,-12.4644 79.7841,-21.7615 16.2467,-10.4533 29.2526,-25.2788 43.0797,-38.7709 15.2841,-14.9138 27.0204,-33.6861 44.1897,-46.384 35.1472,-25.9937 46.3757,-19.053 84.6629,-16.4191 37.03,9.8812 67.8882,34.2626 104.1955,45.8791 17.6985,5.6626 36.6436,7.0042 54.1593,13.2092 56.6393,20.0644 78.2618,36.9935 129.6253,68.2958 48.4609,31.3477 97.3814,71.8385 158.3216,73.349 48.8067,1.2098 90.0307,-24.9783 130.831,-47.556 12.6294,-5.9765 25.0008,-12.5317 37.8882,-17.9294 11.0705,-4.6367 22.5996,-8.0919 33.8995,-12.1378 11.5662,-3.7386 23.45,-6.6091 34.6987,-11.2158 43.4399,-17.7896 80.946,-41.2019 123.2626,-62.196 27.5502,-13.6682 55.7014,-26.0901 83.552,-39.1352 27.7572,-0.6472 56.2252,-8.2164 83.2716,-1.9416 55.0826,12.7792 137.2212,70.4847 182.4542,100.3614 26.3062,17.3754 51.764,36.0294 78.3109,53.0348 49.4856,31.6995 62.3899,37.3841 109.4562,61.9865 -51.3461,12.1728 -14.9605,8.8974 -99.6977,-39.5297 -33.078,-18.904 -67.3776,-35.7723 -99.4306,-56.3666 -34.8662,-22.4019 -82.1787,-48.0366 -90.3502,-95.0106 -2.094,-12.0371 5.3234,-23.8488 7.9851,-35.7732 13.091,-15.2163 24.8625,-31.6759 39.2731,-45.6488 25.2276,-24.4614 68.4882,-51.975 104.6091,-55.2403 25.1147,-2.2704 39.4138,5.1981 62.5076,12.9156 51.6162,22.8785 104.422,43.4317 160.0146,54.2336 16.1738,3.1426 52.0053,7.8459 69.0641,10.1856 25.6959,5.1353 50.5571,12.7898 73.5056,25.5953 19.177,10.7011 17.1862,13.049 37.962,21.8236 8.2815,3.4976 17.005,5.8391 25.5075,8.7587 63.7295,17.2418 128.3558,-1.2883 192.3959,-2.6535 30.2022,1.3092 56.5846,17.9456 85.9516,22.8825 13.9317,2.342 26.4225,1.3239 40.4334,0.956 18.542,-1.6376 37.3478,-1.677 55.4909,-6.3583 3.1213,-0.8053 6.2164,-1.8346 9.0965,-3.2823 1.4071,-0.7073 4.6652,-4.225 3.5759,-3.0877 -3.7054,3.8689 -7.6231,7.5288 -11.4346,11.2931 2.043,-29.6454 14.4761,-72.6043 31.7501,-96.7032 5.9711,-4.2928 10.6875,-11.5113 17.9135,-12.8784 3.2913,-0.6226 3.5884,5.6576 5.4159,8.4649 8.3765,12.8669 9.1498,15.8144 23.7219,25.8629 21.9958,15.1675 38.0564,19.8203 63.4094,30.1315 46.5048,13.6458 42.7979,13.9716 91.0075,22.3651 14.3256,2.4941 29.0217,2.928 43.1656,6.3035 17.0874,4.078 33.9243,9.4205 50.2196,15.9834 40.9045,16.4741 90.9183,45.3167 128.7549,65.8872 81.6465,38.5633 161.2193,99.6698 255.1877,102.5653 31.5829,0.9732 42.3609,-4.841 70.6635,-13.864 21.629,-7.5933 39.0284,-21.3413 56.5602,-35.4623 0,0 -9.9676,15.8619 -9.9676,15.8619 l 0,0 c -17.6253,13.8931 -35.1911,27.2809 -56.8247,34.6156 -28.4686,8.6343 -39.3139,14.2909 -70.9326,12.8801 -93.8519,-4.1878 -172.9949,-65.7357 -254.9715,-103.8203 -38.6171,-20.6647 -87.5236,-48.5261 -129.127,-64.8961 -59.71,-23.4947 -124.8449,-21.412 -184.8009,-44.355 -33.2344,-13.2609 -68.5227,-24.3643 -88.7817,-55.8561 -1.5385,-2.3917 -4.7854,-4.5489 -4.3232,-7.3549 0.9204,-5.5874 5.3355,-9.99 8.0032,-14.985 -16.7649,20.9757 -31.639,68.5798 -32.1664,95.8689 -4.2411,6.1172 -8.0828,12.5315 -12.7233,18.3516 -8.6887,10.8972 -55.9985,9.413 -68.7986,11.5682 -14.9345,0.317 -26.0068,1.2903 -40.818,-1.2994 -29.1604,-5.0986 -55.4484,-21.4029 -85.484,-22.6629 -64.1913,1.314 -129.0145,19.2499 -192.8522,2.1856 -8.6117,-2.9325 -17.4474,-5.2749 -25.835,-8.7976 -21.1288,-8.8737 -18.5816,-10.978 -37.9121,-21.8227 -22.7175,-12.7448 -47.374,-20.3383 -72.8191,-25.5185 -17.6223,-2.5023 -52.2053,-7.1915 -68.9914,-10.5456 -55.5891,-11.1073 -108.4831,-31.6313 -160.3656,-54.0525 -22.8909,-7.525 -36.7987,-14.7737 -61.6202,-12.3642 -47.9243,4.6521 -88.8408,40.5836 -120.5676,73.5306 -3.0582,11.7487 -10.8526,23.2223 -9.1746,35.246 6.6446,47.6095 52.5536,73.4847 87.9569,96.2656 32.0809,20.6431 66.5505,37.3163 100.011,55.6388 26.4281,14.4717 56.5069,23.4464 79.6497,42.7412 5.8586,4.8845 -0.6411,15.2419 -0.9616,22.8629 -45.447,-24.8719 -60.875,-32.4247 -108.5288,-63.4075 -26.4099,-17.1708 -51.7513,-35.9403 -78.0116,-53.339 -46.5597,-30.8482 -125.4723,-86.224 -182.2353,-99.098 -26.8326,-6.0856 -55.0115,1.3499 -82.5173,2.0248 -27.8864,13.1469 -56.0973,25.6264 -83.6591,39.4406 -45.2142,22.6618 -78.9239,44.7177 -124.5206,63.5431 -11.2306,4.6368 -23.1106,7.5103 -34.666,11.2654 -11.2092,4.0157 -22.6449,7.4481 -33.6277,12.0472 -12.8151,5.3664 -25.1209,11.8759 -37.6813,17.8138 -41.1536,22.5822 -82.6364,48.5213 -131.7877,46.8026 -60.9628,-2.1317 -109.6729,-43.127 -158.1874,-74.5093 -52.3096,-31.7191 -71.8953,-47.5296 -129.6637,-67.3967 -17.7448,-6.1026 -36.897,-7.2646 -54.7995,-12.8877 -36.1591,-11.3574 -66.8407,-35.8153 -103.6882,-45.5292 -37.6038,-2.4234 -48.436,-9.1573 -82.8792,16.4995 -17.1907,12.8054 -29.006,31.6046 -44.4218,46.4994 -14.1153,13.6383 -27.5199,28.5107 -44.0938,39.025 -14.3864,9.1267 -65.5816,18.1426 -79.7916,21.1175 -57.1387,6.2428 -117.255,13.1604 -170.7398,-15.4679 -62.8544,-33.6434 -88.4405,-102.4075 -140.7451,-147.3682 -14.6619,-9.3769 -27.3068,-23.1594 -43.9856,-28.1307 -12.2481,-3.6507 -25.5215,1.7991 -38.1682,3.6437 -24.5147,3.5755 -54.6163,15.6414 -79.7321,6.2386 -5.0998,-1.9093 -8.8748,-6.3128 -13.3121,-9.4692 -12.2939,-13.7831 -25.5911,-31.8762 -43.0356,-39.5912 -27.7201,-12.2595 -54.7425,3.6764 -79.3099,15.3063 -23.1223,10.4962 -49.4536,26.2536 -75.3926,29.086 -20.031,2.1872 -38.1189,-8.0031 -58.1134,-7.274 -10.4205,0.067 -20.8786,-0.6854 -31.2615,0.2013 -105.3665,8.9986 -201.7404,61.4618 -300.743,93.8067 -31.9575,12.2338 -54.3764,22.6251 -86.9331,29.5249 -26.8768,5.6961 -37.0538,-0.8263 -61.8663,0.9713 -7.9922,0.5789 -15.8723,2.2163 -23.8085,3.3244 -10.1077,3.2111 -20.4687,5.7131 -30.3231,9.6332 -73.8001,29.3579 -140.1757,74.8863 -213.2004,105.8977 -9.0754,2.1287 -17.9154,6.8365 -27.2262,6.3861 -14.1313,-0.6835 -26.5064,-17.4538 -34.0228,-26.1686 -18.627,-21.5969 -34.6027,-44.8585 -61.1757,-57.8541 -10.2326,-2.5418 -20.2,-6.6433 -30.6977,-7.6253 -12.5208,-1.1713 -25.1675,0.2679 -37.7063,1.2262 -54.4477,4.161 -107.835,17.7513 -162.5309,19.2489 -26.1876,-3.954 -34.5014,-1.3609 -55.3815,-19.3641 -34.8257,-30.0274 -42.9574,-79.8103 -65.2328,-117.9407 -4.009,-5.7723 -6.2748,-13.2792 -12.027,-17.3171 -12.1372,-8.5202 -24.5635,8.0642 -30.4464,13.6116 -24.1603,22.7823 -41.4334,52.2757 -65.0322,75.6744 -7.0151,7.1332 -13.5353,14.7895 -21.0453,21.3996 -5.9246,5.2147 -12.7598,9.2931 -19.126,13.9583 -32.6641,23.9371 -65.1564,48.9061 -105.0067,59.6492 -7.5838,3.1069 -15.3779,5.7431 -22.7513,9.3208 -43.5774,21.144 -80.8367,56.4126 -131.6376,59.5789 -28.4089,-2.9574 -37.5649,0.2887 -60.8914,-18.7552 -33.0076,-26.9476 -38.2994,-70.669 -62.1014,-103.7813 -4.8159,-1.4751 -9.4588,-5.1186 -14.4476,-4.4253 -21.895,3.0431 -49.3451,35.5082 -68.5808,46.4249 -6.5141,3.6969 -13.7438,8.2825 -21.1901,7.4752 -6.6076,-0.7164 -10.842,-7.6904 -16.263,-11.5356 -4.1991,-10.8712 -9.5772,-21.3577 -12.5973,-32.6135 -9.7372,-36.2896 -13.1961,-73.9982 -21.2326,-110.7019 -5.5662,-25.4218 -14.1486,-69.9146 -31.4395,-93.2601 -5.7582,-7.7746 -15.4347,-11.6693 -23.152,-17.504 -9.803,-0.4244 -19.6633,-2.4144 -29.4089,-1.2734 -11.8496,1.3874 -23.2901,5.2876 -34.6984,8.7792 -35.2435,10.7865 -70.05,25.1603 -100.6107,45.9562 0,0 10.2611,-16.2233 10.2611,-16.2233 z"
             id="path8608"
             style="fill:#646464;stroke:#000000;stroke-width:5;stroke-linecap:round;stroke-linejoin:round" />
        <path
             d="m 8794.5326,5009.0343 c -22.3381,3.7755 -46.6618,9.995 -69.3196,3.9096 -53.1221,-14.2676 -85.2428,-58.9204 -118.6051,-98.6342 -41.3407,-61.2777 -28.7198,-40.6613 -65.0966,-101.7326 -14.8225,-24.8849 -35.8382,-73.3529 -66.8013,-84.4563 -6.6155,-2.3723 -14.0334,-0.7974 -21.0502,-1.196 -27.7804,4.0308 -67.3854,37.2621 -94.2356,18.9241 -15.8825,-10.8474 -20.1548,-30.1029 -26.6807,-46.4438 -11.0887,-23.8802 -13.7654,-91.5424 -34.1169,-106.6288 -12.3971,-9.19 -30.3536,-3.3351 -43.0204,-1.55 -37.8437,5.2384 -107.1532,47.4635 -142.2988,38.7264 -7.339,-1.8244 -13.316,-7.1722 -19.974,-10.7583 -30.6267,-24.1507 -42.033,-66.7874 -75.8001,-87.572 -23.735,-14.6097 -37.2184,-11.6483 -64.4727,-13.1405 -12.7976,1.354 -25.7299,1.7676 -38.3927,4.0618 -13.4512,2.437 -26.5651,6.4801 -39.7486,10.0953 -47.5942,13.0515 -94.048,29.8326 -140.8595,45.3684 -29.2771,6.2778 -53.701,23.4259 -79.4429,37.5604 -12.0984,6.6431 -26.3177,16.4701 -41.5238,13.8985 -6.0917,-1.0302 -11.0047,-5.6192 -16.5071,-8.4288 -33.4632,-31.6655 -42.294,-80.7828 -75.7641,-112.536 -6.9601,-6.6031 -15.3553,-11.506 -23.0329,-17.2589 -9.5582,-3.9732 -18.5406,-9.8111 -28.6747,-11.9196 -52.1001,-10.8397 -99.8235,13.0594 -149.6978,21.7126 -9.095,1.578 -18.4108,1.3725 -27.6162,2.0587 -24.0879,3.7701 -53.2024,-20.4174 -74.9739,-22.4905 -18.272,-1.7399 -37.8052,6.2738 -54.4773,11.2123 -52.8756,20.64 -101.7375,49.7722 -151.6615,76.4343 -9.8855,5.2794 -19.4938,11.1581 -29.7845,15.5962 -8.4123,3.6279 -17.4203,5.6787 -26.1305,8.5181 -29.3278,0.4601 -22.5181,2.5518 -52.5717,-6.8703 -26.1439,-8.1964 -56.3641,-27.2747 -82.5331,-5.261 -7.3898,6.2164 -9.4242,16.8579 -14.1364,25.2869 -24.6471,61.6652 -20.5595,46.5173 -38.3462,110.8549 -7.4074,26.7938 -12.8413,92.5277 -63.207,70.9751 -14.0062,-5.9935 -21.8326,-21.2536 -32.7489,-31.8804 -14.5806,-13.0804 -28.0507,-27.5161 -43.7418,-39.2414 -75.1936,-56.1889 -161.877,-87.1074 -250.6274,-114.6527 -73.6104,-22.8464 -116.3557,-32.7094 -189.7822,-51.3027 -61.0766,-12.9387 -118.4726,-34.0517 -169.7885,-69.7837 -10.1625,-7.0763 -38.7452,-32.2459 -51.6576,-39.2093 -7.5469,-4.0699 -16.0788,-5.9625 -24.1181,-8.9438 -8.0948,-1.3977 -16.1553,-3.0109 -24.2842,-4.1932 -20.6782,-3.0077 -21.1013,-0.8393 -40.3731,-7.3603 -17.2204,-5.827 -22.0644,-11.2859 -40.9283,-13.8966 -39.4295,11.7184 -44.8142,25.0449 -59.6217,59.8623 -22.149,42.9694 -34.8914,30.75 -70.4108,41.2822 -21.4023,6.3462 -27.3041,11.6509 -46.1296,23.1716 -11.4618,9.2951 -21.8066,16.3478 -30.8135,27.9743 -1.4076,1.817 3.5402,-5.4153 5.4809,-4.1838 2.0349,1.2913 -0.6522,4.7838 -0.7399,7.1923 -0.093,2.5623 0.8042,5.1982 0.1978,7.6895 -1.0185,4.1843 -3.3146,7.9497 -4.9718,11.9246 -8.3132,9.5909 -15.5942,20.1845 -24.9397,28.7727 -22.0558,20.2688 -56.143,28.4709 -84.8143,19.0483 -35.3297,-11.6109 -66.5251,-39.489 -95.1499,-61.0085 -69.6489,-54.667 -130.8594,-120.4082 -205.951,-167.9368 -11.8457,-5.0345 -16.9372,-9.3222 -30.1845,-7.08 -34.5117,5.8414 -74.4304,33.7007 -104.8473,50.8536 -16.2099,7.6854 -32.1821,13.7318 -49.8785,7.8025 -13.4176,-4.4957 -6.8668,-6.6913 -23.4716,-8.4093 -5.5558,-0.5748 -11.1636,0.4037 -16.7455,0.6055 -6.1715,2.0541 -12.627,3.3976 -18.5146,6.1622 -27.6732,12.9945 -51.0052,34.9519 -74.0579,54.4369 -36.1189,30.529 -13.6854,12.073 -47.9943,39.8533 -59.6883,41.2872 -126.4816,71.196 -192.7362,100.2575 -30.7536,12.9522 -62.7289,23.3272 -96.3665,24.3631 -27.3532,0.8424 -55.0807,-4.1745 -82.4113,-5.3509 -10.3661,1.4945 -20.9763,1.7941 -31.0984,4.4836 -53.2277,14.1426 -99.3208,47.5906 -147.7738,72.2725 -9.6502,4.9158 -19.6935,9.0185 -29.5402,13.5278 -36.7903,12.0884 -55.5847,-5.7705 -87.1391,-19.1596 -23.4339,-9.9433 -28.5821,-9.3558 -54.4543,-14.198 -31.9409,-9.9493 -81.2125,8.5568 -111.1928,-3.5706 -18.2695,-7.3903 -23.1429,-18.7844 -34.4873,-33.9992 -18.788,-28.8422 -30.951,-74.0973 -68.5697,-84.3859 -18.8026,-5.1426 -30.9927,-0.2314 -49.3308,3.5735 -25.795,3.8729 -52.2336,28.5344 -79.5218,21.724 -11.3202,-2.8252 -16.1343,-9.4625 -24.0297,-17.0708 -3.0385,-3.5633 -5.535,-7.6716 -9.1153,-10.6899 -38.2193,-32.22 -107.9192,-25.9032 -154.1979,-25.5522 -39.5986,1.7722 -80.497,4.6157 -117.9397,-11.0131 -11.3193,-4.7248 -23.4971,-12.5217 -34.0327,-18.8613 -12.8904,-6.2588 -20.9143,-11.3523 -35.4825,-13.4497 -39.9313,-5.7491 -81.9657,5.2609 -121.5017,9.6719 -21.9129,1.0326 -41.7134,-4.0772 -60.7315,-14.6708 -15.5255,-8.6481 -12.6396,-11.9963 -33.0918,-15.2519 -10.8865,-1.733 -22.0174,-1.1445 -33.0261,-1.7168 -54.0682,0.6056 -107.7018,7.4851 -161.263,14.1168 0,0 9.9486,-14.0532 9.9486,-14.0532 l 0,0 c 53.8362,-6.641 107.7337,-13.5825 162.0528,-14.6879 11.2325,0.5518 22.5872,-0.086 33.6976,1.6554 21.0397,3.2983 17.7186,6.4808 33.3737,15.2644 18.6663,10.4729 38.0563,15.471 59.6041,14.4611 39.8002,-4.3707 82.1508,-15.4809 122.3267,-9.5785 14.5739,2.1411 23.0173,7.4348 35.9094,13.7079 10.4971,6.3816 22.2632,14.0171 33.5877,18.7675 37.1253,15.573 77.7864,12.7155 117.0719,11.1595 47.0182,-0.3152 117.1136,-6.6757 156.0753,25.7705 3.5525,2.9584 5.9743,7.0568 8.9615,10.5852 7.5371,7.3113 12.0074,13.6552 22.9035,16.2136 25.4665,5.9795 54.3938,-17.9793 78.953,-21.6191 18.904,-3.6732 31.1226,-8.4827 50.3931,-2.9025 37.7419,10.9289 50.1478,55.7503 69.1338,85.0055 11.0434,14.7841 15.7409,25.8466 33.5064,32.9588 29.9315,11.9827 79.196,-6.0841 111.016,3.8701 26.1843,4.884 31.3242,4.2873 55.06,14.2894 31.1026,13.1066 49.4121,30.5146 85.5798,18.4799 9.7619,-4.463 19.7148,-8.5298 29.2857,-13.3889 48.666,-24.7077 94.9964,-58.1237 148.4769,-72.1393 10.2446,-2.6847 20.976,-2.9406 31.4639,-4.411 27.2378,1.236 54.9089,6.1272 82.1794,5.2117 33.3644,-1.12 65.0803,-11.3574 95.5917,-24.23 66.273,-29.2013 133.0828,-59.2747 192.6096,-100.9471 35.0241,-28.3398 10.8191,-8.4714 47.8483,-39.6828 23.2582,-19.6041 46.8721,-41.8178 74.9708,-54.5361 6.0481,-2.7375 12.6728,-3.9613 19.0092,-5.9419 5.748,-0.1169 11.5304,-0.988 17.2442,-0.3506 18.2103,2.0317 9.3092,3.629 23.4455,8.273 17.1438,5.632 32.7783,-0.6974 48.3963,-8.0357 30.5161,-17.1181 71.3247,-45.5267 106.0223,-50.7031 13.343,-1.9905 19.0631,2.6671 30.7803,7.8878 74.4784,48.5009 135.0866,114.8394 205.0584,169.2159 37.8417,27.965 78.7451,67.4443 130.2639,62.344 18.6643,-1.8477 35.3485,-13.2625 49.8382,-23.2542 1.8136,-3.7225 4.3644,-7.1689 5.4407,-11.1673 0.6828,-2.5367 -1.5513,-13.3504 -0.1297,-15.8265 12.1681,-21.1933 30.2614,-37.4649 49.4829,-51.8856 19.6311,-11.7284 24.5721,-16.35 46.7529,-22.9099 7.2352,-2.1398 14.8535,-2.6751 22.2326,-4.2488 5.8307,-1.2435 11.5115,-5.2213 17.3853,-4.2003 2.3383,0.4064 -2.8525,8.4982 -0.9694,7.0537 3.7163,-2.8506 4.9131,-7.9754 7.3696,-11.9631 16.1001,-38.8429 41.1388,-78.0777 84.7225,-87.7034 19.5087,3.074 23.357,8.2342 40.9531,14.1955 18.7189,6.3417 19.9946,4.3504 40.1306,7.4378 8.2126,1.2592 16.3518,2.9573 24.5277,4.436 8.1487,3.1069 16.8093,5.1098 24.4462,9.3208 12.6789,6.9911 41.1556,32.6111 51.1099,39.6996 50.6931,36.0981 107.6181,57.5123 168.3074,70.8063 71.4439,18.4442 118.0328,29.6406 189.5758,51.754 89.0503,27.5248 176.3365,58.0059 252.2513,113.6956 15.8084,11.5967 29.4149,25.9289 44.1224,38.8934 10.9204,10.3091 23.4458,19.1478 32.7611,30.9273 5.4785,6.9277 2.0449,23.2056 10.8226,24.1855 8.8125,0.9838 12.7139,-12.983 16.0946,-21.1804 6.2699,-15.2029 7.9589,-31.9163 12.3404,-47.7669 18.009,-65.1494 13.2978,-48.3789 37.6379,-110.9225 12.5177,-17.3783 21.872,-37.5472 37.5532,-52.1349 24.3861,-22.6854 59.0021,-1.6423 83.441,5.8359 29.1861,8.931 23.4041,6.9398 51.7593,6.2226 8.5831,-2.8291 17.4519,-4.906 25.7494,-8.4874 10.2236,-4.4128 19.8002,-10.1962 29.6351,-15.4183 50.1132,-26.6083 99.1244,-55.756 152.1277,-76.4502 18.3503,-5.3763 36.0336,-12.9448 55.6902,-10.9639 22.9658,2.3144 49.1203,25.7788 74.186,22.3099 9.0713,-0.6796 18.2485,-0.4994 27.214,-2.039 50.2174,-8.6232 98.3158,-32.1078 150.6995,-21.101 10.2799,2.16 19.3881,8.0913 29.0822,12.137 7.7947,5.8373 16.3152,10.814 23.3842,17.5118 33.2928,31.5444 42.2521,80.231 75.4269,111.7525 5.1962,2.5955 9.8471,6.9075 15.5886,7.7866 14.6279,2.2397 29.1328,-7.6411 40.6868,-13.9547 25.8229,-14.1109 50.4401,-31.065 79.7552,-37.3559 46.7826,-15.3228 93.1995,-32.0156 140.7271,-44.9465 13.2667,-3.6094 26.4741,-7.6147 40.0105,-10.0227 12.7639,-2.2706 25.7927,-2.6515 38.689,-3.9773 28.0464,1.6683 41.2112,-1.3166 65.5785,13.7344 33.6253,20.7693 45.1702,62.9242 75.6439,87.0463 6.4107,3.4001 12.1767,8.5038 19.2322,10.2004 35.119,8.4446 104.2059,-33.798 142.0497,-38.7706 14.1987,-1.7839 31.3872,-7.4596 44.7641,2.7006 20.7592,15.7674 22.797,82.672 34.1486,107.146 6.1199,15.3823 10.5258,34.8034 25.6334,45.0743 26.0042,17.679 66.5003,-16.1488 93.9003,-19.1187 7.2445,0.6344 14.9457,-0.707 21.7333,1.9031 31.0491,11.9393 51.6032,60.4714 66.5747,85.9035 35.4394,60.2005 24.2469,41.5651 64.7785,101.6778 33.2755,39.2055 65.2778,83.3626 118.2102,96.8137 22.852,5.8071 47.1322,-0.8157 69.507,-4.9667 0,0 -10.9719,15.746 -10.9719,15.746 z"
             id="path8610"
             style="fill:#646464;stroke:#000000;stroke-width:5;stroke-linecap:round;stroke-linejoin:round" />
        <path
             d="m 2997.508,5193.5505 c 42.5798,-52.5834 96.171,-94.6035 145.7321,-140.2942 20.3688,-13.1612 37.6519,-48.9382 65.6302,-49.5842 26.5905,-0.614 39.1419,33.7763 48.7648,51.7683 11.3371,17.2557 21.0549,63.3294 38.814,75.0371 27.1763,17.9161 75.3555,-26.3851 93.1879,-38.7781 40.7964,-29.8803 77.313,-64.8801 114.9423,-98.4947 11.0679,-9.887 30.3129,-29.8023 46.8718,-34.7319 4.7474,-1.4133 9.8883,0.601 14.8324,0.9015 20.9698,10.709 13.1369,55.2368 40.6962,54.855 5.5577,-0.077 10.7536,-2.8166 16.1304,-4.2249 15.9246,-2.7369 47.8189,-22.8525 62.6774,-22.8231 6.6419,0.013 13.8284,2.3496 18.7098,6.8536 15.5945,14.389 22.425,46.7217 27.9761,64.0114 12.5016,43.7796 18.2786,89.3518 31.2809,132.9958 4.1406,13.8983 8.4821,35.936 26.1024,41.2636 6.5086,1.9679 13.553,-1.1207 20.3296,-1.681 46.4357,-20.0614 90.7526,-44.6045 136.9431,-65.2296 10.2215,-4.5641 20.0594,-10.4686 30.9627,-13.0041 8.0697,-1.8765 16.5701,0.016 24.8551,0.024 6.2849,5.3641 13.9753,9.4241 18.8546,16.0923 20.3391,27.7959 23.182,67.6751 31.882,99.7809 2.6521,9.7872 4.2799,20.0967 9.0579,29.0406 3.0652,5.7379 9.2122,9.1875 13.8183,13.7812 7.4017,-1.5808 15.2202,-1.828 22.2052,-4.7425 9.3707,-3.91 71.1644,-41.4735 73.7782,-43.0431 10.3902,-6.2392 71.0402,-43.1659 84.0171,-49.4523 10.5616,-5.1164 21.9684,-8.2638 32.9526,-12.3956 25.9884,-1.7802 43.1531,6.7809 59.0276,26.943 7.7073,9.789 10.4883,23.4221 19.7962,31.7041 4.9864,4.4368 11.9077,6.0335 17.8616,9.0502 10.2004,0.9691 20.3595,3.2144 30.6012,2.9072 33.2676,-0.9978 67.6635,-9.9866 99.4026,-18.3404 58.4361,-15.3804 115.348,-35.2827 172.594,-54.4679 33.8515,-11.92 68.6702,-16.7485 104.379,-16.3939 8.1545,0.081 45.3891,2.5157 53.8934,2.2102 9.1857,-0.3299 18.2836,-1.911 27.4254,-2.8666 61.5761,-17.3885 120.3096,-46.071 184.5739,-53.3753 54.6832,-6.2154 74.466,-0.7972 129.3231,5.3221 22.711,4.9149 45.5334,9.3408 68.133,14.7448 1.7086,0.4085 137.6079,36.0721 137.895,36.1438 68.3149,17.043 137.0692,31.2772 206.1784,44.619 41.1426,9.6448 87.6123,8.1818 124.3246,32.3133 26.5891,17.4773 41.3398,46.3098 56.7484,72.8744 7.7571,11.6504 18.8679,31.8584 32.5326,38.6405 45.9191,22.7907 130.1097,-13.3883 173.6598,-28.9383 38.5904,-12.8479 76.2503,-41.3069 119.0815,-37.2994 26.2042,2.4518 46.0556,20.0996 65.1987,35.9477 11.3127,8.9283 25.2732,21.2357 38.9075,26.7115 48.994,19.677 140.2466,-2.5988 189.7909,-10.6178 78.2,-11.868 155.9524,-27.3217 234.5897,-36.2648 20.2223,-2.2998 40.4929,-4.8829 60.8443,-5.1033 46.2393,-0.5008 55.6556,5.0503 99.5572,16.5426 83.713,34.8516 169.5503,60.6521 261.3007,54.9162 68.2517,-4.2669 93.2702,-14.9727 159.6049,-33.2323 118.1386,-36.8066 230.1853,-91.0235 350.8692,-119.3829 62.8256,-15.6989 126.7484,-23.6274 191.3921,-24.8924 32.4539,-1.0157 47.364,16.0228 71.6735,32.7454 18.48,12.7123 17.1563,10.5847 39.5115,19.1733 68.298,13.5941 139.154,-1.2641 207.2358,14.1835 15.4752,3.5114 30.2848,9.4909 45.4271,14.2364 15.6605,6.7125 31.427,13.1827 46.9814,20.1376 40.7842,18.2362 54.7595,27.0031 97.1197,43.0128 57.7524,21.827 116.856,35.7093 177.0398,48.7161 55.4405,11.4606 111.8716,13.4281 168.2416,12.8572 0,0 -10.7055,14.7545 -10.7055,14.7545 l 0,0 c -56.2814,0.1401 -112.5885,-2.389 -167.8875,-13.9864 -60.2237,-13.129 -119.564,-27.0298 -177.4264,-48.7357 -43.4499,-16.2994 -55.4509,-24.3389 -97.2121,-42.91 -15.5263,-6.9044 -31.2824,-13.2803 -46.9236,-19.9205 -15.0961,-4.6436 -29.8739,-10.4884 -45.2884,-13.9309 -68.3815,-15.2712 -139.4068,-0.5488 -208.0078,-13.8657 -7.659,-2.9233 -15.5956,-5.2032 -22.9769,-8.77 -30.3611,-14.6711 -49.9655,-45.5529 -87.5679,-42.8231 -64.4817,1.0814 -128.1262,9.3953 -190.8324,24.7664 -120.2622,27.9935 -232.2129,81.1768 -349.8243,117.9829 -66.8904,18.3886 -91.3737,28.9764 -160.1697,33.2267 -91.9477,5.6807 -178.1026,-19.9636 -262.2299,-54.3545 -43.3519,-11.2827 -53.2397,-16.8415 -98.838,-16.5353 -20.2282,0.1358 -40.39,2.5675 -60.4977,4.7756 -78.6954,8.6416 -156.4964,24.0032 -234.6271,36.3961 -50.669,8.4911 -141.6535,31.3913 -191.824,11.2605 -13.757,-5.5199 -27.7273,-17.8599 -39.1396,-26.8801 -18.7818,-15.5879 -38.1528,-32.9384 -63.9062,-35.315 -42.4333,-3.9159 -79.8769,24.2738 -118.1831,36.8395 -44.794,15.9609 -128.7579,52.1444 -175.9022,28.6461 -13.9739,-6.9651 -24.9208,-27.1179 -32.8451,-39.1008 -15.0988,-26.3474 -29.5507,-54.9182 -55.7648,-72.3197 -36.3447,-24.1265 -82.5253,-23.0079 -123.3196,-32.9057 -68.9913,-13.6747 -137.7589,-28.0364 -206.0427,-44.9716 -46.1116,-11.4361 -91.6768,-25.0397 -137.9002,-36.0154 -22.5729,-5.36 -45.3759,-9.6997 -68.0639,-14.5495 -55.3183,-5.9665 -74.0411,-11.2398 -129.1148,-4.6933 -64.5581,7.674 -123.4075,36.8136 -185.3555,54.1671 -9.2189,0.9184 -18.3973,2.4496 -27.6568,2.7552 -7.7808,0.2568 -46.2717,-2.1607 -53.7386,-2.2369 -35.3511,-0.3607 -69.8618,4.3446 -103.4309,15.9655 -57.2912,18.9316 -114.2681,38.7253 -172.6211,54.2421 -31.9076,8.4846 -66.9477,17.792 -100.461,18.8144 -10.5094,0.3206 -20.9325,-2.0075 -31.3988,-3.0112 -6.2352,-3.211 -13.4572,-4.9808 -18.7056,-9.633 -9.2366,-8.1872 -11.8639,-21.77 -19.435,-31.5179 -15.2792,-19.6723 -31.7899,-27.8819 -56.9889,-26.0848 -10.8284,4.0699 -22.0714,7.1724 -32.485,12.2096 -13.9074,6.7272 -72.6289,42.5438 -83.9025,49.3443 -4.8734,2.9396 -63.603,39.1952 -74.8782,43.5187 -7.4727,2.8655 -15.8116,2.4897 -23.7175,3.7346 -4.7352,-4.89 -11.0303,-8.6491 -14.2055,-14.6701 -4.7648,-9.0352 -6.3383,-19.4315 -8.9815,-29.2983 -8.501,-31.7331 -11.4329,-71.1058 -31.3479,-98.6533 -4.5851,-6.3423 -11.8757,-10.196 -17.8135,-15.294 -8.0219,0.036 -16.2584,-1.7357 -24.0658,0.1075 -10.8131,2.5527 -20.6092,8.32 -30.7604,12.8358 -46.5261,20.697 -90.9037,45.8902 -137.9255,65.439 -7.1505,0.2802 -14.6712,3.1284 -21.4517,0.8406 -17.9707,-6.0635 -22.1504,-27.9399 -26.4377,-42.6412 -12.7378,-43.6784 -18.4908,-89.1964 -31.1891,-132.8976 -5.1649,-15.8084 -12.5247,-48.7416 -27.2513,-62.2946 -4.5898,-4.224 -11.4229,-6.2815 -17.6598,-6.1887 -15.6412,0.2325 -46.3335,20.1455 -62.9044,22.869 -5.6967,1.2402 -11.2626,3.8905 -17.0903,3.7206 -28.1538,-0.8207 -20.4718,-42.2265 -40.2358,-54.5776 -4.5926,-0.1901 -9.3952,-1.9563 -13.7777,-0.5702 -16.271,5.1461 -35.0646,24.4405 -46.085,34.2421 -37.6739,33.5076 -74.2645,68.3662 -115.0325,98.2145 -15.0813,10.4488 -51.2698,39.2415 -73.5091,43.0366 -36.7118,6.2647 -48.5231,-58.0088 -61.328,-80.5417 -9.0899,-16.8839 -21.4506,-51.0094 -46.9364,-49.8152 -27.4629,1.287 -44.3463,36.4825 -64.6404,49.3637 -22.474,20.684 -35.4889,32.8228 -58.4207,53.2667 -16.6656,14.8574 -32.9465,30.1442 -49.69,44.9137 -1.176,1.0373 -2.9526,1.2724 -4.0512,2.3914 -3.5868,3.6534 -6.5729,7.8515 -9.8594,11.7772 0,0 -14.2746,12.6875 -14.2746,12.6875 z"
             id="path8612"
             style="fill:#646464;stroke:#000000;stroke-width:5;stroke-linecap:round;stroke-linejoin:round" />
        <path
             d="m 2456.3778,5735.9772 c 59.2291,-58.7289 123.8765,-111.3909 190.093,-161.9488 11.4388,-7.7697 50.3994,-37.9748 69.2029,-38.4906 49.372,-1.3545 82.157,87.7393 97.9715,122.3714 16.1699,27.1678 14.879,73.6284 46.6106,90.3846 32.6491,17.2407 77.1399,-12.1378 104.5005,-24.9318 31.1316,-14.4174 57.9758,-36.343 88.2289,-52.2492 19.3312,-10.1637 40.5618,-23.1117 63.0699,-11.2155 20.4637,10.8157 29.8083,38.6056 38.8366,56.8542 12.1911,22.4234 30.4976,99.6805 54.4049,110.2503 12.3978,5.4812 32.2974,-5.0479 41.6934,-8.412 36.8004,-13.7368 69.5779,-38.3638 107.1621,-50.2028 13.9625,-4.3981 21.2312,-3.4676 35.1838,-3.5079 6.8596,0.7552 21.7547,2.999 28.9788,1.5434 19.6867,-3.9667 37.4643,-20.8536 54.4223,-30.3695 8.3853,-4.7054 17.0703,-8.8554 25.6054,-13.2832 19.8793,-6.9994 44.1392,-27.6868 67.0453,-18.1289 24.5055,10.2252 38.1192,53.0146 47.8369,74.3461 17.4565,31.5577 29.9579,91.3048 66.8967,107.2162 16.7786,7.2274 29.9858,1.9865 46.7562,-1.1013 29.8257,-9.2995 59.067,-20.4143 89.0626,-29.1855 8.9777,-2.6252 17.8042,-6.4555 27.131,-7.165 20.8904,-1.5892 26.5828,5.1217 43.3796,14.9536 17.194,11.7885 22.6469,37.7245 43.9129,44.2425 29.0473,8.903 63.1544,-9.6461 88.4535,-20.0187 40.6611,-18.4413 86.1179,-55.2489 133.9635,-40.8392 5.5334,1.6665 10.4646,4.9063 15.6969,7.3595 3.5387,2.2574 23.6768,15.3898 27.6035,16.7319 41.9607,14.3423 83.5266,-19.089 116.4551,-39.4417 38.2216,-23.9049 73.1612,-53.4882 112.3976,-75.8304 15.1936,-8.6518 32.4387,-18.371 51.0128,-14.0602 7.7552,1.7999 14.068,7.4582 21.102,11.1873 32.5033,25.7845 53.305,64.1745 89.7214,85.5557 25.4337,14.9329 36.1628,13.3991 64.8995,17.2816 12.2776,-1.9149 24.7156,-2.9917 36.8328,-5.7447 24.1528,-5.4874 53.4207,-16.5571 76.4518,-25.3395 27.1786,-10.3639 53.1883,-21.5156 78.7337,-35.3421 15.9582,-10.9444 35.0721,-10.7116 53.2823,-14.6726 7.8381,-1.7049 15.5857,-3.8022 23.3786,-5.7034 9.8367,-2.0865 19.6735,-4.1729 29.5103,-6.2594 27.7064,-3.9601 57.8944,-11.4156 85.1286,-0.042 29.5624,12.3458 55.5527,47.2737 76.5566,69.8943 37.8019,37.5966 80.2167,75.8729 135.1515,84.2211 31.3067,4.7576 52.1747,-0.1921 83.445,-4.1003 64.9996,-9.9288 119.0273,-47.168 177.128,-74.7473 64.9175,-30.8152 87.243,-38.0288 155.0194,-64.3579 66.6973,-20.6972 154.3903,-73.0741 226.8225,-49.5784 22.5593,7.3179 44.6114,26.4832 62.8821,40.2277 13.7012,8.7912 26.8618,18.4883 41.1036,26.3737 45.5204,25.2039 95.9485,45.6126 144.7119,62.7771 118.1051,41.5726 239.4574,70.0598 361.1357,98.7216 100.9293,20.7855 202.1545,45.9306 305.4111,52.4845 38.2974,2.4308 51.2513,0.7401 89.6077,-1.0863 64.0411,-7.1395 128.9136,-15.6103 189.8286,-37.7497 32.0802,-11.6594 40.38,-17.4491 69.2413,-33.1159 28.3114,-16.2085 55.0318,-35.7707 85.3232,-48.3826 21.159,-8.8097 55.4783,-18.7844 75.5602,-25.0513 87.2748,-25.9319 174.9396,-50.4964 262.4998,-75.4329 53.7251,-15.3005 111.5528,-33.5343 166.6516,-44.7802 20.104,-4.1032 40.5714,-6.1634 60.8571,-9.2452 16.483,-0.3422 32.9828,-1.8469 49.4489,-1.0266 44.5711,2.2204 89.8867,16.3576 133.0967,25.9266 71.2677,15.7824 60.5418,13.1695 135.7258,27.7956 92.4717,15.1338 184.9019,35.683 278.8292,39.8739 15.7353,0.7021 31.5014,0.1869 47.2521,0.2803 69.2374,-1.0179 138.0374,-10.093 207.2658,-10.7101 56.4413,-1.1095 108.8539,24.9008 160.5822,44.13 77.3324,28.747 66.7596,24.7048 143.5284,52.2088 0,0 -10.1833,13.046 -10.1833,13.046 l 0,0 c -107.4192,-38.6318 -34.4596,-12.314 -143.7536,-51.9434 -51.8998,-18.8186 -104.6075,-43.531 -160.9604,-42.5693 -69.0676,0.5051 -137.7534,9.3972 -206.8425,10.0804 -15.7757,-0.1341 -31.5676,0.3278 -47.3269,-0.4024 -93.8591,-4.3489 -186.0279,-25.4483 -278.4053,-40.7481 -83.2707,-15.8673 -57.7399,-10.5069 -136.1902,-27.262 -43.0631,-9.1973 -88.5951,-23.1116 -132.9015,-25.4974 -16.3116,-0.8784 -32.6663,0.5219 -48.9995,0.7828 -20.1219,2.9357 -40.4211,4.8427 -60.3658,8.8072 -55.126,10.9577 -112.3532,28.7709 -166.0852,44.0605 -88.0681,25.0601 -176.132,50.1209 -263.6194,77.165 -21.4904,6.9244 -53.7391,16.5469 -75.8385,25.9664 -30.0361,12.8023 -56.7195,32.1076 -85.0319,48.0475 -28.7755,15.3555 -37.424,21.2212 -69.3472,32.6389 -61.0948,21.8514 -126.0708,30.1822 -190.1727,37.4707 -37.9982,1.757 -51.8188,3.528 -89.733,0.8046 -102.7996,-7.3844 -203.3102,-34.2595 -303.8283,-54.9287 -121.7484,-28.9233 -243.5429,-57.221 -362.0904,-97.8287 -49.1885,-16.8493 -99.9961,-36.7603 -145.9859,-61.7154 -14.3613,-7.7928 -27.6334,-17.4441 -41.45,-26.1661 -17.8763,-13.3449 -40.1812,-32.4801 -62.2047,-39.6799 -71.7695,-23.4626 -158.915,28.1472 -225.0355,48.6182 -69.3886,27.1069 -88.9852,33.1917 -155.3399,65.1617 -58.2823,28.0807 -112.5602,65.3829 -178.0647,75.0275 -31.7714,3.9177 -52.3925,8.859 -84.1682,3.8771 -55.1426,-8.6456 -97.7117,-47.3082 -135.8058,-84.957 -20.8147,-22.1687 -46.9084,-56.6701 -76.1049,-68.7267 -27.0095,-11.1535 -56.9635,-3.6686 -84.3789,0.3629 -9.866,2.1596 -19.732,4.3193 -29.598,6.4789 -7.8701,1.9486 -15.6951,4.0892 -23.6103,5.8458 -18.0368,4.003 -36.8598,4.2737 -52.7522,14.9137 -25.523,13.3848 -51.5279,24.3433 -78.5139,34.5548 -23.0255,8.7128 -52.6609,19.8874 -76.8149,25.2329 -12.275,2.7166 -24.8734,3.6796 -37.3102,5.5194 -29.4299,-4.1274 -39.649,-2.5335 -65.6597,-17.8558 -36.2732,-21.3678 -57.325,-59.2986 -89.7318,-85.0228 -6.7799,-3.5229 -12.8811,-8.9108 -20.3395,-10.5687 -17.9958,-4.0003 -35.1832,5.7034 -49.824,14.0355 -39.2055,22.3118 -74.1654,51.7651 -112.342,75.6611 -33.9747,20.9415 -75.6761,53.9968 -118.6872,39.1806 -4.0797,-1.4053 -23.6787,-14.2331 -27.4609,-16.6524 -5.082,-2.3607 -9.8731,-5.4907 -15.2458,-7.0822 -47.3109,-14.0147 -92.4162,22.8958 -132.7064,40.788 -26.2046,10.6704 -60.4651,29.1191 -90.3539,19.5465 -21.1983,-6.7893 -26.7261,-32.1867 -43.7198,-44.2699 -6.4321,-3.738 -12.2495,-8.8292 -19.2962,-11.2141 -20.2582,-6.8561 -29.6334,-1.8337 -49.766,4.0499 -30.114,8.8007 -59.4008,20.1424 -89.4124,29.2625 -17.6532,2.9755 -30.5549,8.0551 -48.0039,0.2198 -37.1802,-16.6956 -49.4246,-76.0726 -67.2378,-108.1836 -9.2929,-20.1796 -23.2494,-63.0407 -46.7671,-72.5788 -22.4271,-9.0958 -46.5785,11.7112 -65.984,18.4159 -8.5184,4.4789 -17.1864,8.6843 -25.5553,13.4369 -17.4028,9.8828 -35.1383,26.4931 -55.5282,30.1794 -6.7963,1.2287 -22.4523,-0.9257 -28.9273,-1.605 -13.89,0.1268 -20.4903,-0.754 -34.3987,3.6797 -37.5504,11.9703 -70.4328,36.2144 -107.2084,50.0483 -11.4951,3.9315 -29.7235,13.9406 -43.5075,7.4026 -24.3416,-11.5456 -41.5923,-88.0427 -54.3873,-111.2083 -8.6177,-17.3554 -18.0729,-45.0575 -37.7303,-55.4149 -21.7813,-11.4765 -43.0087,1.4895 -61.5937,11.2347 -30.3101,15.8934 -57.2694,37.7249 -88.4187,52.1904 -28.4788,13.2577 -73.1402,42.5947 -106.7355,24.2484 -31.8526,-17.3946 -30.5076,-63.5985 -46.6097,-91.3596 -15.2815,-33.561 -47.9106,-122.1333 -96.0958,-120.3209 -18.627,0.7006 -57.068,30.4333 -68.4144,38.1274 -66.7064,50.9181 -131.4506,104.2911 -191.074,163.4721 0,0 10.2611,-16.2233 10.2611,-16.2233 z"
             id="path8614"
             style="fill:#646464;stroke:#000000;stroke-width:5;stroke-linecap:round;stroke-linejoin:round" />
        <path
             d="m 2588.6847,6339.3822 c 111.0043,-35.6014 224.2699,-64.6648 340.5537,-76.4252 104.9099,-10.61 141.7285,-6.8941 246.2664,-5.0256 96.7523,5.6861 192.1619,19.6368 281.7969,57.8774 53.7677,22.9388 100.3152,55.9238 147.3798,89.8192 24.1493,14.5354 39.8544,29.7273 70.5732,25.8727 32.8858,-4.1265 103.1795,-41.1771 125.9998,-52.2601 175.7079,-85.3348 10.395,-7.3209 195.6844,-93.7703 64.993,-27.0145 119.2587,-52.5612 187.1933,-70.1235 43.98,-11.3696 78.6604,-17.9698 122.1424,-4.8918 31.2137,9.388 39.7821,22.6614 61.0852,43.8998 11.845,19.0037 27.6083,36.3441 36.7633,57.0426 6.491,14.6753 8.4881,30.4674 10.4504,46.1921 4.974,44.0753 19.2909,48.1363 62.1116,46.53 86.76,-9.1339 174.706,7.33 258.5012,29.1764 10.1407,3.4325 20.4396,6.4288 30.422,10.2975 8.1968,3.1766 50.6296,26.616 57.308,27.227 24.2987,2.2228 44.2489,-12.559 64.6432,-22.575 57.2366,-36.3362 117.5431,-67.2968 179.085,-95.5972 30.1263,-13.8538 84.6288,-39.3096 119.2148,-45.8651 14.6123,-2.7696 29.735,-0.769 44.6025,-1.1535 12.0727,5.9937 25.6306,9.6397 36.2182,17.9811 37.798,29.7791 69.5983,99.4244 96.5103,139.6471 37.2231,55.6336 32.9178,47.0038 78.695,94.1321 16.2831,11.4135 30.8102,25.8742 48.8494,34.2404 47.5999,22.0758 109.2771,27.8436 159.9882,30.9333 93.3092,5.6851 186.5294,-1.5748 279.508,-8.4073 23.6865,-2.2142 47.3564,-4.6122 71.0593,-6.6425 73.3196,-6.2802 161.5681,-3.7354 231.4328,-25.8758 18.2363,-5.7792 35.3722,-14.5829 53.0583,-21.8743 52.8129,-26.9796 96.5828,-66.5063 139.1837,-106.9843 16.7522,-15.9175 41.6104,-42.2165 60.8564,-57.2135 6.1733,-4.8104 13.2376,-8.3528 19.8564,-12.5292 5.8439,-1.7618 11.5066,-4.3085 17.5316,-5.2856 13.8789,-2.2508 39.6012,-0.1416 51.9336,0.2702 23.4066,0.7817 46.9114,-0.4336 70.24,1.6297 10.6165,0.939 21.0334,3.4596 31.5501,5.1894 39.4551,13.0813 67.0062,43.1857 94.6132,72.6181 5.6862,6.0621 10.7674,12.7132 16.8364,18.392 6.3666,5.9573 13.576,10.9446 20.364,16.4169 63.3037,40.2082 139.2412,58.8219 211.4305,76.6205 0,0 -10.7953,14.1165 -10.7953,14.1165 l 0,0 c -61.9411,-15.7605 -126.4977,-31.462 -184.2498,-59.5913 -9.8682,-4.8066 -18.7953,-11.3435 -28.193,-17.0152 -6.8716,-5.5204 -14.1848,-10.5322 -20.615,-16.561 -6.0564,-5.6781 -11.0754,-12.3714 -16.7287,-18.4509 -27.2188,-29.2708 -54.4878,-59.1132 -93.6002,-71.9948 -10.4249,-1.7086 -20.7517,-4.1967 -31.2748,-5.1257 -23.3646,-2.0628 -46.9021,-0.9312 -70.3501,-1.5234 -12.6235,-0.3189 -37.6446,-2.0195 -51.7097,0.4835 -5.8573,1.0423 -11.342,3.5965 -17.013,5.3948 -32.9781,20.9415 -51.2488,41.9123 -79.7754,68.8641 -42.7534,40.3933 -86.7074,79.7857 -139.6651,106.5973 -17.7829,7.2583 -35.0193,16.0351 -53.3488,21.775 -69.7925,21.8557 -158.0788,19.3419 -231.2625,25.2569 -23.6083,1.9081 -47.1898,4.1358 -70.7847,6.2038 -92.9984,6.4257 -186.324,13.4829 -279.6162,8.0697 -51.0288,-2.961 -113.3886,-8.4147 -161.3613,-30.5353 -18.1545,-8.3711 -32.7219,-22.9767 -49.0828,-34.4651 -46.2121,-47.6887 -41.2135,-38.3423 -78.8889,-94.4639 -26.7786,-39.8896 -58.7328,-108.7952 -96.3541,-138.3371 -10.3705,-8.1433 -23.6213,-11.7249 -35.4319,-17.5874 -14.6318,0.3378 -29.5103,-1.6834 -43.8954,1.0134 -34.5111,6.47 -88.6225,31.6079 -118.6479,45.4368 -61.867,28.4942 -122.2185,60.0853 -179.7509,96.627 -22.3968,10.8726 -40.6193,24.9989 -66.518,22.405 -6.9582,-0.6969 -48.3892,-24.1843 -56.8305,-27.5265 -9.8893,-3.9155 -20.104,-6.9532 -30.1561,-10.4298 -83.7138,-22.3558 -171.659,-38.4252 -258.4253,-28.3854 -44.4244,1.4048 -58.9144,-2.4133 -64.448,-48.06 -1.8057,-15.5561 -3.628,-31.1852 -9.8773,-45.7567 -8.881,-20.7079 -24.2223,-38.2305 -35.9306,-57.2018 -20.8098,-21.1212 -29.0657,-34.2273 -59.7651,-43.7079 -42.8092,-13.2203 -77.1771,-6.9565 -120.6387,4.093 -68.1634,17.3295 -121.3807,42.5043 -186.6011,69.5797 -178.0938,83.4373 -26.8984,11.6182 -196.3001,94.7287 -24.8805,12.2067 -93.1218,48.9361 -127.8295,53.0567 -30.9398,3.6734 -46.8955,-11.8761 -71.0098,-26.6676 -46.6227,-34.15 -92.7596,-67.3491 -146.1997,-90.5326 -89.0822,-38.6458 -184.0532,-53.0227 -280.4586,-58.794 -104.2389,-1.9011 -141.4966,-5.7327 -246.1198,5.2459 -117.1922,12.2976 -231.4847,42.1939 -342.8231,79.8793 0,0 10.8343,-15.6194 10.8343,-15.6194 z"
             id="path8616"
             style="fill:#646464;stroke:#000000;stroke-width:5;stroke-linecap:round;stroke-linejoin:round" />
        <path
             d="m 2529.323,6989.8682 c 31.8765,-58.611 92.9478,-86.086 155.7536,-98.4241 17.4109,-3.4204 35.1656,-4.7675 52.7485,-7.1512 40.1493,-3.4324 82.2276,-5.0494 119.0323,14.627 22.8119,12.1957 39.0179,34.8652 57.3071,52.4875 7.5366,2.3644 14.7119,6.9796 22.6099,7.0933 35.2319,0.5068 86.8226,-34.9492 115.7917,-50.5265 57.0759,-30.6908 50.4734,-26.7297 108.5452,-54.7897 41.3247,-18.3064 81.9131,-28.931 123.3001,-4.8069 15.7681,9.1911 39.6144,35.5273 52.6666,47.0542 10.558,9.3242 21.8059,17.8369 32.7088,26.7553 76.3353,51.1609 162.5885,57.3446 250.8704,69.8856 87.3713,12.4116 77.7169,11.4796 162.2896,26.8561 87.877,15.0117 171.2088,47.3108 258.6448,63.8283 125.4396,15.4002 249.1102,-21.1288 368.6321,-54.97 31.3412,-9.1122 62.2031,-11.18 94.0464,-4.5391 1.196,0.2494 31.4081,8.9645 34.2022,9.16 5.7045,0.3992 11.378,-1.1582 17.0669,-1.7373 75.1406,-28.8048 154.6624,-40.2725 234.1368,-49.6098 36.8128,-0.9436 76.1304,-9.3665 112.0787,2.7299 9.8445,3.3126 22.9941,10.5748 32.0961,15.283 5.9262,2.6752 11.5429,6.1839 17.7786,8.0256 21.89,6.4652 48.6866,8.0519 70.8389,8.7176 63.7212,1.9149 126.8271,-5.8745 190.1319,-11.9583 87.3765,-6.3336 184.3703,-28.5001 266.9241,13.0237 7.618,3.8318 14.346,9.2229 21.519,13.8343 35.1351,32.2925 83.4553,41.019 129.2369,47.4744 58.842,8.2969 88.3379,8.5964 148.4634,11.9384 96.9772,3.6266 194.08,0.9177 290.7909,9.8019 93.795,16.4005 188.6172,20.4341 283.5716,16.3869 57.8038,-2.8232 115.164,-10.9913 172.8726,-14.8886 26.9042,-0.01 53.2266,-4.4206 79.3036,-10.564 0,0 -10.6081,15.3252 -10.6081,15.3252 l 0,0 c -26.1859,6.0107 -52.5939,10.362 -79.5684,10.4207 -57.4683,3.9666 -114.6845,11.146 -172.247,13.9321 -95.1344,3.6844 -190.1753,-0.2913 -284.2552,-15.8593 -96.2966,-9.2141 -192.9903,-7.9522 -289.601,-11.3002 -57.5468,-3.0822 -92.6051,-3.755 -149.1908,-11.3186 -45.9618,-6.1435 -95.3273,-14.3677 -130.4542,-47.0729 -7.0233,-4.6153 -13.5963,-10.0026 -21.0701,-13.846 -81.7416,-42.0361 -178.5777,-20.1134 -265.3492,-13.7143 -63.5919,6.2777 -127.0043,14.2844 -191.0346,12.7242 -22.5577,-0.5497 -49.5939,-1.959 -71.8785,-8.4297 -6.2789,-1.8231 -11.9262,-5.3628 -17.8893,-8.0442 -8.8557,-4.5448 -22.1575,-11.8111 -31.7418,-15.0442 -35.556,-11.9939 -74.4803,-3.9912 -110.9246,-3.1814 -49.2511,5.6852 -97.9358,11.9016 -146.2506,23.421 -43.3493,10.3356 -31.9065,8.6547 -67.6766,20.5866 -6.9155,2.3068 -13.9262,4.3175 -20.8893,6.4763 -5.8698,0.4626 -11.7414,1.8717 -17.6095,1.3878 -2.6757,-0.2206 -32.6564,-9.0108 -33.8862,-9.2727 -31.3709,-6.6813 -61.8299,-4.6757 -92.7792,4.0902 -120.0081,33.1699 -243.969,69.4918 -369.6792,55.0336 -87.312,-16.2422 -169.9421,-49.9975 -257.6264,-65.165 -82.6917,-15.2252 -76.6461,-15.0086 -162.1118,-26.9572 -88.8651,-12.4239 -175.5777,-17.9191 -252.5968,-69.2156 -10.9868,-8.8953 -22.3253,-17.373 -32.9603,-26.686 -12.3029,-10.7734 -37.2146,-37.8217 -52.1586,-46.561 -40.7726,-23.8438 -80.8489,-13.0832 -121.5593,4.8736 -58.6091,28.3613 -50.9473,23.8411 -108.588,55.025 -30.0108,16.2359 -81.0558,51.6892 -117.6553,50.6282 -8.1611,-0.2366 -15.5203,-5.0749 -23.2805,-7.6124 -18.0335,-17.476 -34.0099,-40.1423 -56.5034,-52.2975 -36.3848,-19.6617 -78.0929,-18.0666 -117.8616,-14.7126 -50.9633,7.0975 -98.3015,13.9746 -143.4972,40.5308 -10.1272,5.9506 -18.9051,13.9461 -28.2954,21.0025 -1.6562,1.2445 -3.5876,2.2483 -4.8408,3.898 -3.039,4.0005 -5.2533,8.5651 -7.88,12.8477 0,0 -13.9605,13.0898 -13.9605,13.0898 z"
             id="path8618"
             style="fill:#646464;stroke:#000000;stroke-width:5;stroke-linecap:round;stroke-linejoin:round" />
        <path
             d="m 6972.6133,7283.4972 c 54.1729,0.085 112.1785,-18.1207 153.9118,-53.5224 13.7851,-11.6937 25.0277,-26.0903 37.5415,-39.1355 27.0672,-38.8513 45.4982,-82.5016 66.3617,-124.7024 8.2962,-16.7807 21.8991,-47.4143 35.7087,-34.9145 8.9193,8.0734 4.3282,23.6686 6.4924,35.503 9.0262,171.1005 3.2916,342.7554 -8.9081,513.552 -9.3484,81.4114 -18.067,167.3114 -62.7775,238.4111 -18.8017,29.8989 -42.1782,51.1479 -66.6352,76.6731 -10.3913,8.2102 -34.0329,31.4688 -51.612,30.8143 -39.2425,-1.4612 -45.9907,-91.0128 -48.8942,-116.3297 1.0597,-12.5334 -0.079,-25.4513 3.1792,-37.6 7.8678,-29.3359 31.055,-50.6286 60.6427,-59.631 31.7776,-9.6688 110.9508,11.1511 133.7711,16.4484 32.69,7.5883 65.0514,16.5284 97.5771,24.7926 64.8737,16.7241 149.6615,40.0342 215.6111,51.0557 64.0842,10.7098 136.1584,15.5342 201.3369,16.2714 56.3711,0.6376 102.3284,-3.0711 158.2142,-6.4396 25.8373,-1.3448 51.6725,-2.7293 77.5117,-4.0345 53.9513,-2.7253 89.3508,4.9487 134.1307,-33.1307 13.9443,-11.8578 18.6879,-31.4795 28.0319,-47.2192 0,0 12.4681,-11.1066 12.4681,-11.1066 l 0,0 c -16.586,24.1072 -28.0246,52.7278 -49.7579,72.3216 -41.4862,37.4021 -84.3126,29.9968 -134.4755,32.4989 -25.8556,1.2896 -51.7029,2.7405 -77.5543,4.1108 -56.8093,3.2268 -100.5356,6.687 -157.9182,5.7497 -64.6733,-1.0564 -137.62,-6.3374 -201.1259,-16.9912 -65.8842,-11.0528 -151.0589,-34.1708 -215.933,-50.7154 -40.5596,-10.0063 -132.913,-34.6251 -178.2932,-39.5242 -17.7269,-1.9138 -35.6772,-0.037 -53.4819,0.9112 -7.5791,0.4035 -16.7538,-1.7603 -22.5524,3.1368 -19.0128,16.0568 -16.9391,45.4908 -18.9017,66.3297 2.625,23.4413 9.4595,113.0594 46.7126,113.7821 17.2274,0.3343 40.5379,-22.6827 50.6627,-30.7365 5.8082,-4.9778 12.3321,-9.2255 17.4245,-14.9335 67.0615,-75.1686 80.828,-176.9684 90.9832,-273.4277 12.528,-170.2522 19.294,-341.5153 8.0048,-512.0336 -1.9088,-11.1927 -5.1759,-22.2371 -5.7264,-33.5781 -0.2895,-5.965 8.0436,-21.1708 3.2415,-17.6205 -7.8509,5.8042 -9.747,16.933 -14.1194,25.6627 -26.3472,52.6032 -47.8988,107.1138 -88.4352,151.447 -12.6691,13.0516 -24.0686,27.4687 -38.0074,39.1547 -42.536,35.6614 -100.8741,53.3434 -155.6939,54.2299 0,0 11.2832,-15.5299 11.2832,-15.5299 z"
             id="path8620"
             style="fill:#646464;stroke:#000000;stroke-width:5;stroke-linecap:round;stroke-linejoin:round" />
        <path
             d="m 7807.0263,7662.1674 c -22.2836,18.5594 -44.4584,37.5414 -67.9218,54.6176 -6.4399,4.6868 -12.386,10.5822 -19.8981,13.2288 -5.6778,2.0003 -12.0392,0.096 -18.0588,0.1435 -4.9694,-5.3191 -11.2453,-9.6667 -14.9084,-15.9572 -24.7351,-42.476 -22.3408,-103.7999 -12.6363,-150.1254 12.2216,-37.6498 37.837,-63.1137 73.1796,-34.6949 5.0807,4.0853 9.3115,9.1274 13.9672,13.6911 29.916,29.7324 51.304,66.2801 75.0852,100.7424 19.2526,26.0922 44.8273,48.2303 77.8368,54.0291 8.0297,1.4106 16.7013,3.3196 24.4457,0.772 9.4141,-3.0967 16.3221,-11.2448 24.4831,-16.8672 17.6295,-24.2542 7.5105,-9.2892 28.7499,-45.9407 0,0 13.3947,-12.0655 13.3947,-12.0655 l 0,0 c -26.9364,47.2589 -10.3874,22.2576 -51.9993,73.3927 -8.5155,5.4625 -15.8647,13.4523 -25.5465,16.3875 -7.9227,2.4019 -16.6706,0.3862 -24.8111,-1.1207 -33.3067,-6.1655 -59.3544,-28.2268 -78.8622,-54.6918 -23.7514,-34.3237 -45.087,-70.7762 -74.8913,-100.4202 -11.6865,-11.391 -23.9458,-25.6728 -42.1634,-24.7392 -4.5763,0.2345 -8.6018,3.7247 -13.1804,3.9052 -1.1866,0.047 1.4491,-4.5161 0.9821,-3.4243 -2.5785,6.029 -4.8839,12.1711 -7.3258,18.2567 -10.383,46.577 -13.2819,105.7122 11.4327,148.8027 3.3607,5.8595 9.1718,9.9193 13.7578,14.8789 5.6831,-0.1811 11.7226,1.4457 17.0494,-0.5432 7.3998,-2.7629 13.3175,-8.5162 19.695,-13.1764 23.6298,-17.2669 46.0647,-36.3556 68.1916,-55.4774 0,0 -10.0474,16.3959 -10.0474,16.3959 z"
             id="path8622"
             style="fill:#646464;stroke:#000000;stroke-width:5;stroke-linecap:round;stroke-linejoin:round" />
        <path
             d="m 7964.8903,7493.4546 c -23.7404,31.6855 -28.7702,73.8127 -34.5986,111.7684 -4.9045,31.9384 -8.4725,64.0677 -12.7475,96.0964 -8.1998,40.3943 -17.8615,84.1287 -45.9355,116.1548 -21.4956,24.5217 -13.7677,20.8615 -32.5752,25.6253 0,0 10.7811,-15.72 10.7811,-15.72 l 0,0 c 2.8686,-0.8783 5.7341,-3.5026 8.6059,-2.6348 1.6161,0.4884 -1.9253,6.2192 -0.7475,5.0095 29.6794,-30.4836 38.1714,-76.6197 47.2233,-116.1211 4.3544,-32.046 8.0124,-64.1883 12.7422,-96.1811 5.5486,-37.5312 9.8326,-79.6711 32.8334,-111.3247 0,0 14.4184,-12.6727 14.4184,-12.6727 z"
             id="path8624"
             style="fill:#646464;stroke:#000000;stroke-width:5;stroke-linecap:round;stroke-linejoin:round" />
        <path
             d="m 8051.4813,7757.0847 c 10.1557,-55.5937 31.5991,-108.7325 48.9873,-162.4279 13.034,-35.2927 25.8611,-71.1067 29.7382,-108.8119 2.2457,-21.8399 1.1017,-39.8552 0.5321,-61.6402 -0.5861,-8.0669 -0.9755,-16.1504 -1.7583,-24.2006 -1.1224,-11.5416 -9.6584,-33.13 18.62,-25.0996 7.2811,2.0677 9.925,11.5076 15.6801,16.4236 9.3416,7.9798 19.6441,14.7607 29.4662,22.141 45.5725,34.3433 105.8954,58.0149 136.4474,109.0378 3.5594,5.9444 5.6709,12.6436 8.5064,18.9654 10.591,42.3459 -9.2921,60.8733 -36.7209,90.6555 -8.7066,8.8768 -25.5165,12.7857 -31.7514,24.3182 -1.0567,1.9547 5.2854,-5.0649 5.9764,-2.953 1.6674,5.0969 -1.765,10.6347 -1.709,15.9972 0.062,5.9425 1.3743,11.806 2.0614,17.7091 3.4728,18.2134 11.2733,34.6353 19.72,50.9214 0,0 -12.6026,13.872 -12.6026,13.872 l 0,0 c -8.5556,-16.4444 -16.5024,-33.0289 -20.1978,-51.3843 -0.954,-7.1732 -4.7551,-26.6973 -1.2832,-34.3954 10.6676,-23.6528 29.5092,-36.2459 49.6617,-50.1432 -5.4741,16.099 12.4891,-17.501 13.3677,-19.721 3.1416,-7.9386 4.1097,-16.9454 3.4722,-25.3966 -0.4009,-5.3141 -1.7413,-10.5151 -2.612,-15.7727 -2.6962,-6.2763 -4.6553,-12.9235 -8.0886,-18.8289 -29.7963,-51.2504 -90.2354,-75.1221 -135.7372,-109.0183 -10.0146,-7.3044 -20.4849,-14.0217 -30.0437,-21.9131 -5.8315,-4.8142 -13.996,-8.7973 -15.9911,-16.0914 -1.9753,-7.2214 3.6647,-14.5192 5.643,-21.7398 0.3596,-1.3124 -0.8617,2.6477 -0.7844,4.0063 0.7542,13.2494 4.9155,26.2073 3.5449,39.6543 0.5731,21.1011 1.7316,40.7839 -0.3058,61.903 -3.6495,37.8307 -16.2612,73.8087 -29.6298,109.0876 -17.3085,53.312 -38.3664,106.1425 -48.6669,161.3032 0,0 -13.5423,13.5423 -13.5423,13.5423 z"
             id="path8626"
             style="fill:#646464;stroke:#000000;stroke-width:5;stroke-linecap:round;stroke-linejoin:round" />
        <path
             d="m 8383.8252,7633.0655 c 40.4819,-1.4183 80.5968,3.6348 120.6257,8.9028 69.1058,10.5224 138.9077,13.3982 208.6607,16.275 0,0 -10.3216,14.0844 -10.3216,14.0844 l 0,0 c -69.9652,-2.8706 -140.1117,-4.763 -209.4215,-15.5175 -40.0572,-5.2529 -80.2494,-10.147 -120.7483,-8.3223 0,0 11.205,-15.4224 11.205,-15.4224 z"
             id="path8628"
             style="fill:#646464;stroke:#000000;stroke-width:5;stroke-linecap:round;stroke-linejoin:round" />
        <path
             d="m 3189.5028,1260.1856 c -20.7338,1.7155 -42.9681,8.0643 -60.9975,-5.8557 -3.4553,-2.6678 -6.1437,-6.2031 -9.2155,-9.3046 -8.4733,-8.7521 -27.1919,-51.14 4.9386,-43.15 13.1293,8.2978 25.8267,14.0217 41.3902,15.3039 23.8687,-1.5763 45.626,-14.9098 65.1119,-27.9524 15.4592,-12.4925 19.1453,-10.979 19.4519,-32.0803 -5.706,-2.8792 5.9997,-11.876 6.6683,-8.3716 1.3173,6.904 -3.231,13.6925 -4.3628,20.6293 -1.9278,11.8147 -3.4278,23.6985 -4.8101,35.5894 -2.9829,25.6592 -6.7238,69.5946 -8.9435,94.3939 -5.539,66.6511 -9.748,133.7437 -20.5904,199.8271 -5.6539,34.46 -8.29,41.48 -16.8456,73.5859 -6.2625,17.35 -13.9979,51.6677 -39.3534,53.4106 -14.7415,1.0133 -39.1133,-46.4996 -44.4319,-55.9666 -11.0782,-22.4949 -21.7332,-45.4108 -26.2951,-70.2572 -0.9902,-5.3932 -3.8595,-21.7346 0.5545,-24.9373 4.6344,-3.3626 10.7753,-3.8773 16.163,-5.816 13.7759,13.8383 23.6776,31.6229 42.1529,40.2596 32.3157,15.1068 70.199,11.2429 104.4601,10.1175 22.774,-3.3421 89.4536,-5.3065 104.0809,-29.0683 2.1436,-3.4822 -4.6059,-6.7727 -7.2137,-9.9224 -6.3052,-7.6153 -13.0024,-14.8974 -19.5036,-22.3461 0,0 8.2277,-9.5178 8.2277,-9.5178 l 0,0 c 6.8291,7.5763 18.2813,12.7704 20.4873,22.7288 11.5423,52.1057 -86.0537,54.6497 -113.1896,57.9828 -34.6554,1.1952 -72.8267,5.114 -105.5464,-10.0573 -18.4615,-8.5601 -28.4232,-26.1383 -42.3933,-39.7389 0.696,-4.5942 2.7751,-9.1871 2.0879,-13.7826 -0.3972,-2.6554 -2.8744,4.7817 -3.0331,7.4619 -1.7895,30.2145 15.845,60.9864 27.4238,87.5141 8.5748,15.1918 16.8776,32.5516 29.4739,45.1741 3.964,3.9722 9.9329,5.4631 14.0466,9.2802 1.9302,1.791 1.316,8.4368 3.5566,7.0535 8.4852,-5.2387 17.4366,-36.0486 19.2348,-41.0251 8.8018,-32.2507 11.4763,-39.1354 17.2707,-73.7756 11.0543,-66.085 15.3483,-133.2283 20.7651,-199.9204 2.2241,-25.9074 5.623,-67.4133 8.4967,-94.0261 1.2713,-11.7732 2.6317,-23.5412 4.3448,-35.2582 1.0006,-6.8431 1.0121,-14.0658 3.7926,-20.3981 2.5509,-5.8094 6.8165,-10.9818 11.7423,-14.981 1.2273,-0.9964 0.6664,3.0907 0.9995,4.636 0.4367,23.5417 -18.3269,39.718 -36.1214,52.7652 -19.8069,12.9927 -41.7035,26.4047 -65.9051,27.5282 -15.6018,-1.421 -28.3768,-7.0822 -41.6291,-15.2744 -6.9832,-1.3028 -9.1106,-0.063 0.2346,-10.3381 1.0737,-1.1805 -1.0194,3.0967 -0.9542,4.6911 0.4342,10.6206 6.5947,19.6948 12.5681,27.9679 2.9814,3.0237 5.5803,6.4796 8.9442,9.0711 17.7586,13.6808 40.1285,6.9893 60.4502,5.1097 0,0 -7.7844,11.0403 -7.7844,11.0403 z"
             id="path8630"
             style="fill:#646464;stroke:#000000;stroke-width:5;stroke-linecap:round;stroke-linejoin:round" />
        <path
             d="m 3481.4623,1351.3511 c -23.3194,14.3261 -49.4224,3.7507 -72.5476,-5.3705 -17.3161,-9.5091 -33.7452,-24.5589 -36.8717,-44.9525 3.244,-3.9529 5.1524,-9.5836 9.7321,-11.8586 1.918,-0.9528 2.8322,3.2373 3.9688,5.0525 9.8319,15.7018 12.095,26.4086 12.8567,44.7429 -3.1574,43.0163 -14.3581,84.8747 -22.2178,127.1718 -2.22,18.6828 0.7187,52.7128 22.6675,60.3771 2.2861,0.7983 4.8396,0.1795 7.2595,0.2692 2.0307,-2.0747 4.9232,-3.5667 6.0922,-6.2241 0.4471,-1.0165 -2.53,-1.3358 -2.2899,-2.42 1.4239,-6.4292 4.8146,-12.2638 6.9235,-18.5018 6.0225,-17.8138 11.0455,-35.7586 17.7536,-53.3485 8.7313,-15.8182 24.1281,-40.1619 43.4991,-24.0644 3.0826,2.5617 5.4569,5.8721 8.1854,8.8082 12.0795,15.4468 16.332,36.9046 35.0611,46.3934 4.8456,2.455 10.1714,3.817 15.257,5.7255 39.793,10.4504 59.6034,-5.4284 88.6591,-28.8412 0,0 -7.0512,11.229 -7.0512,11.229 l 0,0 c -29.4436,23.5091 -49.767,38.4059 -89.6829,27.9294 -5.2066,-1.9383 -10.6578,-3.316 -15.6197,-5.815 -18.929,-9.5336 -23.2763,-30.8554 -35.2826,-46.5533 -6.0541,-6.461 -12.6641,-15.4483 -23.0249,-13.0572 -2.3452,0.5412 -3.9991,3.5386 -6.3982,3.3464 -1.4117,-0.1131 2.89,-4.869 2.1051,-3.6903 -2.1022,3.1568 -4.0402,6.4198 -6.0603,9.6297 -6.4397,16.4088 -5.7314,13.8611 -11.6295,32.5951 -7.5603,24.0137 -12.8575,51.7422 -34.4716,67.6812 -2.5901,-0.2486 -5.3432,0.1922 -7.7703,-0.7457 -22.2323,-8.5911 -25.7694,-42.0475 -23.5489,-61.695 7.899,-42.19 19.1579,-83.9313 22.3089,-126.855 -0.4387,-13.6107 0.7194,-13.846 -3.6334,-25.8832 -1.9552,-5.4067 -6.0055,-12.9472 -8.8994,-18.0628 -0.6951,-1.2287 -2.7134,-2.2693 -2.2347,-3.5974 1.3213,-3.6658 4.6171,-6.2784 6.9256,-9.4177 1.976,20.1379 18.9415,34.9508 35.5871,44.2525 22.7546,9.0078 49.0275,19.5747 71.4968,4.1567 0,0 -7.1045,11.5936 -7.1045,11.5936 z"
             id="path8632"
             style="fill:#646464;stroke:#000000;stroke-width:5;stroke-linecap:round;stroke-linejoin:round" />
        <path
             d="m 3620.9171,1339.3839 c 69.6652,18.8536 142.8599,22.6731 214.6677,26.3952 11.0068,0.3241 22.0136,0.6481 33.0205,0.9722 0,0 -7.3658,10.0664 -7.3658,10.0664 l 0,0 c -10.9486,-0.4176 -21.8973,-0.8352 -32.8459,-1.2529 -72.1282,-4.0911 -145.4047,-8.0096 -215.7138,-25.4824 0,0 8.2373,-10.6985 8.2373,-10.6985 z"
             id="path8634"
             style="fill:#646464;stroke:#000000;stroke-width:5;stroke-linecap:round;stroke-linejoin:round" />
        <path
             d="m 3772.3278,1293.7427 c -21.2489,67.3754 -40.9099,135.3479 -61.0305,203.1052 -9.3197,29.7777 -21.1168,61.7676 -3.1572,91.1637 16.0268,26.2322 46.3349,39.7765 72.3612,53.0772 0.9312,0.414 30.1376,10.9642 32.7233,18.5604 1.1525,3.3856 -1.5429,7.3669 -4.018,9.9485 -22.7639,23.7429 -53.2525,35.3239 -82.2595,49.1194 -23.5841,9.6762 -51.3589,27.4306 -78.463,19.2994 -23.7622,-7.1286 -33.7072,-30.695 -43.4499,-50.7266 -1.3534,-6.5614 -3.8048,-12.9896 -4.0604,-19.6843 -1.0181,-26.6707 23.883,-53.8966 45.7902,-65.6603 7.3479,-3.9457 15.318,-6.6031 22.977,-9.9046 40.5565,-14.5612 87.4962,-10.9491 123.5901,-37.3043 7.6799,-5.6077 13.4441,-13.4524 20.1661,-20.1787 0,0 -6.6125,10.7752 -6.6125,10.7752 l 0,0 c -6.8092,6.6321 -12.686,14.3809 -20.4274,19.8963 -36.3991,25.9328 -83.3029,22.2938 -123.7915,37.4485 -25.3648,11.3375 -53.3613,22.6619 -52.7045,55.5799 0.1322,6.6295 2.5013,13.0236 3.752,19.5353 9.4179,19.6672 19.0396,42.9332 42.392,49.8466 26.8306,7.9433 54.3707,-9.7875 77.7042,-19.3114 10.0954,-4.8439 20.2881,-9.4899 30.2861,-14.5315 8.9145,-4.4953 17.273,-10.1164 26.4393,-14.0732 3.7968,-1.6389 17.0506,1.4432 14.1765,-9.9545 -1.966,-7.7965 -31.8615,-18.7645 -32.0789,-18.8636 -26.2421,-13.506 -56.8546,-27.2402 -73.1372,-53.6253 -18.371,-29.7695 -6.6098,-61.9425 3.024,-92.1482 20.1254,-67.3551 39.9287,-134.8191 59.7637,-202.2351 0,0 10.0448,-9.154 10.0448,-9.154 z"
             id="path8636"
             style="fill:#646464;stroke:#000000;stroke-width:5;stroke-linecap:round;stroke-linejoin:round" />
        <path
             d="m 3948.29,1564.1697 c -12.2688,10.4119 -18.2232,3.8603 -22.496,-8.9716 -0.3785,-19.1331 6.7908,-37.2062 23.4159,-48.2465 1.8449,-1.2251 4.4277,0.1174 6.6416,0.1761 16.4371,5.8845 20.3724,23.1794 30.3348,35.2382 2.0589,2.4922 4.7803,4.3531 7.1705,6.5296 3.0671,1.4183 5.9729,3.2572 9.2015,4.2547 36.3837,11.2422 90.6589,-7.3488 124.9592,-18.4393 38.0961,-14.9069 20.0378,-7.0821 54.2952,-23.1943 0,0 -7.0054,10.5847 -7.0054,10.5847 l 0,0 c -34.2451,15.8582 -16.1919,8.1382 -54.2764,22.8852 -34.4051,11.0633 -89.8559,30.0657 -126.2754,18.6 -3.3479,-1.054 -6.3477,-2.997 -9.5216,-4.4955 -2.4935,-2.2565 -5.3308,-4.1832 -7.4805,-6.7693 -9.6866,-11.6534 -13.2322,-28.7703 -29.3236,-34.2751 -1.988,0.087 -5.0897,2.0498 -5.964,0.2622 -1.0205,-2.0865 5.0271,-7.4503 3.021,-6.2794 -7.1634,4.1813 -9.6601,25.8192 -9.9674,33.3474 3.9974,12.7577 8.9566,17.4335 20.3752,7.1992 0,0 -7.1046,11.5937 -7.1046,11.5937 z"
             id="path8644"
             style="fill:#646464;stroke:#000000;stroke-width:5;stroke-linecap:round;stroke-linejoin:round" />
        <path
             d="m 4008.5626,1408.5407 c -14.0779,-8.8791 -30.2906,-13.0854 -46.4739,-16.1225 -17.8388,-2.7132 -28.3524,-2.0742 -41.1795,11.0963 -1.9589,2.3539 -4.6306,4.2644 -5.8766,7.0619 -0.4438,0.9965 3.2826,-2.0014 3.1408,-0.9197 -0.4742,3.6175 -3.1215,6.6095 -4.3377,10.0494 -1.3551,3.8328 -2.4508,7.7615 -3.3603,11.7238 -2.3979,10.446 -2.9157,17.5415 -4.1607,28.2304 -2.7705,34.4974 -2.5468,69.1506 -2.5856,103.7334 -0.306,30.742 -0.245,61.6729 5.1888,92.0206 6.6507,27.8316 23.1318,27.9901 48.7749,27.826 33.7958,-1.1673 66.8306,-8.5035 99.2501,-17.6136 16.2131,-4.4779 8.3467,-2.4061 23.5898,-6.2508 0,0 -7.5489,10.9471 -7.5489,10.9471 l 0,0 c -15.1675,3.797 -7.3354,1.7544 -23.4874,6.1619 -32.5278,8.997 -65.6514,16.2063 -99.5153,17.3809 -26.2566,0.095 -43.3829,-0.4377 -50.3173,-28.8622 -5.4954,-30.4686 -5.3189,-61.5602 -5.1242,-92.4217 0.01,-34.5767 -0.2805,-69.2138 2.3583,-103.7155 3.4294,-30.9411 7.8615,-53.4198 31.0259,-76.786 13.3158,-12.7213 24.4319,-13.1828 42.2474,-10.3578 16.303,3.1487 32.5507,7.5202 46.8805,16.2055 0,0 -8.4891,10.6126 -8.4891,10.6126 z"
             id="path8650"
             style="fill:#646464;stroke:#000000;stroke-width:5;stroke-linecap:round;stroke-linejoin:round" />
    </g>
</svg>
