<svg xmlns="http://www.w3.org/2000/svg" xmlns:xlink="http://www.w3.org/1999/xlink" viewBox="0 0 9703.58 9932.58"><defs><linearGradient id="a" x1="1570.75" y1="10750.14" x2="10205.96" y2="-533.58" gradientTransform="translate(-105.95 -2098.62) scale(1.12 1.12)" gradientUnits="userSpaceOnUse"><stop offset="0" stop-color="#30a377"/><stop offset="1" stop-color="#30a377" stop-opacity="0"/></linearGradient><linearGradient id="b" x1="9419.28" y1="8553.58" x2="9529.09" y2="11047.21" gradientTransform="translate(0 2.34)" xlink:href="#a"/><linearGradient id="c" x1="8330.7" y1="8714.1" x2="8759.86" y2="11742.44" gradientTransform="translate(0 2.34)" xlink:href="#a"/><linearGradient id="d" x1="6700.4" y1="8402.1" x2="5890.67" y2="11898.25" gradientTransform="translate(0 2.34)" xlink:href="#a"/><linearGradient id="e" x1="5091.46" y1="8527.58" x2="4812.88" y2="11344.31" gradientTransform="translate(0 2.34)" xlink:href="#a"/><linearGradient id="f" x1="4335.74" y1="8648.66" x2="3153.74" y2="11235.55" gradientTransform="translate(0 2.34)" xlink:href="#a"/><linearGradient id="g" x1="2552.96" y1="8578.65" x2="1495.63" y2="11591.92" gradientTransform="translate(0 2.34)" xlink:href="#a"/><linearGradient id="h" x1="1490.88" y1="8605.03" x2="-980.39" y2="10534.73" gradientTransform="translate(0 2.34)" xlink:href="#a"/><linearGradient id="i" x1="2176.74" y1="6862.68" x2="-582.59" y2="6301.28" gradientTransform="translate(0 2.34)" xlink:href="#a"/><linearGradient id="j" x1="2240.42" y1="3042.73" x2="38.94" y2="3135.62" gradientTransform="translate(0 2.34)" xlink:href="#a"/><linearGradient id="k" x1="2574.4" y1="710.47" x2="-96.75" y2="414.19" gradientTransform="translate(0 2.34)" xlink:href="#a"/></defs><title>slate</title><path d="M1610.71,8895.22L3688.86,8280l916.38,593.72,967.82-641L7784.56,8804.9l1634.63-17.23,430.22-451.73L9333.14,5625.56,9229.93,3251l314-1970.63L9419.19,97.24,7978,398.4,7031.47,11.2l-2947,322.66-1893-236.62-387.2,881.95,503.21,3612.92L1610.71,6399.95,1331.07,8314.42Z" transform="translate(-148.33 -8.7)" style="stroke:#000;stroke-linecap:round;stroke-linejoin:round;stroke-width:5px;fill:url(#a)"/><path d="M9849.41,8335.93l-343.7,1106.84-471.58,354.3,385.06-1009.41Z" transform="translate(-148.33 -8.7)" style="stroke:#000;stroke-linecap:round;stroke-linejoin:round;stroke-width:5px;fill:url(#b)"/><path d="M9034.13,9797.08l385.06-1009.41L7784.56,8804.9,7391,9695.41l988.68,182.53Z" transform="translate(-148.33 -8.7)" style="stroke:#000;stroke-linecap:round;stroke-linejoin:round;stroke-width:5px;fill:url(#c)"/><path d="M7391,9695.41L5284.39,9436.83l288.68-1204.17L7784.56,8804.9Z" transform="translate(-148.33 -8.7)" style="stroke:#000;stroke-linecap:round;stroke-linejoin:round;stroke-width:5px;fill:url(#d)"/><path d="M5284.39,9436.83l-463.92,501.95L4605.25,8873.7l967.82-641Z" transform="translate(-148.33 -8.7)" style="stroke:#000;stroke-linecap:round;stroke-linejoin:round;stroke-width:5px;fill:url(#e)"/><path d="M4820.47,9938.78L2980,9269.51,3688.86,8280l916.38,593.72Z" transform="translate(-148.33 -8.7)" style="stroke:#000;stroke-linecap:round;stroke-linejoin:round;stroke-width:5px;fill:url(#f)"/><path d="M2980,9269.51L1086.28,9824.7l524.43-929.48L3688.86,8280Z" transform="translate(-148.33 -8.7)" style="stroke:#000;stroke-linecap:round;stroke-linejoin:round;stroke-width:5px;fill:url(#g)"/><path d="M1331.07,8314.42L150.83,8752.35,1086.28,9824.7l524.43-929.48Z" transform="translate(-148.33 -8.7)" style="stroke:#000;stroke-linecap:round;stroke-linejoin:round;stroke-width:5px;fill:url(#h)"/><path d="M2307.52,4592.11L1114.81,5176.84l-964,3575.51,1180.24-437.93,279.64-1914.47Z" transform="translate(-148.33 -8.7)" style="stroke:#000;stroke-linecap:round;stroke-linejoin:round;stroke-width:5px;fill:url(#i)"/><path d="M1114.81,5176.84L774.46,1086.25,1804.31,979.19l503.21,3612.92Z" transform="translate(-148.33 -8.7)" style="stroke:#000;stroke-linecap:round;stroke-linejoin:round;stroke-width:5px;fill:url(#j)"/><path d="M2191.51,97.24l-387.2,881.95L774.46,1086.25l439.7-721.73Z" transform="translate(-148.33 -8.7)" style="stroke:#000;stroke-linecap:round;stroke-linejoin:round;stroke-width:5px;fill:url(#k)"/><path d="M2518.18,958.24c25.67-14.8,51.46-29.74,78.43-42.08,6.32-2.89,12.46-6.56,19.27-8,5.56-1.16,11.35.29,17,.43,4.63,3.51,10.36,5.92,13.89,10.53,18.91,24.69,19.67,63.07,20.56,92,1.53,49.83-.17,51-4.69,102.27-12.85,84.18-30.58,167.5-46.06,251.22l-12.35,11.9h0c15.62-83.6,33.43-166.82,46-251,4.53-51.5,6.18-51.7,4.54-101.73-0.93-28.27-1.68-66-20-90.28-3.27-4.32-8.64-6.53-13-9.79-5.44,0-11-1.29-16.31-.12-6.73,1.48-12.83,5.05-19.09,7.93-27.1,12.44-53,27.54-78.66,42.63l10.39-16h0Z" transform="translate(-148.33 -8.7)" style="fill:#646464;stroke:#000;stroke-linecap:round;stroke-linejoin:round;stroke-width:5px"/><path d="M2647,988.63c23.28-55.66,55-100.4,101.16-139.84,14-8.78,48.8-38.26,67.71-26.78,11.86,7.2,12.1,21.13,15.09,32.8-1,11.09-1.31,22.26-3,33.27-5.4,35-15,69.9-24.13,104-16.57,62.1-34,123.9-50.13,186.13-21.58,81.4-32.64,164.83-39.61,248.56l-12.34,12.13h0c7.13-83.86,18.27-167.43,39.67-249,22.46-87.08,9.61-38.6,33.23-124.77,14.86-54.21,31.7-108.6,40.35-164.27,1.67-10.76,2.1-21.68,3.15-32.52-2.47-10.12-2.87-24.68-13.65-31.12-18-10.73-52.89,18.91-66,27.21-9.81,8.51-21,15.85-28.86,26.17-19.94,26.07-35.91,54.93-48.56,85.15l-14,12.93h0Z" transform="translate(-148.33 -8.7)" style="fill:#646464;stroke:#000;stroke-linecap:round;stroke-linejoin:round;stroke-width:5px"/><path d="M2814.35,926.8a342.29,342.29,0,0,1,80.44-105.05c14.55-12.85,28.1-19.23,44.7-28.33,6.16-2.12,12-5.48,18.49-6.36,38.25-5.19,41.3,46.85,43.65,71.56-0.17,11.45.15,22.93-.51,34.36-3.76,65.93-13.08,131.65-18.84,197.42-6.81,77.78-7.18,90.74-12.24,169.44-5.17,99-11.13,198.49-1.77,297.37l-12.64,12.87h0c-8.72-99.44-2.18-199.43,2.94-298.92,5.1-80.72,5.21-89.55,12-169.25,5.55-65.34,14.33-130.65,17.75-196.15,0.59-11.33.3-22.68,0.45-34-2.18-23.22-4.49-74.8-41.24-69.21-6.34,1-12.09,4.26-18.13,6.39-34.22,19-8.27,3.52-44.19,28.33-3.68,2.54-8.24,4-11.35,7.19-19.42,20.12-31.84,45.63-45.51,69.62l-14,12.75h0Z" transform="translate(-148.33 -8.7)" style="fill:#646464;stroke:#000;stroke-linecap:round;stroke-linejoin:round;stroke-width:5px"/><path d="M2667.34,2194.66c76.9-92.16,164.89-173.88,254.38-253.53,29.57-22,67.46-68.41,111.29-54.21,29.51,9.56,46.83,45.86,62.62,69.4,6.3,5.78,11.45,13.16,18.91,17.35,28.83,16.21,67.42-2.63,94.59-11.36,78.16-25.14,34.16-11.93,119.85-35.83,54.1-10.71,145.14-52.38,197.06-12.37,25.49,19.63,35.43,54.17,47.38,81.48,21.8,62.4,31.12,128.08,48,191.75,3,11.26,14.38,55.12,27.53,67.13,4.57,4.17,11.93,3.24,17.9,4.86,8.61-4,18-6.7,25.84-12,12.21-8.19,22.82-18.56,34-28.13,22.73-19.5,78.27-69.6,100.56-87.58,16.58-13.37,32.78-27.51,51.16-38.28,14.15-8.3,30.4-12.32,45.6-18.48,14,1.85,29.13-.2,42,5.54,29.37,13,53.24,48.5,69.13,73.69,22,34.93,29.62,57.64,49.08,93.44,7.16,13.17,15.28,25.79,22.92,38.69,23.44,22.56,32.63,39.68,68.85,41,38.16,1.43,97.15-21.1,129.5-33.78,19.47-7.63,135.86-59.64,154.19-67.79,66-27.17,131.92-54.94,200.19-76,23-7.1,51.77-15.52,76.58-16.88,7.7-.42,15.38,1.17,23.06,1.76,27.83,7.33,35.8,2.67,58.06-16.77,10.62-9.27,20.33-19.52,30.46-29.33,54.42-52.7,13.4-13.6,66.93-64.22,13.09-9.45,31.24-31.69,51.83-19.26,29.06,17.54,43.74,101.49,51.08,133,4.15,20.27,6.29,40.11,17.5,58.23,35.54,57.44,102.85,85.19,162.22,109.31,66.06,21.49,135.84,21.59,203.22,6.81,28.67-11.54,33.62-31.19,49.23-55.62,18.11-28.35,17.58-26.81,36.91-53.46,12.82-14.41,24.71-37.25,46.88-40.26,24.55-3.33,42.47,23.26,55.66,39.23,5.59,3.9,10.57,8.86,16.76,11.71,52.48,24.2,154.14,11.29,211.24,7.14,35.16-3.09,71-4.66,105.23,5.89,21.85,6.74,41.94,19.14,61.71,30.29,7.11,1.87,14,5.24,21.32,5.62,49,2.52,101.25-19.35,147-32.51,81.9-23.59,63.58-18.19,147.85-38.9,76.32-14.84,153.59-36,232-35.49,27.2,0.19,36.07,3.25,61.76,8.57,23.93,6.45,42.79,12.42,68,15,44.64,4.51,73.5,1.59,119.43-3,59.16-5.86,135.84-16.7,193.63-24.42,157.13-19.82,315.16-44.64,473.9-33.84,42.95,4.12,85.91,13.55,129.28,8.81,24.8-2.71,43.91-8.91,67.86-15.42,35.53-7.59,68.29-24.7,104-31.33,14.66-2.72,20.9-2.41,36.15-3.06a2003.27,2003.27,0,0,0,281.56-5.18c55.45-7,110.58-15.12,166.54-12.14,57.51,6.07,115.07,5.15,172.58.27,15.09-.76,25.79-3.47,39.84,3.24,18.41,8.79,46,45.38,61.73,61.3,41.11,33.18,92.42,36,142.84,31,48.05-9.89,97.08-9.45,145.89-9.33,64.1,3.1,127.73-3.3,191-12.75l-10.33,14.67h0c-63.47,9.42-127.27,16.14-191.55,13-48.8-.11-97.73-0.2-145.8,9.51-50.9,4.69-102.73,1.52-144.17-31.94-15.34-15.6-43-52-61-60.52-13.61-6.43-24.56-3.84-39.15-3.16-57.61,4.65-115.24,5.45-172.86-.31-55.64-2.5-110.56,4.74-165.74,11.44a2311.91,2311.91,0,0,1-282.3,6.11c-14.93.78-21.54,0.58-35.88,3.26-35.56,6.63-68.31,23.25-103.64,30.87-24.53,6.58-42.86,12.53-68.24,15.22-43.36,4.61-86.35-4.59-129.25-9.17-158.09-12-315.71,11.55-472.17,32-52.86,7.31-139.51,19.81-194.56,25.57-46.11,4.83-75.54,7.87-120.44,3.59-25.68-2.45-44-8.23-68.29-14.69-25.37-5.29-34.28-8.34-61.12-8.67-78.06-1-155.06,19.58-231,34.53-83.74,20.72-66.61,15.55-148,39.32-46.27,13.51-99.06,36-148.73,33.29-7.5-.4-14.51-3.89-21.76-5.83-19.55-11.17-39.38-23.5-61.05-30.23-33.91-10.53-69.5-9.08-104.39-6.15-57.62,4.05-159.92,17.14-212.85-7.07-6.36-2.91-11.49-8-17.24-11.94-20.71-25.26-43.76-55-76.55-25.16-18.79,25.73-19.55,25.94-37,53.33-19.75,31-37.39,68.81-73.45,83.08-67.63,14-137.27,13.54-203.29-8.52-59.55-24.29-127.86-52.12-163.93-109.48-11.62-18.48-13.44-37.84-17.56-58.59-7-30.39-21.55-114.2-49.59-131.07-19.54-11.75-38.21,10.72-50.14,19.37-60.12,56.86-5.43,4.82-67,64.32-10.27,9.92-20.07,20.37-30.93,29.64-20.62,17.6-33.54,23.82-59.28,16.22-7.5-.61-15-2.2-22.51-1.83-24.57,1.22-52.94,9.3-75.74,16.23-68.08,20.68-133.82,48.18-199.5,75.3-18.08,8-135.39,60.49-154.5,68-33.21,13.05-92.16,35.78-131.17,34.17-36.61-1.51-46.17-19.11-69.76-42-7.62-13-15.72-25.68-22.86-38.93-19.23-35.68-26.86-58.62-48.79-93.34-15.64-24.77-39.31-59.7-68.3-72.43-12.66-5.56-27.44-3.48-41.15-5.23-15,6.08-31,10-44.92,18.24-18.28,10.76-34.44,24.82-50.94,38.15-27.69,22.38-73.55,64.79-101.11,88.37-11.35,9.72-22.16,20.26-34.71,28.36-8.25,5.33-18.08,7.69-27.12,11.53-6.25-2-14-1.51-18.76-6-13-12.35-24.09-57-27-68.43-16.39-63.64-25.86-129.12-47.94-191.29-11.72-26.4-22-61-46.79-80.1-51.36-39.7-141.88,1.52-195.42,12.11-92.11,26.12-36.52,9.38-120.34,36.66-28.16,9.16-66.88,27.77-96.5,10.71-7.54-4.34-12.72-11.87-19.08-17.8-15.36-23-32.41-59-61.31-68.26-42.85-13.7-80.42,32.45-109.33,53.67-71,63.1-140,127.44-204.18,197.5-27,29.45-14.27,22.54-27,29.24l-14.41,12.59h0Z" transform="translate(-148.33 -8.7)" style="fill:#646464;stroke:#000;stroke-linecap:round;stroke-linejoin:round;stroke-width:5px"/><path d="M8835,2527.38c-35.16,31.3-65.46,69-104.41,96.07-7.54,5.24-16.05,8.93-24.08,13.4-7.3,1.12-14.56,4.14-21.9,3.35-36.57-3.94-85.93-69.32-109.78-95.4-21.56-21-42.22-47.81-72.54-56.54-13.52-3.89-26.38-3.42-40.25-3.87-23.33-1.79-51.5,15-73.46,1.9-12.86-7.69-20.94-22.52-29-34.13-18.1-25.71-36.92-83.46-74.37-86-7.79-.54-15.42,2.52-23.13,3.78-8.67,4.75-18,8.46-26,14.26-40.87,29.63-69.54,73.34-103.89,109.53-6.61,7-13.89,13.26-20.83,19.89-15.47,11.33-21.13,18.22-40.17,22.08-32.26,6.53-69-8.87-99.58-16.7-10.79-.69-21.56-2.62-32.36-2.08-58.8,2.9-119.12,41.48-172.61,64.58-35.9,15.7-66.5,15.72-103.37,7.27-29.65-3.52-58,9.17-87.32,11.54-9.74.79-19.54,0.44-29.32,0.66-32.88-2.61-63.94-12.53-93.95-25.76-17.54-7.74-38.7-19.77-56.76-26.45-10.42-3.85-21.29-6.38-31.93-9.57-12.67-1.91-25.25-4.55-38-5.73-24.6-2.27-79-2.34-101.61-3.11-53.62-1.81-107.08-5.36-160.51-10.11-32-3.08-62-12.21-90.69-26.49-7.75-3.86-26.37-15.54-35.63-17.47-6.57-1.37-13.41-.27-20.12-0.4-57.92,14.4-108.5,49.49-155,85.78-8.21,6-21.2,17.72-32.82,18.84-18.55,1.8-52.89-29.89-67.06-40.41-6.94-2.65-13.4-7.92-20.83-7.94-18.67-.06-42.72,19.06-54.49,29.15-40.71,34.87-73.91,78.89-108.87,119.21-21.92,18.68-51.79,74.58-86,75.41-30.27.73-51.82-49.42-62.64-69.19-21.94-39.59-39-96.65-88.4-110.63-31.1-8.8-46.15.16-76.41,8.39-43.07,18.2-82.89,42.48-121.47,68.64-14.71,10-37.26,27.66-54.65,34.78-7.52,3.08-15.78,3.86-23.67,5.79-7.85-.89-15.87-0.77-23.54-2.67-26.13-6.48-50-22.57-75.35-31.34-37.92-13.12-41.09-11.38-83.08-17.45-97.59-5-190.22,30-285.25,45-52.33.53-101.19-19.88-151.25-32.09-37.44-9.13-40.31-8.68-77.1-14-10.5-1-21-1.92-31.49-2.91-24.57-2.33-24.74-1.46-47-7-15.26-3.81-28.55-9-44.26-10.53-4.31,1.33-8.83,2.09-12.93,4-7,3.23-21.34,13.6-27.53,17.83a333.62,333.62,0,0,1-37.86,22.66c-23,11-47.87,11.94-72.83,12.46-48.44.35-97.06,7-145.51,5.72-14.15-.37-28.61-0.06-42.32-3.58-17-4.37-32.53-13.21-48.79-19.81-85.17-42.22-144.07-127.79-236.51-157-16.89-5.33-34.81-6.55-52.22-9.82-95.92-3.78-187.62,27.36-278.35,54.23-54.4,17.67-108.78,4.21-163.65-2.61-43.17-7.87-90.16,3.44-132.34-10.87-18.18-6.17-27.31-14.91-42.32-26.2-17.66-13.69-26.69-23-49.14-30-58.67-18.42-127.48,10.06-183,27.09-65.58,18.09-129.93,42.71-197,55.09-28.45,5.25-39.89,4.83-68.89,6.28-101.14-1.6-202.43-6-303.43-12.15-31.86-2.3-61.63-8.9-89.52-24.51-11.42-6.39-21.34-15.47-33.28-20.8-5.86-2.62-12.31-3.66-18.46-5.5-30.95-4.79-60.27,9-90.78,10.07-15.34.54-18.67-1.43-32.77-5.27l11.47-14.94h0c13.82,3.71,17,5.6,32.05,5,30.7-1.17,60.3-14.84,91.44-9.67,6.29,1.92,12.88,3.07,18.87,5.77,11.87,5.36,21.69,14.44,33,20.87,27.48,15.61,56.9,22.28,88.38,24.79,101,6.72,202.36,10.68,303.56,11.62,28.44-1.52,40.65-1.26,68.54-6.32,66.94-12.14,131.2-36.32,196.52-54.58,57.3-17.65,124-46.17,184.68-27.12,22.87,7.17,31.59,16.18,49.57,30,14.86,11.16,23.68,19.63,41.64,25.74,42.08,14.3,89,3.35,132,11,54.65,6.54,108.92,19.57,163,2.19,90.87-26.5,182.7-57.17,278.61-53.15,17.52,3.36,35.57,4.64,52.56,10.07,92.33,29.48,151,115.06,236.45,156.9,16.2,6.4,31.71,15,48.61,19.19,22.74,5.68,61.73,2.89,84.61,2q51.83-2,103.62-5c24.78-.82,49.5-2,72.23-13.07a361.18,361.18,0,0,0,37.58-22.68c7-4.76,20.13-14.23,28.1-17.59,4.3-1.81,9-2.38,13.53-3.57,15.65,1.81,29,7,44.25,10.89,22,5.6,22.33,4.75,46.61,7.22,10.48,1.06,21,2.09,31.44,3.13,36.87,5.5,39.59,5.09,77.15,14.25,49.88,12.17,98.68,32.22,150.83,31.39,95.07-14.82,187.87-49,285.39-44.29,42,5.94,45.78,4.29,83.82,17.23,25.24,8.59,49.06,24.61,75.1,30.81,7.49,1.78,15.33,1.54,23,2.31,7.72-2,15.8-2.85,23.16-5.91,17.09-7.11,39.73-24.64,54.26-34.4,38.76-26,78.75-50.22,121.95-68.33,31-8.18,46-17.08,77.71-7.85,49.76,14.48,66.92,71.38,89,111.49,10.23,18.51,31.89,68.37,60.86,67.16,33.58-1.4,63-56.56,84.71-74.9,5.55-6.4,69.17-79.89,74.58-85.62,19.15-20.29,58.6-63.32,91.31-62.55,7.58,0.18,14.13,5.53,21.19,8.29,14.31,10.57,46.4,41.44,65.71,39,11.16-1.39,24.29-13,32.17-18.78,46.89-36.16,97.78-71.54,156.18-85.27,6.91,0.26,14-.7,20.72.78,9.47,2.08,27.47,13.63,35.5,17.7a254.69,254.69,0,0,0,89.7,26.77c53.33,5,106.65,8.69,160.2,10.31,25,0.75,75.67.32,102.19,2.71,12.86,1.16,25.55,3.82,38.33,5.73,10.72,3.22,21.67,5.76,32.17,9.65,18.31,6.78,38.86,18.6,56.66,26.45,29.83,13.15,60.73,22.84,93.44,25.2,9.73-.29,19.5,0,29.19-0.87,29.59-2.64,58.27-15.74,88.24-11.61,36.38,8.4,66.49,8.2,101.92-7.27,53.86-23.22,114-61.42,173.32-64.1,10.91-.49,21.79,1.46,32.69,2.19,30.34,7.64,66.94,22.8,98.83,15.79C8100,2516.16,8106,2509.1,8121,2498c6.86-6.6,14-12.88,20.58-19.79,34.33-36.26,63.25-80.14,104.53-109.33,8.21-5.8,17.77-9.4,26.66-14.1,8-1.11,15.92-4,23.94-3.33,38.19,3.39,56.58,60.42,75.14,86.91,7.66,10.92,16,25.86,28.26,33.08,20.34,11.93,50.85-3.8,73-2.05,14.34,0.55,26.88.1,40.83,4.25,30.51,9.08,51.18,36,72.84,57.4,23.27,25.5,72.66,90.64,108.59,94,7.15,0.66,14.16-2.36,21.24-3.54,7.9-4.47,16.27-8.2,23.7-13.41,39.08-27.41,69.62-65.23,104.78-97l-10,16.34h0Z" transform="translate(-148.33 -8.7)" style="fill:#646464;stroke:#000;stroke-linecap:round;stroke-linejoin:round;stroke-width:5px"/><path d="M2787.59,3074.63c38.51-24.94,81.72-42.46,124.37-59,12.52-4.86,24.67-11.26,37.87-13.73,11.12-2.09,22.64.17,34,.26,11.21,6.74,23.84,11.56,33.64,20.23,24,21.2,53.61,66.42,70.13,91.91,30.68,47.36,58.07,96.72,88.46,144.28,8.25,5.22,15.06,14.56,24.76,15.66,30.55,3.47,64.26-50.35,78.81-70.78,35.83-50.31,36.91-52.7,71.37-104.06,28.74-40.44,55-82.86,86.34-121.46,5.17-6.37,31-40,46.07-48.22,3.27-1.78,7.34-1.3,11-2,10,2.82,12.47,13.94,21.52,18.26,14.72,7,36.65,1.27,51.34-.53,23.31-1.88,54.95-15.42,75,4.67,26.45,26.46,42.3,106.89,51.53,141.16,22.68,70.89,29,162.07,72.91,224.31,2.28,1.33,4.27,3.43,6.85,4,6.59,1.4,16.67-10.56,19.11-14.56,1.11-1.83-5.67,6.15-4.88,4.16,1.51-3.82,4.79-6.67,7.19-10,10-11.09,19.22-22.85,29.87-33.27,16.82-16.45,43.66-35,62.75-47.74,34.55-23.08,60.7-37.78,99.16-52.74,21.47-6.65,42.35-8.19,64.22-3.28,9.64,2.17,18.44,7.75,28.24,9,5.68,0.74,11.45-.43,17.17-0.64,7.32-2.56,14.94-4.4,22-7.69,48-22.47,90.26-57,135.25-84.64,5.55-1.62,10.88-4.53,16.65-4.85,20.29-1.15,28.35,20.64,40.68,31.86,3.73,3.39,8.08,6,12.12,9.05,46.18,15.9,96.51,8.13,144.31,7.39,61.16-.95,49-0.48,109.46,4.38,47.69,6.89,90.73,25.78,132.37,49,20.22,11.28,38.13,23.74,59.2,33.42,10.05,4.62,20.62,8,30.92,12,11.42,3,22.67,6.78,34.27,9,34.4,6.5,64.82,6.63,100.27,7,62.44,0.69,124.93-1.79,187.36-2.51,38.28,1,76.3,5.37,112.82,17.22,23.3,7.56,45,17.2,68.78,23.57,60.69,3.32,119.91-14.94,179.49-23.36,59.25-8.37,90-9.4,149.58-13.49,68.18-2.88,138.34-4.82,203.82,17.71,9.94,3.42,63.57,26.59,72.33,30.34,67,27,136.53,38.17,208.35,27.12,48.27-7.43,85.29-20.39,132.09-34.43l65.23-23.52c19.09-7.44,38-15.29,57.28-22.32,35-12.8,76.27-29.65,113.67-13.64,8.41,3.6,15,10.49,22.46,15.74,21,14.6,34,52.05,58.27,60.28,19,6.44,35.34,1.94,54.86-.19,109.08-18.72,217.63-40.38,326.44-60.63,45.27-9.9,91.34-6.12,137.13-6.13,28.66,0,37.57-1.45,66.48-4,54.93-5,109.35-16.17,164.39-20.14,24.31-1.75,36.15-.7,59.59.24,6.8,1,13.63,1.85,20.4,3.07,14.66,2.65,22.08,5.63,37.33,7.31,42.35,4.65,84.62,1.09,126.93-1.69,67.09-5.15,133.92-13.19,201.08-17.44,23.26-1.47,70.82-4.34,95.82-.94,12.22,1.67,23.9,6.14,35.85,9.2,39.54,8.46,63.55,45.53,99.07,61s82.66,22.68,118.88,30.29c28.83,4.45,57.57,9.59,86.5,13.35,68.44,8.89,106.39,11.54,174.67,13.75,24.3,0.79,48.63.26,72.93,0.94,54.44,1.51,53.28,2.19,102.61,7.12,34,0.79,63.92,25.11,97.88,25,22.8,0,28-5.7,48.67-15.71,26.34-18.34,51.05-38.85,76.21-58.74l-9.71,15.43h0c-25.24,19.92-50,40.55-76.62,58.62-21.34,10-26.35,15.46-49.73,15.27-33.84-.27-63.46-24.26-97.28-25.68-48.73-5.34-48-6.08-101.84-7.91-24.23-.82-48.49-0.45-72.71-1.33-68.81-2.51-105.67-5.15-174.73-13.94-29-3.7-57.91-8.67-86.87-13-36-7.17-84.83-14.19-120.44-29.34s-59.15-52.4-98.44-60.85c-11.8-3-23.34-7.46-35.41-9.15-25-3.51-71.81-1-95.18.39-67.26,4-134.18,12-201.3,17.73-42.64,3-85.32,6.9-128,2.46-15.64-1.62-22.38-4.51-37.3-7.28-6.67-1.24-13.4-2.09-20.1-3.13-23.23-1-35-2.16-59.07-.5-55.11,3.81-109.57,15.11-164.54,20.29-28.85,2.53-38.15,4-66.76,4-45.56,0-91.38-3.85-136.46,5.86-109.06,19.73-217.78,41.28-326.84,61-20.44,2.19-36.43,6.75-56.19-.12-24.55-8.53-37.12-45.59-58.12-60.6-7.28-5.12-13.66-11.85-21.84-15.36-36.73-15.78-77.65.82-112.12,13.26-19.2,6.93-38.09,14.7-57.14,22l-65.27,23.41c-47.05,14.13-84.09,27.14-132.62,34.56-72.13,11-142.08-.24-209.49-27-35.48-15.09-70.67-32.44-108.64-40.53-54.57-11.63-110.7-10.4-166.08-8.09-62.8,4.34-87.23,4.82-149.69,14-60,8.79-119.78,27.7-181,24.11-23.69-6.47-45.42-16.08-68.66-23.76-36.15-12-73.77-16.69-111.76-17.79-62.45.51-124.92,2.82-187.37,2.43-37.28-.24-65.37.18-101.14-6.54-11.68-2.19-23-6-34.49-9-10.37-4-21-7.47-31.12-12.14-21.18-9.79-38.67-22.22-59-33.69-41.31-23.33-84-42.14-131.51-48.94-60.16-4.79-48.41-5.33-109.35-4.18-48.41.91-99.37,9.29-146.13-7-4.15-3.08-8.61-5.79-12.45-9.25-11.7-10.58-19.58-32.16-38.92-30.66-5.6.43-10.74,3.27-16.11,4.91-43.87,26.89-89.33,63.23-135.6,84.42-7.21,3.3-15,5-22.55,7.55-5.94.11-11.93,1.15-17.81,0.34-9.67-1.34-18.36-6.83-27.88-8.95-21.49-4.79-42-3.11-63.11,3.42-9.75,3.81-19.8,6.95-29.26,11.43-50.57,24-95.91,58.5-138.17,94.66-6.1,8.44-32.94,52.23-47.68,47.75-2.77-.84-4.88-3.1-7.31-4.66-43.65-64.45-48.75-153.64-72.12-226.08-9.12-33.31-25.41-113.26-51.31-139-19.72-19.63-51.43-5.79-74.2-4.06-15.75,2-37.3,7.63-52.87,0-8.64-4.21-11-14.14-20.19-17.27-3.35.73-7.09,0.48-10.06,2.2-19,11-36.23,37.8-47.63,53.41-19.58,26.8-43.6,62.18-62.15,89.14-36.77,54.87-72.65,111.08-115.84,161.27-11.07,12.86-35,42.53-58.64,39-9.88-1.47-16.61-11.12-24.91-16.68-30-47.81-57.23-97.36-88-144.66-16.75-25.72-45.78-69.54-70.12-90.74-9.63-8.39-22-13-33-19.49-11.1,0-22.39-2.18-33.29-.1-13.13,2.5-25.25,8.78-37.7,13.62-42.93,16.69-86.45,34.58-124.71,60.51l10.18-16.2h0Z" transform="translate(-148.33 -8.7)" style="fill:#646464;stroke:#000;stroke-linecap:round;stroke-linejoin:round;stroke-width:5px"/><path d="M2864.14,3803.94c30.72-20.07,65.36-34,100.39-44.59,11.48-3.47,23-7.42,34.9-8.78,9.94-1.13,20,.93,30,1.39,8,6.06,18,10.11,24,18.18,17.8,24,25.93,68.5,31.63,94.87,0.49,2.26,19.42,103.26,21.45,110.59,3.06,11,8.54,21.28,12.81,31.92,5.27,3.46,9.52,10,15.82,10.38,7.13,0.38,13.6-4.73,19.68-8.48,19.1-11.79,45.49-43.83,68.49-46.5,5.46-.63,10.47,3.37,15.7,5.05,24.67,33.05,29,77.79,62.45,105,22.79,18.55,32.18,15.26,59.86,17.83,50.57-3.69,87.36-39.62,130.9-60.5,7.42-3.56,15.29-6.1,22.94-9.15,39.89-10.45,72-35.8,104.54-59.78,6.4-4.72,13.29-8.82,19.23-14.1,7.4-6.58,13.78-14.24,20.66-21.36,22.84-24.17,42-51.56,64.92-75.7,6.79-7.16,19.26-22.32,32.23-13.18,6.2,4.37,8.76,12.39,13.14,18.58,22,38.2,29.93,88.25,64.86,118.12,20.45,17.48,28.84,14.88,54.39,18.48,54.45-1.73,107.66-15,161.87-19.14,12.61-1,25.34-2.47,37.93-1.29,10.68,1,20.82,5.16,31.23,7.74,26.9,13.17,43.26,36.62,62.23,58.43,7.39,8.5,19.5,25.09,33.55,25.44,9,0.22,17.35-4.6,26-6.9,72.81-30.94,139.1-76.18,212.6-105.61,10-4,20.49-6.56,30.73-9.84,8.08-1.13,16.1-2.8,24.23-3.39,24.71-1.8,35.25,4.75,61.85-.89,32-6.79,54.5-17,86-28.9,99.48-31.72,195.81-84.29,301.3-93.93,10.53-1,21.14-.28,31.72-0.42,20.11-1,38.36,9.39,58.49,6.88,25.42-3.17,51.58-18.78,74.34-29,25.13-12,52.31-27.57,80.56-15,17.77,7.91,31.39,26.18,44,40.2,4.35,3,8,7.33,13,9.14,24.42,8.83,54.39-3.25,78.13-6.61,12.67-1.79,26-7.21,38.23-3.39,17,5.31,29.73,19.52,44.59,29.28,52,45.45,77.35,114.42,140.56,147.86,53.36,28.23,113.2,20.83,170,14.23,14.34-3.11,65.33-12.46,79.78-21.76,16.25-10.45,29.25-25.28,43.08-38.77,15.28-14.91,27-33.69,44.19-46.38,35.15-26,46.38-19.05,84.66-16.42,37,9.88,67.89,34.26,104.2,45.88,17.7,5.66,36.64,7,54.16,13.21,56.64,20.06,78.26,37,129.63,68.3,48.46,31.35,97.38,71.84,158.32,73.35,48.81,1.21,90-25,130.83-47.56,12.63-6,25-12.53,37.89-17.93,11.07-4.64,22.6-8.09,33.9-12.14,11.57-3.74,23.45-6.61,34.7-11.22,43.44-17.79,80.95-41.2,123.26-62.2,27.55-13.67,55.7-26.09,83.55-39.14,27.76-.65,56.23-8.22,83.27-1.94,55.08,12.78,137.22,70.48,182.45,100.36,26.31,17.38,51.76,36,78.31,53,49.49,31.7,62.39,37.38,109.46,62-51.35,12.17-15,8.9-99.7-39.53-33.08-18.9-67.38-35.77-99.43-56.37-34.87-22.4-82.18-48-90.35-95-2.09-12,5.32-23.85,8-35.77,13.09-15.22,24.86-31.68,39.27-45.65,25.23-24.46,68.49-52,104.61-55.24,25.11-2.27,39.41,5.2,62.51,12.92,51.62,22.88,104.42,43.43,160,54.23,16.17,3.14,52,7.85,69.06,10.19,25.7,5.14,50.56,12.79,73.51,25.6,19.18,10.7,17.19,13,38,21.82,8.28,3.5,17,5.84,25.51,8.76,63.73,17.24,128.36-1.29,192.4-2.65,30.2,1.31,56.58,17.95,86,22.88,13.93,2.34,26.42,1.32,40.43,1,18.54-1.64,37.35-1.68,55.49-6.36a45.59,45.59,0,0,0,9.1-3.28,24,24,0,0,0,3.58-3.09c-3.71,3.87-7.62,7.53-11.43,11.29,2-29.65,14.48-72.6,31.75-96.7,6-4.29,10.69-11.51,17.91-12.88,3.29-.62,3.59,5.66,5.42,8.46,8.38,12.87,9.15,15.81,23.72,25.86,22,15.17,38.06,19.82,63.41,30.13,46.5,13.65,42.8,14,91,22.36,14.33,2.49,29,2.93,43.17,6.3a355.49,355.49,0,0,1,50.22,16c40.9,16.47,90.92,45.32,128.75,65.89,81.65,38.56,161.22,99.67,255.19,102.57,31.58,1,42.36-4.84,70.66-13.86,21.63-7.59,39-21.34,56.56-35.46l-10,15.86h0c-17.62,13.89-35.19,27.28-56.82,34.62-28.47,8.63-39.31,14.29-70.93,12.88-93.85-4.19-173-65.74-255-103.82-38.62-20.66-87.52-48.53-129.13-64.9-59.71-23.49-124.84-21.41-184.8-44.35-33.23-13.26-68.52-24.36-88.78-55.86-1.54-2.39-4.79-4.55-4.32-7.35,0.92-5.59,5.34-10,8-15-16.77,21-31.64,68.58-32.17,95.87-4.24,6.12-8.08,12.53-12.72,18.35-8.69,10.9-56,9.41-68.8,11.57-14.93.32-26,1.29-40.82-1.3-29.16-5.1-55.45-21.4-85.48-22.66-64.19,1.31-129,19.25-192.85,2.19-8.61-2.93-17.45-5.27-25.83-8.8-21.13-8.87-18.58-11-37.91-21.82-22.72-12.74-47.37-20.34-72.82-25.52-17.62-2.5-52.21-7.19-69-10.55-55.59-11.11-108.48-31.63-160.37-54.05-22.89-7.52-36.8-14.77-61.62-12.36-47.92,4.65-88.84,40.58-120.57,73.53-3.06,11.75-10.85,23.22-9.17,35.25,6.64,47.61,52.55,73.48,88,96.27,32.08,20.64,66.55,37.32,100,55.64,26.43,14.47,56.51,23.45,79.65,42.74,5.86,4.88-.64,15.24-1,22.86-45.45-24.87-60.87-32.42-108.53-63.41-26.41-17.17-51.75-35.94-78-53.34-46.56-30.85-125.47-86.22-182.24-99.1-26.83-6.09-55,1.35-82.52,2-27.89,13.15-56.1,25.63-83.66,39.44-45.21,22.66-78.92,44.72-124.52,63.54-11.23,4.64-23.11,7.51-34.67,11.27-11.21,4-22.65,7.45-33.63,12-12.81,5.37-25.12,11.88-37.68,17.81-41.15,22.58-82.64,48.52-131.79,46.8-61-2.13-109.67-43.13-158.19-74.51-52.31-31.72-71.9-47.53-129.66-67.4-17.74-6.1-36.9-7.26-54.8-12.89-36.16-11.36-66.84-35.82-103.69-45.53-37.6-2.42-48.44-9.16-82.88,16.5-17.19,12.81-29,31.6-44.42,46.5-14.12,13.64-27.52,28.51-44.09,39-14.39,9.13-65.58,18.14-79.79,21.12-57.14,6.24-117.25,13.16-170.74-15.47-62.85-33.64-88.44-102.41-140.75-147.37-14.66-9.38-27.31-23.16-44-28.13-12.25-3.65-25.52,1.8-38.17,3.64-24.51,3.58-54.62,15.64-79.73,6.24-5.1-1.91-8.87-6.31-13.31-9.47-12.29-13.78-25.59-31.88-43-39.59-27.72-12.26-54.74,3.68-79.31,15.31-23.12,10.5-49.45,26.25-75.39,29.09-20,2.19-38.12-8-58.11-7.27-10.42.07-20.88-.69-31.26,0.2-105.37,9-201.74,61.46-300.74,93.81-32,12.23-54.38,22.63-86.93,29.52-26.88,5.7-37.05-.83-61.87,1-8,.58-15.87,2.22-23.81,3.32-10.11,3.21-20.47,5.71-30.32,9.63-73.8,29.36-140.18,74.89-213.2,105.9-9.08,2.13-17.92,6.84-27.23,6.39-14.13-.68-26.51-17.45-34-26.17-18.63-21.6-34.6-44.86-61.18-57.85-10.23-2.54-20.2-6.64-30.7-7.63-12.52-1.17-25.17.27-37.71,1.23-54.45,4.16-107.83,17.75-162.53,19.25-26.19-4-34.5-1.36-55.38-19.36-34.83-30-43-79.81-65.23-117.94-4-5.77-6.27-13.28-12-17.32-12.14-8.52-24.56,8.06-30.45,13.61-24.16,22.78-41.43,52.28-65,75.67-7,7.13-13.54,14.79-21,21.4-5.92,5.21-12.76,9.29-19.13,14-32.66,23.94-65.16,48.91-105,59.65-7.58,3.11-15.38,5.74-22.75,9.32-43.58,21.14-80.84,56.41-131.64,59.58-28.41-3-37.56.29-60.89-18.76-33-26.95-38.3-70.67-62.1-103.78-4.82-1.48-9.46-5.12-14.45-4.43-21.9,3-49.35,35.51-68.58,46.42-6.51,3.7-13.74,8.28-21.19,7.48-6.61-.72-10.84-7.69-16.26-11.54-4.2-10.87-9.58-21.36-12.6-32.61-9.74-36.29-13.2-74-21.23-110.7-5.57-25.42-14.15-69.91-31.44-93.26-5.76-7.77-15.43-11.67-23.15-17.5-9.8-.42-19.66-2.41-29.41-1.27-11.85,1.39-23.29,5.29-34.7,8.78-35.24,10.79-70.05,25.16-100.61,46l10.26-16.22h0Z" transform="translate(-148.33 -8.7)" style="fill:#646464;stroke:#000;stroke-linecap:round;stroke-linejoin:round;stroke-width:5px"/><path d="M8794.53,5009c-22.34,3.78-46.66,10-69.32,3.91-53.12-14.27-85.24-58.92-118.61-98.63-41.34-61.28-28.72-40.66-65.1-101.73-14.82-24.88-35.84-73.35-66.8-84.46-6.62-2.37-14-.8-21-1.2-27.78,4-67.39,37.26-94.24,18.92-15.88-10.85-20.16-30.1-26.68-46.44-11.09-23.88-13.77-91.54-34.12-106.63-12.4-9.19-30.35-3.33-43-1.55-37.84,5.24-107.15,47.46-142.3,38.73-7.34-1.82-13.32-7.17-20-10.76-30.63-24.15-42-66.79-75.8-87.57-23.73-14.61-37.22-11.65-64.47-13.14-12.8,1.35-25.73,1.77-38.39,4.06-13.45,2.44-26.56,6.48-39.75,10.1-47.59,13.05-94,29.83-140.86,45.37-29.28,6.28-53.7,23.43-79.44,37.56-12.1,6.64-26.32,16.47-41.52,13.9-6.09-1-11-5.62-16.51-8.43-33.46-31.67-42.29-80.78-75.76-112.54-7-6.6-15.36-11.51-23-17.26-9.56-4-18.54-9.81-28.67-11.92-52.1-10.84-99.82,13.06-149.7,21.71-9.1,1.58-18.41,1.37-27.62,2.06-24.09,3.77-53.2-20.42-75-22.49-18.27-1.74-37.81,6.27-54.48,11.21-52.88,20.64-101.74,49.77-151.66,76.43-9.89,5.28-19.49,11.16-29.78,15.6-8.41,3.63-17.42,5.68-26.13,8.52-29.33.46-22.52,2.55-52.57-6.87-26.14-8.2-56.36-27.27-82.53-5.26-7.39,6.22-9.42,16.86-14.14,25.29-24.65,61.67-20.56,46.52-38.35,110.85-7.41,26.79-12.84,92.53-63.21,71-14-6-21.83-21.25-32.75-31.88-14.58-13.08-28.05-27.52-43.74-39.24-75.19-56.19-161.88-87.11-250.63-114.65-73.61-22.85-116.36-32.71-189.78-51.3-61.08-12.94-118.47-34.05-169.79-69.78-10.16-7.08-38.75-32.25-51.66-39.21-7.55-4.07-16.08-6-24.12-8.94-8.09-1.4-16.16-3-24.28-4.19-20.68-3-21.1-.84-40.37-7.36-17.22-5.83-22.06-11.29-40.93-13.9-39.43,11.72-44.81,25-59.62,59.86-22.15,43-34.89,30.75-70.41,41.28-21.4,6.35-27.3,11.65-46.13,23.17-11.46,9.29-21.81,16.35-30.81,28-1.41,1.82,3.54-5.42,5.48-4.18s-0.65,4.78-.74,7.19c-0.09,2.56.8,5.2,0.2,7.69-1,4.18-3.31,7.95-5,11.92-8.31,9.59-15.59,20.18-24.94,28.77-22.06,20.27-56.14,28.47-84.81,19-35.33-11.61-66.52-39.49-95.15-61-69.65-54.67-130.86-120.41-206-167.94-11.85-5-16.94-9.32-30.18-7.08-34.51,5.84-74.43,33.7-104.85,50.85-16.21,7.69-32.18,13.73-49.88,7.8-13.42-4.5-6.87-6.69-23.47-8.41-5.56-.57-11.16.4-16.75,0.61-6.17,2.05-12.63,3.4-18.51,6.16-27.67,13-51,35-74.06,54.44-36.12,30.53-13.69,12.07-48,39.85-59.69,41.29-126.48,71.2-192.74,100.26-30.75,13-62.73,23.33-96.37,24.36-27.35.84-55.08-4.17-82.41-5.35-10.37,1.49-21,1.79-31.1,4.48-53.23,14.14-99.32,47.59-147.77,72.27-9.65,4.92-19.69,9-29.54,13.53-36.79,12.09-55.58-5.77-87.14-19.16-23.43-9.94-28.58-9.36-54.45-14.2-31.94-9.95-81.21,8.56-111.19-3.57-18.27-7.39-23.14-18.78-34.49-34-18.79-28.84-31-74.1-68.57-84.39-18.8-5.14-31-.23-49.33,3.57-25.79,3.87-52.23,28.53-79.52,21.72-11.32-2.83-16.13-9.46-24-17.07-3-3.56-5.53-7.67-9.12-10.69-38.22-32.22-107.92-25.9-154.2-25.55-39.6,1.77-80.5,4.62-117.94-11-11.32-4.72-23.5-12.52-34-18.86-12.89-6.26-20.91-11.35-35.48-13.45-39.93-5.75-82,5.26-121.5,9.67-21.91,1-41.71-4.08-60.73-14.67-15.53-8.65-12.64-12-33.09-15.25-10.89-1.73-22-1.14-33-1.72-54.07.61-107.7,7.48-161.26,14.12l9.95-14.05h0c53.84-6.64,107.73-13.58,162.05-14.69,11.23,0.55,22.59-.09,33.7,1.66,21,3.3,17.72,6.48,33.37,15.26,18.67,10.47,38.06,15.47,59.6,14.46,39.8-4.37,82.15-15.48,122.33-9.58,14.57,2.14,23,7.43,35.91,13.71,10.5,6.38,22.26,14,33.59,18.77,37.13,15.57,77.79,12.72,117.07,11.16,47-.32,117.11-6.68,156.08,25.77,3.55,3,6,7.06,9,10.58,7.54,7.31,12,13.66,22.9,16.21,25.47,6,54.39-18,79-21.62,18.9-3.67,31.12-8.48,50.39-2.9,37.74,10.93,50.15,55.75,69.13,85,11,14.78,15.74,25.85,33.51,33,29.93,12,79.2-6.08,111,3.87,26.18,4.88,31.32,4.29,55.06,14.29,31.1,13.11,49.41,30.51,85.58,18.48,9.76-4.46,19.71-8.53,29.29-13.39,48.67-24.71,95-58.12,148.48-72.14,10.24-2.68,21-2.94,31.46-4.41,27.24,1.24,54.91,6.13,82.18,5.21,33.36-1.12,65.08-11.36,95.59-24.23,66.27-29.2,133.08-59.27,192.61-100.95,35-28.34,10.82-8.47,47.85-39.68,23.26-19.6,46.87-41.82,75-54.54,6-2.74,12.67-4,19-5.94,5.75-.12,11.53-1,17.24-0.35,18.21,2,9.31,3.63,23.45,8.27,17.14,5.63,32.78-.7,48.4-8,30.52-17.12,71.32-45.53,106-50.7,13.34-2,19.06,2.67,30.78,7.89,74.48,48.5,135.09,114.84,205.06,169.22,37.84,28,78.75,67.44,130.26,62.34,18.66-1.85,35.35-13.26,49.84-23.25,1.81-3.72,4.36-7.17,5.44-11.17,0.68-2.54-1.55-13.35-.13-15.83,12.17-21.19,30.26-37.46,49.48-51.89,19.63-11.73,24.57-16.35,46.75-22.91,7.24-2.14,14.85-2.68,22.23-4.25,5.83-1.24,11.51-5.22,17.39-4.2,2.34,0.41-2.85,8.5-1,7.05,3.72-2.85,4.91-8,7.37-12,16.1-38.84,41.14-78.08,84.72-87.7,19.51,3.07,23.36,8.23,41,14.2,18.72,6.34,20,4.35,40.13,7.44,8.21,1.26,16.35,3,24.53,4.44,8.15,3.11,16.81,5.11,24.45,9.32,12.68,7,41.16,32.61,51.11,39.7,50.69,36.1,107.62,57.51,168.31,70.81,71.44,18.44,118,29.64,189.58,51.75,89.05,27.52,176.34,58,252.25,113.7,15.81,11.6,29.42,25.93,44.12,38.89,10.92,10.31,23.45,19.15,32.76,30.93,5.48,6.93,2,23.21,10.82,24.19s12.71-13,16.09-21.18c6.27-15.2,8-31.92,12.34-47.77,18-65.15,13.3-48.38,37.64-110.92,12.52-17.38,21.87-37.55,37.55-52.13,24.39-22.69,59-1.64,83.44,5.84,29.19,8.93,23.4,6.94,51.76,6.22,8.58-2.83,17.45-4.91,25.75-8.49,10.22-4.41,19.8-10.2,29.64-15.42,50.11-26.61,99.12-55.76,152.13-76.45,18.35-5.38,36-12.94,55.69-11,23,2.31,49.12,25.78,74.19,22.31,9.07-.68,18.25-0.5,27.21-2,50.22-8.62,98.32-32.11,150.7-21.1,10.28,2.16,19.39,8.09,29.08,12.14,7.79,5.84,16.32,10.81,23.38,17.51,33.29,31.54,42.25,80.23,75.43,111.75,5.2,2.6,9.85,6.91,15.59,7.79,14.63,2.24,29.13-7.64,40.69-14,25.82-14.11,50.44-31.06,79.76-37.36,46.78-15.32,93.2-32,140.73-44.95,13.27-3.61,26.47-7.61,40-10,12.76-2.27,25.79-2.65,38.69-4,28,1.67,41.21-1.32,65.58,13.73,33.63,20.77,45.17,62.92,75.64,87,6.41,3.4,12.18,8.5,19.23,10.2,35.12,8.44,104.21-33.8,142-38.77,14.2-1.78,31.39-7.46,44.76,2.7,20.76,15.77,22.8,82.67,34.15,107.15,6.12,15.38,10.53,34.8,25.63,45.07,26,17.68,66.5-16.15,93.9-19.12,7.24,0.63,14.95-.71,21.73,1.9,31,11.94,51.6,60.47,66.57,85.9,35.44,60.2,24.25,41.56,64.78,101.68,33.28,39.21,65.28,83.36,118.21,96.81,22.85,5.81,47.13-.82,69.51-5l-11,15.75h0Z" transform="translate(-148.33 -8.7)" style="fill:#646464;stroke:#000;stroke-linecap:round;stroke-linejoin:round;stroke-width:5px"/><path d="M2997.51,5193.55c42.58-52.58,96.17-94.6,145.73-140.29,20.37-13.16,37.65-48.94,65.63-49.58,26.59-.61,39.14,33.78,48.76,51.77,11.34,17.26,21.05,63.33,38.81,75,27.18,17.92,75.36-26.39,93.19-38.78,40.8-29.88,77.31-64.88,114.94-98.49,11.07-9.89,30.31-29.8,46.87-34.73,4.75-1.41,9.89.6,14.83,0.9,21,10.71,13.14,55.24,40.7,54.85,5.56-.08,10.75-2.82,16.13-4.23,15.92-2.74,47.82-22.85,62.68-22.82,6.64,0,13.83,2.35,18.71,6.85,15.59,14.39,22.43,46.72,28,64,12.5,43.78,18.28,89.35,31.28,133,4.14,13.9,8.48,35.94,26.1,41.26,6.51,2,13.55-1.12,20.33-1.68,46.44-20.06,90.75-44.6,136.94-65.23,10.22-4.56,20.06-10.47,31-13,8.07-1.88,16.57,0,24.85,0,6.28,5.36,14,9.42,18.85,16.09,20.34,27.8,23.18,67.68,31.88,99.78,2.65,9.79,4.28,20.1,9.06,29,3.07,5.74,9.21,9.19,13.82,13.78,7.4-1.58,15.22-1.83,22.21-4.74,9.37-3.91,71.16-41.47,73.78-43,10.39-6.24,71-43.17,84-49.45,10.56-5.12,22-8.26,33-12.4,26-1.78,43.15,6.78,59,26.94,7.71,9.79,10.49,23.42,19.8,31.7,5,4.44,11.91,6,17.86,9.05,10.2,1,20.36,3.21,30.6,2.91,33.27-1,67.66-10,99.4-18.34,58.44-15.38,115.35-35.28,172.59-54.47,33.85-11.92,68.67-16.75,104.38-16.39,8.15,0.08,45.39,2.52,53.89,2.21,9.19-.33,18.28-1.91,27.43-2.87,61.58-17.39,120.31-46.07,184.57-53.38,54.68-6.22,74.47-.8,129.32,5.32,22.71,4.92,45.53,9.34,68.13,14.74,1.71,0.41,137.61,36.07,137.9,36.14,68.31,17,137.07,31.28,206.18,44.62,41.14,9.65,87.61,8.18,124.32,32.31,26.59,17.48,41.34,46.31,56.75,72.87,7.76,11.65,18.87,31.86,32.53,38.64,45.92,22.79,130.11-13.39,173.66-28.94,38.59-12.85,76.25-41.31,119.08-37.3,26.2,2.45,46.06,20.1,65.2,35.95,11.31,8.93,25.27,21.24,38.91,26.71,49,19.68,140.25-2.6,189.79-10.62,78.2-11.87,156-27.32,234.59-36.26,20.22-2.3,40.49-4.88,60.84-5.1,46.24-.5,55.66,5.05,99.56,16.54,83.71,34.85,169.55,60.65,261.3,54.92,68.25-4.27,93.27-15,159.6-33.23,118.14-36.81,230.19-91,350.87-119.38,62.83-15.7,126.75-23.63,191.39-24.89,32.45-1,47.36,16,71.67,32.75,18.48,12.71,17.16,10.58,39.51,19.17,68.3,13.59,139.15-1.26,207.24,14.18,15.48,3.51,30.28,9.49,45.43,14.24,15.66,6.71,31.43,13.18,47,20.14,40.78,18.24,54.76,27,97.12,43,57.75,21.83,116.86,35.71,177,48.72,55.44,11.46,111.87,13.43,168.24,12.86l-10.71,14.75h0c-56.28.14-112.59-2.39-167.89-14-60.22-13.13-119.56-27-177.43-48.74-43.45-16.3-55.45-24.34-97.21-42.91-15.53-6.9-31.28-13.28-46.92-19.92-15.1-4.64-29.87-10.49-45.29-13.93-68.38-15.27-139.41-.55-208-13.87-7.66-2.92-15.6-5.2-23-8.77-30.36-14.67-50-45.55-87.57-42.82a859.93,859.93,0,0,0-190.83,24.77c-120.26,28-232.21,81.18-349.82,118-66.89,18.39-91.37,29-160.17,33.23-91.95,5.68-178.1-20-262.23-54.35-43.35-11.28-53.24-16.84-98.84-16.54-20.23.14-40.39,2.57-60.5,4.78-78.7,8.64-156.5,24-234.63,36.4-50.67,8.49-141.65,31.39-191.82,11.26-13.76-5.52-27.73-17.86-39.14-26.88-18.78-15.59-38.15-32.94-63.91-35.31-42.43-3.92-79.88,24.27-118.18,36.84-44.79,16-128.76,52.14-175.9,28.65-14-7-24.92-27.12-32.85-39.1-15.1-26.35-29.55-54.92-55.76-72.32-36.34-24.13-82.53-23-123.32-32.91-69-13.67-137.76-28-206-45-46.11-11.44-91.68-25-137.9-36-22.57-5.36-45.38-9.7-68.06-14.55-55.32-6-74-11.24-129.11-4.69-64.56,7.67-123.41,36.81-185.36,54.17-9.22.92-18.4,2.45-27.66,2.76-7.78.26-46.27-2.16-53.74-2.24-35.35-.36-69.86,4.34-103.43,16-57.29,18.93-114.27,38.73-172.62,54.24-31.91,8.48-66.95,17.79-100.46,18.81-10.51.32-20.93-2-31.4-3-6.24-3.21-13.46-5-18.71-9.63-9.24-8.19-11.86-21.77-19.44-31.52-15.28-19.67-31.79-27.88-57-26.08-10.83,4.07-22.07,7.17-32.48,12.21-13.91,6.73-72.63,42.54-83.9,49.34-4.87,2.94-63.6,39.2-74.88,43.52-7.47,2.87-15.81,2.49-23.72,3.73-4.74-4.89-11-8.65-14.21-14.67-4.76-9-6.34-19.43-9-29.3-8.5-31.73-11.43-71.11-31.35-98.65-4.59-6.34-11.88-10.2-17.81-15.29-8,0-16.26-1.74-24.07.11-10.81,2.55-20.61,8.32-30.76,12.84-46.53,20.7-90.9,45.89-137.93,65.44-7.15.28-14.67,3.13-21.45,0.84-18-6.06-22.15-27.94-26.44-42.64-12.74-43.68-18.49-89.2-31.19-132.9-5.16-15.81-12.52-48.74-27.25-62.29-4.59-4.22-11.42-6.28-17.66-6.19-15.64.23-46.33,20.15-62.9,22.87-5.7,1.24-11.26,3.89-17.09,3.72-28.15-.82-20.47-42.23-40.24-54.58-4.59-.19-9.4-2-13.78-0.57-16.27,5.15-35.06,24.44-46.08,34.24-37.67,33.51-74.26,68.37-115,98.21-15.08,10.45-51.27,39.24-73.51,43-36.71,6.26-48.52-58-61.33-80.54-9.09-16.88-21.45-51-46.94-49.82-27.46,1.29-44.35,36.48-64.64,49.36-22.47,20.68-35.49,32.82-58.42,53.27-16.67,14.86-32.95,30.14-49.69,44.91-1.18,1-3,1.27-4.05,2.39-3.59,3.65-6.57,7.85-9.86,11.78l-14.27,12.69h0Z" transform="translate(-148.33 -8.7)" style="fill:#646464;stroke:#000;stroke-linecap:round;stroke-linejoin:round;stroke-width:5px"/><path d="M2456.38,5736c59.23-58.73,123.88-111.39,190.09-161.95,11.44-7.77,50.4-38,69.2-38.49,49.37-1.35,82.16,87.74,98,122.37,16.17,27.17,14.88,73.63,46.61,90.38,32.65,17.24,77.14-12.14,104.5-24.93,31.13-14.42,58-36.34,88.23-52.25,19.33-10.16,40.56-23.11,63.07-11.22,20.46,10.82,29.81,38.61,38.84,56.85,12.19,22.42,30.5,99.68,54.4,110.25,12.4,5.48,32.3-5,41.69-8.41,36.8-13.74,69.58-38.36,107.16-50.2,14-4.4,21.23-3.47,35.18-3.51,6.86,0.76,21.75,3,29,1.54,19.69-4,37.46-20.85,54.42-30.37,8.39-4.71,17.07-8.86,25.61-13.28,19.88-7,44.14-27.69,67-18.13,24.51,10.23,38.12,53,47.84,74.35,17.46,31.56,30,91.3,66.9,107.22,16.78,7.23,30,2,46.76-1.1,29.83-9.3,59.07-20.41,89.06-29.19,9-2.62,17.8-6.46,27.13-7.17,20.89-1.59,26.58,5.12,43.38,15,17.19,11.79,22.65,37.72,43.91,44.24,29,8.9,63.15-9.65,88.45-20,40.66-18.44,86.12-55.25,134-40.84,5.53,1.67,10.46,4.91,15.7,7.36,3.54,2.26,23.68,15.39,27.6,16.73,42,14.34,83.53-19.09,116.46-39.44,38.22-23.9,73.16-53.49,112.4-75.83,15.19-8.65,32.44-18.37,51-14.06,7.76,1.8,14.07,7.46,21.1,11.19,32.5,25.78,53.31,64.17,89.72,85.56,25.43,14.93,36.16,13.4,64.9,17.28,12.28-1.92,24.72-3,36.83-5.74,24.15-5.49,53.42-16.56,76.45-25.34,27.18-10.36,53.19-21.52,78.73-35.34,16-10.94,35.07-10.71,53.28-14.67,7.84-1.71,15.59-3.8,23.38-5.7l29.51-6.26c27.71-4,57.89-11.42,85.13,0,29.56,12.35,55.55,47.27,76.56,69.89,37.8,37.6,80.22,75.87,135.15,84.22,31.31,4.76,52.17-.19,83.44-4.1,65-9.93,119-47.17,177.13-74.75,64.92-30.82,87.24-38,155-64.36,66.7-20.7,154.39-73.07,226.82-49.58,22.56,7.32,44.61,26.48,62.88,40.23,13.7,8.79,26.86,18.49,41.1,26.37,45.52,25.2,95.95,45.61,144.71,62.78,118.1,41.57,239.46,70.06,361.14,98.72,100.93,20.79,202.15,45.93,305.41,52.48,38.3,2.43,51.25.74,89.61-1.09,64-7.14,128.91-15.61,189.83-37.75,32.08-11.66,40.38-17.45,69.24-33.12,28.31-16.21,55-35.77,85.32-48.38,21.16-8.81,55.48-18.78,75.56-25.05,87.27-25.93,174.94-50.5,262.5-75.43,53.73-15.3,111.55-33.53,166.65-44.78,20.1-4.1,40.57-6.16,60.86-9.25,16.48-.34,33-1.85,49.45-1,44.57,2.22,89.89,16.36,133.1,25.93,71.27,15.78,60.54,13.17,135.73,27.8,92.47,15.13,184.9,35.68,278.83,39.87,15.74,0.7,31.5.19,47.25,0.28,69.24-1,138-10.09,207.27-10.71,56.44-1.11,108.85,24.9,160.58,44.13,77.33,28.75,66.76,24.7,143.53,52.21l-10.18,13h0c-107.42-38.63-34.46-12.31-143.75-51.94-51.9-18.82-104.61-43.53-161-42.57-69.07.5-137.75,9.4-206.84,10.08-15.78-.13-31.57.33-47.33-0.4-93.86-4.35-186-25.45-278.41-40.75-83.27-15.87-57.74-10.51-136.19-27.26-43.06-9.2-88.6-23.11-132.9-25.5-16.31-.88-32.67.52-49,0.78-20.12,2.94-40.42,4.84-60.37,8.81-55.13,11-112.35,28.77-166.08,44.06-88.07,25.06-176.13,50.12-263.62,77.17-21.49,6.92-53.74,16.55-75.84,26-30,12.8-56.72,32.11-85,48-28.78,15.36-37.42,21.22-69.35,32.64-61.09,21.85-126.07,30.18-190.17,37.47-38,1.76-51.82,3.53-89.73.8-102.8-7.38-203.31-34.26-303.83-54.93-121.75-28.92-243.54-57.22-362.09-97.83-49.19-16.85-100-36.76-146-61.72-14.36-7.79-27.63-17.44-41.45-26.17-17.88-13.34-40.18-32.48-62.2-39.68-71.77-23.46-158.92,28.15-225,48.62-69.39,27.11-89,33.19-155.34,65.16-58.28,28.08-112.56,65.38-178.06,75-31.77,3.92-52.39,8.86-84.17,3.88-55.14-8.65-97.71-47.31-135.81-85-20.81-22.17-46.91-56.67-76.1-68.73-27-11.15-57-3.67-84.38.36l-29.6,6.48c-7.87,1.95-15.7,4.09-23.61,5.85-18,4-36.86,4.27-52.75,14.91-25.52,13.38-51.53,24.34-78.51,34.55-23,8.71-52.66,19.89-76.81,25.23-12.27,2.72-24.87,3.68-37.31,5.52-29.43-4.13-39.65-2.53-65.66-17.86-36.27-21.37-57.33-59.3-89.73-85-6.78-3.52-12.88-8.91-20.34-10.57-18-4-35.18,5.7-49.82,14-39.21,22.31-74.17,51.77-112.34,75.66-34,20.94-75.68,54-118.69,39.18-4.08-1.41-23.68-14.23-27.46-16.65-5.08-2.36-9.87-5.49-15.25-7.08-47.31-14-92.42,22.9-132.71,40.79-26.2,10.67-60.47,29.12-90.35,19.55-21.2-6.79-26.73-32.19-43.72-44.27-6.43-3.74-12.25-8.83-19.3-11.21-20.26-6.86-29.63-1.83-49.77,4-30.11,8.8-59.4,20.14-89.41,29.26-17.65,3-30.55,8.06-48,.22-37.18-16.7-49.42-76.07-67.24-108.18-9.29-20.18-23.25-63-46.77-72.58-22.43-9.1-46.58,11.71-66,18.42-8.52,4.48-17.19,8.68-25.56,13.44-17.4,9.88-35.14,26.49-55.53,30.18-6.8,1.23-22.45-.93-28.93-1.6-13.89.13-20.49-.75-34.4,3.68-37.55,12-70.43,36.21-107.21,50-11.5,3.93-29.72,13.94-43.51,7.4-24.34-11.55-41.59-88-54.39-111.21-8.62-17.36-18.07-45.06-37.73-55.42-21.78-11.48-43,1.49-61.59,11.23-30.31,15.89-57.27,37.73-88.42,52.19-28.48,13.26-73.14,42.59-106.74,24.25-31.85-17.39-30.51-63.6-46.61-91.36-15.28-33.56-47.91-122.13-96.1-120.32-18.63.7-57.07,30.43-68.41,38.13-66.71,50.92-131.45,104.29-191.07,163.47l10.26-16.22h0Z" transform="translate(-148.33 -8.7)" style="fill:#646464;stroke:#000;stroke-linecap:round;stroke-linejoin:round;stroke-width:5px"/><path d="M2588.68,6339.38c111-35.6,224.27-64.67,340.55-76.43,104.91-10.61,141.73-6.89,246.27-5,96.75,5.69,192.16,19.64,281.8,57.88,53.77,22.94,100.32,55.92,147.38,89.82,24.15,14.54,39.85,29.73,70.57,25.87,32.89-4.13,103.18-41.18,126-52.26,175.71-85.33,10.4-7.32,195.68-93.77,65-27,119.26-52.56,187.19-70.12,44-11.37,78.66-18,122.14-4.89,31.21,9.39,39.78,22.66,61.08,43.9,11.85,19,27.61,36.34,36.76,57,6.49,14.68,8.49,30.47,10.45,46.19,5,44.08,19.29,48.14,62.11,46.53,86.76-9.13,174.71,7.33,258.5,29.18,10.14,3.43,20.44,6.43,30.42,10.3,8.2,3.18,50.63,26.62,57.31,27.23,24.3,2.22,44.25-12.56,64.64-22.58,57.24-36.34,117.54-67.3,179.08-95.6,30.13-13.85,84.63-39.31,119.21-45.87,14.61-2.77,29.73-.77,44.6-1.15,12.07,6,25.63,9.64,36.22,18,37.8,29.78,69.6,99.42,96.51,139.65,37.22,55.63,32.92,47,78.69,94.13,16.28,11.41,30.81,25.87,48.85,34.24,47.6,22.08,109.28,27.84,160,30.93,93.31,5.69,186.53-1.57,279.51-8.41,23.69-2.21,47.36-4.61,71.06-6.64,73.32-6.28,161.57-3.74,231.43-25.88,18.24-5.78,35.37-14.58,53.06-21.87,52.81-27,96.58-66.51,139.18-107,16.75-15.92,41.61-42.22,60.86-57.21,6.17-4.81,13.24-8.35,19.86-12.53,5.84-1.76,11.51-4.31,17.53-5.29,13.88-2.25,39.6-.14,51.93.27,23.41,0.78,46.91-.43,70.24,1.63,10.62,0.94,21,3.46,31.55,5.19,39.46,13.08,67,43.19,94.61,72.62,5.69,6.06,10.77,12.71,16.84,18.39,6.37,6,13.58,10.94,20.36,16.42,63.3,40.21,139.24,58.82,211.43,76.62l-10.8,14.12h0c-61.94-15.76-126.5-31.46-184.25-59.59-9.87-4.81-18.8-11.34-28.19-17-6.87-5.52-14.18-10.53-20.62-16.56-6.06-5.68-11.08-12.37-16.73-18.45-27.22-29.27-54.49-59.11-93.6-72-10.42-1.71-20.75-4.2-31.27-5.13-23.36-2.06-46.9-.93-70.35-1.52-12.62-.32-37.64-2-51.71.48-5.86,1-11.34,3.6-17,5.4-33,20.94-51.25,41.91-79.78,68.86-42.75,40.39-86.71,79.79-139.67,106.6-17.78,7.26-35,16-53.35,21.77-69.79,21.86-158.08,19.34-231.26,25.26-23.61,1.91-47.19,4.14-70.78,6.2-93,6.43-186.32,13.48-279.62,8.07-51-3-113.39-8.41-161.36-30.54-18.15-8.37-32.72-23-49.08-34.47-46.21-47.69-41.21-38.34-78.89-94.46-26.78-39.89-58.73-108.8-96.35-138.34-10.37-8.14-23.62-11.73-35.43-17.59-14.63.34-29.51-1.68-43.9,1-34.51,6.47-88.62,31.61-118.65,45.44-61.87,28.49-122.22,60.09-179.75,96.63-22.4,10.87-40.62,25-66.52,22.4-7-.7-48.39-24.18-56.83-27.53-9.89-3.92-20.1-7-30.16-10.43-83.71-22.36-171.66-38.43-258.43-28.39-44.42,1.4-58.91-2.41-64.45-48.06-1.81-15.56-3.63-31.19-9.88-45.76-8.88-20.71-24.22-38.23-35.93-57.2-20.81-21.12-29.07-34.23-59.77-43.71-42.81-13.22-77.18-7-120.64,4.09-68.16,17.33-121.38,42.5-186.6,69.58-178.09,83.44-26.9,11.62-196.3,94.73-24.88,12.21-93.12,48.94-127.83,53.06-30.94,3.67-46.9-11.88-71-26.67-46.62-34.15-92.76-67.35-146.2-90.53-89.08-38.65-184.05-53-280.46-58.79-104.24-1.9-141.5-5.73-246.12,5.25-117.19,12.3-231.48,42.19-342.82,79.88l10.83-15.62h0Z" transform="translate(-148.33 -8.7)" style="fill:#646464;stroke:#000;stroke-linecap:round;stroke-linejoin:round;stroke-width:5px"/><path d="M2529.32,6989.87c31.88-58.61,92.95-86.09,155.75-98.42,17.41-3.42,35.17-4.77,52.75-7.15,40.15-3.43,82.23-5,119,14.63,22.81,12.2,39,34.87,57.31,52.49,7.54,2.36,14.71,7,22.61,7.09,35.23,0.51,86.82-34.95,115.79-50.53,57.08-30.69,50.47-26.73,108.55-54.79,41.32-18.31,81.91-28.93,123.3-4.81,15.77,9.19,39.61,35.53,52.67,47.05,10.56,9.32,21.81,17.84,32.71,26.76,76.34,51.16,162.59,57.34,250.87,69.89,87.37,12.41,77.72,11.48,162.29,26.86,87.88,15,171.21,47.31,258.64,63.83,125.44,15.4,249.11-21.13,368.63-55,31.34-9.11,62.2-11.18,94-4.54,1.2,0.25,31.41,9,34.2,9.16,5.7,0.4,11.38-1.16,17.07-1.74,75.14-28.8,154.66-40.27,234.14-49.61,36.81-.94,76.13-9.37,112.08,2.73,9.84,3.31,23,10.57,32.1,15.28,5.93,2.68,11.54,6.18,17.78,8,21.89,6.47,48.69,8.05,70.84,8.72,63.72,1.92,126.83-5.87,190.13-12,87.38-6.33,184.37-28.5,266.92,13,7.62,3.83,14.35,9.22,21.52,13.83,35.14,32.29,83.46,41,129.24,47.47,58.84,8.3,88.34,8.6,148.46,11.94,97,3.63,194.08.92,290.79,9.8,93.79,16.4,188.62,20.43,283.57,16.39,57.8-2.82,115.16-11,172.87-14.89,26.9,0,53.23-4.42,79.3-10.56l-10.61,15.33h0c-26.19,6-52.59,10.36-79.57,10.42-57.47,4-114.68,11.15-172.25,13.93-95.13,3.68-190.18-.29-284.26-15.86-96.3-9.21-193-8-289.6-11.3-57.55-3.08-92.6-3.75-149.19-11.32-46-6.14-95.33-14.37-130.45-47.07-7-4.62-13.6-10-21.07-13.85-81.74-42-178.58-20.11-265.35-13.71-63.59,6.28-127,14.28-191,12.72-22.56-.55-49.59-2-71.88-8.43-6.28-1.82-11.93-5.36-17.89-8-8.86-4.54-22.16-11.81-31.74-15-35.56-12-74.48-4-110.92-3.18-49.25,5.69-97.94,11.9-146.25,23.42-43.35,10.34-31.91,8.65-67.68,20.59-6.92,2.31-13.93,4.32-20.89,6.48-5.87.46-11.74,1.87-17.61,1.39-2.68-.22-32.66-9-33.89-9.27-31.37-6.68-61.83-4.68-92.78,4.09-120,33.17-244,69.49-369.68,55-87.31-16.24-169.94-50-257.63-65.17-82.69-15.23-76.65-15-162.11-27-88.86-12.42-175.58-17.92-252.6-69.22-11-8.9-22.33-17.37-33-26.69-12.3-10.77-37.21-37.82-52.16-46.56-40.77-23.84-80.85-13.08-121.56,4.87-58.61,28.36-50.95,23.84-108.59,55-30,16.24-81.06,51.69-117.66,50.63-8.16-.24-15.52-5.07-23.28-7.61-18-17.48-34-40.14-56.5-52.3-36.38-19.66-78.09-18.07-117.86-14.71-51,7.1-98.3,14-143.5,40.53-10.13,6-18.91,13.95-28.3,21-1.66,1.24-3.59,2.25-4.84,3.9-3,4-5.25,8.56-7.88,12.85l-14,13.09h0Z" transform="translate(-148.33 -8.7)" style="fill:#646464;stroke:#000;stroke-linecap:round;stroke-linejoin:round;stroke-width:5px"/><path d="M6972.61,7283.5c54.17,0.08,112.18-18.12,153.91-53.52,13.79-11.69,25-26.09,37.54-39.14,27.07-38.85,45.5-82.5,66.36-124.7,8.3-16.78,21.9-47.41,35.71-34.91,8.92,8.07,4.33,23.67,6.49,35.5,9,171.1,3.29,342.76-8.91,513.55-9.35,81.41-18.07,167.31-62.78,238.41-18.8,29.9-42.18,51.15-66.64,76.67-10.39,8.21-34,31.47-51.61,30.81-39.24-1.46-46-91-48.89-116.33,1.06-12.53-.08-25.45,3.18-37.6,7.87-29.34,31.06-50.63,60.64-59.63,31.78-9.67,111,11.15,133.77,16.45,32.69,7.59,65.05,16.53,97.58,24.79,64.87,16.72,149.66,40,215.61,51.06,64.08,10.71,136.16,15.53,201.34,16.27,56.37,0.64,102.33-3.07,158.21-6.44q38.76-2,77.51-4c54-2.73,89.35,4.95,134.13-33.13,13.94-11.86,18.69-31.48,28-47.22l12.47-11.11h0c-16.59,24.11-28,52.73-49.76,72.32-41.49,37.4-84.31,30-134.48,32.5-25.86,1.29-51.7,2.74-77.55,4.11-56.81,3.23-100.54,6.69-157.92,5.75-64.67-1.06-137.62-6.34-201.13-17-65.88-11.05-151.06-34.17-215.93-50.72-40.56-10-132.91-34.62-178.29-39.52-17.73-1.91-35.68,0-53.48.91-7.58.4-16.75-1.76-22.55,3.14-19,16.06-16.94,45.49-18.9,66.33,2.63,23.44,9.46,113.06,46.71,113.78,17.23,0.33,40.54-22.68,50.66-30.74,5.81-5,12.33-9.23,17.42-14.93,67.06-75.17,80.83-177,91-273.43,12.53-170.25,19.29-341.52,8-512-1.91-11.19-5.18-22.24-5.73-33.58-0.29-6,8-21.17,3.24-17.62-7.85,5.8-9.75,16.93-14.12,25.66-26.35,52.6-47.9,107.11-88.44,151.45-12.67,13.05-24.07,27.47-38,39.15-42.54,35.66-100.87,53.34-155.69,54.23l11.28-15.53h0Z" transform="translate(-148.33 -8.7)" style="fill:#646464;stroke:#000;stroke-linecap:round;stroke-linejoin:round;stroke-width:5px"/><path d="M7807,7662.17c-22.28,18.56-44.46,37.54-67.92,54.62-6.44,4.69-12.39,10.58-19.9,13.23-5.68,2-12,.1-18.06.14-5-5.32-11.25-9.67-14.91-16-24.73-42.48-22.34-103.8-12.64-150.13,12.22-37.65,37.84-63.11,73.18-34.69,5.08,4.09,9.31,9.13,14,13.69,29.92,29.73,51.3,66.28,75.08,100.74,19.25,26.09,44.83,48.23,77.84,54,8,1.41,16.7,3.32,24.45.77,9.41-3.1,16.32-11.24,24.48-16.87,17.63-24.25,7.51-9.29,28.75-45.94l13.39-12.07h0c-26.94,47.26-10.39,22.26-52,73.39-8.52,5.46-15.86,13.45-25.55,16.39-7.92,2.4-16.67.39-24.81-1.12-33.31-6.17-59.35-28.23-78.86-54.69-23.75-34.32-45.09-70.78-74.89-100.42-11.69-11.39-23.95-25.67-42.16-24.74-4.58.23-8.6,3.72-13.18,3.91-1.19,0,1.45-4.52,1-3.42-2.58,6-4.88,12.17-7.33,18.26-10.38,46.58-13.28,105.71,11.43,148.8,3.36,5.86,9.17,9.92,13.76,14.88,5.68-.18,11.72,1.45,17-0.54,7.4-2.76,13.32-8.52,19.69-13.18,23.63-17.27,46.06-36.36,68.19-55.48l-10,16.4h0Z" transform="translate(-148.33 -8.7)" style="fill:#646464;stroke:#000;stroke-linecap:round;stroke-linejoin:round;stroke-width:5px"/><path d="M7964.89,7493.45c-23.74,31.69-28.77,73.81-34.6,111.77-4.9,31.94-8.47,64.07-12.75,96.1-8.2,40.39-17.86,84.13-45.94,116.15-21.5,24.52-13.77,20.86-32.58,25.63l10.78-15.72h0c2.87-.88,5.73-3.5,8.61-2.63,1.62,0.49-1.93,6.22-.75,5,29.68-30.48,38.17-76.62,47.22-116.12,4.35-32,8-64.19,12.74-96.18,5.55-37.53,9.83-79.67,32.83-111.32l14.42-12.67h0Z" transform="translate(-148.33 -8.7)" style="fill:#646464;stroke:#000;stroke-linecap:round;stroke-linejoin:round;stroke-width:5px"/><path d="M8051.48,7757.08c10.16-55.59,31.6-108.73,49-162.43,13-35.29,25.86-71.11,29.74-108.81,2.25-21.84,1.1-39.85.53-61.64-0.59-8.07-1-16.15-1.76-24.2-1.12-11.54-9.66-33.13,18.62-25.1,7.28,2.07,9.92,11.51,15.68,16.42,9.34,8,19.64,14.76,29.47,22.14,45.57,34.34,105.9,58,136.45,109,3.56,5.94,5.67,12.64,8.51,19,10.59,42.35-9.29,60.87-36.72,90.66-8.71,8.88-25.52,12.79-31.75,24.32-1.06,2,5.29-5.06,6-3,1.67,5.1-1.76,10.63-1.71,16,0.06,5.94,1.37,11.81,2.06,17.71,3.47,18.21,11.27,34.64,19.72,50.92l-12.6,13.87h0c-8.56-16.44-16.5-33-20.2-51.38-1-7.17-4.75-26.7-1.28-34.4,10.67-23.65,29.51-36.25,49.66-50.14-5.47,16.1,12.49-17.5,13.37-19.72a58.15,58.15,0,0,0,3.47-25.4c-0.4-5.31-1.74-10.52-2.61-15.77-2.7-6.28-4.66-12.92-8.09-18.83-29.8-51.25-90.24-75.12-135.74-109-10-7.3-20.48-14-30-21.91-5.83-4.81-14-8.8-16-16.09s3.66-14.52,5.64-21.74a17.87,17.87,0,0,0-.78,4c0.75,13.25,4.92,26.21,3.54,39.65,0.57,21.1,1.73,40.78-.31,61.9-3.65,37.83-16.26,73.81-29.63,109.09-17.31,53.31-38.37,106.14-48.67,161.3l-13.54,13.54h0Z" transform="translate(-148.33 -8.7)" style="fill:#646464;stroke:#000;stroke-linecap:round;stroke-linejoin:round;stroke-width:5px"/><path d="M8383.83,7633.07c40.48-1.42,80.6,3.63,120.63,8.9,69.11,10.52,138.91,13.4,208.66,16.27l-10.32,14.08h0c-70-2.87-140.11-4.76-209.42-15.52-40.06-5.25-80.25-10.15-120.75-8.32l11.21-15.42h0Z" transform="translate(-148.33 -8.7)" style="fill:#646464;stroke:#000;stroke-linecap:round;stroke-linejoin:round;stroke-width:5px"/><path d="M3189.5,1260.19c-20.73,1.72-43,8.06-61-5.86-3.46-2.67-6.14-6.2-9.22-9.3-8.47-8.75-27.19-51.14,4.94-43.15,13.13,8.3,25.83,14,41.39,15.3,23.87-1.58,45.63-14.91,65.11-28,15.46-12.49,19.15-11,19.45-32.08-5.71-2.88,6-11.88,6.67-8.37,1.32,6.9-3.23,13.69-4.36,20.63-1.93,11.81-3.43,23.7-4.81,35.59-3,25.66-6.72,69.59-8.94,94.39-5.54,66.65-9.75,133.74-20.59,199.83-5.65,34.46-8.29,41.48-16.85,73.59-6.26,17.35-14,51.67-39.35,53.41-14.74,1-39.11-46.5-44.43-56-11.08-22.49-21.73-45.41-26.3-70.26-1-5.39-3.86-21.73.55-24.94,4.63-3.36,10.78-3.88,16.16-5.82,13.78,13.84,23.68,31.62,42.15,40.26,32.32,15.11,70.2,11.24,104.46,10.12,22.77-3.34,89.45-5.31,104.08-29.07,2.14-3.48-4.61-6.77-7.21-9.92-6.31-7.62-13-14.9-19.5-22.35l8.23-9.52h0c6.83,7.58,18.28,12.77,20.49,22.73,11.54,52.11-86.05,54.65-113.19,58-34.66,1.2-72.83,5.11-105.55-10.06-18.46-8.56-28.42-26.14-42.39-39.74,0.7-4.59,2.78-9.19,2.09-13.78-0.4-2.66-2.87,4.78-3,7.46-1.79,30.21,15.84,61,27.42,87.51,8.57,15.19,16.88,32.55,29.47,45.17,4,4,9.93,5.46,14,9.28,1.93,1.79,1.32,8.44,3.56,7.05,8.49-5.24,17.44-36,19.23-41,8.8-32.25,11.48-39.14,17.27-73.78,11.05-66.08,15.35-133.23,20.77-199.92,2.22-25.91,5.62-67.41,8.5-94,1.27-11.77,2.63-23.54,4.34-35.26,1-6.84,1-14.07,3.79-20.4a41,41,0,0,1,11.74-15c1.23-1,.67,3.09,1,4.64,0.44,23.54-18.33,39.72-36.12,52.77-19.81,13-41.7,26.4-65.91,27.53-15.6-1.42-28.38-7.08-41.63-15.27-7-1.3-9.11-.06.23-10.34,1.07-1.18-1,3.1-1,4.69,0.43,10.62,6.59,19.69,12.57,28,3,3,5.58,6.48,8.94,9.07,17.76,13.68,40.13,7,60.45,5.11l-7.78,11h0Z" transform="translate(-148.33 -8.7)" style="fill:#646464;stroke:#000;stroke-linecap:round;stroke-linejoin:round;stroke-width:5px"/><path d="M3481.46,1351.35c-23.32,14.33-49.42,3.75-72.55-5.37-17.32-9.51-33.75-24.56-36.87-45,3.24-4,5.15-9.58,9.73-11.86,1.92-1,2.83,3.24,4,5.05,9.83,15.7,12.09,26.41,12.86,44.74-3.16,43-14.36,84.87-22.22,127.17-2.22,18.68.72,52.71,22.67,60.38,2.29,0.8,4.84.18,7.26,0.27,2-2.07,4.92-3.57,6.09-6.22,0.45-1-2.53-1.34-2.29-2.42,1.42-6.43,4.81-12.26,6.92-18.5,6-17.81,11-35.76,17.75-53.35,8.73-15.82,24.13-40.16,43.5-24.06,3.08,2.56,5.46,5.87,8.19,8.81,12.08,15.45,16.33,36.9,35.06,46.39,4.85,2.45,10.17,3.82,15.26,5.73,39.79,10.45,59.6-5.43,88.66-28.84l-7.05,11.23h0c-29.44,23.51-49.77,38.41-89.68,27.93-5.21-1.94-10.66-3.32-15.62-5.81-18.93-9.53-23.28-30.86-35.28-46.55-6.05-6.46-12.66-15.45-23-13.06-2.35.54-4,3.54-6.4,3.35-1.41-.11,2.89-4.87,2.1-3.69-2.1,3.16-4,6.42-6.06,9.63-6.44,16.41-5.73,13.86-11.63,32.6-7.56,24-12.86,51.74-34.47,67.68-2.59-.25-5.34.19-7.77-0.75-22.23-8.59-25.77-42-23.55-61.69,7.9-42.19,19.16-83.93,22.31-126.85-0.44-13.61.72-13.85-3.63-25.88-2-5.41-6-12.95-8.9-18.06-0.7-1.23-2.71-2.27-2.23-3.6,1.32-3.67,4.62-6.28,6.93-9.42,2,20.14,18.94,35,35.59,44.25,22.75,9,49,19.57,71.5,4.16l-7.1,11.59h0Z" transform="translate(-148.33 -8.7)" style="fill:#646464;stroke:#000;stroke-linecap:round;stroke-linejoin:round;stroke-width:5px"/><path d="M3620.92,1339.38c69.67,18.85,142.86,22.67,214.67,26.4l33,1-7.37,10.07h0l-32.85-1.25c-72.13-4.09-145.4-8-215.71-25.48l8.24-10.7h0Z" transform="translate(-148.33 -8.7)" style="fill:#646464;stroke:#000;stroke-linecap:round;stroke-linejoin:round;stroke-width:5px"/><path d="M3772.33,1293.74c-21.25,67.38-40.91,135.35-61,203.11-9.32,29.78-21.12,61.77-3.16,91.16,16,26.23,46.33,39.78,72.36,53.08,0.93,0.41,30.14,11,32.72,18.56,1.15,3.39-1.54,7.37-4,9.95-22.76,23.74-53.25,35.32-82.26,49.12-23.58,9.68-51.36,27.43-78.46,19.3-23.76-7.13-33.71-30.69-43.45-50.73-1.35-6.56-3.8-13-4.06-19.68-1-26.67,23.88-53.9,45.79-65.66,7.35-3.95,15.32-6.6,23-9.9,40.56-14.56,87.5-10.95,123.59-37.3,7.68-5.61,13.44-13.45,20.17-20.18l-6.61,10.78h0c-6.81,6.63-12.69,14.38-20.43,19.9-36.4,25.93-83.3,22.29-123.79,37.45-25.36,11.34-53.36,22.66-52.7,55.58,0.13,6.63,2.5,13,3.75,19.54,9.42,19.67,19,42.93,42.39,49.85,26.83,7.94,54.37-9.79,77.7-19.31,10.1-4.84,20.29-9.49,30.29-14.53,8.91-4.5,17.27-10.12,26.44-14.07,3.8-1.64,17.05,1.44,14.18-10-2-7.8-31.86-18.76-32.08-18.86-26.24-13.51-56.85-27.24-73.14-53.63-18.37-29.77-6.61-61.94,3-92.15q30.19-101,59.76-202.24l10-9.15h0Z" transform="translate(-148.33 -8.7)" style="fill:#646464;stroke:#000;stroke-linecap:round;stroke-linejoin:round;stroke-width:5px"/><path d="M3948.29,1564.17c-12.27,10.41-18.22,3.86-22.5-9-0.38-19.13,6.79-37.21,23.42-48.25,1.84-1.23,4.43.12,6.64,0.18,16.44,5.88,20.37,23.18,30.33,35.24,2.06,2.49,4.78,4.35,7.17,6.53,3.07,1.42,6,3.26,9.2,4.25,36.38,11.24,90.66-7.35,125-18.44,38.1-14.91,20-7.08,54.3-23.19l-7,10.58h0c-34.25,15.86-16.19,8.14-54.28,22.89-34.41,11.06-89.86,30.07-126.28,18.6-3.35-1.05-6.35-3-9.52-4.5-2.49-2.26-5.33-4.18-7.48-6.77-9.69-11.65-13.23-28.77-29.32-34.28-2,.09-5.09,2-6,0.26-1-2.09,5-7.45,3-6.28-7.16,4.18-9.66,25.82-10,33.35,4,12.76,9,17.43,20.38,7.2l-7.1,11.59h0Z" transform="translate(-148.33 -8.7)" style="fill:#646464;stroke:#000;stroke-linecap:round;stroke-linejoin:round;stroke-width:5px"/><path d="M4008.56,1408.54c-14.08-8.88-30.29-13.09-46.47-16.12-17.84-2.71-28.35-2.07-41.18,11.1-2,2.35-4.63,4.26-5.88,7.06-0.44,1,3.28-2,3.14-.92-0.47,3.62-3.12,6.61-4.34,10a107,107,0,0,0-3.36,11.72c-2.4,10.45-2.92,17.54-4.16,28.23-2.77,34.5-2.55,69.15-2.59,103.73-0.31,30.74-.25,61.67,5.19,92,6.65,27.83,23.13,28,48.77,27.83,33.8-1.17,66.83-8.5,99.25-17.61,16.21-4.48,8.35-2.41,23.59-6.25l-7.55,10.95h0c-15.17,3.8-7.34,1.75-23.49,6.16-32.53,9-65.65,16.21-99.52,17.38-26.26.09-43.38-.44-50.32-28.86-5.5-30.47-5.32-61.56-5.12-92.42,0-34.58-.28-69.21,2.36-103.72,3.43-30.94,7.86-53.42,31-76.79,13.32-12.72,24.43-13.18,42.25-10.36,16.3,3.15,32.55,7.52,46.88,16.21l-8.49,10.61h0Z" transform="translate(-148.33 -8.7)" style="fill:#646464;stroke:#000;stroke-linecap:round;stroke-linejoin:round;stroke-width:5px"/></svg>