<?xml version="1.0" encoding="UTF-8" standalone="no"?>
<!-- Created with Inkscape (http://www.inkscape.org/) -->

<svg
     xmlns:dc="http://purl.org/dc/elements/1.1/"
     xmlns:cc="http://creativecommons.org/ns#"
     xmlns:rdf="http://www.w3.org/1999/02/22-rdf-syntax-ns#"
     xmlns:svg="http://www.w3.org/2000/svg"
     xmlns="http://www.w3.org/2000/svg"
     xmlns:xlink="http://www.w3.org/1999/xlink"
     xmlns:sodipodi="http://sodipodi.sourceforge.net/DTD/sodipodi-0.dtd"
     xmlns:inkscape="http://www.inkscape.org/namespaces/inkscape"
     width="10000"
     height="10000"
     viewBox="0 0 10000 10000"
     id="svg2"
     version="1.1"
     inkscape:version="0.91 r13725"
     sodipodi:docname="slate.svg">
    <defs
         id="defs4">
        <linearGradient
             inkscape:collect="always"
             id="linearGradient8176">
            <stop
                 style="stop-color:#30a377"
                 offset="0"
                 id="stop8178" />
            <stop
                 style="stop-color:#30a377;stop-opacity:0"
                 offset="1"
                 id="stop8180" />
        </linearGradient>
        <linearGradient
             inkscape:collect="always"
             id="linearGradient8168">
            <stop
                 style="stop-color:#30a377"
                 offset="0"
                 id="stop8170" />
            <stop
                 style="stop-color:#30a377;stop-opacity:0"
                 offset="1"
                 id="stop8172" />
        </linearGradient>
        <linearGradient
             inkscape:collect="always"
             id="linearGradient8160">
            <stop
                 style="stop-color:#30a377"
                 offset="0"
                 id="stop8162" />
            <stop
                 style="stop-color:#30a377;stop-opacity:0"
                 offset="1"
                 id="stop8164" />
        </linearGradient>
        <linearGradient
             inkscape:collect="always"
             id="linearGradient8150">
            <stop
                 style="stop-color:#30a377"
                 offset="0"
                 id="stop8152" />
            <stop
                 style="stop-color:#30a377;stop-opacity:0"
                 offset="1"
                 id="stop8154" />
        </linearGradient>
        <linearGradient
             inkscape:collect="always"
             id="linearGradient8142">
            <stop
                 style="stop-color:#30a377"
                 offset="0"
                 id="stop8144" />
            <stop
                 style="stop-color:#30a377;stop-opacity:0"
                 offset="1"
                 id="stop8146" />
        </linearGradient>
        <linearGradient
             inkscape:collect="always"
             id="linearGradient8134">
            <stop
                 style="stop-color:#30a377"
                 offset="0"
                 id="stop8136" />
            <stop
                 style="stop-color:#30a377;stop-opacity:0"
                 offset="1"
                 id="stop8138" />
        </linearGradient>
        <linearGradient
             inkscape:collect="always"
             id="linearGradient8126">
            <stop
                 style="stop-color:#30a377"
                 offset="0"
                 id="stop8128" />
            <stop
                 style="stop-color:#30a377;stop-opacity:0"
                 offset="1"
                 id="stop8130" />
        </linearGradient>
        <linearGradient
             inkscape:collect="always"
             id="linearGradient8118">
            <stop
                 style="stop-color:#30a377"
                 offset="0"
                 id="stop8120" />
            <stop
                 style="stop-color:#30a377;stop-opacity:0"
                 offset="1"
                 id="stop8122" />
        </linearGradient>
        <linearGradient
             inkscape:collect="always"
             id="linearGradient8110">
            <stop
                 style="stop-color:#30a377"
                 offset="0"
                 id="stop8112" />
            <stop
                 style="stop-color:#30a377;stop-opacity:0"
                 offset="1"
                 id="stop8114" />
        </linearGradient>
        <linearGradient
             inkscape:collect="always"
             id="linearGradient8102">
            <stop
                 style="stop-color:#30a377"
                 offset="0"
                 id="stop8104" />
            <stop
                 style="stop-color:#30a377;stop-opacity:0"
                 offset="1"
                 id="stop8106" />
        </linearGradient>
        <linearGradient
             inkscape:collect="always"
             id="linearGradient8072">
            <stop
                 style="stop-color:#30a377"
                 offset="0"
                 id="stop8074" />
            <stop
                 style="stop-color:#30a377;stop-opacity:0"
                 offset="1"
                 id="stop8076" />
        </linearGradient>
        <linearGradient
             inkscape:collect="always"
             xlink:href="#linearGradient8072"
             id="linearGradient8078"
             x1="889.23151"
             y1="-9116.6338"
             x2="9524.4443"
             y2="2167.092"
             gradientUnits="userSpaceOnUse"
             gradientTransform="matrix(1.1185694,0,0,-1.1185688,427.60872,-9394.1293)" />
        <linearGradient
             inkscape:collect="always"
             xlink:href="#linearGradient8102"
             id="linearGradient8108"
             x1="9528.0898"
             y1="-7548.7896"
             x2="9637.8926"
             y2="-10042.416"
             gradientUnits="userSpaceOnUse"
             gradientTransform="matrix(1,0,0,-1,-3.7790741e-4,-7945.3001)" />
        <linearGradient
             inkscape:collect="always"
             xlink:href="#linearGradient8110"
             id="linearGradient8116"
             x1="8507.9033"
             y1="-7688.9888"
             x2="8937.0566"
             y2="-10717.328"
             gradientUnits="userSpaceOnUse"
             gradientTransform="matrix(1,0,0,-1,-3.7790741e-4,-7945.3001)" />
        <linearGradient
             inkscape:collect="always"
             xlink:href="#linearGradient8118"
             id="linearGradient8124"
             x1="6765.2432"
             y1="-7417.1211"
             x2="5955.5117"
             y2="-10913.267"
             gradientUnits="userSpaceOnUse"
             gradientTransform="matrix(1,0,0,-1,-3.7790741e-4,-7945.3001)" />
        <linearGradient
             inkscape:collect="always"
             xlink:href="#linearGradient8126"
             id="linearGradient8132"
             x1="5045.8115"
             y1="-7523.062"
             x2="4767.2349"
             y2="-10339.795"
             gradientUnits="userSpaceOnUse"
             gradientTransform="matrix(1,0,0,-1,-3.7790741e-4,-7945.3001)" />
        <linearGradient
             inkscape:collect="always"
             xlink:href="#linearGradient8134"
             id="linearGradient8140"
             x1="4153.2031"
             y1="-7565.2529"
             x2="2971.1987"
             y2="-10152.145"
             gradientUnits="userSpaceOnUse"
             gradientTransform="matrix(1,0,0,-1,-3.7790741e-4,-7945.3001)" />
        <linearGradient
             inkscape:collect="always"
             xlink:href="#linearGradient8142"
             id="linearGradient8148"
             x1="2568.675"
             y1="-7584.166"
             x2="1511.3358"
             y2="-10597.432"
             gradientUnits="userSpaceOnUse"
             gradientTransform="matrix(1,0,0,-1,-3.7790741e-4,-7945.3001)" />
        <linearGradient
             inkscape:collect="always"
             xlink:href="#linearGradient8150"
             id="linearGradient8158"
             x1="1460.0037"
             y1="-7565.4863"
             x2="-1011.2614"
             y2="-9495.1953"
             gradientUnits="userSpaceOnUse"
             gradientTransform="matrix(1,0,0,-1,-3.7790741e-4,-7945.3001)" />
        <linearGradient
             inkscape:collect="always"
             xlink:href="#linearGradient8160"
             id="linearGradient8166"
             x1="2172.7981"
             y1="-5882.0557"
             x2="-586.5282"
             y2="-5320.6577"
             gradientUnits="userSpaceOnUse"
             gradientTransform="matrix(1,0,0,-1,-3.7790741e-4,-7945.3001)" />
        <linearGradient
             inkscape:collect="always"
             xlink:href="#linearGradient8168"
             id="linearGradient8174"
             x1="2230.7473"
             y1="-1813.4248"
             x2="29.264071"
             y2="-1906.3179"
             gradientUnits="userSpaceOnUse"
             gradientTransform="matrix(1,0,0,-1,-3.7790741e-4,-7945.3001)" />
        <linearGradient
             inkscape:collect="always"
             xlink:href="#linearGradient8176"
             id="linearGradient8182"
             x1="2546.1799"
             y1="35.081661"
             x2="-124.97836"
             y2="331.36139"
             gradientUnits="userSpaceOnUse"
             gradientTransform="matrix(1,0,0,-1,-3.7790741e-4,-7945.3001)" />
    </defs>
    <sodipodi:namedview
         id="base"
         pagecolor="#ffffff"
         bordercolor="#666666"
         borderopacity="1.0"
         inkscape:pageopacity="0.0"
         inkscape:pageshadow="2"
         inkscape:zoom="0.052"
         inkscape:cx="5000"
         inkscape:cy="5000"
         inkscape:document-units="px"
         inkscape:current-layer="layer2"
         showgrid="false"
         units="px"
         inkscape:object-paths="true"
         inkscape:snap-intersection-paths="true"
         inkscape:object-nodes="true"
         inkscape:snap-smooth-nodes="true"
         inkscape:snap-midpoints="true"
         inkscape:snap-nodes="false" />
    <metadata
         id="metadata7">
        <rdf:RDF>
            <cc:Work
                 rdf:about="">
                <dc:format>image/svg+xml</dc:format>
                <dc:type
                     rdf:resource="http://purl.org/dc/dcmitype/StillImage" />
                <dc:title></dc:title>
            </cc:Work>
        </rdf:RDF>
    </metadata>
    <g
         inkscape:label="Slate"
         inkscape:groupmode="layer"
         id="layer1"
         transform="translate(0,8947.6378)"
         sodipodi:insensitive="true">
        <path
             style="fill:url(#linearGradient8078);fill-rule:evenodd;stroke:#000000;stroke-width:5;stroke-linecap:round;stroke-linejoin:round"
             d="m 1610.711,-52.419928 2078.1531,-615.239902 916.3822,593.717702 967.8243,-641.039602 2211.4852,572.2406 1634.63,-17.2336 430.219,-451.7296 -516.2627,-2710.37827 -103.21,-2374.5336 314.0419,-1970.6311 -124.7882,-1183.1466 -1441.2336,301.1532 -946.4818,-387.1969 -2947.0002,322.6641 -1892.9636,-236.6204 -387.1971,881.9486 503.2066,3612.9174 -696.8051,1807.8391 -279.6424,1914.47347 z"
             id="path8070"
             inkscape:connector-curvature="0"
             sodipodi:nodetypes="cccccccccccccccccccc" />
        <path
             style="fill:url(#linearGradient8108);fill-rule:evenodd;stroke:#000000;stroke-width:5;stroke-linecap:round;stroke-linejoin:round"
             d="m 9849.4048,-611.70433 -343.6974,1106.8424 -471.5825,354.3011 385.0609,-1009.4139 z"
             id="path8080"
             inkscape:connector-curvature="0"
             sodipodi:nodetypes="ccccc" />
        <path
             style="fill:url(#linearGradient8116);fill-rule:evenodd;stroke:#000000;stroke-width:5;stroke-linecap:round;stroke-linejoin:round"
             d="m 9034.1249,849.43917 385.0609,-1009.4139 -1634.63,17.2336 -393.5097,890.5102 988.685,182.5263 z"
             id="path8082"
             inkscape:connector-curvature="0"
             sodipodi:nodetypes="cccccc" />
        <path
             style="fill:url(#linearGradient8124);fill-rule:evenodd;stroke:#000000;stroke-width:5;stroke-linecap:round;stroke-linejoin:round"
             d="m 7391.0461,747.76907 -2106.6596,-258.5791 288.6841,-1204.1717 2211.4852,572.2406 z"
             id="path8084"
             inkscape:connector-curvature="0" />
        <path
             style="fill:url(#linearGradient8132);fill-rule:evenodd;stroke:#000000;stroke-width:5;stroke-linecap:round;stroke-linejoin:round"
             d="M 5284.3865,489.18997 4820.4651,991.13757 4605.2463,-73.942128 5573.0706,-714.98173 Z"
             id="path8086"
             inkscape:connector-curvature="0" />
        <path
             style="fill:url(#linearGradient8140);fill-rule:evenodd;stroke:#000000;stroke-width:5;stroke-linecap:round;stroke-linejoin:round"
             d="m 4820.4651,991.13757 -1840.4752,-669.2634 708.8742,-989.534 916.3822,593.717702 z"
             id="path8088"
             inkscape:connector-curvature="0" />
        <path
             style="fill:url(#linearGradient8148);fill-rule:evenodd;stroke:#000000;stroke-width:5;stroke-linecap:round;stroke-linejoin:round"
             d="M 2979.9899,321.87417 1086.2779,877.05847 1610.711,-52.419928 3688.8641,-667.65983 Z"
             id="path8090"
             inkscape:connector-curvature="0" />
        <path
             style="fill:url(#linearGradient8158);fill-rule:evenodd;stroke:#000000;stroke-width:5;stroke-linecap:round;stroke-linejoin:round"
             d="M 1331.0686,-633.21533 150.82972,-195.28383 1086.2779,877.05847 1610.711,-52.419928 Z"
             id="path8094"
             inkscape:connector-curvature="0" />
        <path
             style="fill:url(#linearGradient8166);fill-rule:evenodd;stroke:#000000;stroke-width:5;stroke-linecap:round;stroke-linejoin:round"
             d="M 2307.5161,-4355.5279 1114.8087,-3770.7945 150.82972,-195.28383 1331.0686,-633.21533 1610.711,-2547.6888 Z"
             id="path8096"
             inkscape:connector-curvature="0"
             sodipodi:nodetypes="cccccc" />
        <path
             style="fill:url(#linearGradient8174);fill-rule:evenodd;stroke:#000000;stroke-width:5;stroke-linecap:round;stroke-linejoin:round"
             d="m 1114.8087,-3770.7945 -340.34688,-4090.5968 1029.84768,-107.0541 503.2066,3612.9175 z"
             id="path8098"
             inkscape:connector-curvature="0"
             sodipodi:nodetypes="ccccc" />
        <path
             style="fill:url(#linearGradient8182);fill-rule:evenodd;stroke:#000000;stroke-width:5;stroke-linecap:round;stroke-linejoin:round"
             d="m 2191.5066,-8850.3939 -387.1971,881.9485 -1029.84768,107.0541 439.69648,-721.733 z"
             id="path8100"
             inkscape:connector-curvature="0"
             sodipodi:nodetypes="ccccc" />
    </g>
    <g
         inkscape:groupmode="layer"
         id="layer2"
         inkscape:label="Inscription">
        <path
             style="fill:#646464;fill-rule:evenodd;stroke-width:5;stroke-linecap:round;stroke-linejoin:round;stroke:#000000"
             id="path8308"
             d="m 3057.9678,1634.991 c 3.7956,10.7653 6.7084,21.7 8.5099,32.9694 0.996,12.1203 2.271,24.1402 4.0826,36.1703 2.9684,11.7616 5.7767,23.4981 7.3129,35.5415 1.1881,10.9873 1.2663,22.0501 1.3372,33.0884 -0.4784,11.5959 -3.9194,22.6561 -6.7615,33.8058 -3.0658,14.9002 -3.658,30.1574 -4.082,45.3198 -0.241,11.7319 -0.182,23.467 -0.1525,35.2005 0.7791,11.9262 -1.611,23.6244 -3.1531,35.3843 -0.6958,13.7215 -3.8247,27.0147 -6.9454,40.3347 -2.2046,10.7204 -1.1962,5.4022 -3.0357,15.9526 0,0 -42.887,20.9399 -42.887,20.9399 l 0,0 c 1.8185,-10.7222 0.8324,-5.3248 2.966,-16.1909 2.8516,-13.181 6.2902,-26.2564 6.8796,-39.7994 1.4391,-11.5719 3.9536,-23.0603 3.3093,-34.7705 -0.011,-11.8101 -0.036,-23.6224 0.2671,-35.4297 0.4956,-15.4247 1.3258,-30.8617 3.5728,-46.1459 2.3733,-10.9294 6.2023,-21.4955 7.152,-32.7302 -0.04,-10.8769 -0.06,-21.7741 -1.0547,-32.6152 -1.3504,-12.0366 -3.9543,-23.7931 -7.1326,-35.4776 -1.791,-12.023 -3.589,-23.9585 -4.1601,-36.1154 -1.6207,-11.2005 -4.2563,-22.156 -8.7575,-32.5856 0,0 42.7327,-22.8468 42.7327,-22.8468 z"
             inkscape:connector-curvature="0" />
        <path
             style="fill:#646464;fill-rule:evenodd;stroke-width:5;stroke-linecap:round;stroke-linejoin:round;stroke:#000000"
             id="path8310"
             d="m 3032.9596,1704.3296 c 25.1511,-16.0322 50.8213,-31.2414 78.6337,-42.0562 13.9812,-3.9864 27.4484,-9.0803 40.6703,-15.0952 14.0231,-6.3847 28.6313,-11.145 44.1198,-10.9892 16.8432,2.062 24.8116,10.2311 32.284,24.6834 5.9421,14.5624 9.0426,30.0165 11.1345,45.544 1.768,14.6373 2.9113,29.2798 1.18,43.9477 -1.233,6.52 -3.6682,13.3141 -9.8223,16.7783 -45.3669,25.5381 -28.8378,22.5393 -50.8019,25.754 -10.6781,1.0082 -21.425,0.7501 -32.136,0.6611 -12.8092,-0.1231 -25.6178,-0.2515 -38.4278,-0.2725 -12.6129,-0.3003 -24.9954,-0.2859 -37.4216,1.8888 -1.5928,0.6269 -3.1862,1.2519 -4.7783,1.8806 -2.905,1.1471 -11.0057,5.9103 -8.2845,4.3772 65.5198,-36.9151 44.4133,-27.4716 31.0503,-16.8296 0,0 -44.8923,17.9335 -44.8923,17.9335 l 0,0 c 19.8668,-14.9582 40.9557,-30.1784 65.3512,-36.2195 12.5167,-1.7426 25.0869,-1.1944 37.6979,-1.1501 12.8849,0.042 25.77,0 38.6545,0.1306 10.5414,0.044 21.1905,0.3279 31.6084,-1.5392 18.7074,-5.1482 3.4709,-1.3819 -32.6826,20.7319 -1.2413,0.7592 2.7647,-0.9587 4.0304,-1.6764 4.4282,-2.5111 6.5469,-6.4174 7.7996,-11.2235 2.1271,-14.3218 1.4498,-28.611 -0.2778,-42.9849 -1.9851,-14.9853 -5.0699,-29.8486 -10.5256,-43.9871 -6.8799,-13.1097 -13.9678,-19.5309 -29.3949,-20.1761 -15.0405,1.0417 -29.1866,5.9954 -42.8055,12.3418 -13.3794,5.8776 -27.15,10.4558 -40.9917,15.1082 -6.0023,2.4737 -6.7552,2.7386 -12.7745,5.4076 -2.1702,0.9623 -8.5079,4.185 -6.4879,2.9377 63.2269,-39.0419 37.4334,-22.0994 23.4304,-13.3217 0,0 -45.1398,17.4148 -45.1398,17.4148 z"
             inkscape:connector-curvature="0" />
        <path
             style="fill:#646464;fill-rule:evenodd;stroke-width:5;stroke-linecap:round;stroke-linejoin:round;stroke:#000000"
             id="path8312"
             d="m 3342.9878,1808.5448 c 20.8241,0.3824 41.6419,-0.072 62.4405,1.1302 18.839,0.8391 37.1997,5.4274 55.8215,8.0443 8.7497,1.187 17.5762,1.4546 26.3897,1.7085 0,0 -38.7846,27.9899 -38.7846,27.9899 l 0,0 c -8.9549,-0.3139 -17.9244,-0.6117 -26.7774,-2.1332 -18.2189,-2.992 -36.2491,-7.5398 -54.7783,-8.1992 -21.1058,-0.9049 -42.2373,-0.3592 -63.3579,-0.1715 0,0 39.0465,-28.369 39.0465,-28.369 z"
             inkscape:connector-curvature="0" />
        <path
             style="fill:#646464;fill-rule:evenodd;stroke-width:5;stroke-linecap:round;stroke-linejoin:round;stroke:#000000"
             id="path8314"
             d="m 3363.534,1922.7566 c 14.7503,0.7616 29.385,-1.7359 44.0179,-3.2675 12.3026,-2.4403 23.4537,1.6175 35.0293,4.9568 8.4555,3.2794 16.2468,7.961 24.6526,11.2945 5.9761,2.0481 12.2671,2.5332 18.5154,3.0003 0,0 -39.1597,27.9268 -39.1597,27.9268 l 0,0 c -6.6587,-0.6754 -13.3133,-1.4987 -19.5453,-4.122 -8.0731,-3.6342 -15.8503,-7.9168 -24.212,-10.9136 -11.1027,-3.291 -21.9282,-5.8968 -33.6188,-3.6751 -14.9282,1.5497 -29.8448,3.6022 -44.8899,3.2879 0,0 39.2105,-28.4881 39.2105,-28.4881 z"
             inkscape:connector-curvature="0" />
        <path
             style="fill:#646464;fill-rule:evenodd;stroke-width:5;stroke-linecap:round;stroke-linejoin:round;stroke:#000000"
             id="path8316"
             d="m 3628.255,1884.0204 c 18.914,-1.1243 37.8423,-1.9804 56.7694,-2.8454 0,0 -37.6128,27.5837 -37.6128,27.5837 l 0,0 c -19.2274,0.8327 -38.4702,1.6845 -57.6149,3.7395 0,0 38.4583,-28.4778 38.4583,-28.4778 z"
             inkscape:connector-curvature="0" />
        <path
             style="fill:#646464;fill-rule:evenodd;stroke-width:5;stroke-linecap:round;stroke-linejoin:round;stroke:#000000"
             id="path8318"
             d="m 3803.0275,1771.4501 c -1.203,31.8565 -1.3908,63.7547 -0.5699,95.621 1.0197,35.4745 3.6395,70.8775 4.5993,106.3527 0.4364,21.3735 1.0018,42.7462 1.1038,64.1248 -1.21,15.506 -3.2927,30.908 -4.3516,46.4347 -1.4502,10.4139 0.2217,18.2087 8.4595,24.7639 1.2637,0.4989 2.5274,0.9977 3.791,1.4965 0,0 -40.2659,26.5881 -40.2659,26.5881 l 0,0 c -1.5214,-0.8372 -3.0428,-1.6745 -4.5643,-2.5117 -8.7083,-7.9834 -11.9984,-16.9753 -10.1717,-28.9264 1.0939,-15.4423 2.7096,-30.8235 4.6076,-46.1838 0.032,-21.4871 0.3223,-42.977 -0.1929,-64.4615 -0.8876,-35.5965 -1.9084,-71.1913 -3.7575,-106.7537 -1.2018,-31.5051 -0.5311,-63.0376 -1.8717,-94.5412 0,0 43.1843,-22.0034 43.1843,-22.0034 z"
             inkscape:connector-curvature="0" />
        <path
             style="fill:#646464;fill-rule:evenodd;stroke-width:5;stroke-linecap:round;stroke-linejoin:round;stroke:#000000"
             id="path8320"
             d="m 3734.7328,1697.897 c 4.7213,-7.7378 8.7541,-15.8562 13.1406,-23.786 0,0 43.3314,-19.3423 43.3314,-19.3423 l 0,0 c -4.4695,7.7548 -8.5942,15.6244 -12.2746,23.7904 0,0 -44.1974,19.3379 -44.1974,19.3379 z"
             inkscape:connector-curvature="0" />
        <path
             style="fill:#646464;fill-rule:evenodd;stroke-width:5;stroke-linecap:round;stroke-linejoin:round;stroke:#000000"
             id="path8322"
             d="m 3951.8253,1743.2171 c 60.8251,5.6101 122.0793,5.6479 183.1192,6.4412 83.2056,0.8852 166.3297,-4.0856 248.6276,-16.2889 0,0 -35.2508,26.3705 -35.2508,26.3705 l 0,0 c -81.9076,10.8517 -164.4948,15.0804 -247.1161,14.3752 -62.8378,-0.5561 -125.6918,-0.6098 -188.5083,-2.4695 0,0 39.1284,-28.4285 39.1284,-28.4285 z"
             inkscape:connector-curvature="0" />
        <path
             style="fill:#646464;fill-rule:evenodd;stroke-width:5;stroke-linecap:round;stroke-linejoin:round;stroke:#000000"
             id="path8324"
             d="m 3990.1615,1774.3904 c 22.1527,22.0803 36.7909,50.2495 52.2211,77.1138 25.0413,44.9632 44.0339,92.8049 64.2863,140.001 11.7507,28.8141 25.3647,56.8539 36.9449,85.7328 3.2361,10.8842 7.721,21.317 11.4154,32.051 0,0 -41.7934,23.0389 -41.7934,23.0389 l 0,0 c -3.5561,-10.739 -8.1596,-21.0908 -11.0654,-32.0315 -10.6269,-29.2685 -23.5296,-57.6738 -35.138,-86.5564 -19.6614,-47.2429 -37.8883,-95.2609 -63.9197,-139.5277 -15.6396,-26.1231 -30.4777,-53.9699 -53.8728,-74.1179 0,0 40.9216,-25.704 40.9216,-25.704 z"
             inkscape:connector-curvature="0" />
        <path
             style="fill:#646464;fill-rule:evenodd;stroke-width:5;stroke-linecap:round;stroke-linejoin:round;stroke:#000000"
             id="path8326"
             d="m 4119.8985,2139.8042 c 9.599,-37.1602 32.1494,-68.0402 53.7771,-98.9925 25.4607,-38.7831 56.8296,-72.9292 86.0464,-108.7786 22.1648,-29.794 49.5572,-54.8466 75.1324,-81.5238 15.3009,-17.062 24.8987,-37.8141 31.0625,-59.6731 2.0737,-9.7583 1.2132,-4.9747 2.6259,-14.3428 0,0 42.9662,-21.1122 42.9662,-21.1122 l 0,0 c -1.3894,9.7937 -0.5343,4.7907 -2.6119,15.0011 -6.1562,22.5425 -15.7305,44.1621 -30.9328,62.1498 -25.5912,26.9859 -54.0726,51.3578 -76.1796,81.5688 -29.2846,36.1244 -61.3657,70.0017 -87.1325,108.8923 -20.8053,29.6871 -44.1743,59.9124 -50.7991,96.4827 0,0 -43.9546,20.3283 -43.9546,20.3283 z"
             inkscape:connector-curvature="0" />
        <path
             style="fill:#646464;fill-rule:evenodd;stroke-width:5;stroke-linecap:round;stroke-linejoin:round;stroke:#000000"
             id="path8330"
             d="m 3032.2277,1600.2346 c 20.5335,-29.6642 47.1365,-54.9232 73.4225,-79.4796 17.1536,-8.5995 33.0837,-20.2776 51.4609,-25.7983 4.242,-1.2744 8.2001,3.805 11.3358,6.9333 12.7366,12.7064 23.9244,45.4837 31.3305,62.4278 0,0 -40.3382,22.662 -40.3382,22.662 l 0,0 c -6.8348,-16.1519 -12.9385,-33.1037 -22.2044,-48.0859 -2.4378,-3.9417 -4.7482,-8.1534 -8.2441,-11.1961 -2.5719,-2.2385 -11.4803,-1.4556 -9.3599,-4.1257 7.297,-9.189 19.1717,-13.5344 28.7576,-20.3016 -26.1112,23.4748 -51.9567,48.2133 -72.1607,77.0571 0,0 -44,19.907 -44,19.907 z"
             inkscape:connector-curvature="0" />
        <path
             style="fill:#646464;fill-rule:evenodd;stroke-width:5;stroke-linecap:round;stroke-linejoin:round;stroke:#000000"
             id="path8332"
             d="m 4062.0792,1663.4522 c 88.2425,7.7274 177.0712,11.6664 265.6757,10.6371 24.5674,-0.2853 49.1125,-1.5885 73.6687,-2.3828 58.8881,-3.8573 64.5207,-3.4292 119.8673,-9.8235 13.7486,-1.5884 27.5562,-2.9197 41.1558,-5.4887 7.7891,-1.4713 28.5132,-12.1434 22.8459,-6.6012 -24.1841,23.6501 -23.9705,22.2916 -38.568,15.4294 -29.7945,-11.8698 -61.2979,-18.8154 -92.2605,-26.9184 0,0 36.9851,-25.4397 36.9851,-25.4397 l 0,0 c 32.0467,8.5282 64.7078,15.4702 95.7541,27.2442 19.3702,21.8384 15.6123,11.439 -38.0153,37.3056 -9.5976,4.6293 -59.1033,8.5173 -60.5453,8.6503 -54.5511,5.033 -59.2776,4.6717 -117.5077,7.787 -24.4671,0.6754 -48.9268,1.7175 -73.4013,2.0261 -91.393,1.1524 -182.8885,-1.6423 -274.1942,-5.1084 0,0 38.5397,-27.317 38.5397,-27.317 z"
             inkscape:connector-curvature="0" />
        <path
             style="fill:#646464;stroke-width:5;stroke-linecap:round;stroke-linejoin:round;stroke:#000000"
             id="path8347"
             d="m 5573.708,1453.8963 c -1.9764,37.6075 -0.8894,75.2402 0.6445,112.8369 1.0041,21.7111 2.0968,43.4183 2.9801,65.1347 0,0 -32.9436,16.8857 -32.9436,16.8857 l 0,0 c -0.1709,-22.0193 -0.5869,-44.0347 -1.13,-66.048 -0.9411,-37.2233 -2.1335,-74.4397 -3.2134,-111.6575 0,0 33.6624,-17.1518 33.6624,-17.1518 z"
             inkscape:connector-curvature="0" />
        <path
             style="fill:#646464;stroke-width:5;stroke-linecap:round;stroke-linejoin:round;stroke:#000000"
             id="path8349"
             d="m 5516.7321,1565.7346 c -13.7822,-7.0734 -28.8096,-11.1951 -44.2466,-8.9258 -18.8207,9.3987 14.1052,-8.6524 21.5934,-12.1275 1.8085,-0.8392 -3.0433,2.6131 -4.2849,4.173 -4.1935,5.2681 -5.8599,11.5905 -7.5834,17.9334 -1.9479,10.3026 -4.061,21.8771 2.3026,31.1883 1.3328,1.9501 3.1316,3.5369 4.6974,5.3054 10.3408,8.5766 23.5152,12.0288 35.6203,17.3106 4.6625,2.2752 8.9193,5.2398 13.3587,7.9046 0,0 -31.5423,20.3871 -31.5423,20.3871 l 0,0 c -4.2758,-2.62 -8.4631,-5.4239 -13.0433,-7.5015 -12.5155,-5.3971 -25.8107,-9.7164 -36.2017,-18.8928 -1.7594,-2.0215 -3.7665,-3.8516 -5.2784,-6.0643 -6.8947,-10.0909 -5.5317,-22.1931 -3.5633,-33.5337 6.8679,-28.9172 19.9244,-38.4396 53.8889,-48.3069 16.0382,-0.8355 31.3154,3.8168 45.8631,10.3713 0,0 -31.5805,20.7788 -31.5805,20.7788 z"
             inkscape:connector-curvature="0" />
        <path
             style="fill:#646464;stroke-width:5;stroke-linecap:round;stroke-linejoin:round;stroke:#000000"
             id="path8351"
             d="m 5436.5951,1699.1818 c 53.8681,1.6954 107.7633,-0.9135 161.556,-3.5792 30.2929,-1.206 60.4865,-3.9201 90.6667,-6.6725 0,0 -27.7062,20.4774 -27.7062,20.4774 l 0,0 c -29.6903,2.1423 -59.3861,4.272 -89.1367,5.4118 -55.2225,2.7321 -110.4658,5.4738 -165.7521,6.4292 0,0 30.3723,-22.0667 30.3723,-22.0667 z"
             inkscape:connector-curvature="0" />
        <path
             style="fill:#646464;stroke-width:5;stroke-linecap:round;stroke-linejoin:round;stroke:#000000"
             id="path8353"
             d="m 5487.6597,1774.3032 c -11.0751,48.5821 -13.6205,98.7765 -17.041,148.3653 -1.8664,33.9136 -1.0737,17.7382 -2.4298,48.5236 0,0 -31.1804,15.6592 -31.1804,15.6592 l 0,0 c 2.2576,-31.2312 1.0548,-14.8397 3.6197,-49.1736 3.0544,-40.3813 5.5501,-80.9149 9.4285,-121.2236 0.7238,-7.5225 2.3991,-17.9415 3.6198,-25.8715 0,0 33.9832,-16.2794 33.9832,-16.2794 z"
             inkscape:connector-curvature="0" />
        <path
             style="fill:#646464;stroke-width:5;stroke-linecap:round;stroke-linejoin:round;stroke:#000000"
             id="path8355"
             d="m 5431.2469,1903.0214 c -10.3545,-2.0316 -21.5337,-6.5255 -32.2837,-5.2142 -1.836,0.224 -3.5524,1.0322 -5.3286,1.5483 9.3173,-4.9934 18.2629,-10.753 27.9519,-14.9803 1.7187,-0.7498 -2.6513,2.7119 -3.5742,4.3443 -0.9979,1.7651 -1.6231,3.7372 -2.108,5.7061 -2.0805,8.4474 -0.6586,16.0521 1.1655,24.3523 4.0957,13.3076 8.7733,26.7546 16.5843,38.3767 4.2899,4.5698 2.0372,2.7429 6.5636,5.712 0,0 -31.8621,20.1632 -31.8621,20.1632 l 0,0 c -4.7779,-3.9681 -2.4027,-1.6854 -6.9872,-6.9892 -7.8046,-12.175 -12.7908,-25.9279 -16.8589,-39.7492 -2.4797,-10.6693 -4.7822,-21.8819 -0.7739,-32.578 0.7345,-1.9602 1.2766,-4.3368 3.0086,-5.5124 11.7359,-7.9661 24.4933,-14.3121 36.74,-21.4681 13.1512,-1.6541 26.1463,2.0455 38.9152,4.9535 0,0 -31.1525,21.335 -31.1525,21.335 z"
             inkscape:connector-curvature="0" />
        <path
             style="fill:#646464;stroke-width:5;stroke-linecap:round;stroke-linejoin:round;stroke:#000000"
             id="path8357"
             d="m 5573.7787,1810.6378 c 0.9011,32.0613 1.5692,64.1317 2.2353,96.2005 2.5465,31.0783 -3.517,62.4622 0.5443,93.3889 1.5899,6.6015 4.5597,10.8805 9.846,14.7775 0,0 -31.8712,19.9069 -31.8712,19.9069 l 0,0 c -5.3649,-5.0391 -8.9645,-10.1577 -10.4932,-17.6269 -3.372,-31.3472 2.9765,-62.9572 0.6747,-94.421 -0.5886,-31.6892 -1.0277,-63.4932 -4.7396,-95.002 0,0 33.8037,-17.2239 33.8037,-17.2239 z"
             inkscape:connector-curvature="0" />
        <path
             style="fill:#646464;stroke-width:5;stroke-linecap:round;stroke-linejoin:round;stroke:#000000"
             id="path8359"
             d="m 5600.4292,2008.5328 c 1.8246,-0.7985 3.7071,-1.4759 5.4737,-2.3956 2.2939,-1.1944 8.9733,-5.1436 6.6865,-3.9356 -7.8402,4.1416 -15.1563,9.3547 -23.3519,12.7391 -3.4816,1.4377 6.053,-4.4869 9.0122,-6.8174 9.5386,-7.512 8.0733,-6.5258 16.7979,-14.9774 8.8019,-10.1648 4.6354,-5.0885 12.5354,-15.1994 0,0 33.8712,-14.5318 33.8712,-14.5318 l 0,0 c -8.0065,10.4022 -3.8101,5.1469 -12.6178,15.7433 -22.0902,22.618 -49.1492,40.2614 -78.2841,52.586 0,0 29.8769,-23.2112 29.8769,-23.2112 z"
             inkscape:connector-curvature="0" />
        <path
             style="fill:#646464;stroke-width:5;stroke-linecap:round;stroke-linejoin:round;stroke:#000000"
             id="path8361"
             d="m 5571.6599,1893.6881 c 20.684,-3.415 41.1,-8.3279 61.6512,-12.4781 0,0 -28.8026,21.8118 -28.8026,21.8118 l 0,0 c -20.9995,4.198 -41.8534,9.023 -62.7817,13.5549 0,0 29.9331,-22.8886 29.9331,-22.8886 z"
             inkscape:connector-curvature="0" />
        <path
             style="fill:#646464;stroke-width:5;stroke-linecap:round;stroke-linejoin:round;stroke:#000000"
             id="path8363"
             d="m 5751.8787,1411.3264 c -1.2576,6.7521 -2.841,13.4516 -3.7728,20.2562 -3.6321,26.5246 -6.1509,61.6248 -7.7186,87.3327 -4.9605,81.3469 -6.6098,162.7641 -8.3753,244.2263 -0.6198,124.7979 0.2909,250.5036 19.3517,374.158 2.1273,13.8008 5.0215,27.4724 7.5322,41.2087 4.9912,26.204 12.4058,51.7092 21.145,76.8564 0,0 -30.8292,16.9364 -30.8292,16.9364 l 0,0 c -7.6896,-25.9318 -14.3307,-52.1183 -18.3786,-78.9154 -2.0386,-14.0413 -4.4406,-28.0345 -6.1158,-42.1237 -14.8707,-125.0679 -13.6802,-251.4819 -14.2502,-377.184 1.012,-115.5628 0.5532,-231.2527 7.1664,-346.6688 0,0 34.2452,-16.0828 34.2452,-16.0828 z"
             inkscape:connector-curvature="0" />
        <path
             style="fill:#646464;stroke-width:5;stroke-linecap:round;stroke-linejoin:round;stroke:#000000"
             id="path8365"
             d="m 5909.6103,1607.1115 c -8.7303,-10.3691 -21.3419,-15.0551 -34.4735,-16.3714 -19.5854,8.947 13.1341,-8.9451 20.6637,-9.1447 3.9523,-0.1047 -3.1878,7.2568 -4.3355,11.0402 -3.9357,12.9743 -4.9605,26.0923 -5.2618,39.5326 0.8568,3.6371 1.0517,7.4972 2.5705,10.9113 8.4,18.8832 35.5467,18.2942 52.2786,14.9324 6.8594,-1.3782 13.3823,-4.0887 20.0734,-6.1331 6.2836,-3.2472 13.8216,-4.768 18.8507,-9.7414 3.1548,-3.1198 -13.3874,8.1287 -12.776,3.7341 1.1267,-8.0995 10.7745,-12.4179 14.9613,-19.4423 4.8641,-8.1605 9.0469,-16.8177 12.0279,-25.838 9.2295,-27.9279 8.494,-43.3728 10.7474,-72.8524 0.4114,-37.1329 -2.597,-74.3573 -10.6372,-110.6624 -3.9611,-17.8858 -7.5495,-31.4829 -17.3419,-46.8517 -3.2659,-5.1258 -7.8139,-9.3113 -11.7209,-13.9669 -17.157,-12.5824 -29.8505,-13.6982 -50.0752,-10.6696 0,0 29.3518,-21.8488 29.3518,-21.8488 l 0,0 c 21.1091,-1.7599 34.1378,0.3276 51.1427,14.3292 3.8507,5.0021 8.3557,9.5629 11.5522,15.0064 9.6781,16.4817 12.5581,29.5741 16.3062,48.4892 7.2848,36.7644 10.232,74.2697 10.282,111.711 -1.593,28.0018 -0.9192,46.331 -8.7878,73.2056 -3.3455,11.4262 -15.197,37.8383 -25.399,46.3813 -27.0406,22.6435 -39.8491,27.7187 -66.2274,40.3977 -6.917,1.9106 -13.6791,4.5132 -20.7509,5.7319 -19.0202,3.2777 -46.9099,2.1636 -56.0029,-18.5852 -1.625,-3.7079 -1.8573,-7.8807 -2.786,-11.8211 0.1763,-13.8205 1.3983,-26.9684 4.616,-40.4693 0.9511,-3.9905 0.4187,-9.0218 3.4152,-11.8234 26.8316,-25.0866 23.892,-23.5872 43.6332,-26.9997 13.9312,2.3562 27.0303,7.8088 36.7293,18.4566 0,0 -32.6261,19.3619 -32.6261,19.3619 z"
             inkscape:connector-curvature="0" />
        <path
             style="fill:#646464;stroke-width:5;stroke-linecap:round;stroke-linejoin:round;stroke:#000000"
             id="path8367"
             d="m 5861.8137,1800.0422 c 77.1674,-13.9126 154.1529,-28.7503 231.4827,-41.8033 13.3417,-2.1531 26.6833,-4.3062 40.025,-6.4593 0,0 -25.6773,19.2663 -25.6773,19.2663 l 0,0 c -13.0381,1.9391 -26.0762,3.8782 -39.1144,5.8173 -79.324,12.9511 -158.297,27.9998 -236.6478,45.942 0,0 29.9318,-22.763 29.9318,-22.763 z"
             inkscape:connector-curvature="0" />
        <path
             style="fill:#646464;stroke-width:5;stroke-linecap:round;stroke-linejoin:round;stroke:#000000"
             id="path8369"
             d="m 5944.6612,2107.6245 c -0.9948,-15.9831 -9.8632,-24.3024 -22.7438,-32.1817 -13.9869,-6.1597 -29.4497,-11.1504 -44.6038,-5.7141 -3.3128,1.1885 -12.4607,6.5425 -9.2776,5.041 8.0415,-3.7932 15.9079,-7.9469 23.8618,-11.9204 -9.8516,11.0882 -18.1297,28.5048 -4.8553,40.9384 3.8976,3.6507 8.9128,5.8853 13.3692,8.8279 21.0539,8.9951 45.0923,15.4228 68.2544,11.1719 7.6597,-1.4058 14.6208,-5.3692 21.9557,-7.9857 3.8378,-1.3691 -12.1514,8.2594 -11.4641,4.243 1.1488,-6.7137 8.9204,-10.2957 13.3807,-15.4436 2.5793,-5.7072 6.0367,-11.0941 7.7381,-17.1216 7.1284,-25.2545 -7.0832,-49.0492 -23.1364,-67.3547 -4.3511,-4.9616 -9.3632,-9.3022 -14.0448,-13.9533 -23.2318,-19.8123 -49.6945,-27.4032 -79.2946,-31.2741 0,0 29.3776,-20.7024 29.3776,-20.7024 l 0,0 c 29.3718,4.7033 57.3316,13.2106 79.9536,33.5804 22.1091,22.4729 48.0016,50.4177 39.2656,84.9596 -1.6063,6.3511 -5.0326,12.097 -7.5489,18.1456 -4.4221,5.4699 -7.6394,12.1893 -13.2663,16.4098 -16.2408,12.1818 -46.3596,33.1779 -70.8277,36.8193 -23.9988,3.5716 -48.5253,-3.1896 -70.4059,-12.216 -4.9296,-3.2219 -10.4515,-5.682 -14.7889,-9.6655 -14.6427,-13.4482 -8.0271,-32.2092 2.2334,-45.5691 12.9757,-8.2538 25.6992,-16.9182 38.9271,-24.7616 3.0528,-1.8101 6.3786,-3.2333 9.8107,-4.137 15.9486,-4.1996 31.9114,1.2248 46.3436,7.7104 2.8204,1.7602 5.8072,3.2783 8.4613,5.2806 9.1664,6.9153 15.3409,18.4934 17.0583,29.685 0,0 -33.733,17.1879 -33.733,17.1879 z"
             inkscape:connector-curvature="0" />
        <path
             style="fill:#646464;stroke-width:5;stroke-linecap:round;stroke-linejoin:round;stroke:#000000"
             id="path8371"
             d="m 6048.8533,1987.5024 c 14.4502,-16.217 26.8066,-24.8992 49.6192,-34.1666 3.0967,-1.2579 8.0075,9.9649 8.1577,10.2462 6.8051,18.207 8.4553,37.6412 11.4488,56.6809 2.4553,12.0621 3.632,16.3218 16.3713,19.334 8.9515,2.1165 15.5538,2.567 24.7092,3.5928 0,0 -29.6356,21.0061 -29.6356,21.0061 l 0,0 c -11.6735,-1.4358 -33.3271,-1.6465 -40.244,-13.0484 -1.8816,-3.1017 -3.2093,-10.3341 -3.9504,-13.574 -2.7053,-18.6243 -3.769,-37.7733 -11.0721,-55.3738 -0.9121,-1.5614 -1.4786,-3.385 -2.7364,-4.6841 -0.6403,-0.6614 -3.3793,-0.3257 -2.6261,-0.8549 53.1651,-37.3535 24.0535,-15.2519 14.8575,-3.6139 0,0 -34.8991,14.4557 -34.8991,14.4557 z"
             inkscape:connector-curvature="0" />
        <path
             style="fill:#646464;stroke-width:5;stroke-linecap:round;stroke-linejoin:round;stroke:#000000"
             id="path8373"
             d="m 6149.3846,1949.9183 c -20.0291,22.2077 -36.9682,46.9245 -52.7382,72.2651 -6.0458,9.6493 -11.4143,19.6874 -17.1,29.5468 0,0 -33.7062,14.9508 -33.7062,14.9508 l 0,0 c 6.1057,-9.9236 11.6791,-20.1399 17.9196,-29.9843 15.6098,-25.1204 32.4951,-49.397 51.0366,-72.4515 0,0 34.5882,-14.3269 34.5882,-14.3269 z"
             inkscape:connector-curvature="0" />
        <path
             style="fill:#646464;stroke-width:5;stroke-linecap:round;stroke-linejoin:round;stroke:#000000"
             id="path8375"
             d="m 6138.9324,1400.9946 c 11.568,0.094 23.6473,0.778 35.0162,-1.9641 4.7288,-1.1406 17.3526,-8.187 13.7324,-4.9378 -5.2254,4.69 -11.8312,10.3059 -18.8051,9.4907 -4.8131,-0.5626 6.692,-7.0103 10.0381,-10.5154 10.0493,-13.867 15.5211,-30.3197 15.0394,-47.5293 -0.225,-8.0353 1.0054,-6.6297 -2.8943,-8.962 10.1205,-4.1473 19.4266,-12.6669 30.3616,-12.442 4.6034,0.095 -3.4003,8.5683 -4.756,12.9685 -2.1228,6.8901 -3.9116,13.8806 -5.6703,20.8724 -8.8906,35.346 -14.7575,70.8027 -20.1325,106.8263 -9.181,58.5712 -7.9735,118.3477 -18.1426,176.7405 -2.8965,10.5587 -7.0247,20.5777 -17.0177,26.2377 -7.7725,4.4023 -29.9145,24.0617 -46.4744,20.5783 -2.2619,-0.4759 -4.2776,-1.7531 -6.4165,-2.6297 -11.1446,-7.3888 -16.171,-20.515 -14.7723,-33.5258 18.3338,-30.3594 49.4063,-30.1873 78.6649,-28.9407 13.7254,0.5847 54.3399,3.2461 67.2006,4.0644 42.4427,2.6543 22.1161,1.6093 60.974,3.2457 0,0 -27.6584,19.8737 -27.6584,19.8737 l 0,0 c -38.0624,-2.4122 -18.0663,-1.0957 -59.9862,-3.9813 -30.931,-1.684 -63.0487,-5.3107 -94.0108,-1.8288 -4.264,0.4795 -15.5388,6.1831 -12.4734,3.1807 5.7675,-5.6491 36.3243,-23.8275 21.0005,-12.065 -2.93,11.4983 1.8823,22.861 11.9928,29.0508 1.8647,0.5179 3.6652,1.3967 5.5941,1.5536 12.358,1.0051 24.0003,-13.1177 -18.0507,14.9023 -2.4535,1.6349 5.4385,-2.475 7.6747,-4.3965 7.3083,-6.2799 7.867,-10.8332 11.6307,-19.731 12.9215,-58.5275 12.8162,-118.9817 21.4789,-178.171 4.8724,-35.5024 10.1301,-70.7329 17.351,-105.8443 1.4122,-6.8671 2.9402,-13.7105 4.5139,-20.5425 1.0208,-4.4315 -0.1087,-10.2001 3.2687,-13.2453 10.539,-9.5024 24.1493,-14.9087 36.224,-22.3631 0.7757,1.177 1.9606,2.1699 2.327,3.531 3.5178,13.0664 -0.8869,33.8143 -6.2315,45.7346 -2.0238,4.5137 -4.9204,8.583 -7.3806,12.8746 -3.2311,3.7813 -5.6206,8.4888 -9.6933,11.344 -38.1681,26.7581 -51.9159,32.6555 -93.9533,32.6592 0,0 30.4364,-22.1134 30.4364,-22.1134 z"
             inkscape:connector-curvature="0" />
        <path
             style="fill:#646464;stroke-width:5;stroke-linecap:round;stroke-linejoin:round;stroke:#000000"
             id="path8379"
             d="m 6326.2308,1310.8817 c 41.2456,82.9373 56.2352,173.4032 74.082,263.4232 23.2496,120.5097 41.8077,242.1382 50.6722,364.6243 4.4511,61.5024 3.916,82.8485 4.6719,142.2764 -1.9765,48.0449 1.9432,97.7124 -9.4802,144.9536 -3.9407,16.2971 -6.152,19.3356 -12.9203,34.1058 -2.3636,4.5067 -4.7273,9.0133 -7.0909,13.52 0,0 -32.7962,14.719 -32.7962,14.719 l 0,0 c 2.483,-4.4965 4.9661,-8.9931 7.4491,-13.4896 7.1541,-14.4365 9.5679,-17.7622 14.1695,-33.7728 13.6328,-47.4332 12.1865,-98.5692 15.6098,-147.2684 0.779,-59.6274 2.0225,-81.9783 -1.4861,-143.6605 -6.9659,-122.4645 -26.0163,-243.9857 -51.4121,-363.8828 -19.9322,-87.8118 -37.4742,-178.3089 -83.7054,-256.9171 0,0 32.2367,-18.6311 32.2367,-18.6311 z"
             inkscape:connector-curvature="0" />
        <path
             style="fill:#646464;stroke-width:5;stroke-linecap:round;stroke-linejoin:round;stroke:#000000"
             id="path8385"
             d="m 6531.2823,1682.1438 c 29.5195,-3.6455 58.7329,-9.2918 87.9812,-14.6115 0,0 -27.3404,20.6226 -27.3404,20.6226 l 0,0 c -30.3142,5.4704 -60.5485,11.4759 -91.0131,16.0557 0,0 30.3723,-22.0668 30.3723,-22.0668 z"
             inkscape:connector-curvature="0" />
        <path
             style="fill:#646464;stroke-width:5;stroke-linecap:round;stroke-linejoin:round;stroke:#000000"
             id="path8389"
             d="m 6808.3113,1538.6865 c -2.3561,6.6379 -11.924,24.5278 -3.483,29.7147 2.1155,1.3 4.801,1.2697 7.2015,1.9046 -0.8323,9.0294 30.8774,-14.1263 26.3832,-6.2822 -2.9005,5.0624 -14.0058,12.8665 -15.8884,7.344 -2.1448,-6.2921 9.611,-9.3215 13.3379,-14.826 10.5797,-15.6259 9.7989,-21.2046 13.4045,-39.303 -0.4709,-7.2858 0.1055,-14.716 -1.4127,-21.8573 -7.1786,-33.766 -33.8854,-60.3 -63.0108,-76.6825 -7.2943,-4.1029 -15.2311,-6.9407 -22.8466,-10.4111 -26.2599,-9.5877 -53.8359,-11.4102 -80.8826,-4.0985 -4.4443,1.2015 -8.6807,3.0699 -13.0211,4.6049 0,0 28.6031,-22.2027 28.6031,-22.2027 l 0,0 c 4.31,-1.3089 8.537,-2.9313 12.93,-3.9267 27.3537,-6.1978 54.954,-3.4578 81.0531,6.6379 7.6727,3.6563 15.6703,6.6968 23.018,10.9688 29.6239,17.224 57.0962,44.6427 65.102,79.049 1.7138,7.3655 1.2861,15.0698 1.9291,22.6047 -3.2019,18.7709 -2.2878,24.3711 -12.4316,40.8874 -14.4741,23.5673 -46.8309,43.0208 -73.6496,47.7256 -4.3686,0.7664 -8.8645,0.3306 -13.2968,0.4959 -2.8858,-1.2427 -6.1903,-1.7824 -8.6574,-3.7281 -10.2292,-8.0671 -1.4123,-23.1843 1.2115,-32.7068 0,0 34.4067,-15.9126 34.4067,-15.9126 z"
             inkscape:connector-curvature="0" />
        <path
             style="fill:#646464;stroke-width:5;stroke-linecap:round;stroke-linejoin:round;stroke:#000000"
             id="path8391"
             d="m 6951.5389,1383.9101 c 1.6733,-0.5018 23.8343,-6.501 21.1774,-9.3003 -3.6806,-3.8778 -15.2334,8.4072 -15.7397,3.0848 -0.7903,-8.3068 9.905,-13.4748 14.063,-20.7093 10.6872,-18.5948 13.6818,-29.4465 20.9862,-49.4479 5.3116,-18.4471 11.5693,-37.2415 12.5604,-56.6094 0.092,-1.7958 -2.3241,-4.422 -0.7767,-5.3382 38.8062,-22.9792 34.7999,-20.2851 26.8981,-2.7077 -15.0102,52.8434 -14.8644,108.6426 -15.4693,163.1632 -1.2506,36.3102 2.768,72.7688 -0.01,109.0192 -1.3041,8.261 -4.2697,14.2958 -11.7832,18.427 -23.206,12.7595 -31.3645,22.9166 -53.0985,20.8904 -2.2049,-1.0586 -4.5994,-1.7898 -6.6146,-3.1757 -8.6547,-5.9522 -16.0779,-18.8085 -17.5778,-29.1834 -0.3538,-2.4478 0.1967,-4.9426 0.2951,-7.4139 20.4091,-31.4228 54.9048,-28.6131 85.7904,-27.163 62.9814,2.957 -15.4208,-0.1507 45.8887,2.1706 16.7682,0.6125 33.2929,-1.3812 48.5117,-8.7935 3.1594,-1.5387 5.9746,-3.7012 8.9621,-5.5517 0,0 -28.5423,23.1032 -28.5423,23.1032 l 0,0 c -19.205,10.1783 -35.2106,12.771 -57.1933,11.6011 -22.5232,-0.9732 -45.3217,-3.0575 -67.8775,-2.1822 -5.8145,0.2257 -18.652,7.3385 -17.3774,1.661 0.014,-0.064 32.9132,-24.6163 15.2234,-11.4124 -0.3849,2.0641 -1.3066,4.098 -1.1548,6.1922 0.6743,9.3018 7.9638,21.6177 16.0618,26.2795 1.8023,1.0375 3.9188,1.3932 5.8783,2.0898 19.3163,-0.063 22.865,-9.5825 -11.9097,14.259 -1.9468,1.3346 4.5051,-1.6037 6.4246,-2.9772 5.3563,-3.8326 5.1222,-6.4328 7.2566,-12.5102 4.6813,-36.4383 0.584,-73.4546 2.7543,-110.0598 1.0648,-48.9256 0.9509,-98.6662 8.8316,-147.1085 0.8696,-5.3461 2.3669,-10.5709 3.5503,-15.8564 6.2147,-21.7972 2.0276,-16.9352 39.5162,-29.9219 2.0783,-0.7199 0.122,4.412 -0.1314,6.5967 -2.3017,19.8341 -7.9835,39.0936 -13.9456,58.0725 -7.1401,20.0502 -10.2613,31.2069 -20.3798,50.0472 -3.9231,7.3051 -7.1416,15.4278 -13.2103,21.078 -9.9468,9.2608 -38.5346,31.9837 -58.2117,39.4449 -3.2671,1.2389 -6.7948,1.6326 -10.1922,2.4489 0,0 30.5647,-22.2066 30.5647,-22.2066 z"
             inkscape:connector-curvature="0" />
        <path
             style="fill:#646464;stroke-width:5;stroke-linecap:round;stroke-linejoin:round;stroke:#000000"
             id="path8393"
             d="m 6782.5712,1639.1717 c 123.3422,-4.2422 245.793,-19.3544 367.7814,-37.2813 20.9227,-3.5546 41.8454,-7.1093 62.7681,-10.664 0,0 -22.8215,17.1501 -22.8215,17.1501 l 0,0 c -20.4498,3.1781 -40.8996,6.3561 -61.3492,9.5343 -77.4703,10.8127 -154.985,21.1541 -232.7819,29.3886 -59.9666,6.3471 -61.4192,5.5568 -115.0273,10.676 -9.4262,0.9002 -18.8323,1.9991 -28.2484,2.9986 0,0 29.6788,-21.8023 29.6788,-21.8023 z"
             inkscape:connector-curvature="0" />
        <path
             style="fill:#646464;stroke-width:5;stroke-linecap:round;stroke-linejoin:round;stroke:#000000"
             id="path8395"
             d="m 6840.8178,1882.4541 c -12.5131,-0.8747 -24.9942,1.1661 -36.6044,6.0743 -6.2156,2.6276 -13.4698,4.3496 -17.9164,9.4256 -2.8723,3.279 8.4202,-2.2607 12.6303,-3.3911 -4.8795,5.0234 -9.7591,10.0468 -14.6386,15.0702 -5.2305,6.5389 -22.2976,24.7382 -18.0234,35.6638 2.9321,7.4947 25.4534,-2.3441 27.7611,-3.1975 4.7418,-2.7006 19.3554,-6.2418 14.2253,-8.1017 -5.7324,-2.0782 -13.211,12.0595 -16.8347,7.1557 -3.6241,-4.9044 8.7955,-8.6796 11.7781,-13.9985 6.6251,-11.8142 8.3242,-24.8807 6.7408,-38.1474 -0.7493,-6.2785 -3.2217,-12.2287 -4.8326,-18.343 -18.5005,-35.4814 -37.0854,-42.7131 -74.802,-47.772 0,0 29.4244,-20.7374 29.4244,-20.7374 l 0,0 c 39.9105,6.2171 57.0464,14.3156 76.4114,51.6657 1.7225,6.4045 4.2822,12.6407 5.1675,19.2135 1.7966,13.3373 0.593,27.9338 -5.488,40.1953 -12.6537,25.514 -46.4747,37.4689 -70.2604,50.9906 -7.2159,2.1727 -27.6023,10.4422 -32.2181,-2.4113 -4.2864,-11.9363 12.3339,-31.3121 18.6086,-38.6953 4.8786,-5.1769 8.9803,-11.2161 14.6358,-15.5309 30.6541,-23.387 64.6705,-48.5769 105.0051,-46.9048 0,0 -30.7698,21.7762 -30.7698,21.7762 z"
             inkscape:connector-curvature="0" />
        <path
             style="fill:#646464;stroke-width:5;stroke-linecap:round;stroke-linejoin:round;stroke:#000000"
             id="path8397"
             d="m 6956.3744,1833.4614 c 20.1744,-5.8115 39.7267,-13.6293 60.2686,-18.1035 2.7027,0.2542 5.5161,-0.045 8.108,0.7627 14.6039,4.5487 29.121,31.1194 36.689,43.6297 8.4595,19.0879 21.3608,34.485 37.2443,47.7217 0,0 -31.1271,19.3979 -31.1271,19.3979 l 0,0 c -15.6647,-13.8897 -28.9361,-29.5633 -37.5495,-48.8805 -7.0798,-11.6271 -21.0217,-37.2159 -35.4086,-40.2029 -2.4065,-0.4997 -4.9156,-0.033 -7.3733,-0.05 -20.6184,4.7461 -40.3967,12.3678 -60.5302,18.7821 0,0 29.6788,-23.0574 29.6788,-23.0574 z"
             inkscape:connector-curvature="0" />
        <path
             style="fill:#646464;stroke-width:5;stroke-linecap:round;stroke-linejoin:round;stroke:#000000"
             id="path8399"
             d="m 7097.2353,1794.453 c -25.2934,26.6386 -49.3682,54.4201 -73.4157,82.1832 -15.8314,18.459 -8.3851,9.5542 -22.3967,26.666 0,0 -32.9849,14.028 -32.9849,14.028 l 0,0 c 14.5763,-17.4372 6.857,-8.3872 23.2108,-27.1048 23.5933,-27.0371 47.285,-53.9828 70.5837,-81.2738 0,0 35.0028,-14.4986 35.0028,-14.4986 z"
             inkscape:connector-curvature="0" />
        <path
             style="fill:#646464;stroke-width:5;stroke-linecap:round;stroke-linejoin:round;stroke:#000000"
             id="path8401"
             d="m 7374.0576,1562.1791 c 24.4894,-4.387 48.6656,-10.3567 73.2431,-14.4798 17.1928,-2.5613 8.7887,-1.4278 25.2075,-3.4335 0,0 -29.2435,21.7917 -29.2435,21.7917 l 0,0 c -16.1318,1.9487 -7.8719,0.8504 -24.776,3.3261 -25.05,4.323 -49.6269,10.7199 -74.6175,15.2416 0,0 30.1864,-22.4461 30.1864,-22.4461 z"
             inkscape:connector-curvature="0" />
        <path
             style="fill:#646464;stroke-width:5;stroke-linecap:round;stroke-linejoin:round;stroke:#000000"
             id="path8403"
             d="m 7381.2692,1656.4937 c 25.3765,-1.9463 50.2592,-8.0611 75.152,-13.1376 19.9685,-3.7125 39.8424,-7.8825 59.8166,-11.5663 0,0 -29.0348,21.8973 -29.0348,21.8973 l 0,0 c -19.7701,3.4847 -39.4473,7.4387 -59.1693,11.1827 -25.654,5.2728 -51.2269,11.8026 -77.3932,13.8771 0,0 30.6287,-22.2532 30.6287,-22.2532 z"
             inkscape:connector-curvature="0" />
        <path
             style="fill:#646464;stroke-width:5;stroke-linecap:round;stroke-linejoin:round;stroke:#000000"
             id="path8407"
             d="m 7664.6912,1364.3763 c 9.1443,-4.8616 17.6029,-11.3257 27.433,-14.5849 3.8356,-1.2716 -5.9489,5.4776 -8.7494,8.3904 -4.0584,4.2207 -8.1483,8.4335 -11.8156,12.9981 -19.1485,23.8339 -33.4118,50.3978 -47.955,77.143 -22.4337,45.9087 -42.4372,94.263 -51.4515,144.8656 -1.5507,8.7058 -2.2411,17.543 -3.3616,26.3145 -1.4234,34.0427 3.1097,69.8866 26.1561,96.661 2.7212,3.1616 6.0308,5.765 9.0462,8.6475 13.3576,9.941 26.4383,12.7581 42.7088,8.1634 3.9786,-1.1235 14.9658,-6.9157 11.483,-4.6878 -6.004,3.8407 -12.746,6.3818 -19.1192,9.5726 4.0362,-4.3144 8.7272,-8.0985 12.1085,-12.9432 8.8033,-12.6129 19.2139,-36.4302 24.6427,-49.9912 12.9496,-32.3489 20.3408,-61.8588 27.8878,-95.7019 7.4991,-38.4579 11.9675,-77.5024 11.4844,-116.72 -0.2649,-21.5238 -1.208,-27.1758 -3.1804,-48.0609 -5.7447,-29.0579 -7.4996,-61.08 -23.6101,-86.7942 -1.2156,-0.9973 -2.156,-2.492 -3.6469,-2.9919 -0.963,-0.3229 -1.9635,0.521 -2.9454,0.7816 9.7404,-4.9162 18.9844,-10.9737 29.2214,-14.7487 2.103,-0.7754 -2.8258,3.501 -3.961,5.4337 -2.9908,5.0926 -4.1922,9.2705 -6.173,14.7969 -2.7089,9.7137 -1.5294,4.9197 -3.5736,14.3732 0,0 -33.5035,16.1961 -33.5035,16.1961 l 0,0 c 2.0395,-9.7567 0.8756,-4.8065 3.5231,-14.8431 1.2738,-3.9046 5.6073,-19.3554 8.9319,-21.675 12.3334,-8.6053 28.1644,-28.6717 40.4453,-19.9915 1.5186,1.0733 2.5062,2.7481 3.7592,4.1221 14.9121,27.168 16.8736,59.3514 22.3551,89.2927 4.6516,56.649 2.8398,110.6474 -9.3417,166.4573 -2.3994,11.0355 -4.4551,22.1515 -7.1983,33.1067 -5.4664,21.8324 -11.938,41.8905 -19.9138,62.9148 -3.879,10.2254 -15.9687,39.8097 -22.4151,50.2246 -3.1011,5.0102 -7.5491,9.049 -11.3238,13.5735 -23.3678,14.1146 -49.8789,37.8355 -80.1218,30.1101 -8.6498,-2.2095 -12.4484,-5.9242 -19.5118,-10.9739 -3.0143,-3.1289 -6.3323,-5.9911 -9.0427,-9.3867 -22.5451,-28.2448 -27.1843,-64.7875 -25.8168,-99.7842 1.1057,-8.8912 1.7465,-17.8525 3.3169,-26.6734 9.0376,-50.7609 29.851,-99.8653 51.9366,-146.0803 13.9215,-26.2637 27.4496,-52.9466 45.3055,-76.8537 3.368,-4.5093 7.278,-8.5876 10.9776,-12.8291 2.5355,-2.9069 4.5349,-6.4481 7.7262,-8.6147 12.0104,-8.1541 25.0156,-14.7371 37.5233,-22.1056 0,0 -30.2406,22.8965 -30.2406,22.8965 z"
             inkscape:connector-curvature="0" />
        <path
             style="fill:#646464;stroke-width:5;stroke-linecap:round;stroke-linejoin:round;stroke:#000000"
             id="path8409"
             d="m 6093.8416,1897.2755 c 6.2351,1.5171 12.0824,3.898 17.7934,6.7722 0.7154,0.4937 1.4308,0.9873 2.1461,1.4809 0,0 -19.4751,12.4623 -19.4751,12.4623 l 0,0 c -0.6519,-0.4232 -1.3038,-0.8465 -1.9557,-1.2698 -5.5748,-2.8465 -11.3892,-5.0803 -17.5908,-6.1492 0,0 19.0821,-13.2964 19.0821,-13.2964 z"
             inkscape:connector-curvature="0" />
    </g>
</svg>
