<?xml version="1.0" encoding="UTF-8" standalone="no"?>
<svg
     xmlns:dc="http://purl.org/dc/elements/1.1/"
     xmlns:cc="http://creativecommons.org/ns#"
     xmlns:rdf="http://www.w3.org/1999/02/22-rdf-syntax-ns#"
     xmlns:svg="http://www.w3.org/2000/svg"
     xmlns="http://www.w3.org/2000/svg"
     version="1.1"
     id="svg2"
     viewBox="0 0 2500 1000"
     height="1000"
     width="2500">
    <defs
         id="defs4" />
    <metadata
         id="metadata7">
        <rdf:RDF>
            <cc:Work
                 rdf:about="">
                <dc:format>image/svg+xml</dc:format>
                <dc:type
                     rdf:resource="http://purl.org/dc/dcmitype/StillImage" />
                <dc:title></dc:title>
            </cc:Work>
        </rdf:RDF>
    </metadata>
    <g
         id="layer2">
        <path
             id="path6010"
             d="m 1726.0733,1059.5914 c -27.5615,-113.78819 124.1447,-147.83925 162.4694,-195.69778 38.3248,-47.85852 54.1081,-107.30496 62.6929,-178.29597 8.5849,-70.99101 23.6406,-80.3784 26.0478,-152.21087 2.4072,-71.83248 -41.5714,-120.34923 -10.2789,-149.39519 l 113.3793,-4.72448 c 30.9753,33.89714 -19.585,84.24152 -21.2586,160.63214 -1.6736,76.39061 45.7036,117.23601 31.7285,184.1957 -13.9751,66.95969 -7.9674,112.70358 53.0519,169.50361 61.0193,56.80002 101.8746,72.53261 55.2735,127.40684 z"
             style="fill:#534231;fill-opacity:1;fill-rule:evenodd;stroke:#000000;stroke-width:1px;stroke-linecap:butt;stroke-linejoin:miter;stroke-opacity:1" />
    </g>
    <g
         id="layer4">
        <path
             id="path8821"
             d="m 294.65371,137.30255 c -65.30985,-22.7825 -51.64034,-100.243012 -112.39369,-15.18833 -60.75334,85.05467 -88.092341,113.91251 -62.27217,156.43985 25.82017,42.52734 7.59417,83.53584 103.28068,92.64885 95.68651,9.113 142.77035,51.64034 221.7497,-12.15067 78.97934,-63.79101 83.53584,-63.79101 82.01701,-121.50669 -1.51884,-57.71567 16.70717,-71.38517 -47.08384,-78.97934 -63.79101,-7.59417 -157.95869,0 -185.29769,-21.26367 z"
             style="fill:#eeed00;fill-opacity:1;fill-rule:evenodd;stroke:none;stroke-width:1px;stroke-linecap:butt;stroke-linejoin:miter;stroke-opacity:1" />
        <path
             id="path8823"
             d="m 352.36938,114.52005 c -92.64885,39.48967 -62.27217,53.15917 -126.06318,37.97084 -63.79101,-15.18834 -71.38518,-51.64034 -89.61118,-9.113 -18.226,42.52733 -59.23451,51.64034 -25.82017,101.76184 33.41434,50.12151 77.46051,1.51884 85.05468,63.79101 7.59416,62.27218 -45.56501,56.19684 12.15066,74.42284 57.71568,18.22601 9.11301,65.30985 77.46051,9.11301 68.34751,-56.19685 71.38518,-77.46052 130.61969,-59.23451 59.23451,18.226 151.88335,4.5565 141.25152,-50.12151 -10.63184,-54.67801 24.30133,-15.18833 -37.97084,-69.86634 -62.27218,-54.67801 -147.32685,-95.68651 -167.07169,-98.72418 z"
             style="fill:#eebd63;fill-opacity:1;fill-rule:evenodd;stroke:none;stroke-width:1px;stroke-linecap:butt;stroke-linejoin:miter;stroke-opacity:1" />
        <path
             id="path8827"
             d="m 309.84204,117.55772 c -53.15917,10.63183 -36.452,-33.414343 -94.16768,30.37667 -57.71567,63.791 -75.94167,30.37667 -74.42284,91.13001 1.51883,60.75334 -39.48967,63.79101 22.7825,91.13001 62.27218,27.339 25.82017,18.226 94.16768,44.04617 68.34751,25.82017 103.28068,54.67801 136.69502,33.41434 33.41434,-21.26367 24.30134,-4.5565 48.60267,-51.64034 24.30134,-47.08384 31.89551,-51.64034 37.97084,-91.13001 6.07534,-39.48967 47.08384,-63.79101 0,-88.09235 -47.08384,-24.30133 -44.04617,-13.6695 -106.31835,-36.452 -62.27217,-22.7825 -57.71567,-21.26367 -65.30984,-22.7825 z"
             style="fill:#ee81b7;fill-opacity:1;fill-rule:evenodd;stroke:none;stroke-width:1px;stroke-linecap:butt;stroke-linejoin:miter;stroke-opacity:1" />
        <path
             id="path8829"
             d="m 432.86756,138.82138 c -100.24302,33.41434 -133.65735,51.64034 -195.92953,36.45201 -62.27217,-15.18834 -98.72418,-37.97084 -82.01701,10.63183 16.70717,48.60268 4.5565,77.46051 4.5565,126.06319 0,48.60267 -21.15823,58.73106 28.85783,72.90401 77.66901,22.0089 101.76186,-80.49818 170.10936,-44.04617 68.34751,36.452 82.01702,85.05467 101.76185,39.48967 19.74484,-45.56501 41.00851,-50.12151 19.74484,-95.68652 -21.26367,-45.565 4.5565,-133.65735 -47.08384,-145.80802 z"
             style="fill:#bd81b7;fill-opacity:1;fill-rule:evenodd;stroke:none;stroke-width:1px;stroke-linecap:butt;stroke-linejoin:miter;stroke-opacity:1" />
        <path
             id="path8831"
             d="m 294.65371,102.36938 c -37.07789,30.62956 -83.53585,69.86634 -132.13852,83.53584 -48.60267,13.66951 -100.243015,37.97084 -63.79101,75.94168 36.452,37.97084 85.05468,15.18834 110.87485,59.23451 25.82017,44.04617 -24.30134,71.38518 69.86634,88.09234 94.16768,16.70717 68.34751,19.74484 129.10085,-31.8955 60.75334,-51.64034 160.99636,-28.85784 123.02552,-83.53584 C 493.6209,239.0644 448.05589,283.11057 416.16039,207.16889 384.26488,131.22722 331.7316,71.739817 294.65371,102.36938 Z"
             style="fill:#eac915;fill-opacity:1;fill-rule:evenodd;stroke:none;stroke-width:1px;stroke-linecap:butt;stroke-linejoin:miter;stroke-opacity:1" />
    </g>
    <g
         id="layer3">
        <path
             id="path6021"
             d="m 1832.3664,216.27275 c -70.862,-11.81118 -66.1379,-59.05593 -106.2931,-2.36224 -40.1552,56.6937 -132.2759,80.31607 -61.4139,139.372 70.8622,59.05593 7.0863,80.31606 120.4657,92.12725 113.3793,11.81118 125.1897,-11.81119 170.069,2.36224 44.8793,14.17342 51.9655,40.15803 73.2241,-11.81119 21.2587,-51.96922 77.9484,-122.83633 40.1552,-153.54542 -37.7931,-30.70908 -80.3103,-42.52027 -94.4827,-70.86711 -14.1725,-28.34685 0,-75.59159 -54.3277,-49.60698 -54.3275,25.98461 -49.6034,49.60698 -87.3966,54.33145 z"
             style="fill:#a04b34;fill-opacity:1;fill-rule:evenodd;stroke:#000000;stroke-width:1px;stroke-linecap:butt;stroke-linejoin:miter;stroke-opacity:1" />
        <path
             id="path6023"
             d="m 1799.2975,176.11472 c 0,0 -85.0345,21.26013 -85.0345,-25.98461 0,-47.24474 -80.3104,-47.24474 14.1723,-68.504878 94.4829,-21.260135 165.345,-42.52027 212.5864,-9.448948 47.2414,33.071316 56.6897,63.780406 87.3965,92.127246 30.707,28.34685 40.1552,49.60698 82.6725,30.70909 42.5173,-18.8979 89.7586,-73.22936 94.4829,-4.72448 4.7241,68.50488 30.7068,127.56081 -42.5173,118.11186 -73.2242,-9.44894 -80.3104,-37.79579 -151.1725,-28.34685 -70.8621,9.44895 -125.1897,23.62237 -148.8104,-7.0867 -23.6207,-30.70909 -28.3449,-68.50488 -42.5173,-82.67831 -14.1724,-14.17342 4.7242,4.72448 -21.2586,-14.17342 z"
             style="fill:#a0ceae;fill-opacity:1;fill-rule:evenodd;stroke:#000000;stroke-width:1px;stroke-linecap:butt;stroke-linejoin:miter;stroke-opacity:1" />
        <path
             id="path6025"
             d="m 2266.9873,218.63499 c -127.5517,7.08671 -115.7414,-33.07132 -162.9828,23.62237 -47.2414,56.6937 -92.1207,40.15803 -77.9483,87.40277 14.1724,47.24475 -33.0689,68.50489 25.9828,99.21397 59.0517,30.70908 49.6035,63.7804 101.569,33.07132 51.9656,-30.70909 30.7069,-51.96922 63.7759,-77.95383 33.069,-25.98461 61.4138,23.62237 59.0517,-37.79579 -2.362,-61.41817 -35.431,-82.6783 -14.1724,-94.48949 21.2586,-11.81119 30.707,-16.53566 4.7241,-33.07132 z"
             style="fill:#a0ce34;fill-opacity:1;fill-rule:evenodd;stroke:#000000;stroke-width:1px;stroke-linecap:butt;stroke-linejoin:miter;stroke-opacity:1" />
        <path
             id="path6027"
             d="m 1997.7114,161.9413 c 7.0861,-63.780408 -87.3966,-92.127253 14.1724,-99.213966 101.569,-7.086711 170.069,-73.229353 203.138,-11.811185 33.069,61.418171 18.8966,80.316061 44.8793,108.662911 25.9828,28.34685 54.3277,63.78041 33.0691,87.40278 -21.2587,23.62237 -54.3277,37.79579 -80.3105,2.36224 -25.9827,-35.43357 -23.6206,-94.4895 -87.3965,-82.67831 -63.7759,11.81119 -92.1207,37.7958 -127.5518,-4.72447 z"
             style="fill:#a080ae;fill-opacity:1;fill-rule:evenodd;stroke:#000000;stroke-width:1px;stroke-linecap:butt;stroke-linejoin:miter;stroke-opacity:1" />
        <path
             id="path6037"
             d="m 1815.832,112.33432 c -70.8621,63.7804 -96.8449,2.36223 -80.3104,82.6783 16.5345,80.31607 -11.8104,111.02514 61.4139,125.19857 73.2241,14.17342 30.7068,-30.70909 120.4655,9.44894 89.7586,40.15804 96.8449,108.66292 113.3793,25.98461 16.5345,-82.67829 59.0518,-92.12724 -7.0862,-139.37199 -66.1379,-47.24474 -66.1379,-75.59159 -66.1379,-99.21396 0,-23.622372 7.0861,-51.969219 -68.5,-30.709083 -75.5863,21.260133 -44.8794,21.260133 -73.2242,25.984613 z"
             style="fill:#a0ae34;fill-opacity:1;fill-rule:evenodd;stroke:#000000;stroke-width:1px;stroke-linecap:butt;stroke-linejoin:miter;stroke-opacity:1" />
        <path
             id="path6039"
             d="m 2108.7286,102.88537 c -47.2413,16.53566 -63.7758,-35.433561 -80.3104,47.24474 -16.5344,82.6783 -63.7759,40.15803 -63.7759,94.48949 0,54.33146 -49.6034,66.14264 16.5346,77.95383 66.1379,11.81118 85.0345,70.86711 137.0001,4.72447 51.9655,-66.14264 11.8103,-73.22936 54.3275,-96.85173 42.5173,-23.62237 89.7587,-44.8825 49.6035,-70.86711 -40.1552,-25.98461 -85.0345,-56.69369 -113.3794,-56.69369 z"
             style="fill:#a0aeae;fill-opacity:1;fill-rule:evenodd;stroke:#000000;stroke-width:1px;stroke-linecap:butt;stroke-linejoin:miter;stroke-opacity:1" />
        <path
             id="path6041"
             d="m 1981.1769,39.104962 c -59.0518,14.173424 -94.4828,-4.724476 -80.3105,42.52027 14.1725,47.244748 -7.0861,59.055928 -28.3448,70.867118 -21.2586,11.81118 -59.0517,28.34684 -2.362,51.96922 56.6897,23.62236 73.2241,47.24474 120.4656,25.9846 47.2414,-21.26013 23.6207,-49.60698 73.2241,-40.15803 49.6035,9.44895 73.2242,2.36224 73.2242,-44.8825 0,-47.244748 51.9656,-94.489491 -25.9828,-85.040543 -77.9482,9.44895 -106.2932,-9.448948 -129.9138,-21.260135 z"
             style="fill:#a0456a;fill-opacity:1;fill-rule:evenodd;stroke:#000000;stroke-width:1px;stroke-linecap:butt;stroke-linejoin:miter;stroke-opacity:1" />
    </g>
</svg>
