<?xml version="1.0" encoding="UTF-8" standalone="no"?>
<svg
     xmlns:dc="http://purl.org/dc/elements/1.1/"
     xmlns:cc="http://creativecommons.org/ns#"
     xmlns:rdf="http://www.w3.org/1999/02/22-rdf-syntax-ns#"
     xmlns:svg="http://www.w3.org/2000/svg"
     xmlns="http://www.w3.org/2000/svg"
     width="471.81494"
     height="336.87097"
     viewBox="0 0 471.81494 336.87097"
     id="svg2"
     version="1.1">
    <defs
         id="defs4" />
    <metadata
         id="metadata7">
        <rdf:RDF>
            <cc:Work
                 rdf:about="">
                <dc:format>image/svg+xml</dc:format>
                <dc:type
                     rdf:resource="http://purl.org/dc/dcmitype/StillImage" />
                <dc:title></dc:title>
            </cc:Work>
        </rdf:RDF>
    </metadata>
    <g
         transform="translate(-86.437468,-83.181128)"
         id="layer4">
        <path
             style="fill:#eeed00;fill-rule:evenodd;stroke-width:1px"
             d="m 294.65371,137.30255 c -65.30985,-22.7825 -51.64034,-100.243012 -112.39369,-15.18833 -60.75334,85.05467 -88.092341,113.91251 -62.27217,156.43985 25.82017,42.52734 7.59417,83.53584 103.28068,92.64885 95.68651,9.113 142.77035,51.64034 221.7497,-12.15067 78.97934,-63.79101 83.53584,-63.79101 82.01701,-121.50669 -1.51884,-57.71567 16.70717,-71.38517 -47.08384,-78.97934 -63.79101,-7.59417 -157.95869,0 -185.29769,-21.26367 z"
             id="path8821" />
        <path
             style="fill:#eebd63;fill-rule:evenodd;stroke-width:1px"
             d="m 352.36938,114.52005 c -92.64885,39.48967 -62.27217,53.15917 -126.06318,37.97084 -63.79101,-15.18834 -71.38518,-51.64034 -89.61118,-9.113 -18.226,42.52733 -59.23451,51.64034 -25.82017,101.76184 33.41434,50.12151 77.46051,1.51884 85.05468,63.79101 7.59416,62.27218 -45.56501,56.19684 12.15066,74.42284 57.71568,18.22601 9.11301,65.30985 77.46051,9.11301 68.34751,-56.19685 71.38518,-77.46052 130.61969,-59.23451 59.23451,18.226 151.88335,4.5565 141.25152,-50.12151 -10.63184,-54.67801 24.30133,-15.18833 -37.97084,-69.86634 -62.27218,-54.67801 -147.32685,-95.68651 -167.07169,-98.72418 z"
             id="path8823" />
        <path
             style="fill:#ee81b7;fill-rule:evenodd;stroke-width:1px"
             d="m 309.84204,117.55772 c -53.15917,10.63183 -36.452,-33.414343 -94.16768,30.37667 -57.71567,63.791 -75.94167,30.37667 -74.42284,91.13001 1.51883,60.75334 -39.48967,63.79101 22.7825,91.13001 62.27218,27.339 25.82017,18.226 94.16768,44.04617 68.34751,25.82017 103.28068,54.67801 136.69502,33.41434 33.41434,-21.26367 24.30134,-4.5565 48.60267,-51.64034 24.30134,-47.08384 31.89551,-51.64034 37.97084,-91.13001 6.07534,-39.48967 47.08384,-63.79101 0,-88.09235 -47.08384,-24.30133 -44.04617,-13.6695 -106.31835,-36.452 -62.27217,-22.7825 -57.71567,-21.26367 -65.30984,-22.7825 z"
             id="path8827" />
        <path
             style="fill:#bd81b7;fill-rule:evenodd;stroke-width:1px"
             d="m 432.86756,138.82138 c -100.24302,33.41434 -133.65735,51.64034 -195.92953,36.45201 -62.27217,-15.18834 -98.72418,-37.97084 -82.01701,10.63183 16.70717,48.60268 4.5565,77.46051 4.5565,126.06319 0,48.60267 -21.15823,58.73106 28.85783,72.90401 77.66901,22.0089 101.76186,-80.49818 170.10936,-44.04617 68.34751,36.452 82.01702,85.05467 101.76185,39.48967 19.74484,-45.56501 41.00851,-50.12151 19.74484,-95.68652 -21.26367,-45.565 4.5565,-133.65735 -47.08384,-145.80802 z"
             id="path8829" />
        <path
             style="fill:#eac915;fill-rule:evenodd;stroke-width:1px"
             d="m 294.65371,102.36938 c -37.07789,30.62956 -83.53585,69.86634 -132.13852,83.53584 -48.60267,13.66951 -100.243015,37.97084 -63.79101,75.94168 36.452,37.97084 85.05468,15.18834 110.87485,59.23451 25.82017,44.04617 -24.30134,71.38518 69.86634,88.09234 94.16768,16.70717 68.34751,19.74484 129.10085,-31.8955 60.75334,-51.64034 160.99636,-28.85784 123.02552,-83.53584 C 493.6209,239.0644 448.05589,283.11057 416.16039,207.16889 384.26488,131.22722 331.7316,71.739817 294.65371,102.36938 Z"
             id="path8831" />
    </g>
</svg>
