<?xml version="1.0" encoding="UTF-8" standalone="no"?>
<svg
     xmlns:dc="http://purl.org/dc/elements/1.1/"
     xmlns:cc="http://creativecommons.org/ns#"
     xmlns:rdf="http://www.w3.org/1999/02/22-rdf-syntax-ns#"
     xmlns:svg="http://www.w3.org/2000/svg"
     xmlns="http://www.w3.org/2000/svg"
     xmlns:sodipodi="http://sodipodi.sourceforge.net/DTD/sodipodi-0.dtd"
     xmlns:inkscape="http://www.inkscape.org/namespaces/inkscape"
     version="1.1"
     id="svg2"
     viewBox="0 0 662.76813 1035.6134"
     height="1035.6134"
     width="662.76813"
     inkscape:version="0.91 r13725"
     sodipodi:docname="tree.svg">
    <sodipodi:namedview
         pagecolor="#ffffff"
         bordercolor="#666666"
         borderopacity="1"
         objecttolerance="10"
         gridtolerance="10"
         guidetolerance="10"
         inkscape:pageopacity="0"
         inkscape:pageshadow="2"
         inkscape:window-width="640"
         inkscape:window-height="480"
         id="namedview8143"
         showgrid="false"
         inkscape:zoom="0.1348"
         inkscape:cx="227.5679"
         inkscape:cy="560.12449"
         inkscape:current-layer="svg2"
         fit-margin-top="0"
         fit-margin-left="0"
         fit-margin-right="0"
         fit-margin-bottom="0" />
    <defs
         id="defs4" />
    <metadata
         id="metadata7">
        <rdf:RDF>
            <cc:Work
                 rdf:about="">
                <dc:format>image/svg+xml</dc:format>
                <dc:type
                     rdf:resource="http://purl.org/dc/dcmitype/StillImage" />
                <dc:title></dc:title>
            </cc:Work>
        </rdf:RDF>
    </metadata>
    <g
         id="layer2"
         transform="translate(-1638.1591,-24.511109)">
        <path
             id="path6010"
             d="m 1726.0733,1059.5914 c -27.5615,-113.78819 124.1447,-147.83925 162.4694,-195.69778 38.3248,-47.85852 54.1081,-107.30496 62.6929,-178.29597 8.5849,-70.99101 23.6406,-80.3784 26.0478,-152.21087 2.4072,-71.83248 -41.5714,-120.34923 -10.2789,-149.39519 l 113.3793,-4.72448 c 30.9753,33.89714 -19.585,84.24152 -21.2586,160.63214 -1.6736,76.39061 45.7036,117.23601 31.7285,184.1957 -13.9751,66.95969 -7.9674,112.70358 53.0519,169.50361 61.0193,56.80002 101.8746,72.53261 55.2735,127.40684 z"
             style="fill:#534231;fill-rule:evenodd;stroke:#000000;stroke-width:1px"
             inkscape:connector-curvature="0" />
    </g>
    <g
         id="layer3"
         transform="translate(-1638.1591,-24.511109)">
        <path
             id="path6021"
             d="m 1832.3664,216.27275 c -70.862,-11.81118 -66.1379,-59.05593 -106.2931,-2.36224 -40.1552,56.6937 -132.2759,80.31607 -61.4139,139.372 70.8622,59.05593 7.0863,80.31606 120.4657,92.12725 113.3793,11.81118 125.1897,-11.81119 170.069,2.36224 44.8793,14.17342 51.9655,40.15803 73.2241,-11.81119 21.2587,-51.96922 77.9484,-122.83633 40.1552,-153.54542 -37.7931,-30.70908 -80.3103,-42.52027 -94.4827,-70.86711 -14.1725,-28.34685 0,-75.59159 -54.3277,-49.60698 -54.3275,25.98461 -49.6034,49.60698 -87.3966,54.33145 z"
             style="fill:#a04b34;fill-rule:evenodd;stroke:#000000;stroke-width:1px"
             inkscape:connector-curvature="0" />
        <path
             id="path6023"
             d="m 1799.2975,176.11472 c 0,0 -85.0345,21.26013 -85.0345,-25.98461 0,-47.24474 -80.3104,-47.24474 14.1723,-68.504878 94.4829,-21.260135 165.345,-42.52027 212.5864,-9.448948 47.2414,33.071316 56.6897,63.780406 87.3965,92.127246 30.707,28.34685 40.1552,49.60698 82.6725,30.70909 42.5173,-18.8979 89.7586,-73.22936 94.4829,-4.72448 4.7241,68.50488 30.7068,127.56081 -42.5173,118.11186 -73.2242,-9.44894 -80.3104,-37.79579 -151.1725,-28.34685 -70.8621,9.44895 -125.1897,23.62237 -148.8104,-7.0867 -23.6207,-30.70909 -28.3449,-68.50488 -42.5173,-82.67831 -14.1724,-14.17342 4.7242,4.72448 -21.2586,-14.17342 z"
             style="fill:#a0ceae;fill-rule:evenodd;stroke:#000000;stroke-width:1px"
             inkscape:connector-curvature="0" />
        <path
             id="path6025"
             d="m 2266.9873,218.63499 c -127.5517,7.08671 -115.7414,-33.07132 -162.9828,23.62237 -47.2414,56.6937 -92.1207,40.15803 -77.9483,87.40277 14.1724,47.24475 -33.0689,68.50489 25.9828,99.21397 59.0517,30.70908 49.6035,63.7804 101.569,33.07132 51.9656,-30.70909 30.7069,-51.96922 63.7759,-77.95383 33.069,-25.98461 61.4138,23.62237 59.0517,-37.79579 -2.362,-61.41817 -35.431,-82.6783 -14.1724,-94.48949 21.2586,-11.81119 30.707,-16.53566 4.7241,-33.07132 z"
             style="fill:#a0ce34;fill-rule:evenodd;stroke:#000000;stroke-width:1px"
             inkscape:connector-curvature="0" />
        <path
             id="path6027"
             d="m 1997.7114,161.9413 c 7.0861,-63.780408 -87.3966,-92.127253 14.1724,-99.213966 101.569,-7.086711 170.069,-73.229353 203.138,-11.811185 33.069,61.418171 18.8966,80.316061 44.8793,108.662911 25.9828,28.34685 54.3277,63.78041 33.0691,87.40278 -21.2587,23.62237 -54.3277,37.79579 -80.3105,2.36224 -25.9827,-35.43357 -23.6206,-94.4895 -87.3965,-82.67831 -63.7759,11.81119 -92.1207,37.7958 -127.5518,-4.72447 z"
             style="fill:#a080ae;fill-rule:evenodd;stroke:#000000;stroke-width:1px"
             inkscape:connector-curvature="0" />
        <path
             id="path6037"
             d="m 1815.832,112.33432 c -70.8621,63.7804 -96.8449,2.36223 -80.3104,82.6783 16.5345,80.31607 -11.8104,111.02514 61.4139,125.19857 73.2241,14.17342 30.7068,-30.70909 120.4655,9.44894 89.7586,40.15804 96.8449,108.66292 113.3793,25.98461 16.5345,-82.67829 59.0518,-92.12724 -7.0862,-139.37199 -66.1379,-47.24474 -66.1379,-75.59159 -66.1379,-99.21396 0,-23.622372 7.0861,-51.969219 -68.5,-30.709083 -75.5863,21.260133 -44.8794,21.260133 -73.2242,25.984613 z"
             style="fill:#a0ae34;fill-rule:evenodd;stroke:#000000;stroke-width:1px"
             inkscape:connector-curvature="0" />
        <path
             id="path6039"
             d="m 2108.7286,102.88537 c -47.2413,16.53566 -63.7758,-35.433561 -80.3104,47.24474 -16.5344,82.6783 -63.7759,40.15803 -63.7759,94.48949 0,54.33146 -49.6034,66.14264 16.5346,77.95383 66.1379,11.81118 85.0345,70.86711 137.0001,4.72447 51.9655,-66.14264 11.8103,-73.22936 54.3275,-96.85173 42.5173,-23.62237 89.7587,-44.8825 49.6035,-70.86711 -40.1552,-25.98461 -85.0345,-56.69369 -113.3794,-56.69369 z"
             style="fill:#a0aeae;fill-rule:evenodd;stroke:#000000;stroke-width:1px"
             inkscape:connector-curvature="0" />
        <path
             id="path6041"
             d="m 1981.1769,39.104962 c -59.0518,14.173424 -94.4828,-4.724476 -80.3105,42.52027 14.1725,47.244748 -7.0861,59.055928 -28.3448,70.867118 -21.2586,11.81118 -59.0517,28.34684 -2.362,51.96922 56.6897,23.62236 73.2241,47.24474 120.4656,25.9846 47.2414,-21.26013 23.6207,-49.60698 73.2241,-40.15803 49.6035,9.44895 73.2242,2.36224 73.2242,-44.8825 0,-47.244748 51.9656,-94.489491 -25.9828,-85.040543 -77.9482,9.44895 -106.2932,-9.448948 -129.9138,-21.260135 z"
             style="fill:#a0456a;fill-rule:evenodd;stroke:#000000;stroke-width:1px"
             inkscape:connector-curvature="0" />
    </g>
</svg>
