<svg xmlns="http://www.w3.org/2000/svg" viewBox="0 0 662.77 1035.61"><title>tree</title><path d="M87.91,1035.08C60.35,921.29,212.06,887.24,250.38,839.38s54.11-107.3,62.69-178.3,23.64-80.38,26-152.21-41.57-120.35-10.28-149.4l113.38-4.72c31,33.9-19.58,84.24-21.26,160.63s45.7,117.24,31.73,184.2-8,112.7,53.05,169.5S607.62,941.62,561,996.49Z" transform="translate(0 0)" style="fill:#534231;stroke:#000"/><path d="M194.21,191.76C123.35,180,128.07,132.71,87.91,189.4S-44.36,269.72,26.5,328.77,33.59,409.09,147,420.9,272.16,409.09,317,423.26s52,40.16,73.22-11.81,77.95-122.84,40.16-153.55S350.1,215.38,335.93,187s0-75.59-54.33-49.61S232,187,194.21,191.76h0Z" transform="translate(0 0)" style="fill:#a04b34;stroke:#000"/><path d="M161.14,151.6s-85,21.26-85-26S-4.21,78.37,90.28,57.11s165.34-42.52,212.59-9.45,56.69,63.78,87.4,92.13,40.16,49.61,82.67,30.71,89.76-73.23,94.48-4.72,30.71,127.56-42.52,118.11-80.31-37.8-151.17-28.35-125.19,23.62-148.81-7.09S196.57,180,182.4,165.78s4.72,4.72-21.26-14.17h0Z" transform="translate(0 0)" style="fill:#a0ceae;stroke:#000"/><path d="M628.83,194.12c-127.55,7.09-115.74-33.07-163,23.62s-92.12,40.16-77.95,87.4-33.07,68.5,26,99.21,49.6,63.78,101.57,33.07,30.71-52,63.78-78,61.41,23.62,59.05-37.8S602.85,239,624.1,227.2s30.71-16.54,4.72-33.07h0Z" transform="translate(0 0)" style="fill:#a0ce34;stroke:#000"/><path d="M359.55,137.43c7.09-63.78-87.4-92.13,14.17-99.21S543.79-35,576.86,26.41s18.9,80.32,44.88,108.66,54.33,63.78,33.07,87.4-54.33,37.8-80.31,2.36-23.62-94.49-87.4-82.68S395,180,359.55,137.43Z" transform="translate(0 0)" style="fill:#a080ae;stroke:#000"/><path d="M177.67,87.82c-70.86,63.78-96.84,2.36-80.31,82.68s-11.81,111,61.41,125.2,30.71-30.71,120.47,9.45,96.84,108.66,113.38,26,59.05-92.13-7.09-139.37S319.4,116.17,319.4,92.55s7.09-52-68.5-30.71S206,83.1,177.67,87.82h0Z" transform="translate(0 0)" style="fill:#a0ae34;stroke:#000"/><path d="M470.57,78.37c-47.24,16.54-63.78-35.43-80.31,47.24s-63.78,40.16-63.78,94.49-49.6,66.14,16.53,78,85,70.87,137,4.72,11.81-73.23,54.33-96.85,89.76-44.88,49.6-70.87-85-56.69-113.38-56.69h0Z" transform="translate(0 0)" style="fill:#a0aeae;stroke:#000"/><path d="M343,14.59C284,28.77,248.54,9.87,262.71,57.11s-7.09,59.06-28.34,70.87-59.05,28.35-2.36,52,73.22,47.24,120.47,26,23.62-49.61,73.22-40.16,73.22,2.36,73.22-44.88,52-94.49-26-85S366.64,26.41,343,14.59h0Z" transform="translate(0 0)" style="fill:#a0456a;stroke:#000"/></svg>